<svg xmlns="http://www.w3.org/2000/svg" xmlns:xlink="http://www.w3.org/1999/xlink" viewBox="0 0 447 236"><defs><style>.a{fill:#fff;}.b{opacity:0.65;}.c{fill:#505050;}.d,.g{fill:none;stroke-miterlimit:10;}.d{stroke:#3c3c41;}.e{fill:#3c3c41;}.f{opacity:0.7;isolation:isolate;fill:url(#a);}.g{stroke:#e62323;stroke-linecap:round;stroke-width:2px;}.h{fill:#1e1e1e;}</style><linearGradient id="a" x1="201.88" y1="88.08" x2="201.88" y2="72.87" gradientTransform="matrix(1, 0, 0, -1, 0, 237.28)" gradientUnits="userSpaceOnUse"><stop offset="0" stop-color="#76bc2d"/><stop offset="0.98" stop-color="#5f9724"/><stop offset="1" stop-color="#5e9624"/></linearGradient></defs><rect class="a" width="447" height="236"/><g class="b"><path class="c" d="M446.85.15v235.7H.15V.15h446.7M447,0H0V236H447Z"/></g><polyline class="d" points="395.56 203.72 75.34 203.72 75.34 21.38"/><polygon class="e" points="394.46 199.98 400.94 203.72 394.46 207.46 394.46 199.98"/><polygon class="e" points="79.08 22.48 75.34 16 71.6 22.48 79.08 22.48"/><rect class="a" x="175.64" y="149.2" width="52.47" height="15.21"/><rect class="f" x="175.64" y="149.2" width="52.47" height="15.21"/><path class="a" d="M227.86,149.45v14.72h-52V149.45h52m.5-.5h-53v15.72h53V149Z"/><path d="M228.36,149v15.72h-53V149h53m.5-.5h-54v16.72h54V148.5Z"/><rect class="e" x="76.6" y="156.31" width="1.5" height="1"/><path class="e" d="M396.44,157.31h-3v-1h3Zm-6,0h-3v-1h3Zm-6,0h-3v-1h3Zm-6,0h-3v-1h3Zm-6,0h-3v-1h3Zm-6,0h-3v-1h3Zm-6,0h-3v-1h3Zm-6,0h-3v-1h3Zm-6,0h-3v-1h3Zm-6,0h-3v-1h3Zm-6,0h-3v-1h3Zm-6,0h-3v-1h3Zm-6,0h-3v-1h3Zm-6,0h-3v-1h3Zm-6,0h-3v-1h3Zm-6,0h-3v-1h3Zm-6,0h-3v-1h3Zm-6,0h-3v-1h3Zm-6,0h-3v-1h3Zm-6,0h-3v-1h3Zm-6,0h-3v-1h3Zm-6,0h-3v-1h3Zm-6,0h-3v-1h3Zm-6,0h-3v-1h3Zm-6,0h-3v-1h3Zm-6,0h-3v-1h3Zm-6,0h-3v-1h3Zm-6,0h-3v-1h3Zm-6,0h-3v-1h3Zm-6,0h-3v-1h3Zm-6,0h-3v-1h3Zm-6,0h-3v-1h3Zm-6,0h-3v-1h3Zm-6,0h-3v-1h3Zm-6,0h-3v-1h3Zm-6,0h-3v-1h3Zm-6,0h-3v-1h3Zm-6,0h-3v-1h3Zm-6,0h-3v-1h3Zm-6,0h-3v-1h3Zm-6,0h-3v-1h3Zm-6,0h-3v-1h3Zm-6,0h-3v-1h3Zm-6,0h-3v-1h3Zm-6,0h-3v-1h3Zm-6,0h-3v-1h3Zm-6,0h-3v-1h3Zm-6,0h-3v-1h3Zm-6,0h-3v-1h3Zm-6,0h-3v-1h3Zm-6,0h-3v-1h3Zm-6,0h-3v-1h3Zm-6,0h-3v-1h3Z"/><rect class="e" x="399.44" y="156.31" width="1.5" height="1"/><path class="g" d="M77,62.9s28.4-42.5,63.6-7.3c0,0,13.2,13.2,22,66,0,0,13.2,65,52.8,69.4,0,0,41.5,9.8,72.3-34.2,0,0,37.7-52.8,55.3-61.6,0,0,29.82-21.46,57.2-21.1"/><circle cx="175.39" cy="156.81" r="5"/><circle cx="101.41" cy="156.81" r="5"/><circle cx="327.63" cy="156.81" r="5"/><path class="h" d="M28.67,29.37a5.52,5.52,0,0,1-2.4.45,4,4,0,0,1-3-1.14,4.11,4.11,0,0,1-1.11-3,4.47,4.47,0,0,1,1.24-3.27,4.38,4.38,0,0,1,3.24-1.25,5.85,5.85,0,0,1,2.07.31v1.82a3.7,3.7,0,0,0-1.92-.5,2.58,2.58,0,0,0-1.91.74,2.73,2.73,0,0,0-.73,2,2.67,2.67,0,0,0,.69,1.94,2.43,2.43,0,0,0,1.84.73,3.93,3.93,0,0,0,2-.54Z"/><path class="h" d="M35,29.67H33.21v-.86h0a2,2,0,0,1-1.78,1,1.93,1.93,0,0,1-1.38-.5,1.79,1.79,0,0,1-.5-1.32c0-1.16.69-1.83,2.07-2l1.63-.22c0-.66-.36-1-1.07-1a3.57,3.57,0,0,0-2,.64V24a4.4,4.4,0,0,1,1.06-.35,6.26,6.26,0,0,1,1.22-.15,2.28,2.28,0,0,1,2.55,2,2.66,2.66,0,0,1,0,.63Zm-1.74-2.43v-.41L32.13,27c-.6.08-.9.35-.9.82a.64.64,0,0,0,.22.52.83.83,0,0,0,.59.2,1.11,1.11,0,0,0,.85-.36,1.31,1.31,0,0,0,.33-.94Z"/><path class="h" d="M40.34,25.34a1.63,1.63,0,0,0-.78-.18,1.11,1.11,0,0,0-.94.44,1.92,1.92,0,0,0-.34,1.21v2.86H36.42v-6h1.86v1.12h0a1.58,1.58,0,0,1,1.58-1.22,1.2,1.2,0,0,1,.46.07Z"/><path class="h" d="M43.08,29h0v.69H41.2v-8.9h1.85v3.79h0a2.17,2.17,0,0,1,2-1,2.11,2.11,0,0,1,1.78.79,3.45,3.45,0,0,1,.63,2.18A3.67,3.67,0,0,1,46.73,29a2.38,2.38,0,0,1-2,.91A1.89,1.89,0,0,1,43.08,29ZM43,26.44v.62a1.35,1.35,0,0,0,.34,1,1.06,1.06,0,0,0,.85.38,1.1,1.1,0,0,0,1-.49,2.3,2.3,0,0,0,.35-1.38,1.81,1.81,0,0,0-.32-1.17,1.07,1.07,0,0,0-.91-.42,1.18,1.18,0,0,0-.92.42A1.6,1.6,0,0,0,43,26.44Z"/><path class="h" d="M51.55,29.82A3.24,3.24,0,0,1,49.19,29a3.06,3.06,0,0,1-.86-2.28,3,3,0,0,1,.89-2.33,3.38,3.38,0,0,1,2.41-.84,3.19,3.19,0,0,1,2.35.84,3,3,0,0,1,.85,2.22A3.14,3.14,0,0,1,54,29,3.23,3.23,0,0,1,51.55,29.82Zm.05-4.88a1.24,1.24,0,0,0-1,.46,2.06,2.06,0,0,0-.37,1.27c0,1.16.47,1.73,1.4,1.73S53,27.81,53,26.63,52.49,24.94,51.6,24.94Z"/><path class="h" d="M61.81,29.67H60V26.34c0-.93-.33-1.4-1-1.4a1,1,0,0,0-.79.37,1.46,1.46,0,0,0-.31.94v3.42H56v-6h1.85v.95h0a2.11,2.11,0,0,1,1.93-1.09c1.33,0,2,.82,2,2.47Z"/><path class="h" d="M15,37.12a1.09,1.09,0,0,1-.77-.27,1,1,0,0,1-.3-.69.85.85,0,0,1,.3-.68,1.27,1.27,0,0,1,1.54,0,1,1,0,0,1,0,1.37A1.13,1.13,0,0,1,15,37.12Zm.91,7H14v-6h1.85Z"/><path class="h" d="M23.21,44.07H21.37V40.74c0-.93-.34-1.4-1-1.4a1,1,0,0,0-.79.37,1.46,1.46,0,0,0-.31.94v3.42H17.42v-6h1.85v1h0A2.11,2.11,0,0,1,21.2,38c1.33,0,2,.82,2,2.47Z"/><path class="h" d="M28.24,44a2.65,2.65,0,0,1-1.24.22,1.76,1.76,0,0,1-2-1.48,1.51,1.51,0,0,1,0-.52V39.44H24V38.07h1V36.78l1.85-.53v1.82H28.2v1.37H26.89v2.42c0,.63.25.94.74.94a1.19,1.19,0,0,0,.61-.17Z"/><path class="h" d="M34.66,41.6H30.75c.06.87.61,1.31,1.64,1.31a3.23,3.23,0,0,0,1.74-.47v1.33a4.47,4.47,0,0,1-2.16.45,2.8,2.8,0,0,1-3.06-2.5,4.17,4.17,0,0,1,0-.5,3.2,3.2,0,0,1,.87-2.37A2.89,2.89,0,0,1,31.91,38a2.61,2.61,0,0,1,2,.78,3,3,0,0,1,.72,2.11Zm-1.72-1.14c0-.86-.34-1.29-1-1.29a1,1,0,0,0-.77.37,1.74,1.74,0,0,0-.4.92Z"/><path class="h" d="M41.63,44.07H39.79V40.74c0-.93-.33-1.4-1-1.4a1,1,0,0,0-.79.37,1.46,1.46,0,0,0-.31.94v3.42H35.84v-6h1.85v1h0A2.11,2.11,0,0,1,39.62,38c1.33,0,2,.82,2,2.47Z"/><path class="h" d="M42.82,43.92v-1.5a4.38,4.38,0,0,0,.91.41,3.14,3.14,0,0,0,.86.13,1.89,1.89,0,0,0,.78-.13.43.43,0,0,0,.28-.41.39.39,0,0,0-.13-.3.94.94,0,0,0-.33-.2,3.29,3.29,0,0,0-.44-.16,1.26,1.26,0,0,1-.46-.16,4.51,4.51,0,0,1-.63-.29A1.44,1.44,0,0,1,43.2,41a1.5,1.5,0,0,1-.28-.47,1.75,1.75,0,0,1-.1-.64A1.61,1.61,0,0,1,43,39a1.85,1.85,0,0,1,.59-.59,2.43,2.43,0,0,1,.83-.34,4.2,4.2,0,0,1,1-.11,5.29,5.29,0,0,1,.8.06,5.58,5.58,0,0,1,.81.18v1.4a2.9,2.9,0,0,0-.75-.31,3,3,0,0,0-.79-.1h-.34a1.31,1.31,0,0,0-.28.09.53.53,0,0,0-.2.16.44.44,0,0,0-.07.22.43.43,0,0,0,.11.28.76.76,0,0,0,.27.2l.38.16.41.13a5.65,5.65,0,0,1,.67.29,2,2,0,0,1,.51.35,1.22,1.22,0,0,1,.33.48,1.84,1.84,0,0,1,.12.66,1.71,1.71,0,0,1-.23.91,2,2,0,0,1-.62.62,3,3,0,0,1-.88.34,4.79,4.79,0,0,1-1,.11A5.29,5.29,0,0,1,42.82,43.92Z"/><path class="h" d="M49.46,37.12a1.11,1.11,0,0,1-.76-.27,1,1,0,0,1-.3-.69.85.85,0,0,1,.3-.68,1.25,1.25,0,0,1,1.53,0,.93.93,0,0,1,.06,1.31l-.06.06A1.09,1.09,0,0,1,49.46,37.12Zm.92,7H48.53v-6h1.85Z"/><path class="h" d="M55.48,44a2.65,2.65,0,0,1-1.24.22,1.77,1.77,0,0,1-2-1.51,2,2,0,0,1,0-.49V39.44h-1V38.07h1V36.78l1.85-.53v1.82h1.35v1.37H54.13v2.42c0,.63.25.94.74.94a1.19,1.19,0,0,0,.61-.17Z"/><path class="h" d="M62.53,38.07,60.1,44.55c-.59,1.56-1.47,2.34-2.65,2.34a3.46,3.46,0,0,1-1.11-.15V45.26a1.51,1.51,0,0,0,.8.22,1,1,0,0,0,1-.67l.32-.75-2.44-6h2l1.12,3.65a4.64,4.64,0,0,1,.16.81h0a5.35,5.35,0,0,1,.19-.79l1.13-3.67Z"/><path class="h" d="M415.09,200.74h-2.4v6.86h-1.9v-6.86h-2.38V199.2h6.68Z"/><path class="h" d="M417,200.65a1.1,1.1,0,0,1-.77-.28.92.92,0,0,1,0-1.36,1.13,1.13,0,0,1,.77-.26,1.08,1.08,0,0,1,.77.26.85.85,0,0,1,.3.68.87.87,0,0,1-.3.69A1.09,1.09,0,0,1,417,200.65Zm.91,6.95h-1.85v-6h1.85Z"/><path class="h" d="M429,207.6h-1.85v-3.42c0-.87-.32-1.31-1-1.31a.88.88,0,0,0-.74.39,1.68,1.68,0,0,0-.29,1v3.36h-1.85v-3.46c0-.84-.32-1.27-.95-1.27a.89.89,0,0,0-.75.38,1.68,1.68,0,0,0-.29,1v3.33h-1.85v-6h1.85v.94h0a2.3,2.3,0,0,1,.8-.78,2.14,2.14,0,0,1,1.13-.31,1.74,1.74,0,0,1,1.75,1.12,2.21,2.21,0,0,1,2-1.12c1.31,0,2,.81,2,2.42Z"/><path class="h" d="M435.85,205.13h-3.91c.06.87.61,1.3,1.64,1.3a3.22,3.22,0,0,0,1.74-.46v1.33a4.47,4.47,0,0,1-2.16.45,2.81,2.81,0,0,1-3.06-3.06,3.17,3.17,0,0,1,.87-2.36,2.86,2.86,0,0,1,2.13-.88,2.58,2.58,0,0,1,2,.78,3,3,0,0,1,.72,2.12ZM434.13,204c0-.86-.34-1.29-1-1.29a1,1,0,0,0-.77.37,1.65,1.65,0,0,0-.39.92Z"/><path class="h" d="M93,218.56a7.81,7.81,0,0,1-.19,1.87,4.58,4.58,0,0,1-.55,1.38,2.59,2.59,0,0,1-.89.85,2.5,2.5,0,0,1-2.32,0,2.47,2.47,0,0,1-.83-.81,4.13,4.13,0,0,1-.52-1.31,8.2,8.2,0,0,1-.17-1.78,9.6,9.6,0,0,1,.18-2,4.73,4.73,0,0,1,.54-1.41,2.36,2.36,0,0,1,2.11-1.15Q93,214.26,93,218.56Zm-1,.1c0-2.39-.57-3.59-1.71-3.59s-1.8,1.22-1.8,3.65c0,2.27.59,3.41,1.77,3.41S92,221,92,218.66Z"/><path class="h" d="M99.66,218.56a7.81,7.81,0,0,1-.19,1.87,4.25,4.25,0,0,1-.55,1.38,2.56,2.56,0,0,1-.88.85,2.49,2.49,0,0,1-1.19.29,2.36,2.36,0,0,1-1.13-.28,2.5,2.5,0,0,1-.84-.81,4.46,4.46,0,0,1-.51-1.31,7.58,7.58,0,0,1-.18-1.78,9,9,0,0,1,.19-2,4.39,4.39,0,0,1,.54-1.41,2.34,2.34,0,0,1,2.1-1.15Q99.66,214.26,99.66,218.56Zm-1,.1c0-2.39-.57-3.59-1.7-3.59s-1.8,1.22-1.8,3.65c0,2.27.58,3.41,1.76,3.41s1.76-1.13,1.76-3.47Z"/><path class="h" d="M101.41,218a.65.65,0,1,1,0-1.3.59.59,0,0,1,.47.19.63.63,0,0,1,.2.46.67.67,0,0,1-.67.65Zm0,5a.66.66,0,0,1-.46-.19.68.68,0,0,1-.19-.47.66.66,0,0,1,.19-.46.67.67,0,0,1,1.13.46.63.63,0,0,1-.2.47.66.66,0,0,1-.47.12Z"/><path class="h" d="M108.64,218.56a8.36,8.36,0,0,1-.19,1.87,4.58,4.58,0,0,1-.55,1.38,2.68,2.68,0,0,1-.89.85,2.49,2.49,0,0,1-1.19.29,2.36,2.36,0,0,1-1.13-.28,2.5,2.5,0,0,1-.84-.81,4.46,4.46,0,0,1-.51-1.31,7.58,7.58,0,0,1-.18-1.78,9.61,9.61,0,0,1,.19-2,4.39,4.39,0,0,1,.54-1.41,2.3,2.3,0,0,1,.89-.86,2.43,2.43,0,0,1,1.21-.29C107.76,214.24,108.65,215.69,108.64,218.56Zm-1,.1c0-2.39-.57-3.59-1.7-3.59s-1.8,1.22-1.8,3.65c0,2.27.59,3.41,1.76,3.41s1.75-1.13,1.75-3.47Z"/><path class="h" d="M115.33,218.56a7.81,7.81,0,0,1-.19,1.87,4.58,4.58,0,0,1-.55,1.38,2.59,2.59,0,0,1-.89.85,2.5,2.5,0,0,1-2.32,0,2.47,2.47,0,0,1-.83-.81,4.13,4.13,0,0,1-.52-1.31,8.2,8.2,0,0,1-.17-1.78,9.6,9.6,0,0,1,.18-2,4.73,4.73,0,0,1,.54-1.41,2.36,2.36,0,0,1,2.11-1.15Q115.33,214.26,115.33,218.56Zm-1,.1c0-2.39-.57-3.59-1.71-3.59s-1.8,1.22-1.8,3.65c0,2.27.59,3.41,1.77,3.41s1.76-1.13,1.76-3.47Z"/><path class="h" d="M167.84,218.56a7.81,7.81,0,0,1-.19,1.87,4.25,4.25,0,0,1-.55,1.38,2.56,2.56,0,0,1-.88.85A2.49,2.49,0,0,1,165,223a2.36,2.36,0,0,1-1.13-.28,2.5,2.5,0,0,1-.84-.81,4.46,4.46,0,0,1-.51-1.31,7.58,7.58,0,0,1-.18-1.78,9,9,0,0,1,.19-2,4.39,4.39,0,0,1,.54-1.41,2.34,2.34,0,0,1,2.1-1.15Q167.84,214.26,167.84,218.56Zm-1,.1c0-2.39-.57-3.59-1.71-3.59s-1.79,1.22-1.79,3.65c0,2.27.58,3.41,1.76,3.41s1.76-1.13,1.76-3.47Z"/><path class="h" d="M172.13,222.8h-1v-7.26c-.08.07-.19.16-.33.26a4.62,4.62,0,0,1-.48.28c-.18.09-.36.18-.56.26a4,4,0,0,1-.58.2v-1a4.08,4.08,0,0,0,.67-.23,6.44,6.44,0,0,0,.7-.34c.23-.12.44-.25.65-.38a5.12,5.12,0,0,0,.52-.4h.37Z"/><path class="h" d="M174.91,218a.65.65,0,1,1,0-1.3.59.59,0,0,1,.47.19.58.58,0,0,1,.19.46.66.66,0,0,1-.19.46A.59.59,0,0,1,174.91,218Zm0,5a.66.66,0,0,1-.46-.19.68.68,0,0,1-.19-.47.66.66,0,0,1,.19-.46.63.63,0,0,1,.9,0l0,0a.66.66,0,0,1,.19.46.63.63,0,0,1-.19.47.66.66,0,0,1-.47.12Z"/><path class="h" d="M180.64,216.6a1.69,1.69,0,0,0-.12-.67,1.29,1.29,0,0,0-.82-.76,1.81,1.81,0,0,0-.61-.1,2,2,0,0,0-.55.08,2.57,2.57,0,0,0-.52.21,3.17,3.17,0,0,0-.49.32,4.47,4.47,0,0,0-.45.42v-1a2.77,2.77,0,0,1,.91-.6,3.17,3.17,0,0,1,1.22-.21,2.82,2.82,0,0,1,1,.15,2.2,2.2,0,0,1,.76.43,2.11,2.11,0,0,1,.51.71,2.46,2.46,0,0,1,.18,1,3.89,3.89,0,0,1-.11.9,3.08,3.08,0,0,1-.35.76,3.79,3.79,0,0,1-.58.69,9,9,0,0,1-.83.67l-1,.72a3.59,3.59,0,0,0-.61.56,1.56,1.56,0,0,0-.32.52,2,2,0,0,0-.09.6H182v.86h-5.18v-.42a3.72,3.72,0,0,1,.11-.94,2.29,2.29,0,0,1,.39-.78A3.83,3.83,0,0,1,178,220c.34-.29.7-.57,1.07-.83a6.51,6.51,0,0,0,.76-.63,3.19,3.19,0,0,0,.5-.6,1.94,1.94,0,0,0,.26-.61A2.41,2.41,0,0,0,180.64,216.6Z"/><path class="h" d="M188,220.42a2.49,2.49,0,0,1-.21,1,2.16,2.16,0,0,1-.61.79,2.75,2.75,0,0,1-.93.52,3.76,3.76,0,0,1-1.2.18,3.54,3.54,0,0,1-1.91-.46v-1a3.09,3.09,0,0,0,2.74.56,2,2,0,0,0,.61-.33,1.39,1.39,0,0,0,.39-.51,1.71,1.71,0,0,0,.14-.67c0-1.1-.78-1.65-2.35-1.65H184V218h.66c1.38,0,2.07-.52,2.07-1.55s-.52-1.43-1.58-1.43a2.73,2.73,0,0,0-1.67.6v-.93a3.65,3.65,0,0,1,1.91-.48,3.06,3.06,0,0,1,1,.14,2.29,2.29,0,0,1,.73.41,2,2,0,0,1,.47.64,2,2,0,0,1,.17.81,2,2,0,0,1-1.68,2.13h0a2.72,2.72,0,0,1,.79.21,2.21,2.21,0,0,1,.63.41,1.93,1.93,0,0,1,.56,1.38Z"/><path class="h" d="M319.33,218.56a9,9,0,0,1-.19,1.87,4.58,4.58,0,0,1-.55,1.38,2.59,2.59,0,0,1-.89.85,2.5,2.5,0,0,1-2.32,0,2.47,2.47,0,0,1-.83-.81,4.13,4.13,0,0,1-.52-1.31,8.2,8.2,0,0,1-.17-1.78,9.6,9.6,0,0,1,.18-2,4.39,4.39,0,0,1,.54-1.41,2.36,2.36,0,0,1,2.11-1.15Q319.33,214.26,319.33,218.56Zm-1,.1c0-2.39-.56-3.59-1.7-3.59s-1.8,1.22-1.8,3.65c0,2.27.59,3.41,1.76,3.41s1.75-1.13,1.75-3.47Z"/><path class="h" d="M320.42,220.46a2.19,2.19,0,0,1,.11-.67,2.38,2.38,0,0,1,1.44-1.55,2.39,2.39,0,0,1-.86-.78,1.82,1.82,0,0,1-.33-1.06,2,2,0,0,1,.68-1.53,2.21,2.21,0,0,1,.75-.45,2.88,2.88,0,0,1,1.88,0,2.21,2.21,0,0,1,.75.45,2.07,2.07,0,0,1,.67,1.53,1.82,1.82,0,0,1-.33,1.06,2.54,2.54,0,0,1-.85.78,2.37,2.37,0,0,1,1.13.92,2.43,2.43,0,0,1,.3.63,2.19,2.19,0,0,1,.11.67,2.66,2.66,0,0,1-.2,1,2.32,2.32,0,0,1-.56.79,2.56,2.56,0,0,1-.86.5,3.32,3.32,0,0,1-2.2,0,2.56,2.56,0,0,1-.86-.5,2.35,2.35,0,0,1-.57-.79A2.66,2.66,0,0,1,320.42,220.46Zm1-.09a2.16,2.16,0,0,0,.12.71,1.7,1.7,0,0,0,.34.54,1.62,1.62,0,0,0,.54.35,2,2,0,0,0,.69.12,1.79,1.79,0,0,0,.68-.13,1.46,1.46,0,0,0,.54-.34,1.73,1.73,0,0,0,.35-.54,2.16,2.16,0,0,0,.12-.71,1.82,1.82,0,0,0-.12-.65,1.74,1.74,0,0,0-.34-.55,1.64,1.64,0,0,0-.53-.37,1.68,1.68,0,0,0-.7-.13,1.7,1.7,0,0,0-.67.13,1.58,1.58,0,0,0-.53.35,1.76,1.76,0,0,0-.36.54,2,2,0,0,0-.09.68Zm.3-3.89a1.46,1.46,0,0,0,.11.55,1.37,1.37,0,0,0,.3.45,1.9,1.9,0,0,0,.44.3,1.44,1.44,0,0,0,.54.1,1.24,1.24,0,0,0,.54-.11,1.37,1.37,0,0,0,.45-.3,1.6,1.6,0,0,0,.29-.44,1.3,1.3,0,0,0,.12-.55,1.55,1.55,0,0,0-.11-.56,1.37,1.37,0,0,0-.3-.45,1.63,1.63,0,0,0-.44-.3,1.45,1.45,0,0,0-.55-.1,1.37,1.37,0,0,0-1,.41,1.34,1.34,0,0,0-.29.45,1.69,1.69,0,0,0-.06.55Z"/><path class="h" d="M327.5,218a.65.65,0,1,1,0-1.3.59.59,0,0,1,.47.19.63.63,0,0,1,.2.46.67.67,0,0,1-.67.65Zm0,5a.66.66,0,0,1-.46-.19.68.68,0,0,1-.19-.47.66.66,0,0,1,.19-.46.67.67,0,0,1,1.13.46.63.63,0,0,1-.2.47.66.66,0,0,1-.47.12Z"/><path class="h" d="M334.72,218.56a7.81,7.81,0,0,1-.19,1.87,4.25,4.25,0,0,1-.55,1.38,2.56,2.56,0,0,1-.88.85,2.49,2.49,0,0,1-1.19.29,2.36,2.36,0,0,1-1.13-.28,2.5,2.5,0,0,1-.84-.81,4.46,4.46,0,0,1-.51-1.31,7.58,7.58,0,0,1-.18-1.78,9,9,0,0,1,.19-2,4.39,4.39,0,0,1,.54-1.41,2.34,2.34,0,0,1,2.1-1.15Q334.72,214.26,334.72,218.56Zm-1,.1c0-2.39-.57-3.59-1.7-3.59s-1.8,1.22-1.8,3.65c0,2.27.58,3.41,1.76,3.41s1.76-1.13,1.76-3.47Z"/><path class="h" d="M341.42,218.56a7.81,7.81,0,0,1-.19,1.87,4.58,4.58,0,0,1-.55,1.38,2.59,2.59,0,0,1-.89.85,2.5,2.5,0,0,1-2.32,0,2.47,2.47,0,0,1-.83-.81,4.13,4.13,0,0,1-.52-1.31,8.2,8.2,0,0,1-.17-1.78,9.6,9.6,0,0,1,.18-2,4.39,4.39,0,0,1,.54-1.41,2.36,2.36,0,0,1,2.11-1.15Q341.42,214.26,341.42,218.56Zm-1,.1c0-2.39-.56-3.59-1.7-3.59s-1.8,1.22-1.8,3.65c0,2.27.59,3.41,1.76,3.41s1.75-1.13,1.75-3.47Z"/><path class="h" d="M68.31,201a8.36,8.36,0,0,1-.19,1.87,4.58,4.58,0,0,1-.55,1.38,2.59,2.59,0,0,1-.89.85,2.49,2.49,0,0,1-1.19.29,2.36,2.36,0,0,1-1.13-.28,2.47,2.47,0,0,1-.83-.81A4.1,4.1,0,0,1,63,203a7.58,7.58,0,0,1-.18-1.78,9.84,9.84,0,0,1,.19-1.95,4.39,4.39,0,0,1,.54-1.41,2.36,2.36,0,0,1,2.11-1.15Q68.32,196.67,68.31,201Zm-1,.1c0-2.39-.57-3.59-1.7-3.59s-1.8,1.22-1.8,3.65c0,2.27.59,3.41,1.76,3.41s1.75-1.2,1.75-3.51Z"/><path class="h" d="M53.92,161.2H53v-7.26l-.32.26a4.62,4.62,0,0,1-.48.28l-.56.26a4,4,0,0,1-.58.2v-1a5.3,5.3,0,0,0,.67-.23,6.44,6.44,0,0,0,.7-.34c.23-.12.44-.25.64-.38a5.25,5.25,0,0,0,.53-.4H54Z"/><path class="h" d="M61.61,157a7.81,7.81,0,0,1-.19,1.87,4.25,4.25,0,0,1-.55,1.38,2.56,2.56,0,0,1-.88.85,2.39,2.39,0,0,1-1.2.29,2.3,2.3,0,0,1-1.12-.28,2.5,2.5,0,0,1-.84-.81,4.46,4.46,0,0,1-.51-1.31,7.58,7.58,0,0,1-.18-1.78,8.49,8.49,0,0,1,.19-2,4.39,4.39,0,0,1,.54-1.41,2.42,2.42,0,0,1,.88-.86A2.47,2.47,0,0,1,59,152.7C60.73,152.67,61.61,154.11,61.61,157Zm-1,.1c0-2.39-.57-3.59-1.71-3.59s-1.8,1.22-1.8,3.65c0,2.27.59,3.41,1.77,3.41s1.76-1.2,1.76-3.51Z"/><path class="h" d="M68.31,157a8.36,8.36,0,0,1-.19,1.87,4.58,4.58,0,0,1-.55,1.38,2.59,2.59,0,0,1-.89.85,2.49,2.49,0,0,1-1.19.29,2.36,2.36,0,0,1-1.13-.28,2.47,2.47,0,0,1-.83-.81A4.1,4.1,0,0,1,63,159a7.58,7.58,0,0,1-.18-1.78,9.84,9.84,0,0,1,.19-1.95,4.39,4.39,0,0,1,.54-1.41,2.36,2.36,0,0,1,2.11-1.15Q68.32,152.67,68.31,157Zm-1,.1c0-2.39-.57-3.59-1.7-3.59s-1.8,1.22-1.8,3.65c0,2.27.59,3.41,1.76,3.41s1.75-1.2,1.75-3.51Z"/><path class="h" d="M54.09,58.9v5.55h1.08v.88H54.09v2h-1v-2h-4v-.84q.55-.61,1.11-1.32t1.08-1.44c.34-.48.66-1,.95-1.45A11.34,11.34,0,0,0,53,58.9Zm-3.81,5.55h2.86V60.33c-.29.51-.57,1-.83,1.37s-.51.77-.75,1.1-.46.62-.68.89Z"/><path class="h" d="M61.61,63.06a7.81,7.81,0,0,1-.19,1.87,4.25,4.25,0,0,1-.55,1.38,2.56,2.56,0,0,1-.88.85,2.39,2.39,0,0,1-1.2.29,2.3,2.3,0,0,1-1.12-.28,2.5,2.5,0,0,1-.84-.81,4.46,4.46,0,0,1-.51-1.31,7.58,7.58,0,0,1-.18-1.78,9,9,0,0,1,.19-2,4.39,4.39,0,0,1,.54-1.41,2.42,2.42,0,0,1,.88-.86A2.46,2.46,0,0,1,59,58.76Q61.61,58.76,61.61,63.06Zm-1,.1c0-2.39-.57-3.59-1.71-3.59s-1.8,1.22-1.8,3.65c0,2.27.59,3.41,1.77,3.41s1.76-1.16,1.76-3.47Z"/><path class="h" d="M68.31,63.06a8.36,8.36,0,0,1-.19,1.87,4.58,4.58,0,0,1-.55,1.38,2.59,2.59,0,0,1-.89.85,2.49,2.49,0,0,1-1.19.29,2.36,2.36,0,0,1-1.13-.28,2.47,2.47,0,0,1-.83-.81A4.15,4.15,0,0,1,63,65.05a7.58,7.58,0,0,1-.18-1.78,9.61,9.61,0,0,1,.19-2,4.39,4.39,0,0,1,.54-1.41,2.36,2.36,0,0,1,2.11-1.15Q68.32,58.76,68.31,63.06Zm-1,.1c0-2.39-.57-3.59-1.7-3.59s-1.8,1.22-1.8,3.65c0,2.27.59,3.41,1.76,3.41s1.75-1.16,1.75-3.47Z"/><rect class="a" width="447" height="236"/><g class="b"><path class="c" d="M446.85.15v235.7H.15V.15h446.7M447,0H0V236H447Z"/></g><polyline class="d" points="395.56 203.72 75.34 203.72 75.34 21.38"/><polygon class="e" points="394.46 199.98 400.94 203.72 394.46 207.46 394.46 199.98"/><polygon class="e" points="79.08 22.48 75.34 16 71.6 22.48 79.08 22.48"/><rect class="a" x="175.64" y="149.2" width="52.47" height="15.21"/><rect class="f" x="175.64" y="149.2" width="52.47" height="15.21"/><path class="a" d="M227.86,149.45v14.72h-52V149.45h52m.5-.5h-53v15.72h53V149Z"/><path d="M228.36,149v15.72h-53V149h53m.5-.5h-54v16.72h54V148.5Z"/><rect class="e" x="76.6" y="156.31" width="1.5" height="1"/><path class="e" d="M396.44,157.31h-3v-1h3Zm-6,0h-3v-1h3Zm-6,0h-3v-1h3Zm-6,0h-3v-1h3Zm-6,0h-3v-1h3Zm-6,0h-3v-1h3Zm-6,0h-3v-1h3Zm-6,0h-3v-1h3Zm-6,0h-3v-1h3Zm-6,0h-3v-1h3Zm-6,0h-3v-1h3Zm-6,0h-3v-1h3Zm-6,0h-3v-1h3Zm-6,0h-3v-1h3Zm-6,0h-3v-1h3Zm-6,0h-3v-1h3Zm-6,0h-3v-1h3Zm-6,0h-3v-1h3Zm-6,0h-3v-1h3Zm-6,0h-3v-1h3Zm-6,0h-3v-1h3Zm-6,0h-3v-1h3Zm-6,0h-3v-1h3Zm-6,0h-3v-1h3Zm-6,0h-3v-1h3Zm-6,0h-3v-1h3Zm-6,0h-3v-1h3Zm-6,0h-3v-1h3Zm-6,0h-3v-1h3Zm-6,0h-3v-1h3Zm-6,0h-3v-1h3Zm-6,0h-3v-1h3Zm-6,0h-3v-1h3Zm-6,0h-3v-1h3Zm-6,0h-3v-1h3Zm-6,0h-3v-1h3Zm-6,0h-3v-1h3Zm-6,0h-3v-1h3Zm-6,0h-3v-1h3Zm-6,0h-3v-1h3Zm-6,0h-3v-1h3Zm-6,0h-3v-1h3Zm-6,0h-3v-1h3Zm-6,0h-3v-1h3Zm-6,0h-3v-1h3Zm-6,0h-3v-1h3Zm-6,0h-3v-1h3Zm-6,0h-3v-1h3Zm-6,0h-3v-1h3Zm-6,0h-3v-1h3Zm-6,0h-3v-1h3Zm-6,0h-3v-1h3Zm-6,0h-3v-1h3Z"/><rect class="e" x="399.44" y="156.31" width="1.5" height="1"/><path class="g" d="M77,62.9s28.4-42.5,63.6-7.3c0,0,13.2,13.2,22,66,0,0,13.2,65,52.8,69.4,0,0,41.5,9.8,72.3-34.2,0,0,37.7-52.8,55.3-61.6,0,0,29.82-21.46,57.2-21.1"/><circle cx="175.39" cy="156.81" r="5"/><circle cx="101.41" cy="156.81" r="5"/><circle cx="327.63" cy="156.81" r="5"/><path class="h" d="M68.31,201a8.36,8.36,0,0,1-.19,1.87,4.58,4.58,0,0,1-.55,1.38,2.59,2.59,0,0,1-.89.85,2.49,2.49,0,0,1-1.19.29,2.36,2.36,0,0,1-1.13-.28,2.47,2.47,0,0,1-.83-.81A4.1,4.1,0,0,1,63,203a7.58,7.58,0,0,1-.18-1.78,9.84,9.84,0,0,1,.19-1.95,4.39,4.39,0,0,1,.54-1.41,2.36,2.36,0,0,1,2.11-1.15Q68.32,196.67,68.31,201Zm-1,.1c0-2.39-.57-3.59-1.7-3.59s-1.8,1.22-1.8,3.65c0,2.27.59,3.41,1.76,3.41s1.75-1.2,1.75-3.51Z"/><path class="h" d="M53.92,161.2H53v-7.26l-.32.26a4.62,4.62,0,0,1-.48.28l-.56.26a4,4,0,0,1-.58.2v-1a5.3,5.3,0,0,0,.67-.23,6.44,6.44,0,0,0,.7-.34c.23-.12.44-.25.64-.38a5.25,5.25,0,0,0,.53-.4H54Z"/><path class="h" d="M61.61,157a7.81,7.81,0,0,1-.19,1.87,4.25,4.25,0,0,1-.55,1.38,2.56,2.56,0,0,1-.88.85,2.39,2.39,0,0,1-1.2.29,2.3,2.3,0,0,1-1.12-.28,2.5,2.5,0,0,1-.84-.81,4.46,4.46,0,0,1-.51-1.31,7.58,7.58,0,0,1-.18-1.78,8.49,8.49,0,0,1,.19-2,4.39,4.39,0,0,1,.54-1.41,2.42,2.42,0,0,1,.88-.86A2.47,2.47,0,0,1,59,152.7C60.73,152.67,61.61,154.11,61.61,157Zm-1,.1c0-2.39-.57-3.59-1.71-3.59s-1.8,1.22-1.8,3.65c0,2.27.59,3.41,1.77,3.41s1.76-1.2,1.76-3.51Z"/><path class="h" d="M68.31,157a8.36,8.36,0,0,1-.19,1.87,4.58,4.58,0,0,1-.55,1.38,2.59,2.59,0,0,1-.89.85,2.49,2.49,0,0,1-1.19.29,2.36,2.36,0,0,1-1.13-.28,2.47,2.47,0,0,1-.83-.81A4.1,4.1,0,0,1,63,159a7.58,7.58,0,0,1-.18-1.78,9.84,9.84,0,0,1,.19-1.95,4.39,4.39,0,0,1,.54-1.41,2.36,2.36,0,0,1,2.11-1.15Q68.32,152.67,68.31,157Zm-1,.1c0-2.39-.57-3.59-1.7-3.59s-1.8,1.22-1.8,3.65c0,2.27.59,3.41,1.76,3.41s1.75-1.2,1.75-3.51Z"/><path class="h" d="M54.09,58.9v5.55h1.08v.88H54.09v2h-1v-2h-4v-.84q.55-.61,1.11-1.32t1.08-1.44c.34-.48.66-1,.95-1.45A11.34,11.34,0,0,0,53,58.9Zm-3.81,5.55h2.86V60.33c-.29.51-.57,1-.83,1.37s-.51.77-.75,1.1-.46.62-.68.89Z"/><path class="h" d="M61.61,63.06a7.81,7.81,0,0,1-.19,1.87,4.25,4.25,0,0,1-.55,1.38,2.56,2.56,0,0,1-.88.85,2.39,2.39,0,0,1-1.2.29,2.3,2.3,0,0,1-1.12-.28,2.5,2.5,0,0,1-.84-.81,4.46,4.46,0,0,1-.51-1.31,7.58,7.58,0,0,1-.18-1.78,9,9,0,0,1,.19-2,4.39,4.39,0,0,1,.54-1.41,2.42,2.42,0,0,1,.88-.86A2.46,2.46,0,0,1,59,58.76Q61.61,58.76,61.61,63.06Zm-1,.1c0-2.39-.57-3.59-1.71-3.59s-1.8,1.22-1.8,3.65c0,2.27.59,3.41,1.77,3.41s1.76-1.16,1.76-3.47Z"/><path class="h" d="M68.31,63.06a8.36,8.36,0,0,1-.19,1.87,4.58,4.58,0,0,1-.55,1.38,2.59,2.59,0,0,1-.89.85,2.49,2.49,0,0,1-1.19.29,2.36,2.36,0,0,1-1.13-.28,2.47,2.47,0,0,1-.83-.81A4.15,4.15,0,0,1,63,65.05a7.58,7.58,0,0,1-.18-1.78,9.61,9.61,0,0,1,.19-2,4.39,4.39,0,0,1,.54-1.41,2.36,2.36,0,0,1,2.11-1.15Q68.32,58.76,68.31,63.06Zm-1,.1c0-2.39-.57-3.59-1.7-3.59s-1.8,1.22-1.8,3.65c0,2.27.59,3.41,1.76,3.41s1.75-1.16,1.75-3.47Z"/><path d="M37.87,26.16c-.5.8-.89,1.38-1.17,1.75l-.75-.5a5,5,0,0,0,2.53,2.3c-.32.5-.61,1-.89,1.42A6.37,6.37,0,0,1,35,28.18a6,6,0,0,1-2.51,3A10.88,10.88,0,0,0,31.29,30a5.07,5.07,0,0,0,2.54-2.53l-.83.39c-.1-.24-.23-.51-.38-.82A7.3,7.3,0,0,1,31,29.77c-.18-.38-.35-.71-.49-1v1.78H29.3v-.48h-.78v.76H27.33v-4c-.13.22-.25.43-.38.63-.13-1.18-.22-1.92-.26-2.22a17.28,17.28,0,0,0,1.12-3.16h-.9V20.56H30.7v1.53H29.21c-.18.64-.37,1.23-.57,1.8h1.85v4.16a6.83,6.83,0,0,0,1.24-3.2h-.86V23.56h1c0-.23,0-.46,0-.7H31V20.28h1.36V21.5h1.34V19.55h1.51V21.5h1.33V20.28h1.36v2.58H33.28l0,.7h4.93v1.29H35.72c0,.73-.08,1.35-.13,1.85.09.2.18.39.28.57.29-.44.63-1,1-1.7ZM29.3,28.75V25.2h-.78v3.55Zm3.84-3.07c.13.25.39.76.77,1.53a9.32,9.32,0,0,0,.41-2.36H33.13q-.06.46-.15.9Z"/><path d="M38.86,26.93l.3-4.16h2V21.4H38.92V20h3.67v4.16H40.52l-.1,1.37h2c0,1.91-.07,3.14-.12,3.71A2.73,2.73,0,0,1,42,30.46a1.21,1.21,0,0,1-.66.48,9.74,9.74,0,0,1-2.09.09c-.06-.38-.18-.9-.34-1.57.59,0,1,0,1.25,0a.56.56,0,0,0,.59-.31,11.37,11.37,0,0,0,.17-2.26ZM49.27,28c.39.79.78,1.65,1.18,2.61l-1.35.54-.3-.75q-2.7.32-5.89.62l-.28-1.5,3.07-.23V28H43.07V24.32H45.7v-.81H43.45V20h6v3.49H47.2v.81h2.66V28Zm-4.75-1.28H45.7V25.61H44.52ZM48,21.31h-3v.91h3Zm.43,5.44V25.61H47.2v1.14ZM49.26,28H47.2v1.16l1-.1L48,28.53Z"/><path d="M53,24.92q0,4.39-1.17,6.3a15.38,15.38,0,0,0-1.28-1.1,11.48,11.48,0,0,0,.95-5.41V20.62H56.2c-.08-.23-.2-.5-.34-.82l2-.28c.14.35.28.72.42,1.1h4.05v1.31H53Zm8.12,1.46v1.27a10.2,10.2,0,0,1-1.88,1.73,19.74,19.74,0,0,0,3.1.31c-.24.45-.47.92-.69,1.42a20.6,20.6,0,0,1-4.16-.88,27.5,27.5,0,0,1-4.18,1,6.46,6.46,0,0,0-.76-1.3A16.36,16.36,0,0,0,56,29.42a8.52,8.52,0,0,1-1.78-1.77h-.75V26.38ZM53.3,22.66h1.27v-.5h1.5v.5H59v-.5h1.5v.5h1.59v1.26H60.48v1.91H54.57V23.92H53.3Zm4.3,6.2a6.81,6.81,0,0,0,1.81-1.21H55.85A6,6,0,0,0,57.6,28.86ZM59,24.64v-.72H56.07v.72Z"/><path d="M409.15,208.55V198.44h4.62v10h-1.55v-.81H410.7v.88Zm3.07-8.56H410.7v2.32h1.52Zm-1.52,6.14h1.52v-2.32H410.7Zm4.44-4.27c.53.66,1.23,1.61,2.11,2.84l-1.42.92c-.71-1.18-1.35-2.16-1.91-3Zm-1-2.19h3.46v-2h1.68v2h1v1.56h-1V207a2.25,2.25,0,0,1-.44,1.49,1.64,1.64,0,0,1-1.22.53c-.51,0-1.28,0-2.3,0a13.81,13.81,0,0,0-.4-1.71l1.83,0c.57,0,.85-.3.85-.9v-5.29h-3.46Z"/><path d="M421.05,199.14h1.63v10h-1.63Zm1.4-1,1.53-.54c.37.58.75,1.22,1.13,1.9l-1.63.62C423.13,199.37,422.79,198.71,422.45,198.13Zm1.31,2.42H429v6.16h-3.76v.65h-1.48Zm3.76,1.31h-2.28V203h2.28Zm0,3.54v-1.11h-2.28v1.11Zm4.25,1.57a2.77,2.77,0,0,1-.29,1.36,1.39,1.39,0,0,1-.9.67,14.13,14.13,0,0,1-2.76.16,13.13,13.13,0,0,0-.38-1.64c.5,0,1.14,0,1.91,0,.53,0,.79-.23.79-.69V199.6h-4.63v-1.44h6.26Z"/><path d="M93.42,218.11a8.68,8.68,0,0,1-.19,1.87,4.41,4.41,0,0,1-.55,1.37,2.4,2.4,0,0,1-.89.85,2.36,2.36,0,0,1-1.19.29,2.16,2.16,0,0,1-2-1.09,4,4,0,0,1-.52-1.31,7.84,7.84,0,0,1-.18-1.77,9.33,9.33,0,0,1,.19-1.95,4.32,4.32,0,0,1,.54-1.41,2.47,2.47,0,0,1,.89-.87,2.52,2.52,0,0,1,1.21-.29Q93.43,213.8,93.42,218.11Zm-1,.1c0-2.4-.57-3.59-1.7-3.59s-1.8,1.22-1.8,3.65c0,2.27.59,3.4,1.76,3.4S92.43,220.52,92.43,218.21Z"/><path d="M99.89,218.11a8.06,8.06,0,0,1-.2,1.87,4.18,4.18,0,0,1-.55,1.37,2.34,2.34,0,0,1-2.07,1.14,2.33,2.33,0,0,1-1.13-.27,2.43,2.43,0,0,1-.84-.82,4.26,4.26,0,0,1-.51-1.31,7.84,7.84,0,0,1-.18-1.77,8.71,8.71,0,0,1,.19-1.95,4.32,4.32,0,0,1,.54-1.41,2.47,2.47,0,0,1,.89-.87,2.52,2.52,0,0,1,1.21-.29C99,213.8,99.89,215.24,99.89,218.11Zm-1,.1c0-2.4-.57-3.59-1.7-3.59s-1.8,1.22-1.8,3.65c0,2.27.58,3.4,1.76,3.4S98.9,220.52,98.9,218.21Z"/><path d="M101.68,217.52a.62.62,0,0,1-.46-.19.68.68,0,0,1-.19-.47.65.65,0,0,1,.65-.64.63.63,0,0,1,.47.19.59.59,0,0,1,.2.45.65.65,0,0,1-.2.47A.63.63,0,0,1,101.68,217.52Zm0,5a.63.63,0,0,1-.46-.2.66.66,0,0,1-.19-.46.7.7,0,0,1,.19-.47.62.62,0,0,1,.46-.19.63.63,0,0,1,.47.19.67.67,0,0,1,.2.47.68.68,0,0,1-.67.66Z"/><path d="M109,218.11a8.68,8.68,0,0,1-.19,1.87,4.41,4.41,0,0,1-.56,1.37,2.34,2.34,0,0,1-2.07,1.14,2.33,2.33,0,0,1-1.13-.27,2.43,2.43,0,0,1-.84-.82,4.26,4.26,0,0,1-.51-1.31,7.84,7.84,0,0,1-.18-1.77,8.71,8.71,0,0,1,.19-1.95,4.32,4.32,0,0,1,.54-1.41,2.47,2.47,0,0,1,.89-.87,2.52,2.52,0,0,1,1.21-.29C108.07,213.8,109,215.24,109,218.11Zm-1,.1c0-2.4-.57-3.59-1.7-3.59s-1.8,1.22-1.8,3.65c0,2.27.59,3.4,1.76,3.4S108,220.52,108,218.21Z"/><path d="M115.42,218.11a8.09,8.09,0,0,1-.19,1.87,4.18,4.18,0,0,1-.55,1.37,2.34,2.34,0,0,1-2.07,1.14,2.3,2.3,0,0,1-1.13-.27,2.43,2.43,0,0,1-.84-.82,4,4,0,0,1-.51-1.31,7.84,7.84,0,0,1-.18-1.77,8.71,8.71,0,0,1,.19-1.95,4.32,4.32,0,0,1,.54-1.41,2.34,2.34,0,0,1,2.1-1.16Q115.42,213.8,115.42,218.11Zm-1,.1c0-2.4-.57-3.59-1.71-3.59s-1.79,1.22-1.79,3.65c0,2.27.58,3.4,1.76,3.4S114.44,220.52,114.44,218.21Z"/><path d="M166.92,218.76a8.62,8.62,0,0,1-.19,1.87,4.47,4.47,0,0,1-.55,1.38,2.57,2.57,0,0,1-.89.85,2.47,2.47,0,0,1-1.19.29,2.34,2.34,0,0,1-1.13-.28,2.38,2.38,0,0,1-.83-.81,4.22,4.22,0,0,1-.52-1.31,7.93,7.93,0,0,1-.18-1.78,9.41,9.41,0,0,1,.19-1.95,4.32,4.32,0,0,1,.54-1.41,2.36,2.36,0,0,1,.89-.86,2.41,2.41,0,0,1,1.21-.29Q166.93,214.46,166.92,218.76Zm-1,.1c0-2.39-.57-3.59-1.7-3.59s-1.8,1.22-1.8,3.65c0,2.27.59,3.41,1.76,3.41S165.93,221.17,165.93,218.86Z"/><path d="M171.65,223h-1v-7.26a2.22,2.22,0,0,1-.33.26,5.1,5.1,0,0,1-.48.28,5.85,5.85,0,0,1-.56.26,3.63,3.63,0,0,1-.58.2v-1a4.2,4.2,0,0,0,.68-.23,7.33,7.33,0,0,0,.69-.34c.23-.12.45-.25.65-.38a6.62,6.62,0,0,0,.53-.4h.36Z"/><path d="M175.18,218.17a.62.62,0,0,1-.46-.19.66.66,0,0,1-.19-.46.64.64,0,0,1,.19-.46.62.62,0,0,1,.46-.19.63.63,0,0,1,.47.19.61.61,0,0,1,.2.46.67.67,0,0,1-.67.65Zm0,5a.66.66,0,0,1-.46-.19.68.68,0,0,1-.19-.47.66.66,0,0,1,.19-.46.67.67,0,0,1,1.13.46.65.65,0,0,1-.2.47A.67.67,0,0,1,175.18,223.13Z"/><path d="M181,216.8a1.71,1.71,0,0,0-.12-.67,1.37,1.37,0,0,0-.33-.48,1.19,1.19,0,0,0-.49-.28,1.68,1.68,0,0,0-.6-.1,2.1,2.1,0,0,0-.56.08,2.83,2.83,0,0,0-.52.21,3.74,3.74,0,0,0-.49.32,2.92,2.92,0,0,0-.44.42v-1a2.63,2.63,0,0,1,.9-.6,3.17,3.17,0,0,1,1.22-.21,3,3,0,0,1,1,.15,2.27,2.27,0,0,1,.76.43,2.19,2.19,0,0,1,.51.71,2.47,2.47,0,0,1,.18,1,3.58,3.58,0,0,1-.11.9,2.75,2.75,0,0,1-.35.76,3.67,3.67,0,0,1-.58.69,8.92,8.92,0,0,1-.83.67c-.39.28-.72.52-1,.72a3.81,3.81,0,0,0-.61.56,1.53,1.53,0,0,0-.32.52,1.8,1.8,0,0,0-.09.6h4.18V223h-5.18v-.42a3.87,3.87,0,0,1,.11-1,2.44,2.44,0,0,1,.39-.77,4.07,4.07,0,0,1,.71-.74c.29-.25.65-.53,1.07-.83a6.69,6.69,0,0,0,.76-.63,3.31,3.31,0,0,0,.5-.6,2.16,2.16,0,0,0,.26-.61A2.27,2.27,0,0,0,181,216.8Z"/><path d="M188.53,220.62a2.54,2.54,0,0,1-.21,1,2.24,2.24,0,0,1-.61.79,3,3,0,0,1-.93.52,3.78,3.78,0,0,1-1.2.18,3.53,3.53,0,0,1-1.91-.46v-1a3.07,3.07,0,0,0,1.94.67,2.81,2.81,0,0,0,.8-.11,2,2,0,0,0,.61-.33,1.39,1.39,0,0,0,.39-.51,1.6,1.6,0,0,0,.14-.67c0-1.1-.78-1.65-2.35-1.65h-.69v-.81h.66c1.38,0,2.07-.52,2.07-1.55s-.52-1.43-1.58-1.43a2.7,2.7,0,0,0-1.67.6v-.93a3.66,3.66,0,0,1,1.91-.48,3.22,3.22,0,0,1,1,.14,2.35,2.35,0,0,1,.73.41,1.87,1.87,0,0,1,.47.64,1.92,1.92,0,0,1,.17.81,2,2,0,0,1-1.68,2.13v0a2.49,2.49,0,0,1,.79.21,2.08,2.08,0,0,1,.63.41,1.92,1.92,0,0,1,.56,1.38Z"/><path d="M318.84,218.91a8.68,8.68,0,0,1-.19,1.87,4.41,4.41,0,0,1-.56,1.37,2.34,2.34,0,0,1-2.07,1.14,2.23,2.23,0,0,1-1.13-.28,2.32,2.32,0,0,1-.84-.81,4.26,4.26,0,0,1-.51-1.31,7.84,7.84,0,0,1-.18-1.77,8.71,8.71,0,0,1,.19-2,4.32,4.32,0,0,1,.54-1.41,2.39,2.39,0,0,1,.89-.87,2.52,2.52,0,0,1,1.21-.29Q318.84,214.6,318.84,218.91Zm-1,.09c0-2.39-.57-3.58-1.7-3.58s-1.8,1.21-1.8,3.65c0,2.27.59,3.4,1.76,3.4S317.85,221.32,317.85,219Z"/><path d="M319.86,220.8a2.27,2.27,0,0,1,.1-.67,2.6,2.6,0,0,1,.3-.63,2.71,2.71,0,0,1,.49-.53,2.15,2.15,0,0,1,.66-.38,2.64,2.64,0,0,1-.87-.78,1.91,1.91,0,0,1-.32-1.06,2,2,0,0,1,.18-.86,2.08,2.08,0,0,1,.49-.68,2.34,2.34,0,0,1,.75-.45,2.85,2.85,0,0,1,.94-.16,2.62,2.62,0,0,1,.94.17,2.34,2.34,0,0,1,.75.45,2.1,2.1,0,0,1,.5.68,2.15,2.15,0,0,1,.17.85,1.91,1.91,0,0,1-.32,1.06,2.7,2.7,0,0,1-.86.78,2.1,2.1,0,0,1,.65.38,2.43,2.43,0,0,1,.49.53,2.6,2.6,0,0,1,.3.63,2.27,2.27,0,0,1,.1.67,2.53,2.53,0,0,1-.19,1,2.23,2.23,0,0,1-.56.78,2.5,2.5,0,0,1-.87.51,3.21,3.21,0,0,1-1.1.18,3.25,3.25,0,0,1-1.1-.18,2.65,2.65,0,0,1-.86-.51,2.11,2.11,0,0,1-.56-.78A2.37,2.37,0,0,1,319.86,220.8Zm1-.08a2,2,0,0,0,.12.71,1.5,1.5,0,0,0,.34.54,1.38,1.38,0,0,0,.53.34,1.94,1.94,0,0,0,.7.12,1.91,1.91,0,0,0,.68-.12,1.58,1.58,0,0,0,.53-.35,1.53,1.53,0,0,0,.35-.54,1.75,1.75,0,0,0,.13-.7,1.84,1.84,0,0,0-.12-.66,1.9,1.9,0,0,0-.34-.54,1.58,1.58,0,0,0-.54-.37,1.7,1.7,0,0,0-.69-.13,1.78,1.78,0,0,0-.67.12,1.68,1.68,0,0,0-.54.35,1.53,1.53,0,0,0-.35.54A1.73,1.73,0,0,0,320.9,220.72Zm.3-3.9a1.3,1.3,0,0,0,.11.56,1.35,1.35,0,0,0,.29.44,1.37,1.37,0,0,0,.45.3,1.33,1.33,0,0,0,.54.11,1.41,1.41,0,0,0,.54-.11,1.37,1.37,0,0,0,.44-.3,1.54,1.54,0,0,0,.3-.45,1.42,1.42,0,0,0,.11-.55,1.47,1.47,0,0,0-.11-.56,1.35,1.35,0,0,0-.29-.44,1.37,1.37,0,0,0-.45-.3,1.41,1.41,0,0,0-.54-.11,1.48,1.48,0,0,0-.57.11,1.4,1.4,0,0,0-.44.31,1.18,1.18,0,0,0-.28.44A1.49,1.49,0,0,0,321.2,216.82Z"/><path d="M327.1,218.32a.66.66,0,0,1-.46-.19.68.68,0,0,1-.19-.47.65.65,0,0,1,.65-.64.63.63,0,0,1,.47.19.59.59,0,0,1,.2.45.65.65,0,0,1-.2.47A.67.67,0,0,1,327.1,218.32Zm0,5a.63.63,0,0,1-.46-.2.66.66,0,0,1-.19-.46.68.68,0,0,1,.19-.47.62.62,0,0,1,.46-.19.63.63,0,0,1,.47.19.65.65,0,0,1,.2.47.68.68,0,0,1-.67.66Z"/><path d="M334.38,218.91a8.06,8.06,0,0,1-.2,1.87,4.18,4.18,0,0,1-.55,1.37,2.34,2.34,0,0,1-2.07,1.14,2.2,2.2,0,0,1-1.13-.28,2.32,2.32,0,0,1-.84-.81,4.26,4.26,0,0,1-.51-1.31,7.84,7.84,0,0,1-.18-1.77,8.71,8.71,0,0,1,.19-2,4.32,4.32,0,0,1,.54-1.41,2.39,2.39,0,0,1,.89-.87,2.52,2.52,0,0,1,1.21-.29C333.49,214.6,334.38,216,334.38,218.91Zm-1,.09c0-2.39-.57-3.58-1.7-3.58s-1.8,1.21-1.8,3.65c0,2.27.58,3.4,1.76,3.4S333.39,221.32,333.39,219Z"/><path d="M340.84,218.91a8.09,8.09,0,0,1-.19,1.87,4.18,4.18,0,0,1-.55,1.37,2.34,2.34,0,0,1-2.07,1.14,2.2,2.2,0,0,1-1.13-.28,2.32,2.32,0,0,1-.84-.81,4,4,0,0,1-.51-1.31,7.84,7.84,0,0,1-.18-1.77,8.71,8.71,0,0,1,.19-2,4.32,4.32,0,0,1,.54-1.41,2.39,2.39,0,0,1,.89-.87,2.49,2.49,0,0,1,1.21-.29Q340.84,214.6,340.84,218.91Zm-1,.09c0-2.39-.57-3.58-1.71-3.58s-1.79,1.21-1.79,3.65c0,2.27.58,3.4,1.76,3.4S339.86,221.32,339.86,219Z"/></svg>