<svg xmlns="http://www.w3.org/2000/svg" xmlns:xlink="http://www.w3.org/1999/xlink" viewBox="0 0 322 264"><defs><style>.a{fill:#fff;}.b,.l,.m,.n{fill:none;stroke-miterlimit:10;}.b{stroke:#3c3c41;}.c{fill:#3c3c41;}.d,.e,.f,.g,.h,.i,.j,.k{opacity:0.7;isolation:isolate;}.d{fill:url(#a);}.e{fill:url(#b);}.f{fill:url(#c);}.g{fill:url(#d);}.h{fill:url(#e);}.i{fill:url(#f);}.j{fill:url(#g);}.k{fill:url(#h);}.l{stroke:#fff;stroke-width:2px;}.m{stroke:#e6e6e6;}.n{stroke:#737373;}.o{fill:#1e1e1e;}</style><linearGradient id="a" x1="72.21" y1="64.86" x2="72.21" y2="28.96" gradientTransform="matrix(1, 0, 0, -1, 0, 265.28)" gradientUnits="userSpaceOnUse"><stop offset="0" stop-color="#76bc2d"/><stop offset="0.98" stop-color="#5f9724"/><stop offset="1" stop-color="#5e9624"/></linearGradient><linearGradient id="b" x1="72.21" y1="113.26" x2="72.21" y2="65.36" xlink:href="#a"/><linearGradient id="c" x1="72.21" y1="164.86" x2="72.21" y2="113.76" gradientTransform="matrix(1, 0, 0, -1, 0, 265.28)" gradientUnits="userSpaceOnUse"><stop offset="0" stop-color="#b3b2b3"/><stop offset="0.38" stop-color="#afaeaf"/><stop offset="0.76" stop-color="#a2a2a2"/><stop offset="1" stop-color="#979797"/></linearGradient><linearGradient id="d" x1="72.21" y1="254.06" x2="72.21" y2="165.36" xlink:href="#c"/><linearGradient id="e" x1="183.41" y1="82.46" x2="183.41" y2="28.96" xlink:href="#a"/><linearGradient id="f" x1="183.41" y1="135.26" x2="183.41" y2="82.96" xlink:href="#a"/><linearGradient id="g" x1="183.41" y1="188.06" x2="183.41" y2="162.16" xlink:href="#c"/><linearGradient id="h" x1="183.41" y1="161.66" x2="183.41" y2="135.76" xlink:href="#c"/></defs><rect class="a" width="322" height="264"/><polyline class="b" points="244.11 241.98 38.21 241.98 38.21 7.55"/><polygon class="c" points="243.01 238.24 249.49 241.98 243.01 245.72 243.01 238.24"/><polygon class="c" points="41.95 8.64 38.21 2.17 34.47 8.64 41.95 8.64"/><rect class="a" x="46.06" y="200.42" width="52.3" height="35.9"/><rect class="d" x="46.06" y="200.42" width="52.3" height="35.9"/><path class="a" d="M98.11,200.67v35.4H46.31v-35.4h51.8m.5-.5H45.81v36.4h52.8Z"/><path d="M98.61,200.17v36.4H45.81v-36.4h52.8m.5-.5H45.31v37.4h53.8Z"/><rect class="a" x="46.06" y="152.02" width="52.3" height="47.9"/><rect class="e" x="46.06" y="152.02" width="52.3" height="47.9"/><path class="a" d="M98.11,152.27v47.4H46.31v-47.4h51.8m.5-.5H45.81v48.4h52.8Z"/><path d="M98.61,151.77v48.4H45.81v-48.4h52.8m.5-.5H45.31v49.4h53.8Z"/><rect class="a" x="46.06" y="100.42" width="52.3" height="51.1"/><rect class="f" x="46.06" y="100.42" width="52.3" height="51.1"/><path class="a" d="M98.11,100.67v50.6H46.31v-50.6h51.8m.5-.5H45.81v51.6h52.8Z"/><path d="M98.61,100.17v51.6H45.81v-51.6h52.8m.5-.5H45.31v52.6h53.8Z"/><rect class="a" x="46.06" y="11.22" width="52.3" height="88.7"/><rect class="g" x="46.06" y="11.22" width="52.3" height="88.7"/><path class="a" d="M98.11,11.47v88.2H46.31V11.47h51.8m.5-.5H45.81v89.2h52.8V11Z"/><path d="M98.61,11v89.2H45.81V11h52.8m.5-.5H45.31v90.2h53.8V10.5Z"/><rect class="a" x="157.26" y="182.82" width="52.3" height="53.5"/><rect class="h" x="157.26" y="182.82" width="52.3" height="53.5"/><path class="a" d="M209.31,183.07v53h-51.8v-53h51.8m.5-.5H157v54h52.8v-54Z"/><path d="M209.81,182.57v54H157v-54h52.8m.5-.5H156.5v55h53.8Z"/><rect class="a" x="157.26" y="130.02" width="52.3" height="52.3"/><rect class="i" x="157.26" y="130.02" width="52.3" height="52.3"/><path class="a" d="M209.31,130.27v51.8h-51.8v-51.8h51.8m.5-.5H157v52.8h52.8v-52.8Z"/><path d="M209.81,129.77v52.8H157v-52.8h52.8m.5-.5H156.5v53.8h53.8Z"/><rect class="a" x="157.26" y="77.22" width="52.3" height="25.9"/><rect class="j" x="157.26" y="77.22" width="52.3" height="25.9"/><path class="a" d="M209.31,77.47v25.4h-51.8V77.47h51.8m.5-.5H157v26.4h52.8V77Z"/><path d="M209.81,77v26.4H157V77h52.8m.5-.5H156.5v27.4h53.8V76.5Z"/><rect class="a" x="157.26" y="103.62" width="52.3" height="25.9"/><rect class="k" x="157.26" y="103.62" width="52.3" height="25.9"/><path class="a" d="M209.31,103.87v25.4h-51.8v-25.4h51.8m.5-.5H157v26.4h52.8v-26.4Z"/><path d="M209.81,103.37v26.4H157v-26.4h52.8m.5-.5H156.5v27.4h53.8Z"/><line class="l" x1="99.81" y1="10.97" x2="155.81" y2="76.97"/><line class="m" x1="99.81" y1="10.97" x2="155.81" y2="76.97"/><path class="c" d="M155.43,77.29l-1.66-2,.76-.65,1.66,2Zm-3.6-4.24-1.94-2.28.76-.65,1.94,2.29ZM148,68.48l-2-2.29.76-.65,1.94,2.29Zm-3.88-4.58-1.94-2.28.76-.65,1.94,2.29Zm-3.88-4.57-2-2.33.77-.65,2,2.33Zm-3.89-4.58-1.94-2.29.76-.64,2,2.28Zm-3.88-4.57-1.94-2.29.76-.65,1.94,2.29Zm-3.88-4.58-1.94-2.29.76-.64L129.3,45ZM124.66,41l-1.94-2.29.76-.65,1.94,2.29Zm-3.88-4.58-1.94-2.28.76-.65,1.94,2.28Zm-3.89-4.57L115,29.59l.77-.65,1.94,2.29ZM113,27.3,111.07,25l.76-.64,1.94,2.28Zm-3.88-4.57-1.94-2.29.76-.65,1.94,2.29Zm-3.88-4.58-1.94-2.29.76-.64L106,17.5Zm-3.88-4.57-1.94-2.29.76-.65,1.94,2.29Z"/><path class="n" d="M214.86,77h6.35a5,5,0,0,1,5,5v42.8a5,5,0,0,1-5,5h-6.35"/><line class="n" x1="226.21" y1="103.37" x2="239.41" y2="103.37"/><path class="c" d="M140.86,28.3h-1v-1h1Zm-3,0h-1v-1h1Zm-3,0h-1v-1h1Zm-3,0h-1v-1h1Zm-3,0h-1v-1h1Zm-3,0h-1v-1h1Zm-3,0h-1v-1h1Zm-3,0h-1v-1h1Zm-3,0h-1v-1h1Z"/><path class="o" d="M9,20.77H6.76l-1.91-3h0v3H3V11.88H4.82v5.66h0L6.6,14.77H8.8L6.68,17.58Z"/><path class="o" d="M20.9,12.36l-2.22,8.41h-2.1l-1.39-5.39a4.82,4.82,0,0,1-.14-1h0a8.31,8.31,0,0,1-.15,1l-1.43,5.39H11.26L9.05,12.36h2.07L12.3,18a8.27,8.27,0,0,1,.12,1h0a4.87,4.87,0,0,1,.17-1l1.52-5.58h2L17.55,18a7,7,0,0,1,.13.9h0A4.94,4.94,0,0,1,17.8,18l1.2-5.6Z"/><path class="o" d="M27.54,20.77H25.69V17.36c0-.88-.33-1.32-1-1.32a1,1,0,0,0-.8.37,1.4,1.4,0,0,0-.3.93v3.43H21.78V11.88h1.85v3.78h0a2.1,2.1,0,0,1,1.85-1c1.33,0,2,.82,2,2.46Z"/><path class="o" d="M219.09,249.8H216.7v6.87h-1.9V249.8h-2.39v-1.54h6.68Z"/><path class="o" d="M221,249.72a1.1,1.1,0,0,1-.77-.28.92.92,0,0,1-.3-.68.85.85,0,0,1,.3-.68,1.09,1.09,0,0,1,.77-.27,1.13,1.13,0,0,1,.77.27.87.87,0,0,1,.29.68.91.91,0,0,1-.29.69A1.13,1.13,0,0,1,221,249.72Zm.91,7h-1.85v-6h1.85Z"/><path class="o" d="M233,256.67h-1.85v-3.43c0-.87-.32-1.3-1-1.3a.9.9,0,0,0-.75.39,1.62,1.62,0,0,0-.28,1v3.36h-1.85v-3.46c0-.85-.32-1.27-1-1.27a.91.91,0,0,0-.76.37,1.62,1.62,0,0,0-.28,1v3.34h-1.85v-6h1.85v.93h0a2.16,2.16,0,0,1,.81-.78,2.22,2.22,0,0,1,1.13-.3,1.72,1.72,0,0,1,1.74,1.12,2.21,2.21,0,0,1,2-1.12c1.3,0,2,.8,2,2.41Z"/><path class="o" d="M239.86,254.19h-3.92c.07.87.62,1.31,1.65,1.31a3.23,3.23,0,0,0,1.74-.47v1.34a4.6,4.6,0,0,1-2.16.44,2.78,2.78,0,0,1-3.06-2.47,2.81,2.81,0,0,1,0-.58,3.2,3.2,0,0,1,.87-2.37,2.89,2.89,0,0,1,2.13-.87,2.61,2.61,0,0,1,2,.78,3,3,0,0,1,.72,2.11Zm-1.72-1.13c0-.86-.35-1.29-1-1.29a1,1,0,0,0-.77.37,1.6,1.6,0,0,0-.4.92Z"/><path class="o" d="M66.88,59.6a5.52,5.52,0,0,1-2.4.45,4,4,0,0,1-3-1.14,4.15,4.15,0,0,1-1.11-3,4.47,4.47,0,0,1,1.25-3.27,4.38,4.38,0,0,1,3.23-1.25,5.85,5.85,0,0,1,2.07.31v1.82A3.79,3.79,0,0,0,65,53a2.58,2.58,0,0,0-1.91.74A3.19,3.19,0,0,0,63,57.69a2.43,2.43,0,0,0,1.84.72,3.93,3.93,0,0,0,2-.54Z"/><path class="o" d="M71,60.05a3.19,3.19,0,0,1-2.35-.84,3.47,3.47,0,0,1,0-4.61A3.38,3.38,0,0,1,71,53.75a3.21,3.21,0,0,1,2.34.85,3,3,0,0,1,.85,2.22,3.14,3.14,0,0,1-.88,2.36A3.25,3.25,0,0,1,71,60.05Zm0-4.88a1.2,1.2,0,0,0-1,.45,2,2,0,0,0-.36,1.28c0,1.15.46,1.73,1.39,1.73s1.33-.59,1.33-1.78S71.9,55.17,71,55.17Z"/><path class="o" d="M80.42,59.9H78.67V59h0a2,2,0,0,1-1.79,1,1.83,1.83,0,0,1-1.37-.5,1.75,1.75,0,0,1-.5-1.32c0-1.16.69-1.83,2.06-2L78.68,56c0-.66-.35-1-1.06-1a3.68,3.68,0,0,0-2,.64V54.26a4.4,4.4,0,0,1,1.06-.35,5.59,5.59,0,0,1,1.22-.16,2.27,2.27,0,0,1,2.56,1.94,2.22,2.22,0,0,1,0,.63Zm-1.74-2.44v-.4l-1.09.14q-.9.12-.9.81a.64.64,0,0,0,.22.52.82.82,0,0,0,.6.21,1.07,1.07,0,0,0,.84-.36A1.34,1.34,0,0,0,78.68,57.46Z"/><path class="o" d="M83.74,59.9H81.89V51h1.85Z"/><path class="o" d="M69.83,128.3a6.05,6.05,0,0,1-3.06.71,4.4,4.4,0,0,1-3.19-1.12,4.09,4.09,0,0,1-1.17-3.09,4.29,4.29,0,0,1,1.27-3.23,4.66,4.66,0,0,1,3.4-1.25,7,7,0,0,1,2.36.37v1.78a4.61,4.61,0,0,0-2.38-.57,2.56,2.56,0,0,0-1.92.77,3.21,3.21,0,0,0-.08,4,2.37,2.37,0,0,0,1.8.7,2.49,2.49,0,0,0,1.08-.19v-1.64H66.26V124h3.57Z"/><path class="o" d="M76.36,128.87H74.61V128h0a2,2,0,0,1-1.79,1,1.87,1.87,0,0,1-1.37-.49,1.75,1.75,0,0,1-.5-1.32c0-1.17.68-1.84,2.06-2l1.63-.22c0-.65-.35-1-1.06-1a3.57,3.57,0,0,0-2,.64v-1.4a4.4,4.4,0,0,1,1-.35,6.36,6.36,0,0,1,1.23-.15,2.26,2.26,0,0,1,2.56,1.91,2.36,2.36,0,0,1,0,.65Zm-1.74-2.44V126l-1.09.14c-.6.08-.9.35-.9.82a.64.64,0,0,0,.22.52.85.85,0,0,0,.59.2,1.11,1.11,0,0,0,.85-.36A1.26,1.26,0,0,0,74.62,126.43Z"/><path class="o" d="M77.55,128.71v-1.5a4.38,4.38,0,0,0,.91.41,3.14,3.14,0,0,0,.86.13,1.89,1.89,0,0,0,.78-.13.44.44,0,0,0,.28-.41.39.39,0,0,0-.13-.3,1.38,1.38,0,0,0-.33-.2l-.44-.16-.47-.16a4.51,4.51,0,0,1-.63-.29,1.55,1.55,0,0,1-.45-.36,1.18,1.18,0,0,1-.28-.47,1.75,1.75,0,0,1-.1-.64,1.66,1.66,0,0,1,.22-.87,1.82,1.82,0,0,1,.58-.59,2.56,2.56,0,0,1,.84-.34,4.79,4.79,0,0,1,1-.11,5.52,5.52,0,0,1,.81.06,5.58,5.58,0,0,1,.81.18v1.43a2.9,2.9,0,0,0-.75-.31,3,3,0,0,0-.79-.1,1.93,1.93,0,0,0-.34,0,1.4,1.4,0,0,0-.29.09.74.74,0,0,0-.19.16.34.34,0,0,0-.07.22.34.34,0,0,0,.11.28.9.9,0,0,0,.27.21l.38.15.41.14a5.58,5.58,0,0,1,.67.28,1.82,1.82,0,0,1,.51.36,1.33,1.33,0,0,1,.33.48,1.62,1.62,0,0,1,.11.65,1.69,1.69,0,0,1-.23.91,1.9,1.9,0,0,1-.61.62,2.61,2.61,0,0,1-.89.34,4.79,4.79,0,0,1-1,.11A5.51,5.51,0,0,1,77.55,128.71Z"/><path class="o" d="M69.06,170.76l-2.22,8.41h-2.1l-1.4-5.39a5.05,5.05,0,0,1-.13-.95h0a6.08,6.08,0,0,1-.16.95l-1.43,5.39h-2.2l-2.21-8.41h2.07l1.18,5.6a6.65,6.65,0,0,1,.11,1h0a4.27,4.27,0,0,1,.17-1l1.52-5.58h2l1.38,5.65a7,7,0,0,1,.13.9h0a5.91,5.91,0,0,1,.13-.94l1.16-5.61Z"/><path class="o" d="M70.92,172.22a1.1,1.1,0,0,1-.77-.28.92.92,0,0,1-.3-.68.85.85,0,0,1,.3-.68,1.13,1.13,0,0,1,.77-.27,1.09,1.09,0,0,1,.77.27.85.85,0,0,1,.3.68.87.87,0,0,1-.3.69A1.09,1.09,0,0,1,70.92,172.22Zm.91,6.95H70v-6h1.85Z"/><path class="o" d="M79.16,179.17H77.32v-3.34c0-.93-.33-1.39-1-1.39a1,1,0,0,0-.79.37,1.41,1.41,0,0,0-.31.93v3.43H73.37v-6h1.85v1h0a2.11,2.11,0,0,1,1.93-1.1c1.33,0,2,.82,2,2.47Z"/><path class="o" d="M86.53,179.17H84.68v-.83h0a2.07,2.07,0,0,1-1.86,1,2.25,2.25,0,0,1-1.81-.79,3.29,3.29,0,0,1-.69-2.22,3.47,3.47,0,0,1,.76-2.38,2.45,2.45,0,0,1,2-.9,1.69,1.69,0,0,1,1.62.83h0v-3.57h1.85Zm-1.82-2.92v-.45a1.42,1.42,0,0,0-.34-1,1.25,1.25,0,0,0-1.88.1,2.31,2.31,0,0,0-.35,1.33,1.91,1.91,0,0,0,.34,1.22,1.19,1.19,0,0,0,1.67.17.91.91,0,0,0,.17-.17A1.86,1.86,0,0,0,84.71,176.25Z"/><path class="o" d="M58.41,221.84V220a3.59,3.59,0,0,0,2.32.85,3.18,3.18,0,0,0,.62-.06,1.25,1.25,0,0,0,.45-.18.75.75,0,0,0,.26-.27.67.67,0,0,0,.09-.34.74.74,0,0,0-.14-.43,1.45,1.45,0,0,0-.38-.36,4.71,4.71,0,0,0-.58-.32l-.72-.31a3.71,3.71,0,0,1-1.47-1,2.25,2.25,0,0,1-.48-1.43,2.34,2.34,0,0,1,.26-1.13,2.45,2.45,0,0,1,.72-.78,3.21,3.21,0,0,1,1-.44,5.44,5.44,0,0,1,1.27-.15,8.92,8.92,0,0,1,1.16.08,4.26,4.26,0,0,1,.93.25v1.75a2.59,2.59,0,0,0-.46-.26,3.52,3.52,0,0,0-.51-.19,4.76,4.76,0,0,0-.52-.1,4.17,4.17,0,0,0-.5,0,2.88,2.88,0,0,0-.59.06,1.14,1.14,0,0,0-.44.18.77.77,0,0,0-.28.26.62.62,0,0,0-.1.35.73.73,0,0,0,.11.38,1.22,1.22,0,0,0,.32.32,4.85,4.85,0,0,0,.49.29l.67.29a7.56,7.56,0,0,1,.9.45,3.29,3.29,0,0,1,.69.54,2.15,2.15,0,0,1,.44.68,2.45,2.45,0,0,1,.15.89,2.58,2.58,0,0,1-.26,1.19,2.24,2.24,0,0,1-.73.77,2.87,2.87,0,0,1-1.06.42,6.11,6.11,0,0,1-1.28.13,8.4,8.4,0,0,1-1.32-.11A3.88,3.88,0,0,1,58.41,221.84Z"/><path class="o" d="M68.21,222.31a3.2,3.2,0,0,1-2.36-.84,3.47,3.47,0,0,1,0-4.61,3.31,3.31,0,0,1,2.4-.84,3.19,3.19,0,0,1,2.35.84,3,3,0,0,1,.85,2.22,3.2,3.2,0,0,1-.88,2.37A3.26,3.26,0,0,1,68.21,222.31Zm.05-4.87a1.2,1.2,0,0,0-1,.45,2,2,0,0,0-.36,1.28c0,1.15.46,1.72,1.39,1.72s1.33-.59,1.33-1.77S69.15,217.44,68.26,217.44Z"/><path class="o" d="M74.54,222.17H72.69v-8.89h1.85Z"/><path class="o" d="M81.12,222.17H79.37v-.87h0a1.92,1.92,0,0,1-1.78,1,1.88,1.88,0,0,1-1.38-.49,1.79,1.79,0,0,1-.5-1.32c0-1.17.69-1.84,2.07-2l1.63-.22c0-.65-.36-1-1.07-1a3.57,3.57,0,0,0-2,.64v-1.4a4.4,4.4,0,0,1,1.06-.35,6.26,6.26,0,0,1,1.22-.15,2.27,2.27,0,0,1,2.57,1.93,2.22,2.22,0,0,1,0,.63Zm-1.74-2.44v-.41l-1.09.14c-.6.08-.9.35-.9.82a.64.64,0,0,0,.22.52.83.83,0,0,0,.59.2,1.11,1.11,0,0,0,.85-.36A1.33,1.33,0,0,0,79.38,219.73Z"/><path class="o" d="M86.5,217.84a1.53,1.53,0,0,0-.78-.19,1.14,1.14,0,0,0-1,.45,2,2,0,0,0-.34,1.2v2.87h-1.8v-6h1.85v1.11h0A1.6,1.6,0,0,1,86,216.06a1.2,1.2,0,0,1,.46.07Z"/><path class="o" d="M178.08,92.77a5.66,5.66,0,0,1-2.4.44,4.07,4.07,0,0,1-3-1.13,4.15,4.15,0,0,1-1.11-3,4.42,4.42,0,0,1,1.24-3.27A4.33,4.33,0,0,1,176,84.52a6.08,6.08,0,0,1,2.07.31v1.83a3.61,3.61,0,0,0-1.92-.51,2.53,2.53,0,0,0-1.91.75,3.09,3.09,0,0,0,0,3.95,2.36,2.36,0,0,0,1.84.73,3.93,3.93,0,0,0,2-.54Z"/><path class="o" d="M182.15,93.21a3.19,3.19,0,0,1-2.35-.84,3.47,3.47,0,0,1,0-4.61,3.34,3.34,0,0,1,2.41-.84,3.2,3.2,0,0,1,2.34.84A3,3,0,0,1,185.4,90a3.15,3.15,0,0,1-.88,2.37A3.29,3.29,0,0,1,182.15,93.21Zm0-4.87a1.2,1.2,0,0,0-1,.45,2,2,0,0,0-.36,1.28c0,1.15.46,1.72,1.39,1.72s1.33-.59,1.33-1.77-.41-1.68-1.31-1.68Z"/><path class="o" d="M191.62,93.07h-1.75V92.2h0a2,2,0,0,1-1.79,1,1.87,1.87,0,0,1-1.37-.49,1.76,1.76,0,0,1-.51-1.32c0-1.17.69-1.84,2.07-2l1.63-.22c0-.65-.35-1-1.06-1a3.57,3.57,0,0,0-2,.64v-1.4a4.32,4.32,0,0,1,1-.35,6.36,6.36,0,0,1,1.23-.15,2.26,2.26,0,0,1,2.56,1.91,2.36,2.36,0,0,1,0,.65Zm-1.74-2.44v-.41l-1.09.14c-.6.08-.9.35-.9.82a.64.64,0,0,0,.22.52.85.85,0,0,0,.59.2,1.11,1.11,0,0,0,.85-.36,1.33,1.33,0,0,0,.33-.91Z"/><path class="o" d="M194.94,93.07h-1.85V84.18h1.85Z"/><path class="o" d="M181,118.9a6.05,6.05,0,0,1-3.06.71,4.4,4.4,0,0,1-3.19-1.12,4.09,4.09,0,0,1-1.17-3.09,4.29,4.29,0,0,1,1.27-3.23,4.64,4.64,0,0,1,3.4-1.25,7,7,0,0,1,2.36.37v1.78a4.61,4.61,0,0,0-2.38-.57,2.52,2.52,0,0,0-1.92.77,3.21,3.21,0,0,0-.08,4,2.37,2.37,0,0,0,1.8.7,2.49,2.49,0,0,0,1.08-.19v-1.64h-1.68v-1.51H181Z"/><path class="o" d="M187.56,119.47h-1.75v-.87h0a2,2,0,0,1-1.79,1,1.87,1.87,0,0,1-1.37-.49,1.76,1.76,0,0,1-.51-1.32c0-1.17.69-1.84,2.07-2l1.63-.22c0-.65-.35-1-1.06-1a3.57,3.57,0,0,0-2,.64v-1.4a4.32,4.32,0,0,1,1.05-.35,6.36,6.36,0,0,1,1.23-.15,2.26,2.26,0,0,1,2.56,1.91,2.36,2.36,0,0,1,0,.65ZM185.82,117v-.41l-1.09.14c-.6.08-.9.35-.9.82a.64.64,0,0,0,.22.52.85.85,0,0,0,.59.2,1.11,1.11,0,0,0,.85-.36A1.33,1.33,0,0,0,185.82,117Z"/><path class="o" d="M188.75,119.31v-1.5a4.38,4.38,0,0,0,.91.41,3.14,3.14,0,0,0,.86.13,1.84,1.84,0,0,0,.77-.13.44.44,0,0,0,.29-.41.39.39,0,0,0-.13-.3,1.38,1.38,0,0,0-.33-.2l-.44-.16-.47-.16a4.51,4.51,0,0,1-.63-.29,1.55,1.55,0,0,1-.45-.36,1.18,1.18,0,0,1-.28-.47,1.75,1.75,0,0,1-.1-.64,1.66,1.66,0,0,1,.22-.87,1.72,1.72,0,0,1,.58-.59,2.56,2.56,0,0,1,.84-.34,4.79,4.79,0,0,1,1-.11,5.52,5.52,0,0,1,.81.06,5.58,5.58,0,0,1,.81.18V115a2.9,2.9,0,0,0-.75-.31,3,3,0,0,0-.79-.1,1.93,1.93,0,0,0-.34,0,1,1,0,0,0-.29.1.7.7,0,0,0-.19.15.34.34,0,0,0-.07.22.42.42,0,0,0,.1.28.94.94,0,0,0,.28.21l.38.15.41.14a5.58,5.58,0,0,1,.67.28,1.82,1.82,0,0,1,.51.36,1.33,1.33,0,0,1,.33.48,1.62,1.62,0,0,1,.11.65,1.69,1.69,0,0,1-.23.91,1.9,1.9,0,0,1-.61.62,2.61,2.61,0,0,1-.89.34,4.79,4.79,0,0,1-1,.11A5.52,5.52,0,0,1,188.75,119.31Z"/><path class="o" d="M180.26,152.16,178,160.57h-2.1l-1.4-5.39a5.59,5.59,0,0,1-.13-1h0a6.72,6.72,0,0,1-.16,1l-1.43,5.39H170.6l-2.21-8.41h2.07l1.18,5.6a6.65,6.65,0,0,1,.11,1h0a4.27,4.27,0,0,1,.17-1l1.52-5.58h2l1.38,5.65a7,7,0,0,1,.13.9h0a5.91,5.91,0,0,1,.13-.94l1.16-5.61Z"/><path class="o" d="M182.12,153.62a1.1,1.1,0,0,1-.77-.28.92.92,0,0,1-.3-.68.85.85,0,0,1,.3-.68,1.13,1.13,0,0,1,.77-.27,1.09,1.09,0,0,1,.77.27.85.85,0,0,1,.3.68.87.87,0,0,1-.3.69A1.09,1.09,0,0,1,182.12,153.62Zm.91,6.95h-1.85v-6H183Z"/><path class="o" d="M190.36,160.57h-1.84v-3.34c0-.93-.33-1.39-1-1.39a1,1,0,0,0-.79.37,1.41,1.41,0,0,0-.31.93v3.43h-1.85v-6h1.85v1h0a2.11,2.11,0,0,1,1.93-1.1c1.33,0,2,.82,2,2.47Z"/><path class="o" d="M197.73,160.57h-1.85v-.83h0a2.07,2.07,0,0,1-1.86,1,2.25,2.25,0,0,1-1.81-.79,3.29,3.29,0,0,1-.69-2.22,3.47,3.47,0,0,1,.76-2.38,2.45,2.45,0,0,1,2-.9,1.69,1.69,0,0,1,1.62.83h0v-3.57h1.85Zm-1.82-2.92v-.45a1.42,1.42,0,0,0-.34-1,1.25,1.25,0,0,0-1.88.1,2.31,2.31,0,0,0-.35,1.33,1.91,1.91,0,0,0,.34,1.22,1.19,1.19,0,0,0,1.67.17.91.91,0,0,0,.17-.17,1.86,1.86,0,0,0,.39-1.2Z"/><path class="o" d="M169.61,213.54v-1.87a3.56,3.56,0,0,0,2.31.85,3.36,3.36,0,0,0,.63-.06,1.14,1.14,0,0,0,.44-.18.7.7,0,0,0,.27-.27.67.67,0,0,0,.09-.34.74.74,0,0,0-.14-.43,1.67,1.67,0,0,0-.39-.36,4,4,0,0,0-.57-.32l-.72-.31a3.71,3.71,0,0,1-1.47-1,2.18,2.18,0,0,1-.49-1.43,2.25,2.25,0,0,1,.27-1.13,2.13,2.13,0,0,1,.72-.77,2.88,2.88,0,0,1,1.05-.45,5.36,5.36,0,0,1,1.26-.15,9.2,9.2,0,0,1,1.17.08,4.91,4.91,0,0,1,.93.25v1.75a2.59,2.59,0,0,0-.46-.26A3.23,3.23,0,0,0,174,207a3.12,3.12,0,0,0-.53-.11H173a2.88,2.88,0,0,0-.59.06,1.14,1.14,0,0,0-.44.18.77.77,0,0,0-.28.26.62.62,0,0,0-.1.35.57.57,0,0,0,.11.38,1.34,1.34,0,0,0,.31.32,5,5,0,0,0,.5.29l.66.29a7.69,7.69,0,0,1,.91.45,3.29,3.29,0,0,1,.69.54,2.15,2.15,0,0,1,.44.68,2.68,2.68,0,0,1,.15.89,2.47,2.47,0,0,1-.27,1.19,2.13,2.13,0,0,1-.72.77,2.87,2.87,0,0,1-1.06.42,6.19,6.19,0,0,1-1.29,0,8.4,8.4,0,0,1-1.32-.11A3.73,3.73,0,0,1,169.61,213.54Z"/><path class="o" d="M179.41,214a3.2,3.2,0,0,1-2.36-.84,3.47,3.47,0,0,1,0-4.61,3.38,3.38,0,0,1,2.41-.84,3.19,3.19,0,0,1,2.35.84,3,3,0,0,1,.84,2.22,3.2,3.2,0,0,1-.87,2.37A3.29,3.29,0,0,1,179.41,214Zm.05-4.87a1.2,1.2,0,0,0-1,.45,2,2,0,0,0-.37,1.28c0,1.15.47,1.72,1.4,1.72s1.33-.59,1.33-1.77-.47-1.67-1.36-1.67Z"/><path class="o" d="M185.74,213.87h-1.85V205h1.85Z"/><path class="o" d="M192.32,213.87h-1.76V213h0a2,2,0,0,1-1.79,1,1.87,1.87,0,0,1-1.37-.49,1.79,1.79,0,0,1-.5-1.32c0-1.17.69-1.84,2.07-2l1.63-.22c0-.65-.36-1-1.07-1a3.57,3.57,0,0,0-2,.64v-1.4a4.4,4.4,0,0,1,1.06-.35,6.26,6.26,0,0,1,1.22-.15,2.27,2.27,0,0,1,2.57,1.93,2.22,2.22,0,0,1,0,.63Zm-1.74-2.44V211l-1.09.15c-.6.07-.91.34-.91.81a.73.73,0,0,0,.22.52.87.87,0,0,0,.6.2,1.11,1.11,0,0,0,.85-.36A1.26,1.26,0,0,0,190.58,211.43Z"/><path class="o" d="M197.7,209.54a1.64,1.64,0,0,0-.78-.19,1.11,1.11,0,0,0-.95.45,2,2,0,0,0-.34,1.2v2.87h-1.85v-6h1.85V209h0a1.6,1.6,0,0,1,1.58-1.22,1.2,1.2,0,0,1,.46.07Z"/><path class="o" d="M245,98.71V97.55a2.59,2.59,0,0,0,.47.32,4.24,4.24,0,0,0,.59.23,3.3,3.3,0,0,0,.62.15,2.72,2.72,0,0,0,.57,0,2.32,2.32,0,0,0,1.36-.33,1.15,1.15,0,0,0,.45-1,1.1,1.1,0,0,0-.15-.59,1.54,1.54,0,0,0-.42-.46,3.12,3.12,0,0,0-.62-.4l-.78-.4-.82-.45a4.14,4.14,0,0,1-.66-.51,2.26,2.26,0,0,1-.44-.62,2.15,2.15,0,0,1,.09-1.82,2.21,2.21,0,0,1,.66-.7,3.28,3.28,0,0,1,.94-.41,5.22,5.22,0,0,1,2.88.16v1.11a3.31,3.31,0,0,0-1.91-.51,3.49,3.49,0,0,0-.65.06,2,2,0,0,0-.57.22,1.42,1.42,0,0,0-.41.4,1,1,0,0,0-.16.58,1.2,1.2,0,0,0,.12.56,1.47,1.47,0,0,0,.35.43,4.28,4.28,0,0,0,.57.37l.78.4c.3.15.59.3.86.47a3.7,3.7,0,0,1,.71.54,2.28,2.28,0,0,1,.48.67,1.83,1.83,0,0,1,.18.83,2,2,0,0,1-.25,1,2.07,2.07,0,0,1-.65.7,3.06,3.06,0,0,1-1,.39,5.45,5.45,0,0,1-1.14.12h-.49a3.13,3.13,0,0,1-.6-.1,5.47,5.47,0,0,1-.58-.15A1.64,1.64,0,0,1,245,98.71Z"/><path class="o" d="M255.72,98.77a3.14,3.14,0,0,1-1.64.42,2.7,2.7,0,0,1-2.07-.84,3,3,0,0,1-.79-2.16,3.32,3.32,0,0,1,.85-2.38,3,3,0,0,1,2.27-.9,3.18,3.18,0,0,1,1.39.29v1a2.38,2.38,0,0,0-1.43-.47,1.93,1.93,0,0,0-1.51.66,2.48,2.48,0,0,0-.59,1.73,2.39,2.39,0,0,0,.56,1.66,1.89,1.89,0,0,0,1.48.61,2.4,2.4,0,0,0,1.48-.52Z"/><path class="o" d="M261.51,99.05h-1v-.94h0a2,2,0,0,1-1.84,1.08,2,2,0,0,1-1.41-.48,1.64,1.64,0,0,1-.5-1.25c0-1.13.66-1.78,2-2l1.8-.25c0-1-.41-1.53-1.24-1.53a2.93,2.93,0,0,0-2,.74v-1a3.8,3.8,0,0,1,2-.56c1.41,0,2.12.74,2.12,2.24Zm-1-3-1.45.2a2.57,2.57,0,0,0-1,.33,1,1,0,0,0-.34.84.9.9,0,0,0,.32.72,1.15,1.15,0,0,0,.83.28,1.54,1.54,0,0,0,1.18-.5,1.81,1.81,0,0,0,.47-1.27Z"/><path class="o" d="M264.21,99.05h-1V90.17h1Z"/><path class="o" d="M270.94,96.29H266.7a2.29,2.29,0,0,0,.54,1.55,1.88,1.88,0,0,0,1.42.54,2.87,2.87,0,0,0,1.86-.67v.91a3.45,3.45,0,0,1-2.09.57,2.52,2.52,0,0,1-2-.82,3.35,3.35,0,0,1-.72-2.3,3.28,3.28,0,0,1,.79-2.28,2.54,2.54,0,0,1,2-.88,2.28,2.28,0,0,1,1.83.76,3.17,3.17,0,0,1,.64,2.12Zm-1-.82a2,2,0,0,0-.4-1.29,1.39,1.39,0,0,0-1.1-.46,1.57,1.57,0,0,0-1.16.48,2.25,2.25,0,0,0-.58,1.27Z"/><path class="o" d="M276.67,98.18h0v.87h-1V90.17h1V94.1h0a2.42,2.42,0,0,1,3.88-.39,3.35,3.35,0,0,1,.65,2.16,3.67,3.67,0,0,1-.73,2.41,2.45,2.45,0,0,1-2,.91A2,2,0,0,1,276.67,98.18Zm0-2.42v.84a1.74,1.74,0,0,0,.49,1.26,1.71,1.71,0,0,0,2.59-.15,3,3,0,0,0,.5-1.85,2.39,2.39,0,0,0-.47-1.57,1.52,1.52,0,0,0-1.25-.57,1.7,1.7,0,0,0-1.35.58,2.12,2.12,0,0,0-.54,1.46Z"/><path class="o" d="M287,99.05h-1v-.94h0a2,2,0,0,1-1.85,1.08,2,2,0,0,1-1.4-.48,1.63,1.63,0,0,1-.51-1.25c0-1.13.66-1.78,2-2l1.8-.25c0-1-.41-1.53-1.24-1.53a2.92,2.92,0,0,0-1.95.74v-1a3.8,3.8,0,0,1,2-.56c1.41,0,2.11.74,2.11,2.24Zm-1-3-1.45.2a2.57,2.57,0,0,0-1,.33,1,1,0,0,0-.34.84.91.91,0,0,0,.31.72,1.15,1.15,0,0,0,.83.28,1.58,1.58,0,0,0,1.19-.5,1.8,1.8,0,0,0,.46-1.27Z"/><path class="o" d="M292.86,98.77a3.14,3.14,0,0,1-1.64.42,2.7,2.7,0,0,1-2.07-.84,3,3,0,0,1-.79-2.16,3.32,3.32,0,0,1,.85-2.38,3,3,0,0,1,2.27-.9,3.18,3.18,0,0,1,1.39.29v1a2.38,2.38,0,0,0-1.43-.47,1.93,1.93,0,0,0-1.51.66,2.48,2.48,0,0,0-.59,1.73,2.39,2.39,0,0,0,.56,1.66,1.89,1.89,0,0,0,1.48.61,2.4,2.4,0,0,0,1.48-.52Z"/><path class="o" d="M299.12,99.05h-1.34l-2.65-2.88h0v2.88h-1V90.17h1V95.8h0l2.52-2.75h1.26l-2.79,2.89Z"/><path class="o" d="M249.37,113.17a3.14,3.14,0,0,1-1.64.42,2.7,2.7,0,0,1-2.07-.84,3,3,0,0,1-.79-2.16,3.32,3.32,0,0,1,.85-2.38,3,3,0,0,1,2.27-.9,3.18,3.18,0,0,1,1.39.29v1a2.38,2.38,0,0,0-1.43-.47,2,2,0,0,0-1.51.66,2.48,2.48,0,0,0-.59,1.73,2.39,2.39,0,0,0,.56,1.66,1.89,1.89,0,0,0,1.48.61,2.4,2.4,0,0,0,1.48-.52Z"/><path class="o" d="M253.19,113.59a2.79,2.79,0,0,1-2.13-.84,3.1,3.1,0,0,1-.79-2.23,3.15,3.15,0,0,1,.83-2.36,3,3,0,0,1,2.23-.85,2.65,2.65,0,0,1,2.09.82,3.3,3.3,0,0,1,.76,2.3,3.25,3.25,0,0,1-.82,2.3A2.86,2.86,0,0,1,253.19,113.59Zm.07-5.47a1.84,1.84,0,0,0-1.47.63,2.57,2.57,0,0,0-.54,1.73,2.41,2.41,0,0,0,.55,1.69,1.84,1.84,0,0,0,1.46.61,1.78,1.78,0,0,0,1.43-.6,3.21,3.21,0,0,0,0-3.45,1.73,1.73,0,0,0-1.43-.61Z"/><path class="o" d="M262,113.45h-1v-.94h0a2,2,0,0,1-1.84,1.08,1.94,1.94,0,0,1-1.4-.48,1.62,1.62,0,0,1-.51-1.26c0-1.12.67-1.77,2-1.95l1.8-.25c0-1-.41-1.53-1.24-1.53a3,3,0,0,0-2,.73v-1a3.8,3.8,0,0,1,2-.56c1.41,0,2.12.74,2.12,2.24Zm-1-3-1.45.2a2.57,2.57,0,0,0-1,.33,1,1,0,0,0-.34.84.9.9,0,0,0,.32.72,1.15,1.15,0,0,0,.83.28,1.54,1.54,0,0,0,1.18-.5A1.83,1.83,0,0,0,261,111Z"/><path class="o" d="M264.67,113.45h-1v-8.88h1Z"/><path class="o" d="M274.2,113.45h-1v-.94h0a2,2,0,0,1-1.85,1.08,1.94,1.94,0,0,1-1.4-.48,1.62,1.62,0,0,1-.51-1.26c0-1.12.67-1.77,2-1.95l1.8-.25c0-1-.41-1.53-1.24-1.53a3,3,0,0,0-1.95.73v-1a3.71,3.71,0,0,1,2-.56c1.41,0,2.12.74,2.12,2.24Zm-1-3-1.45.2a2.57,2.57,0,0,0-1,.33,1,1,0,0,0-.34.84.9.9,0,0,0,.32.72,1.15,1.15,0,0,0,.83.28,1.54,1.54,0,0,0,1.18-.5,1.81,1.81,0,0,0,.47-1.27Z"/><path class="o" d="M280.92,113.45h-1V110c0-1.28-.46-1.91-1.39-1.91a1.5,1.5,0,0,0-1.19.54,2,2,0,0,0-.48,1.37v3.42h-1v-6h1v1h0a2.16,2.16,0,0,1,2-1.13,1.85,1.85,0,0,1,1.5.63,2.87,2.87,0,0,1,.52,1.84Z"/><path class="o" d="M287.85,113.45h-1v-1h0a2.42,2.42,0,0,1-3.33.8,2.31,2.31,0,0,1-.54-.45,3.31,3.31,0,0,1-.68-2.19,3.61,3.61,0,0,1,.75-2.39,2.48,2.48,0,0,1,2-.89,1.9,1.9,0,0,1,1.8,1h0v-3.71h1Zm-1-2.71v-.89a1.7,1.7,0,0,0-.48-1.23,1.56,1.56,0,0,0-1.22-.5,1.67,1.67,0,0,0-1.38.64,2.82,2.82,0,0,0-.5,1.78,2.59,2.59,0,0,0,.48,1.64,1.6,1.6,0,0,0,1.3.6,1.62,1.62,0,0,0,1.3-.58,2.12,2.12,0,0,0,.54-1.46Z"/><path class="o" d="M298.21,113q0,3.3-3.17,3.3a4.19,4.19,0,0,1-1.94-.42v-1a4,4,0,0,0,1.93.56c1.48,0,2.22-.78,2.22-2.35v-.66h0a2.24,2.24,0,0,1-2.06,1.15,2.27,2.27,0,0,1-1.8-.8,3.2,3.2,0,0,1-.68-2.15,3.72,3.72,0,0,1,.73-2.43,2.45,2.45,0,0,1,2-.9,2,2,0,0,1,1.79,1h0v-.83h1Zm-1-2.23v-.89a1.67,1.67,0,0,0-.49-1.22,1.61,1.61,0,0,0-1.2-.51,1.64,1.64,0,0,0-1.39.64,2.87,2.87,0,0,0-.51,1.82,2.48,2.48,0,0,0,.48,1.6,1.58,1.58,0,0,0,1.29.6,1.68,1.68,0,0,0,1.31-.57,2.13,2.13,0,0,0,.55-1.5Z"/><path class="o" d="M304.35,113.45h-1v-.94h0a2,2,0,0,1-1.85,1.08,2,2,0,0,1-1.4-.48,1.62,1.62,0,0,1-.51-1.26c0-1.12.67-1.77,2-1.95l1.8-.25q0-1.53-1.23-1.53a3,3,0,0,0-2,.73v-1a3.8,3.8,0,0,1,2-.56c1.41,0,2.11.74,2.11,2.24Zm-1-3-1.45.2a2.57,2.57,0,0,0-1,.33,1,1,0,0,0-.34.84.91.91,0,0,0,.31.72,1.16,1.16,0,0,0,.84.28,1.54,1.54,0,0,0,1.18-.5,1.8,1.8,0,0,0,.46-1.27Z"/><path class="o" d="M305.77,113.23v-1a2.86,2.86,0,0,0,1.73.58q1.26,0,1.26-.84a.74.74,0,0,0-.1-.41,1.07,1.07,0,0,0-.3-.3,2.55,2.55,0,0,0-.43-.23l-.54-.21c-.26-.11-.5-.21-.7-.32a2.54,2.54,0,0,1-.5-.36,1.44,1.44,0,0,1-.31-.46,1.81,1.81,0,0,1-.1-.61,1.47,1.47,0,0,1,.2-.74,1.68,1.68,0,0,1,.51-.55,2.24,2.24,0,0,1,.74-.33,3.59,3.59,0,0,1,2.24.16v1a2.71,2.71,0,0,0-1.52-.43,2,2,0,0,0-.49.06,1.24,1.24,0,0,0-.37.17.78.78,0,0,0-.24.27.66.66,0,0,0-.08.34.76.76,0,0,0,.08.39.84.84,0,0,0,.25.28,2,2,0,0,0,.4.23l.53.21c.27.11.51.21.72.32a2.54,2.54,0,0,1,.54.36,1.45,1.45,0,0,1,.34.47,1.49,1.49,0,0,1,.12.62,1.44,1.44,0,0,1-.2.78,1.68,1.68,0,0,1-.52.54,2.32,2.32,0,0,1-.76.32,3.8,3.8,0,0,1-.89.11A3.36,3.36,0,0,1,305.77,113.23Z"/><path class="o" d="M149.2,24.07v-8.4h2.32c3,0,4.46,1.36,4.45,4.09a4.13,4.13,0,0,1-1.24,3.13,4.56,4.56,0,0,1-3.3,1.18Zm1-7.51v6.62h1.25a3.64,3.64,0,0,0,2.58-.89,3.31,3.31,0,0,0,.91-2.5c0-2.16-1.14-3.23-3.43-3.23Z"/><path class="o" d="M162.3,21.31h-4.24a2.29,2.29,0,0,0,.54,1.55,1.88,1.88,0,0,0,1.42.54,2.93,2.93,0,0,0,1.86-.67v.91a3.45,3.45,0,0,1-2.09.57,2.52,2.52,0,0,1-2-.82,3.35,3.35,0,0,1-.72-2.3,3.28,3.28,0,0,1,.79-2.28,2.54,2.54,0,0,1,2-.88,2.26,2.26,0,0,1,1.82.76,3.24,3.24,0,0,1,.65,2.12Zm-1-.81a1.9,1.9,0,0,0-.4-1.3,1.39,1.39,0,0,0-1.1-.46,1.56,1.56,0,0,0-1.15.48,2.2,2.2,0,0,0-.59,1.28Z"/><path class="o" d="M172.27,24.07h-1V20.62a2.58,2.58,0,0,0-.31-1.44,1.17,1.17,0,0,0-1-.44,1.3,1.3,0,0,0-1.05.56,2.18,2.18,0,0,0-.43,1.35v3.42h-1V20.51c0-1.18-.45-1.77-1.36-1.77a1.27,1.27,0,0,0-1,.53,2.2,2.2,0,0,0-.41,1.38v3.42h-1v-6h1V19h0a2,2,0,0,1,1.86-1.09,1.73,1.73,0,0,1,1.07.34,1.75,1.75,0,0,1,.63.9,2.12,2.12,0,0,1,2-1.24c1.32,0,2,.81,2,2.44Z"/><path class="o" d="M178.31,24.07h-1v-.94h0a2.2,2.2,0,0,1-3.25.61,1.67,1.67,0,0,1-.51-1.26c0-1.12.66-1.78,2-2l1.8-.25c0-1-.41-1.53-1.24-1.53a2.89,2.89,0,0,0-2,.74v-1a3.8,3.8,0,0,1,2-.56c1.41,0,2.11.75,2.11,2.24Zm-1-3-1.45.19a2.58,2.58,0,0,0-1,.34,1,1,0,0,0-.33.84.89.89,0,0,0,.31.71,1.15,1.15,0,0,0,.83.28,1.51,1.51,0,0,0,1.18-.5,1.81,1.81,0,0,0,.47-1.27Z"/><path class="o" d="M185,24.07h-1V20.65c0-1.27-.47-1.91-1.4-1.91a1.52,1.52,0,0,0-1.19.54,2,2,0,0,0-.47,1.37v3.42h-1v-6h1v1h0a2.18,2.18,0,0,1,2-1.14,1.81,1.81,0,0,1,1.51.64A2.79,2.79,0,0,1,185,20.4Z"/><path class="o" d="M192,24.07h-1v-1h0a2.43,2.43,0,0,1-3.34.8,2.26,2.26,0,0,1-.53-.44,3.35,3.35,0,0,1-.68-2.2,3.58,3.58,0,0,1,.75-2.38,2.48,2.48,0,0,1,2-.9,1.94,1.94,0,0,1,1.8,1h0V15.19h1Zm-1-2.71v-.89a1.7,1.7,0,0,0-.48-1.23,1.78,1.78,0,0,0-2.52.05l-.08.09a2.77,2.77,0,0,0-.51,1.78,2.53,2.53,0,0,0,.49,1.64,1.57,1.57,0,0,0,1.3.6,1.62,1.62,0,0,0,1.3-.58A2.16,2.16,0,0,0,191,21.36Z"/><path class="o" d="M152.2,33.44a1.15,1.15,0,0,0-.72-.19,1.22,1.22,0,0,0-1,.58,2.66,2.66,0,0,0-.41,1.58v3.06h-1v-6h1v1.24h0a2.11,2.11,0,0,1,.63-1,1.56,1.56,0,0,1,1.51-.27Z"/><path class="o" d="M158.08,35.71h-4.23a2.2,2.2,0,0,0,.54,1.55,1.84,1.84,0,0,0,1.41.54,3,3,0,0,0,1.87-.67V38a3.52,3.52,0,0,1-2.09.57,2.52,2.52,0,0,1-2-.82,3.83,3.83,0,0,1,.06-4.58,2.56,2.56,0,0,1,2-.88,2.26,2.26,0,0,1,1.82.76,3.17,3.17,0,0,1,.64,2.12Zm-1-.81a2,2,0,0,0-.4-1.3,1.39,1.39,0,0,0-1.1-.46,1.57,1.57,0,0,0-1.16.48,2.19,2.19,0,0,0-.58,1.28Z"/><path class="o" d="M164.72,38.47h-1v-1h0a2.22,2.22,0,0,1-2.06,1.16,2.29,2.29,0,0,1-1.81-.8,3.29,3.29,0,0,1-.67-2.2,3.58,3.58,0,0,1,.75-2.38,2.45,2.45,0,0,1,2-.9,1.92,1.92,0,0,1,1.79,1h0V29.59h1Zm-1-2.71v-.89a1.7,1.7,0,0,0-.48-1.23,1.78,1.78,0,0,0-2.52,0l-.08.09a2.77,2.77,0,0,0-.51,1.78,2.47,2.47,0,0,0,.49,1.64,1.58,1.58,0,0,0,1.29.6,1.66,1.66,0,0,0,1.31-.58,2.12,2.12,0,0,0,.54-1.46Z"/><path class="o" d="M171.44,38.47h-1v-.95h0a2,2,0,0,1-1.85,1.09c-1.43,0-2.14-.85-2.14-2.55V32.47h1V35.9c0,1.27.49,1.9,1.46,1.9a1.45,1.45,0,0,0,1.15-.52,1.9,1.9,0,0,0,.46-1.35V32.47h1Z"/><path class="o" d="M177.4,38.19a3.14,3.14,0,0,1-1.64.42,2.72,2.72,0,0,1-2.07-.83,3,3,0,0,1-.79-2.17,3.32,3.32,0,0,1,.85-2.38,3,3,0,0,1,2.27-.9,3.18,3.18,0,0,1,1.39.29v1a2.38,2.38,0,0,0-1.43-.47,2,2,0,0,0-1.51.66,2.52,2.52,0,0,0-.58,1.73,2.34,2.34,0,0,0,.55,1.66,1.89,1.89,0,0,0,1.48.61,2.4,2.4,0,0,0,1.48-.52Z"/><path class="o" d="M183.56,35.71h-4.24a2.29,2.29,0,0,0,.54,1.55,1.88,1.88,0,0,0,1.42.54,2.93,2.93,0,0,0,1.86-.67V38a3.45,3.45,0,0,1-2.09.57,2.52,2.52,0,0,1-2-.82,3.36,3.36,0,0,1-.73-2.3,3.29,3.29,0,0,1,.8-2.28,2.54,2.54,0,0,1,2-.88,2.26,2.26,0,0,1,1.82.76,3.24,3.24,0,0,1,.65,2.12Zm-1-.81a2,2,0,0,0-.4-1.3,1.39,1.39,0,0,0-1.1-.46,1.56,1.56,0,0,0-1.15.48,2.2,2.2,0,0,0-.59,1.28Z"/><path class="o" d="M190.19,38.47h-1v-1h0a2.23,2.23,0,0,1-2.06,1.16,2.26,2.26,0,0,1-1.81-.8,3.35,3.35,0,0,1-.68-2.2,3.58,3.58,0,0,1,.75-2.38,2.48,2.48,0,0,1,2-.9,1.94,1.94,0,0,1,1.8,1h0V29.59h1Zm-1-2.71v-.89a1.7,1.7,0,0,0-.48-1.23,1.64,1.64,0,0,0-1.22-.5,1.67,1.67,0,0,0-1.38.64,2.82,2.82,0,0,0-.5,1.78,2.58,2.58,0,0,0,.48,1.64,1.57,1.57,0,0,0,1.3.6,1.62,1.62,0,0,0,1.3-.58,2.12,2.12,0,0,0,.54-1.46Z"/><rect class="a" width="322" height="264"/><polyline class="b" points="244.11 241.98 38.21 241.98 38.21 7.55"/><polygon class="c" points="243.01 238.24 249.49 241.98 243.01 245.72 243.01 238.24"/><polygon class="c" points="41.95 8.64 38.21 2.17 34.47 8.64 41.95 8.64"/><rect class="a" x="46.06" y="200.42" width="52.3" height="35.9"/><rect class="d" x="46.06" y="200.42" width="52.3" height="35.9"/><path class="a" d="M98.11,200.67v35.4H46.31v-35.4h51.8m.5-.5H45.81v36.4h52.8Z"/><path d="M98.61,200.17v36.4H45.81v-36.4h52.8m.5-.5H45.31v37.4h53.8Z"/><rect class="a" x="46.06" y="152.02" width="52.3" height="47.9"/><rect class="e" x="46.06" y="152.02" width="52.3" height="47.9"/><path class="a" d="M98.11,152.27v47.4H46.31v-47.4h51.8m.5-.5H45.81v48.4h52.8Z"/><path d="M98.61,151.77v48.4H45.81v-48.4h52.8m.5-.5H45.31v49.4h53.8Z"/><rect class="a" x="46.06" y="100.42" width="52.3" height="51.1"/><rect class="f" x="46.06" y="100.42" width="52.3" height="51.1"/><path class="a" d="M98.11,100.67v50.6H46.31v-50.6h51.8m.5-.5H45.81v51.6h52.8Z"/><path d="M98.61,100.17v51.6H45.81v-51.6h52.8m.5-.5H45.31v52.6h53.8Z"/><rect class="a" x="46.06" y="11.22" width="52.3" height="88.7"/><rect class="g" x="46.06" y="11.22" width="52.3" height="88.7"/><path class="a" d="M98.11,11.47v88.2H46.31V11.47h51.8m.5-.5H45.81v89.2h52.8V11Z"/><path d="M98.61,11v89.2H45.81V11h52.8m.5-.5H45.31v90.2h53.8V10.5Z"/><rect class="a" x="157.26" y="182.82" width="52.3" height="53.5"/><rect class="h" x="157.26" y="182.82" width="52.3" height="53.5"/><path class="a" d="M209.31,183.07v53h-51.8v-53h51.8m.5-.5H157v54h52.8v-54Z"/><path d="M209.81,182.57v54H157v-54h52.8m.5-.5H156.5v55h53.8Z"/><rect class="a" x="157.26" y="130.02" width="52.3" height="52.3"/><rect class="i" x="157.26" y="130.02" width="52.3" height="52.3"/><path class="a" d="M209.31,130.27v51.8h-51.8v-51.8h51.8m.5-.5H157v52.8h52.8v-52.8Z"/><path d="M209.81,129.77v52.8H157v-52.8h52.8m.5-.5H156.5v53.8h53.8Z"/><rect class="a" x="157.26" y="77.22" width="52.3" height="25.9"/><rect class="j" x="157.26" y="77.22" width="52.3" height="25.9"/><path class="a" d="M209.31,77.47v25.4h-51.8V77.47h51.8m.5-.5H157v26.4h52.8V77Z"/><path d="M209.81,77v26.4H157V77h52.8m.5-.5H156.5v27.4h53.8V76.5Z"/><rect class="a" x="157.26" y="103.62" width="52.3" height="25.9"/><rect class="k" x="157.26" y="103.62" width="52.3" height="25.9"/><path class="a" d="M209.31,103.87v25.4h-51.8v-25.4h51.8m.5-.5H157v26.4h52.8v-26.4Z"/><path d="M209.81,103.37v26.4H157v-26.4h52.8m.5-.5H156.5v27.4h53.8Z"/><line class="l" x1="99.81" y1="10.97" x2="155.81" y2="76.97"/><line class="m" x1="99.81" y1="10.97" x2="155.81" y2="76.97"/><path class="c" d="M155.43,77.29l-1.66-2,.76-.65,1.66,2Zm-3.6-4.24-1.94-2.28.76-.65,1.94,2.29ZM148,68.48l-2-2.29.76-.65,1.94,2.29Zm-3.88-4.58-1.94-2.28.76-.65,1.94,2.29Zm-3.88-4.57-2-2.33.77-.65,2,2.33Zm-3.89-4.58-1.94-2.29.76-.64,2,2.28Zm-3.88-4.57-1.94-2.29.76-.65,1.94,2.29Zm-3.88-4.58-1.94-2.29.76-.64L129.3,45ZM124.66,41l-1.94-2.29.76-.65,1.94,2.29Zm-3.88-4.58-1.94-2.28.76-.65,1.94,2.28Zm-3.89-4.57L115,29.59l.77-.65,1.94,2.29ZM113,27.3,111.07,25l.76-.64,1.94,2.28Zm-3.88-4.57-1.94-2.29.76-.65,1.94,2.29Zm-3.88-4.58-1.94-2.29.76-.64L106,17.5Zm-3.88-4.57-1.94-2.29.76-.65,1.94,2.29Z"/><path class="n" d="M214.86,77h6.35a5,5,0,0,1,5,5v42.8a5,5,0,0,1-5,5h-6.35"/><line class="n" x1="226.21" y1="103.37" x2="239.41" y2="103.37"/><path class="c" d="M140.86,28.3h-1v-1h1Zm-3,0h-1v-1h1Zm-3,0h-1v-1h1Zm-3,0h-1v-1h1Zm-3,0h-1v-1h1Zm-3,0h-1v-1h1Zm-3,0h-1v-1h1Zm-3,0h-1v-1h1Zm-3,0h-1v-1h1Z"/><path d="M149.83,33.12h-.9V29.28h3.82l.2-.92h-5.12v-.72h11.53v.72h-5.5l-.24.92h4.7V31.9a1,1,0,0,1-1.16,1.16c-.37,0-.78,0-1.23,0a6.16,6.16,0,0,0-.16-.9,10.71,10.71,0,0,0,1.13.07c.35,0,.53-.16.53-.47V30h-2v2.78h-.84V30h-1.94v2.78h-.83V30h-2Zm-1.6-9.54h5V22.9h-4.36v-.72h9.47v.72H154v.68h5v2.18h-.91V24.31H154V27.1h-.83V24.31h-4.05v1.45h-.9ZM149.8,25h2.76v.63H149.8Zm0,1.31h2.76v.64H149.8ZM154.63,25h2.75v.63h-2.75Zm0,1.31h2.75v.64h-2.75Z"/><path d="M160,23.75h5.15V21.63h1v2.12h5.12v.84h-5.12v.73a12.9,12.9,0,0,0,1.36,2.39,20.48,20.48,0,0,0,2.3-2.35l.83.7c-1,1-1.81,1.74-2.56,2.36a10.71,10.71,0,0,0,3.37,2.63,8.87,8.87,0,0,0-.71.91,11.92,11.92,0,0,1-4.59-4.73v4.3c0,1-.53,1.51-1.58,1.51L163,33c0-.32-.11-.67-.19-1.05a14.2,14.2,0,0,0,1.51.11.75.75,0,0,0,.84-.86V29c-1.85.94-3.45,1.8-4.82,2.58l-.51-1c1.64-.76,3.41-1.66,5.33-2.71V24.59H160Zm1.72,1.54c.63.62,1.26,1.31,1.91,2.08l-.81.66c-.54-.72-1.14-1.43-1.8-2.16Zm5.49-3,.56-.62a15.4,15.4,0,0,1,1.77,1.27l-.63.71C168.47,23.2,167.9,22.75,167.23,22.25Z"/><path d="M171.84,31.55a48,48,0,0,0,1.49-4.86c.3.14.59.26.87.37q-.52,1.89-1.41,4.81Zm.22-8.48.72-.51c.55.64,1.1,1.31,1.64,2l-.81.59C173,24.26,172.45,23.55,172.06,23.07ZM178,32.49a11.47,11.47,0,0,0,2.29-2.55,26.71,26.71,0,0,1-.53-5.62h-3.9v3a9.36,9.36,0,0,1-1.66,5.79,4.62,4.62,0,0,0-.72-.65A8.1,8.1,0,0,0,175,27.26V23.53h4.7c0-.63,0-1.25,0-1.84h.86v1.84h2.83v.79h-2.82a26.86,26.86,0,0,0,.33,4.54,16.66,16.66,0,0,0,1.34-3.38l.85.3a20.91,20.91,0,0,1-1.91,4.28,5.48,5.48,0,0,0,.69,1.61c.25.3.42.24.51-.19s.16-1,.23-1.69c.36.14.65.24.86.3a20.47,20.47,0,0,1-.36,2.05c-.17.62-.45.92-.84.91a1.17,1.17,0,0,1-.95-.57,7.16,7.16,0,0,1-.75-1.49,11.85,11.85,0,0,1-1.84,2.06A6.44,6.44,0,0,0,178,32.49Zm-1.62-7.13h2.89v.75h-2.89Zm.21,1.82h2.65v3.45h-1.88v.72h-.77Zm1.87,2.72v-2h-1.1v2Zm2.62-7.77.6-.47q.59.59,1.11,1.17l-.67.53C181.79,23,181.44,22.54,181.07,22.13Z"/><path d="M193,27.05l.86.56a15.23,15.23,0,0,1-9.44,5.58c-.17-.31-.37-.62-.58-.93Q189.88,31.08,193,27.05Zm-6.29-3.77,1,.37a40.1,40.1,0,0,1-2.77,5.15c-.24-.16-.53-.33-.88-.53A27.53,27.53,0,0,0,186.66,23.28Zm2.42-1.61h1V29h-1Zm2.28,1.91.73-.56c1.25,1.34,2.38,2.62,3.38,3.82l-.84.68Q193,25.44,191.36,23.58Z"/><path d="M246.09,91.87c.6.69,1.1,1.32,1.49,1.86l-.73.55c-.46-.69-.93-1.33-1.4-1.91Zm.5,10.94h-.89V94.74h2.49v-3.4h.89v3.4h2.44v6.68a1.13,1.13,0,0,1-1.26,1.28h-1.52c-.05-.26-.12-.58-.22-1a15,15,0,0,0,1.6.09q.51,0,.51-.48V100h-4Zm4-7.25h-4v1.38h4Zm-4,3.59h4V97.76h-4Zm4.57-7.33.75.45a24.06,24.06,0,0,1-1.47,2.07c-.29-.21-.53-.37-.72-.49A15.62,15.62,0,0,0,251.16,91.82Zm3.84-.36h.91v9.8a1.25,1.25,0,0,1-1.42,1.39c-.43,0-1,0-1.84,0a5.61,5.61,0,0,0-.19-1c.82.07,1.39.11,1.73.11A.68.68,0,0,0,255,101Zm-1.37,8.26h-.9V92.5h.9Z"/><path d="M257.06,101.23q.72-2,1.49-4.86c.29.14.58.26.86.37q-.53,1.89-1.4,4.81Zm.21-8.48.73-.51c.54.64,1.09,1.31,1.64,2l-.81.59C258.19,93.94,257.67,93.23,257.27,92.75Zm5.93,9.42a11.3,11.3,0,0,0,2.29-2.56A27.21,27.21,0,0,1,265,94h-3.89v3a9.36,9.36,0,0,1-1.67,5.79,4.64,4.64,0,0,0-.71-.65,8.1,8.1,0,0,0,1.56-5.19V93.2H265c0-.62,0-1.24,0-1.84h.86V93.2h2.84V94H265.8a29.14,29.14,0,0,0,.33,4.54,17.27,17.27,0,0,0,1.35-3.38l.84.29a20.75,20.75,0,0,1-1.9,4.29,5.5,5.5,0,0,0,.68,1.61c.25.3.42.24.52-.19s.16-1,.22-1.69c.37.14.66.23.87.3a17.68,17.68,0,0,1-.37,2c-.17.62-.45.92-.84.91a1.18,1.18,0,0,1-.95-.57,7.14,7.14,0,0,1-.74-1.49,12.72,12.72,0,0,1-1.85,2.06A5.71,5.71,0,0,0,263.2,102.17ZM261.58,95h2.9v.75h-2.9Zm.21,1.82h2.65v3.45h-1.87V101h-.78Zm1.88,2.72v-2h-1.1v2Zm2.61-7.77.6-.47q.58.59,1.11,1.17l-.67.53C267,92.63,266.66,92.22,266.28,91.81Z"/><path d="M268.92,93.77l.74-.2c.26.94.47,1.78.63,2.53l-.81.22A20.39,20.39,0,0,0,268.92,93.77Zm1.71-2.36h.85c0,2.5,0,4.58-.11,6.22.71,1,1.32,2,1.83,2.81l-.72.49c-.36-.66-.78-1.37-1.25-2.14a9.3,9.3,0,0,1-1.63,4.07,9,9,0,0,0-.6-.76,9.42,9.42,0,0,0,1.56-5.19C270.61,95.7,270.64,93.86,270.63,91.41Zm2.6,2.4c-.26.89-.51,1.69-.76,2.38l-.76-.29a16.11,16.11,0,0,0,.75-2.33Zm7.5,7.64c-.3.38-.52.65-.64.83a8.45,8.45,0,0,1-3-2.78v3.36h-.85V99.54a11.17,11.17,0,0,1-3.3,3c-.19-.22-.41-.46-.66-.71a10.32,10.32,0,0,0,3.38-2.59h-2.83v-.78h3.41V97.22h-1.4v.38H274V93.51H272.8v-.77H274V91.39h.85v1.35h3.66V91.41h.85v1.33h1.2v.77h-1.2V97.6h-.85v-.38h-1.41v1.22h3.55v.78h-3.05A7.57,7.57,0,0,0,280.73,101.45Zm-5.89-6.84h3.66v-1.1h-3.66Zm0,1.86h3.66V95.36h-3.66Z"/><path d="M281.38,95.55h2.2q.06-.42.09-.87h.89q0,.45-.09.87h7.78v.85h-7.9a12,12,0,0,1-2.78,6.2l-.61-.7a11,11,0,0,0,2.49-5.5h-2.07Zm9.22-3.66h.84v2.7h-.84v-.4h-8.46v-2.3H283v1.48h3.38V91.28h.86v2.09h3.38Zm-3.07,4.8h.86a10.39,10.39,0,0,1-.1,1.52,5.47,5.47,0,0,0,4.1,3.82,6.09,6.09,0,0,0-.68.84A6.19,6.19,0,0,1,288,99.54c-.51,1.61-1.87,2.74-4.1,3.38a8,8,0,0,0-.64-.83,5.44,5.44,0,0,0,3.62-2.15A6.4,6.4,0,0,0,287.53,96.69ZM284.36,98l.72-.45c.44.62.85,1.22,1.22,1.82l-.76.5A19.39,19.39,0,0,0,284.36,98Zm5.25,1.19a18.2,18.2,0,0,0,1.59-1.72l.69.6c-.52.58-1.07,1.16-1.67,1.73Z"/><path d="M293,99.58a14.79,14.79,0,0,0,2.12-3.94H293v-.79h2.24V93c-.61.1-1.22.18-1.85.26-.07-.26-.16-.53-.26-.81a41.66,41.66,0,0,0,4.73-.79l.26.82c-.64.13-1.31.25-2,.37v2h2.19v.79h-2.19v1.51l.42-.42c.62.53,1.23,1.1,1.82,1.69l-.67.68c-.47-.54-1-1.09-1.57-1.65v5.45h-.89V97.27a14.77,14.77,0,0,1-1.86,3.32C293.27,100.28,293.13,100,293,99.58Zm6-6.86h5.18v9.79h-.94v-1.14h-3.3v1.14h-.94Zm4.24.87h-3.3v6.94h3.3Z"/><path d="M305,101.92c2.92-1.24,4.63-3,5.11-5.2h-5v-.89h5.08c0-.55.05-1.51.05-2.87h-4.49v-.89H315.9V93h-4.61c0,.82,0,1.77,0,2.87h5.25v.89h-5.1a7.26,7.26,0,0,0,5.26,5l-.81,1a8.23,8.23,0,0,1-5-5.09q-.92,3.3-5.12,5.24C305.54,102.6,305.3,102.31,305,101.92Z"/><path d="M244.87,110.35a14.29,14.29,0,0,0,2.57-4.7l.88.29c-.12.31-.24.62-.37.91h2.79v.86a9.23,9.23,0,0,1-4.88,6.7l-.66-.7a9.54,9.54,0,0,0,2.62-2c-.5-.39-1-.75-1.5-1.09l.41-.61c.55.34,1.09.7,1.61,1.08a8.43,8.43,0,0,0,.56-.88,16.05,16.05,0,0,0-1.59-1l.39-.63c.55.29,1.07.61,1.57.93a8.14,8.14,0,0,0,.55-1.8h-2.25a21.52,21.52,0,0,1-2,3.31C245.34,110.81,245.12,110.59,244.87,110.35Zm1.67,4,.84.3a24,24,0,0,1-1.27,2.57c-.26-.12-.54-.25-.84-.36A16.9,16.9,0,0,0,246.54,114.32Zm1.94.5.77-.35c.37.67.74,1.4,1.12,2.18l-.87.38C249.22,116.33,248.88,115.6,248.48,114.82Zm2.29-6.36h1.88c0-.78,0-1.68,0-2.7h.89c0,1.06,0,2,0,2.7h2.92v.84h-2.79a5.7,5.7,0,0,0,3.06,3.93L256,114a6.35,6.35,0,0,1-2.81-3.7,6.64,6.64,0,0,1-3.28,3.83,9.44,9.44,0,0,0-.59-.78,5.71,5.71,0,0,0,3.26-4.09h-1.81Zm.64,6.28.77-.34c.41.69.79,1.4,1.14,2.15l-.84.36C252.13,116.13,251.78,115.41,251.41,114.74Zm2.68-8.25.55-.53,1.53,1.36-.62.61C255.13,107.49,254.65,107,254.09,106.49Zm.18,8,.75-.45c.59.89,1.1,1.68,1.51,2.38l-.83.49C255.29,116.23,254.82,115.42,254.27,114.52Z"/><path d="M257,110.36a14.81,14.81,0,0,0,2.52-4.74l.95.29c-.13.36-.27.72-.41,1.06h8v.82h-8.36a15.85,15.85,0,0,1-2.33,3.64C257.21,111,257.09,110.62,257,110.36Zm1.22,1.25v-.82h8.32V112a9,9,0,0,0,.63,4c.19.28.33.25.43-.1a15.66,15.66,0,0,0,.24-2.06c.28.1.56.18.84.25a12.75,12.75,0,0,1-.25,2c-.18.76-.54,1.14-1.09,1.14a1.13,1.13,0,0,1-1-.76,10.09,10.09,0,0,1-.72-4.38v-.46Zm1.31-2.72h7.64v.8h-7.64Z"/><path d="M63.63,51l.94.69a13.37,13.37,0,0,0,.34-1.51l1.24.17c0,.24-.08.47-.12.7H67.7a13.92,13.92,0,0,1-.14,1.87h.77c0-1.12,0-2.08,0-2.86h1.37c0,.66,0,1.61-.07,2.86h2V54.2H69.88a6,6,0,0,0,2,3c-.2.27-.48.69-.82,1.26a7.4,7.4,0,0,1-1.9-3,6.31,6.31,0,0,1-1.84,3.15,11.45,11.45,0,0,0-1-1,5.45,5.45,0,0,0,1.93-3.41h-.95a8.62,8.62,0,0,1-2.55,4.24,6.82,6.82,0,0,0-.85-1.1A8,8,0,0,0,65.09,56c-.29-.3-.55-.56-.78-.77-.12.19-.25.37-.38.55-.23-.44-.44-.82-.65-1.15a9.47,9.47,0,0,0,1.29-2.94L62.86,54c0,1.15,0,2.09-.1,2.81l1.4,1.81a1.68,1.68,0,0,0,.07-.24l1.27.41c-.26,1-.54,1.86-.85,2.68L63.35,61a19.88,19.88,0,0,0,.74-2.1l-.92.8-.68-1.16a6.68,6.68,0,0,1-1.28,2.89c-.36-.42-.71-.81-1-1.14a7.5,7.5,0,0,0,1.36-4.61l-.79.18c-.26-1.69-.46-2.91-.61-3.65L61,52c.12.72.29,1.85.54,3.38V49.91h1.38l0,2.5C63.2,51.85,63.45,51.38,63.63,51Zm2,4.16c.11-.21.2-.43.3-.66l-.8-.68c-.09.21-.2.41-.31.61A8.09,8.09,0,0,1,65.6,55.15Zm.8-2.81h-.73c0,.18-.11.35-.17.52l.72.59A9.88,9.88,0,0,0,66.4,52.34Zm.67,6.42c.08.4.22,1.2.41,2.38l-1.37.2c-.09-.83-.2-1.62-.34-2.37Zm1.77-.24c.17.64.35,1.44.53,2.38l-1.25.26c-.15-.84-.32-1.63-.51-2.38Zm1.84-.25c.35.78.72,1.66,1.12,2.64l-1.27.56c-.33-.93-.68-1.83-1.06-2.7Zm.07-8.1c.29.55.57,1.12.85,1.72l-1,.5c-.31-.65-.59-1.23-.86-1.72Z"/><path d="M75.75,52.15l1,1c-.66.62-1.24,1.17-1.72,1.66q0,1.34-.12,2.28L76.6,59l-1.13,1c-.3-.44-.56-.84-.8-1.18a8.88,8.88,0,0,1-1.38,2.82,12.67,12.67,0,0,0-1.22-1.12,9.35,9.35,0,0,0,1.55-5.73c0-.63,0-2.22,0-4.77h1.49c0,1.17,0,2.2,0,3.08C75.33,52.73,75.55,52.43,75.75,52.15Zm-2.69-.08c.17,1.45.31,2.68.41,3.68l-.88.16q-.21-2.17-.45-3.69Zm2.82,4.81h3.28V56h-2V52.28H76.08V51h1.07V50h1.47V51H81.2V50h1.48V51h1.08v1.24H82.68V56H80.62v.84h3.16v1.25h-2.7A6.82,6.82,0,0,0,84,59.75c-.33.48-.6.91-.84,1.28a7.79,7.79,0,0,1-2.5-1.93v2.37H79.16V59.12a11.22,11.22,0,0,1-2.58,2,11.47,11.47,0,0,0-1-1.16,9.92,9.92,0,0,0,3-1.81H75.88ZM78.62,53H81.2v-.69H78.62Zm2.58,1.86v-.69H78.62v.69Z"/><path d="M175.24,84.3l.94.69c.13-.47.24-1,.34-1.51l1.24.18c0,.23-.08.46-.13.69h1.68a15.63,15.63,0,0,1-.14,1.87h.77c0-1.12,0-2.07,0-2.85h1.37c0,.65,0,1.6-.07,2.85h2v1.29h-1.74a6.08,6.08,0,0,0,2,3c-.2.26-.47.68-.82,1.25a7.54,7.54,0,0,1-1.9-3A6.29,6.29,0,0,1,179,92a10.51,10.51,0,0,0-1.05-1.06,5.41,5.41,0,0,0,1.94-3.41h-.95a8.66,8.66,0,0,1-2.56,4.25,7,7,0,0,0-.84-1.11,7.42,7.42,0,0,0,1.19-1.33c-.29-.31-.54-.56-.77-.77-.13.18-.25.37-.39.55-.22-.44-.44-.82-.64-1.15A9.68,9.68,0,0,0,176.18,85c-.56.74-1.14,1.5-1.71,2.27,0,1.16,0,2.09-.11,2.81l1.41,1.82c0-.08,0-.16.07-.25l1.26.41c-.25,1-.54,1.87-.84,2.69l-1.3-.48c.27-.67.52-1.37.74-2.1l-.93.79-.68-1.16a6.61,6.61,0,0,1-1.28,2.9,15.13,15.13,0,0,0-1-1.15,7.42,7.42,0,0,0,1.36-4.6l-.78.17c-.26-1.69-.47-2.9-.61-3.64l.86-.2c.12.72.3,1.84.54,3.37,0-1.22,0-3,0-5.44h1.39l0,2.5C174.8,85.17,175.05,84.69,175.24,84.3Zm2,4.16c.1-.21.2-.43.29-.65l-.79-.68-.31.61C176.68,88,177,88.21,177.21,88.46Zm.8-2.81h-.73c-.06.18-.11.36-.18.53l.73.58A9.88,9.88,0,0,0,178,85.65Zm.66,6.42c.09.41.23,1.2.41,2.38l-1.37.2c-.08-.83-.2-1.62-.34-2.37Zm1.77-.23c.18.64.35,1.43.53,2.38l-1.24.25c-.15-.83-.32-1.62-.52-2.37Zm1.84-.26c.35.78.73,1.66,1.13,2.65l-1.28.55q-.49-1.4-1-2.7Zm.07-8.1c.29.55.58,1.12.86,1.73l-1,.5c-.3-.66-.59-1.23-.85-1.72Z"/><path d="M187.36,85.46l1,1c-.67.62-1.24,1.17-1.72,1.65,0,.89-.07,1.65-.12,2.29l1.65,1.92-1.12,1-.8-1.19a8.82,8.82,0,0,1-1.38,2.83,12.81,12.81,0,0,0-1.22-1.13,9.35,9.35,0,0,0,1.54-5.73q0-.93,0-4.77h1.49c0,1.18,0,2.2-.05,3.09Zm-2.7-.08c.17,1.45.31,2.68.41,3.68l-.88.16c-.14-1.45-.29-2.68-.44-3.69Zm2.83,4.82h3.28v-.85h-2V85.59h-1.06V84.35h1.06V83.27h1.48v1.08h2.58V83.27h1.47v1.08h1.08v1.24h-1.08v3.76h-2.06v.85h3.16v1.24h-2.69a6.85,6.85,0,0,0,2.87,1.63c-.32.48-.6.9-.83,1.28a7.86,7.86,0,0,1-2.51-1.94v2.37h-1.45V92.44a12.3,12.3,0,0,1-2.58,2,10.66,10.66,0,0,0-.95-1.16,9.94,9.94,0,0,0,3-1.82h-2.73Zm2.74-3.92h2.58v-.69h-2.58Zm2.58,1.87v-.69h-2.58v.69Z"/><path d="M54.17,123.42h4.61a18.29,18.29,0,0,0,.19-2.15H54.81v-1.6H64.94v1.6H60.68c0,.68-.08,1.4-.13,2.15h5V125H61.05A6.84,6.84,0,0,0,65.64,129c-.32.36-.77.91-1.36,1.66a8.32,8.32,0,0,1-4.5-4.56,9,9,0,0,1-4.42,4.5q-.45-.58-1.32-1.5c2.5-1.13,4-2.48,4.37-4H54.17Z"/><path d="M67.8,123.29c.46.29.9.58,1.31.87a4.65,4.65,0,0,0,.42-.57q-.65-.41-1.35-.81l.76-1,1.16.68a7,7,0,0,0,.31-1.07H68.65a12.69,12.69,0,0,1-2,2.66c-.23-.49-.49-1-.76-1.43A8.37,8.37,0,0,0,68,119.11h1.63c-.1.32-.22.64-.34,1H72v1.25a8.66,8.66,0,0,1-4.47,6.09l1.41.62c-.38.77-.86,1.66-1.46,2.66L66.1,130a21.53,21.53,0,0,0,1.39-2.55l-.46.24c-.25-.44-.55-.89-.89-1.37a8.3,8.3,0,0,0,2-1.19c-.38-.26-.78-.54-1.2-.81Zm3,4.33c.33.77.63,1.56.9,2.38l-1.57.37c-.3-.93-.58-1.72-.82-2.36Zm1.09-5.92h1.43c0-.75,0-1.62,0-2.6h1.55c0,1,0,1.87,0,2.6h2.62v1.47H75.33a5.88,5.88,0,0,0,2.45,3c-.36.48-.69.94-1,1.39A6.82,6.82,0,0,1,74.32,124a6.62,6.62,0,0,1-2.9,3.66c-.31-.45-.64-.9-1-1.33a5.29,5.29,0,0,0,2.74-3.19H71.92Zm1.64,5.82c.32.65.67,1.42,1,2.3l-1.53.45c-.29-.8-.6-1.57-.94-2.32Zm2.67-.17c.46.79.91,1.66,1.36,2.62l-1.44.55c-.52-1.1-1-2-1.3-2.61Zm-.13-8.15c.47.5.89,1,1.27,1.46l-1.08.75c-.38-.52-.79-1-1.22-1.53Z"/><path d="M80.25,119h1.8c-.13.32-.28.65-.44,1h7.47v1.38H80.86a20.48,20.48,0,0,1-2,2.73c-.31-.68-.6-1.26-.87-1.73A12.32,12.32,0,0,0,80.25,119Zm-1,6.51v-1.38h8.25v2c0,1.76.21,2.65.64,2.65s.49-.64.56-1.92a4.65,4.65,0,0,0,1,.6,7.51,7.51,0,0,1-.49,2.38,1.14,1.14,0,0,1-1,.74,1.8,1.8,0,0,1-1.69-1,7.18,7.18,0,0,1-.56-3.27v-.73Zm1.27-3.44h7.8v1.33H80.5Z"/><path d="M165.72,114h4.61a18.29,18.29,0,0,0,.19-2.15h-4.16v-1.6h10.13v1.6h-4.26c0,.68-.08,1.4-.13,2.15h5v1.62H172.6a6.81,6.81,0,0,0,4.59,3.92c-.32.36-.77.92-1.36,1.67a8.32,8.32,0,0,1-4.5-4.56,9,9,0,0,1-4.42,4.5q-.45-.59-1.32-1.5c2.5-1.13,4-2.48,4.37-4h-4.24Z"/><path d="M179.35,113.9c.46.29.9.58,1.31.87a3.8,3.8,0,0,0,.42-.57c-.43-.27-.87-.54-1.35-.81l.76-1,1.16.68A7,7,0,0,0,182,112H180.2a12.69,12.69,0,0,1-2,2.66c-.23-.49-.49-1-.76-1.43a8.37,8.37,0,0,0,2.08-3.49h1.63c-.1.32-.22.64-.34,1h2.68v1.25A8.62,8.62,0,0,1,179,118l1.41.63c-.38.77-.86,1.66-1.46,2.66l-1.34-.73A21.53,21.53,0,0,0,179,118l-.46.24c-.25-.44-.55-.89-.89-1.37a8.63,8.63,0,0,0,2.05-1.19q-.57-.41-1.2-.81Zm3,4.33c.33.77.63,1.56.9,2.38l-1.57.37c-.3-.93-.58-1.72-.82-2.37Zm1.09-5.92h1.43c0-.75,0-1.62,0-2.6h1.55c0,1,0,1.86-.05,2.6H189v1.46h-2.16a5.86,5.86,0,0,0,2.45,3.06c-.36.48-.69.94-1,1.39a6.82,6.82,0,0,1-2.46-3.58,6.62,6.62,0,0,1-2.9,3.66,15.93,15.93,0,0,0-1-1.33,5.3,5.3,0,0,0,2.74-3.2h-1.24Zm1.64,5.82c.32.65.67,1.42,1,2.3l-1.53.45c-.29-.8-.6-1.57-.94-2.32Zm2.67-.17c.46.79.91,1.66,1.36,2.62l-1.44.55c-.52-1.1-1-2-1.3-2.61Zm-.13-8.15c.47.5.89,1,1.27,1.46l-1.08.75c-.38-.52-.79-1-1.22-1.53Z"/><path d="M191.8,109.63h1.8c-.13.32-.28.65-.44,1h7.47V112h-8.22a20.48,20.48,0,0,1-2,2.73c-.31-.68-.6-1.26-.87-1.73A12.32,12.32,0,0,0,191.8,109.63Zm-1,6.51v-1.38H199v2c0,1.76.21,2.64.64,2.64s.49-.63.56-1.91a4.65,4.65,0,0,0,1,.6,7.37,7.37,0,0,1-.49,2.37,1.13,1.13,0,0,1-1,.75,1.8,1.8,0,0,1-1.69-1,7.24,7.24,0,0,1-.56-3.27v-.73Zm1.27-3.44h7.8V114h-7.8Z"/><path d="M76.34,178.5a.2.2,0,0,0,.16-.07,1.91,1.91,0,0,0,.13-.57c.05-.34.1-.86.15-1.57.37.18.71.34,1,.47a8.55,8.55,0,0,1-.53,2.92,1.13,1.13,0,0,1-1,.61,1.48,1.48,0,0,1-1.38-1c-.32-.66-.47-2.39-.46-5.2v-3.24H68.66v3a18.15,18.15,0,0,1-.31,3.71,8.58,8.58,0,0,1-1.26,2.89c-.36-.44-.76-.9-1.19-1.37a6.13,6.13,0,0,0,1-2.25,20.54,20.54,0,0,0,.21-3.66v-3.91H76v5c0,1.7,0,2.83,0,3.37S76.17,178.49,76.34,178.5Zm-6.4-7q.9,1.16,1.68,2.22A19.34,19.34,0,0,0,73,171.33l1.4.77a26.54,26.54,0,0,1-1.74,3c.72,1,1.35,1.92,1.91,2.78l-1.33,1c-.51-.81-1-1.61-1.58-2.42a28.64,28.64,0,0,1-2.07,2.4c-.4-.45-.78-.86-1.16-1.23a23.08,23.08,0,0,0,2.27-2.55c-.62-.9-1.28-1.79-2-2.69Z"/><path d="M188.14,160.5a.19.19,0,0,0,.16-.07,2.13,2.13,0,0,0,.14-.57c.05-.34.1-.86.15-1.57.37.18.71.34,1,.47a8.47,8.47,0,0,1-.54,2.92,1.12,1.12,0,0,1-1,.62,1.5,1.5,0,0,1-1.39-1c-.31-.66-.46-2.39-.45-5.2v-3.24h-5.74v3a18,18,0,0,1-.32,3.71,8.66,8.66,0,0,1-1.25,2.89c-.37-.44-.77-.9-1.2-1.37a6.06,6.06,0,0,0,1-2.25,20.49,20.49,0,0,0,.21-3.65v-3.92h8.93v5c0,1.69,0,2.82,0,3.36S188,160.49,188.14,160.5Zm-6.4-7c.6.77,1.16,1.51,1.69,2.22a20.71,20.71,0,0,0,1.33-2.43l1.39.77a25,25,0,0,1-1.73,3c.71,1,1.35,1.92,1.91,2.78l-1.34,1c-.5-.8-1-1.61-1.58-2.42a30.46,30.46,0,0,1-2.06,2.4c-.4-.44-.79-.85-1.16-1.23a25.32,25.32,0,0,0,2.27-2.55c-.63-.9-1.29-1.79-2-2.69Z"/><path d="M54.25,214.48h4.6a26,26,0,0,0,.11-2.62h1.8c0,.84,0,1.72-.1,2.62h4.82v1.62H60.87a8.16,8.16,0,0,0,4.89,5.51c-.42.48-.88,1-1.4,1.72a10.56,10.56,0,0,1-4.44-5.83q-.86,3-4.56,5.9A20,20,0,0,0,54,221.83q4.08-2.37,4.63-5.73H54.25ZM58.33,221l1.1-.91c.51.56,1.1,1.17,1.76,1.85L59.9,223C59.44,222.38,58.92,221.72,58.33,221Z"/><path d="M69.69,216.71a4.62,4.62,0,0,1,1,3.16,1.85,1.85,0,0,1-.57,1.5,2.9,2.9,0,0,1-1.85.47,10.26,10.26,0,0,0-.28-1.73l.47,0c.45,0,.68-.18.68-.56a4,4,0,0,0-1-2.69c.3-1,.59-2.11.86-3.25H68v9.73H66.47V212.28H70.6v1.13C70.32,214.46,70,215.56,69.69,216.71Zm7.46,6.61H75.56v-.77H72.64v.77H71.05V212.47h6.1Zm-4.51-6.56h2.92v-2.82H72.64Zm0,4.31h2.92v-2.84H72.64Z"/><path d="M87.94,218.88l1.71.54c-.2,1.82-.46,2.9-.79,3.24a2,2,0,0,1-1.53.51H86.19a1.68,1.68,0,0,1-1.88-1.92v-3.31H82.92c0,2.77-1.22,4.59-3.64,5.44A12.12,12.12,0,0,0,78,222q3.15-1.18,3.08-4H78.2v-1.63h4.71V211.8h1.78v4.51H89.5v1.63H86v2.94q0,.75.63.75H87a.64.64,0,0,0,.65-.41A11.76,11.76,0,0,0,87.94,218.88ZM80,212.44c.94.95,1.69,1.76,2.27,2.44L80.87,216c-.78-1-1.5-1.82-2.15-2.52Zm7.51,0L89,213.52c-1,1.17-1.8,2-2.38,2.57L85.35,215A21.53,21.53,0,0,0,87.53,212.44Z"/><path d="M166,206.36h4.61c.07-.79.11-1.66.11-2.63h1.8c0,.84,0,1.72-.11,2.63h4.82V208h-4.6a8.17,8.17,0,0,0,4.88,5.51c-.41.48-.88,1.05-1.39,1.72a10.51,10.51,0,0,1-4.44-5.83q-.85,3-4.56,5.9c-.57-.7-1-1.22-1.36-1.57q4.08-2.35,4.63-5.73H166Zm4.08,6.51,1.1-.91c.52.56,1.11,1.18,1.76,1.85l-1.29,1.05C171.19,214.25,170.67,213.59,170.07,212.87Z"/><path d="M181.44,208.58a4.67,4.67,0,0,1,1,3.17,1.86,1.86,0,0,1-.56,1.49,2.85,2.85,0,0,1-1.85.48,11.52,11.52,0,0,0-.28-1.74,4.47,4.47,0,0,0,.47,0c.45,0,.68-.19.68-.57a4,4,0,0,0-1.05-2.69c.31-1,.6-2.11.87-3.25h-1v9.73h-1.52V204.15h4.12v1.13Q181.94,206.86,181.44,208.58Zm7.45,6.61h-1.58v-.77h-2.93v.77H182.8V204.34h6.09Zm-4.51-6.56h2.93v-2.81h-2.93Zm0,4.31h2.93v-2.83h-2.93Z"/><path d="M199.69,210.75q1,.34,1.71.54c-.21,1.82-.47,2.9-.79,3.24a2,2,0,0,1-1.53.51h-1.14a1.68,1.68,0,0,1-1.89-1.92v-3.31h-1.39q0,4.17-3.63,5.44a12,12,0,0,0-1.28-1.39c2.1-.8,3.13-2.15,3.07-4.05H190v-1.63h4.71v-4.51h1.78v4.51h4.8v1.63h-3.45v2.94q0,.75.63.75h.28a.63.63,0,0,0,.65-.41A11.44,11.44,0,0,0,199.69,210.75Zm-7.93-6.43q1.41,1.41,2.28,2.43l-1.42,1.08q-1.17-1.47-2.16-2.52Zm7.52,0,1.48,1.07a31.46,31.46,0,0,1-2.38,2.57l-1.28-1.1A22.3,22.3,0,0,0,199.28,204.32Z"/><path d="M216.6,257.6V247.49h4.62v10h-1.55v-.81h-1.52v.88Zm3.07-8.56h-1.52v2.32h1.52Zm-1.52,6.14h1.52v-2.32h-1.52Zm4.44-4.27c.53.66,1.23,1.61,2.11,2.84l-1.42.92c-.71-1.18-1.35-2.16-1.91-2.95Zm-1-2.19H225v-2h1.68v2h1v1.56h-1v5.8a2.25,2.25,0,0,1-.44,1.49,1.64,1.64,0,0,1-1.22.53c-.51,0-1.28,0-2.3,0a13.81,13.81,0,0,0-.4-1.71l1.83.05c.57,0,.85-.3.85-.9v-5.29h-3.46Z"/><path d="M228.5,248.19h1.63v10H228.5Zm1.4-1,1.53-.54c.37.58.75,1.22,1.13,1.9l-1.63.62C230.58,248.42,230.24,247.76,229.9,247.18Zm1.31,2.42h5.24v6.16h-3.76v.65h-1.48Zm3.76,1.31h-2.28V252H235Zm0,3.54v-1.11h-2.28v1.11Zm4.25,1.57a2.77,2.77,0,0,1-.29,1.36,1.39,1.39,0,0,1-.9.67,14.13,14.13,0,0,1-2.76.16,13.13,13.13,0,0,0-.38-1.64c.5,0,1.14.05,1.91.05.53,0,.79-.23.79-.69v-7.28H233v-1.44h6.26Z"/><path d="M10.23,20.5H7.93L5.78,17.3h0v3.2H3.86V10.91H5.75V17h0l2-3h2.25l-2.4,3.06Z"/><path d="M23,11.42,20.53,20.5H18.38l-1.55-5.92a4.64,4.64,0,0,1-.14-1h0a5.36,5.36,0,0,1-.16,1L14.92,20.5H12.69l-2.42-9.08h2.12l1.34,6.16a7.36,7.36,0,0,1,.13,1h0a5.5,5.5,0,0,1,.18-1.05l1.69-6.13h2.05l1.54,6.2a7.53,7.53,0,0,1,.15,1h0a5.36,5.36,0,0,1,.13-1L21,11.42Z"/><path d="M30.05,20.5H28.17V16.81c0-1-.37-1.5-1.09-1.5a1.11,1.11,0,0,0-.9.42,1.6,1.6,0,0,0-.36,1.08V20.5H23.93V10.91h1.89V15h0a2.29,2.29,0,0,1,2-1.13c1.47,0,2.2.89,2.2,2.66Z"/></svg>