<svg xmlns="http://www.w3.org/2000/svg" xmlns:xlink="http://www.w3.org/1999/xlink" viewBox="0 0 389 213"><defs><style>.cls-1{fill:#fff;}.cls-12,.cls-13,.cls-14,.cls-2{fill:none;stroke-miterlimit:10;}.cls-2{stroke:#3c3c41;}.cls-3{fill:#3c3c41;}.cls-10,.cls-11,.cls-4,.cls-5,.cls-6,.cls-7,.cls-8,.cls-9{opacity:0.7;}.cls-10,.cls-11,.cls-16,.cls-4,.cls-5,.cls-6,.cls-7,.cls-8,.cls-9{isolation:isolate;}.cls-4{fill:url(#linear-gradient);}.cls-5{fill:url(#linear-gradient-2);}.cls-6{fill:url(#linear-gradient-3);}.cls-7{fill:url(#linear-gradient-4);}.cls-8{fill:url(#linear-gradient-5);}.cls-9{fill:url(#linear-gradient-6);}.cls-10{fill:url(#linear-gradient-7);}.cls-11{fill:url(#linear-gradient-8);}.cls-12{stroke:#fff;stroke-width:2px;}.cls-13{stroke:#e6e6e6;}.cls-14{stroke:#737373;}.cls-15{fill:#1e1e1e;}</style><linearGradient id="linear-gradient" x1="104.65" y1="-488.2" x2="104.65" y2="-549.3" gradientTransform="matrix(1, 0, 0, -1, 0, -364)" gradientUnits="userSpaceOnUse"><stop offset="0" stop-color="#76bc2d"/><stop offset="0.98" stop-color="#5f9724"/><stop offset="1" stop-color="#5e9624"/></linearGradient><linearGradient id="linear-gradient-2" x1="104.65" y1="-444.2" x2="104.65" y2="-487.7" xlink:href="#linear-gradient"/><linearGradient id="linear-gradient-3" x1="104.65" y1="-413.44" x2="104.65" y2="-443.74" gradientTransform="matrix(1, 0, 0, -1, 0, -364)" gradientUnits="userSpaceOnUse"><stop offset="0" stop-color="#b3b2b3"/><stop offset="0.38" stop-color="#afaeaf"/><stop offset="0.76" stop-color="#a2a2a2"/><stop offset="1" stop-color="#979797"/></linearGradient><linearGradient id="linear-gradient-4" x1="104.65" y1="-382.64" x2="104.65" y2="-412.94" xlink:href="#linear-gradient-3"/><linearGradient id="linear-gradient-5" x1="214.65" y1="-510.24" x2="214.65" y2="-549.34" xlink:href="#linear-gradient"/><linearGradient id="linear-gradient-6" x1="214.65" y1="-470.64" x2="214.65" y2="-509.74" xlink:href="#linear-gradient"/><linearGradient id="linear-gradient-7" x1="214.65" y1="-431.04" x2="214.65" y2="-470.14" xlink:href="#linear-gradient-3"/><linearGradient id="linear-gradient-8" x1="214.65" y1="-382.6" x2="214.65" y2="-430.5" xlink:href="#linear-gradient-3"/></defs><g id="source"><g id="Shapes"><rect class="cls-1" width="389" height="213"/><line class="cls-2" x1="64.7" y1="190" x2="276.6" y2="190"/><polygon class="cls-3" points="275.5 193.7 282 190 275.5 186.3 275.5 193.7"/><rect class="cls-1" x="78.5" y="124.2" width="52.3" height="61.1"/><rect class="cls-4" x="78.5" y="124.2" width="52.3" height="61.1"/><path class="cls-1" d="M130.6,124.5v60.6H78.8V124.5h51.8m.5-.5H78.3v61.6h52.8V124Z"/><path d="M131.1,124v61.6H78.3V124h52.8m.5-.5H77.8v62.6h53.8Z"/><rect class="cls-1" x="78.5" y="80.2" width="52.3" height="43.5"/><rect class="cls-5" x="78.5" y="80.2" width="52.3" height="43.5"/><path class="cls-1" d="M130.6,80.5v43H78.8v-43h51.8m.5-.5H78.3v44h52.8V80Z"/><path d="M131.1,80v44H78.3V80h52.8m.5-.5H77.8v45h53.8Z"/><rect class="cls-1" x="78.5" y="49.4" width="52.3" height="30.3"/><rect class="cls-6" x="78.5" y="49.4" width="52.3" height="30.3"/><path class="cls-1" d="M130.6,49.7V79.5H78.8V49.7h51.8m.5-.5H78.3V80h52.8Z"/><path d="M131.1,49.2V80H78.3V49.2h52.8m.5-.5H77.8V80.5h53.8Z"/><rect class="cls-1" x="78.5" y="18.6" width="52.3" height="30.3"/><rect class="cls-7" x="78.5" y="18.6" width="52.3" height="30.3"/><path class="cls-1" d="M130.6,18.9V48.7H78.8V18.9h51.8m.5-.5H78.3V49.2h52.8Z"/><path d="M131.1,18.4V49.2H78.3V18.4h52.8m.5-.5H77.8V49.7h53.8Z"/><rect class="cls-1" x="188.5" y="146.2" width="52.3" height="39.1"/><rect class="cls-8" x="188.5" y="146.2" width="52.3" height="39.1"/><path class="cls-1" d="M240.6,146.5v38.6H188.8V146.5h51.8m.5-.5H188.3v39.6h52.8V146Z"/><path d="M241.1,146v39.6H188.3V146h52.8m.5-.5H187.8v40.6h53.8Z"/><rect class="cls-1" x="188.5" y="106.6" width="52.3" height="39.1"/><rect class="cls-9" x="188.5" y="106.6" width="52.3" height="39.1"/><path class="cls-1" d="M240.6,106.9v38.6H188.8V106.9h51.8m.5-.5H188.3V146h52.8V106.4Z"/><path d="M241.1,106.4V146H188.3V106.4h52.8m.5-.5H187.8v40.6h53.8Z"/><rect class="cls-1" x="188.5" y="67" width="52.3" height="39.1"/><rect class="cls-10" x="188.5" y="67" width="52.3" height="39.1"/><path class="cls-1" d="M240.6,67.3v38.6H188.8V67.3h51.8m.5-.5H188.3v39.6h52.8Z"/><path d="M241.1,66.8v39.6H188.3V66.8h52.8m.5-.5H187.8v40.6h53.8Z"/><rect class="cls-1" x="188.5" y="18.6" width="52.3" height="47.9"/><rect class="cls-11" x="188.5" y="18.6" width="52.3" height="47.9"/><path class="cls-1" d="M240.6,18.9V66.3H188.8V18.9h51.8m.5-.5H188.3V66.8h52.8Z"/><path d="M241.1,18.4V66.8H188.3V18.4h52.8m.5-.5H187.8V67.3h53.8Z"/><line class="cls-12" x1="64.7" y1="17.7" x2="264.7" y2="17.7"/><line class="cls-13" x1="64.7" y1="17.7" x2="264.7" y2="17.7"/><path class="cls-3" d="M264.7,18.2h-2v-1h2Zm-5,0h-3v-1h3Zm-6,0h-3v-1h3Zm-6,0h-3v-1h3Zm-6,0h-3v-1h3Zm-6,0h-3v-1h3Zm-6,0h-3v-1h3Zm-6,0h-3v-1h3Zm-6,0h-3v-1h3Zm-6,0h-3v-1h3Zm-6,0h-3v-1h3Zm-6,0h-3v-1h3Zm-6,0h-3v-1h3Zm-6,0h-3v-1h3Zm-6,0h-3v-1h3Zm-6,0h-3v-1h3Zm-6,0h-3v-1h3Zm-6,0h-3v-1h3Zm-6,0h-3v-1h3Zm-6,0h-3v-1h3Zm-6,0h-3v-1h3Zm-6,0h-3v-1h3Zm-6,0h-3v-1h3Zm-6,0h-3v-1h3Zm-6,0h-3v-1h3Zm-6,0h-3v-1h3Zm-6,0h-3v-1h3Zm-6,0h-3v-1h3Zm-6,0h-3v-1h3Zm-6,0h-3v-1h3Zm-6,0h-3v-1h3Zm-6,0h-3v-1h3Zm-6,0h-3v-1h3Zm-6,0h-3v-1h3Z"/><line class="cls-12" x1="131.8" y1="80.4" x2="188.3" y2="106.4"/><line class="cls-13" x1="131.8" y1="80.4" x2="188.3" y2="106.4"/><path class="cls-3" d="M188.1,106.8l-2-.9.4-.9,2,.9Zm-4.7-2.1-2.7-1.3.4-.9,2.7,1.3Zm-5.5-2.5-2.7-1.3.4-.9,2.7,1.3Zm-5.4-2.6-2.7-1.3.4-.9,2.7,1.3ZM167,97.1l-2.7-1.3.4-.9,2.7,1.3Zm-5.4-2.5-2.7-1.3.4-.9,2.8,1.3Zm-5.5-2.5-2.7-1.3.4-.9,2.7,1.3Zm-5.4-2.5L148,88.3l.4-.9,2.7,1.3Zm-5.5-2.5-2.7-1.3.4-.9,2.7,1.3Zm-5.4-2.5L137,83.4l.4-.9,2.7,1.3Zm-5.5-2.5-2.7-1.3.4-.9,2.7,1.3Z"/><line class="cls-12" x1="131.8" y1="124" x2="188.3" y2="146"/><line class="cls-13" x1="131.8" y1="124" x2="188.3" y2="146"/><path class="cls-3" d="M188.1,146.4l-.6-.2.4-.9.6.2Zm-3.4-1.3-2.8-1.1.4-.9,2.8,1.1Zm-5.6-2.1-2.8-1.1.4-.9,2.8,1.1Zm-5.5-2.2-2.8-1.1.4-.9,2.8,1.1Zm-5.7-2.1-2.8-1.1.4-.9,2.8,1.1Zm-5.5-2.2-2.8-1.1.4-.9,2.8,1.1Zm-5.6-2.2-2.8-1.1.4-.9,2.8,1.1Zm-5.6-2.2-2.8-1.1.4-.9,2.8,1.1Zm-5.6-2.2-2.8-1.1.4-.9L146,129Zm-5.6-2.2-2.8-1.1.4-.9,2.8,1.1Zm-5.6-2.2-2.8-1.1.4-.9,2.8,1.1Z"/><path class="cls-14" d="M247.3,106.4h6.4a5,5,0,0,1,5,5v69.2a5,5,0,0,1-5,5h-6.4"/><line class="cls-14" x1="258.7" y1="146" x2="271.9" y2="146"/></g><g id="Text"><path class="cls-15" d="M27.2,60.2v8.6H25.3V62.3a1.38,1.38,0,0,1-.4.3.76.76,0,0,1-.4.2c-.2.1-.3.1-.5.2s-.3.1-.5.1V61.5a5.78,5.78,0,0,0,1.4-.5c.4-.2.8-.5,1.2-.7Z"/><path class="cls-15" d="M31.1,67.2h3.6v1.5H29.1v-.6a3.59,3.59,0,0,1,.2-1.1,4.05,4.05,0,0,1,.5-.9,4.62,4.62,0,0,1,.7-.7,4.35,4.35,0,0,0,.7-.6c.2-.2.5-.3.6-.5s.3-.3.5-.5a2.19,2.19,0,0,0,.3-.5.9.9,0,0,0,.1-.5,1.14,1.14,0,0,0-.3-.8,1.61,1.61,0,0,0-.9-.3,2.88,2.88,0,0,0-2.1.9V60.9a4.3,4.3,0,0,1,2.5-.7,3.59,3.59,0,0,1,1.1.2,4.05,4.05,0,0,1,.9.5,2.18,2.18,0,0,1,.5.8,2.6,2.6,0,0,1,0,2,2.18,2.18,0,0,1-.5.8,4.62,4.62,0,0,1-.7.7c-.3.2-.5.4-.8.6l-.4.3c-.2.1-.3.3-.5.4a1.38,1.38,0,0,0-.3.4C31.2,67,31.1,67.1,31.1,67.2Z"/><path class="cls-15" d="M38.8,68.9q-3,0-3-4.2a5.42,5.42,0,0,1,.8-3.3A2.73,2.73,0,0,1,39,60.2c2,0,2.9,1.4,2.9,4.3a5.59,5.59,0,0,1-.8,3.3A2.59,2.59,0,0,1,38.8,68.9Zm.1-7.3q-1.2,0-1.2,3c0,2,.4,2.8,1.2,2.8s1.2-1,1.2-2.9S39.7,61.6,38.9,61.6Z"/><path class="cls-15" d="M8.9,81.3a3.54,3.54,0,0,1-1,2.6,3.66,3.66,0,0,1-2.8.9,5.82,5.82,0,0,1-1.9-.3V82.9a4.14,4.14,0,0,0,1.9.5,1.74,1.74,0,0,0,1.4-.5A1.9,1.9,0,0,0,7,81.6v-.5H7a1.89,1.89,0,0,1-1.9,1,2.34,2.34,0,0,1-1.8-.8,3.41,3.41,0,0,1-.7-2.2,3.49,3.49,0,0,1,.8-2.4,2.52,2.52,0,0,1,2-.9,1.82,1.82,0,0,1,1.6.8H7V76H8.9ZM7.1,79.1v-.5a1.69,1.69,0,0,0-.3-1,1,1,0,0,0-.9-.4,1.23,1.23,0,0,0-1,.5A1.59,1.59,0,0,0,4.6,79a2.66,2.66,0,0,0,.3,1.2,1.09,1.09,0,0,0,.9.4,1,1,0,0,0,.9-.4A2.1,2.1,0,0,0,7.1,79.1Z"/><path class="cls-15" d="M16.7,81.7a5.07,5.07,0,0,1-2.4.4,4.14,4.14,0,0,1-3-1.1,3.77,3.77,0,0,1-1.1-3,4.51,4.51,0,0,1,1.2-3.3,4.82,4.82,0,0,1,3.2-1.3,7.61,7.61,0,0,1,2.1.3v1.8a4.14,4.14,0,0,0-1.9-.5,2.64,2.64,0,0,0-1.9.7,2.49,2.49,0,0,0-.7,2,2.64,2.64,0,0,0,.7,1.9,2.09,2.09,0,0,0,1.8.7,4.55,4.55,0,0,0,2-.5Z"/><path class="cls-15" d="M21.6,82.1a4,4,0,0,1-4-4.3,4.63,4.63,0,0,1,1.1-3.2,3.93,3.93,0,0,1,3.1-1.2,3.85,3.85,0,0,1,2.9,1.2,4,4,0,0,1,1.1,3.1,4.63,4.63,0,0,1-1.1,3.2A4.65,4.65,0,0,1,21.6,82.1Zm.1-7a2.09,2.09,0,0,0-1.6.8,3.63,3.63,0,0,0,0,4,1.8,1.8,0,0,0,1.5.7,2,2,0,0,0,1.6-.7,3.63,3.63,0,0,0,0-4A1.48,1.48,0,0,0,21.7,75.1Z"/><path class="cls-15" d="M30.1,83.4H26.6v-.5a1.45,1.45,0,0,1,.2-.7,2.09,2.09,0,0,1,.4-.6,1.76,1.76,0,0,1,.5-.4,2.18,2.18,0,0,0,.5-.4l.4-.4a.44.44,0,0,0,.1-.5.4.4,0,0,0-.2-.4.6.6,0,0,0-.4-.1h-.3c-.1,0-.2.1-.3.1s-.2.1-.3.2-.2.1-.3.2V78.8c.2-.1.5-.2.7-.3a2,2,0,0,1,.8-.1,1.7,1.7,0,0,1,.7.1,2.19,2.19,0,0,1,.5.3,1,1,0,0,1,.4.5,1.48,1.48,0,0,1,.1.7c0,.2-.1.4-.1.6a2.09,2.09,0,0,1-.4.6c-.1.2-.3.3-.5.5a1.76,1.76,0,0,1-.5.4l-.4.3a.31.31,0,0,0-.1.2h2.1v.8Z"/><path class="cls-15" d="M36.5,73.6l-4.1,9.8H30.7l4.1-9.8Z"/><path class="cls-15" d="M43.2,82H41l-1.9-3h0v3H37.2V73.1H39v5.7h0l1.8-2.7H43l-2.2,2.8Z"/><path class="cls-15" d="M55.1,73.6,52.9,82H50.8l-1.4-5.4a2.77,2.77,0,0,1-.1-.9h0a2.92,2.92,0,0,1-.2.9L47.7,82H45.5l-2.2-8.4h2.1l1.2,5.6a3.4,3.4,0,0,1,.1,1h0a3.55,3.55,0,0,1,.2-1l1.5-5.6h2l1.4,5.6a2.77,2.77,0,0,1,.1.9h0c0-.3.1-.6.1-.9l1.2-5.6Z"/><path class="cls-15" d="M61.8,82H60V78.6c0-.9-.3-1.3-1-1.3a.91.91,0,0,0-.8.4,1.61,1.61,0,0,0-.3.9V82H56V73.1h1.8v3.8h0a2.23,2.23,0,0,1,1.8-1c1.3,0,2,.8,2,2.5Z"/><path class="cls-15" d="M273.7,68.5V66.9a3.61,3.61,0,0,0,2,.6,2,2,0,0,0,1.1-.3.91.91,0,0,0,.4-.8,1.05,1.05,0,0,0-.5-.9,3.08,3.08,0,0,0-1.3-.3h-.8V63.8h.7c1.1,0,1.6-.4,1.6-1.1s-.4-1-1.3-1a2.77,2.77,0,0,0-1.6.5V60.7a4.65,4.65,0,0,1,2.1-.5,3.61,3.61,0,0,1,2,.6,1.8,1.8,0,0,1,.7,1.5,2.14,2.14,0,0,1-1.7,2.1h0a2.1,2.1,0,0,1,1.4.7,1.9,1.9,0,0,1,.5,1.3,2.46,2.46,0,0,1-.9,1.9,4,4,0,0,1-2.4.7A8.35,8.35,0,0,1,273.7,68.5Z"/><path class="cls-15" d="M280.4,68.6V67a4.07,4.07,0,0,0,1.8.5,2,2,0,0,0,1.1-.3,1.09,1.09,0,0,0,.4-.9c0-.8-.6-1.3-1.8-1.3a7.57,7.57,0,0,0-1.5.1l.3-4.7h4.4v1.5h-3l-.1,1.7h.8a3.06,3.06,0,0,1,2,.7,2.34,2.34,0,0,1,.7,1.7,2.88,2.88,0,0,1-.9,2.1,3.49,3.49,0,0,1-2.4.8A7.39,7.39,0,0,1,280.4,68.6Z"/><path class="cls-15" d="M289.8,68.9q-3,0-3-4.2a5.42,5.42,0,0,1,.8-3.3,2.73,2.73,0,0,1,2.4-1.2c2,0,2.9,1.4,2.9,4.3a5.59,5.59,0,0,1-.8,3.3A2.7,2.7,0,0,1,289.8,68.9Zm0-7.3q-1.2,0-1.2,3c0,2,.4,2.8,1.2,2.8s1.1-1,1.1-2.9-.3-2.9-1.1-2.9Z"/><path class="cls-15" d="M259.7,81.3a3.54,3.54,0,0,1-1,2.6,3.66,3.66,0,0,1-2.8.9,5.82,5.82,0,0,1-1.9-.3V82.9a4.14,4.14,0,0,0,1.9.5,1.74,1.74,0,0,0,2-1.8v-.5h0a1.89,1.89,0,0,1-1.9,1,2.34,2.34,0,0,1-1.8-.8,3.41,3.41,0,0,1-.7-2.2,3.49,3.49,0,0,1,.8-2.4,2.52,2.52,0,0,1,2-.9,1.82,1.82,0,0,1,1.6.8h0V76h1.9v5.3Zm-1.8-2.2v-.5a1.69,1.69,0,0,0-.3-1,1,1,0,0,0-.9-.4,1.23,1.23,0,0,0-1,.5,2.2,2.2,0,0,0-.4,1.3,2.66,2.66,0,0,0,.3,1.2,1.09,1.09,0,0,0,.9.4,1,1,0,0,0,.9-.4A1.61,1.61,0,0,0,257.9,79.1Z"/><path class="cls-15" d="M267.5,81.7a5.07,5.07,0,0,1-2.4.4,4.14,4.14,0,0,1-3-1.1,4.62,4.62,0,0,1-1.1-3,4.51,4.51,0,0,1,1.2-3.3,4.82,4.82,0,0,1,3.2-1.3,7.61,7.61,0,0,1,2.1.3v1.8a4.14,4.14,0,0,0-1.9-.5,2.64,2.64,0,0,0-1.9.7,2.49,2.49,0,0,0-.7,2,2.64,2.64,0,0,0,.7,1.9,2.09,2.09,0,0,0,1.8.7,4.55,4.55,0,0,0,2-.5Z"/><path class="cls-15" d="M272.4,82.1a4,4,0,0,1-4-4.3,4.63,4.63,0,0,1,1.1-3.2,3.93,3.93,0,0,1,3.1-1.2,3.85,3.85,0,0,1,2.9,1.2,4,4,0,0,1,1.1,3.1,4,4,0,0,1-4.2,4.4Zm.1-7a2.09,2.09,0,0,0-1.6.8,3.63,3.63,0,0,0,0,4,1.8,1.8,0,0,0,1.5.7,2,2,0,0,0,1.6-.7,3.63,3.63,0,0,0,0-4A1.48,1.48,0,0,0,272.5,75.1Z"/><path class="cls-15" d="M280.9,83.4h-3.5v-.5a1.45,1.45,0,0,1,.2-.7,2.09,2.09,0,0,1,.4-.6,1.76,1.76,0,0,1,.5-.4,2.18,2.18,0,0,0,.5-.4l.4-.4a.6.6,0,0,0,0-.9.6.6,0,0,0-.4-.1h-.3c-.1,0-.2.1-.3.1s-.2.1-.3.2-.2.1-.3.2V78.8c.2-.1.5-.2.7-.3a2,2,0,0,1,.8-.1,1.7,1.7,0,0,1,.7.1,2.19,2.19,0,0,1,.5.3,1,1,0,0,1,.4.5,1.48,1.48,0,0,1,.1.7c0,.2-.1.4-.1.6a2.09,2.09,0,0,1-.4.6c-.1.2-.3.3-.5.5a1.76,1.76,0,0,1-.5.4l-.4.3a.31.31,0,0,0-.1.2h2.1Z"/><path class="cls-15" d="M287.3,73.6l-4.1,9.8h-1.6l4.1-9.8Z"/><path class="cls-15" d="M294,82h-2.2l-1.9-3h0v3H288V73.1h1.9v5.7h0l1.8-2.7h2.2l-2.1,2.8Z"/><path class="cls-15" d="M305.9,73.6,303.7,82h-2.1l-1.4-5.4a2.77,2.77,0,0,1-.1-.9h0a2.92,2.92,0,0,1-.2.9L298.5,82h-2.2l-2.2-8.4h2.1l1.2,5.6a3.4,3.4,0,0,1,.1,1h0a3.55,3.55,0,0,1,.2-1l1.5-5.6h2l1.4,5.6a2.77,2.77,0,0,1,.1.9h0c0-.3.1-.6.1-.9l1.2-5.7,1.9.1Z"/><path class="cls-15" d="M312.6,82h-1.8V78.6c0-.9-.3-1.3-1-1.3a.91.91,0,0,0-.8.4,1.61,1.61,0,0,0-.3.9V82h-1.9V73.1h1.9v3.8h0a2.23,2.23,0,0,1,1.8-1c1.3,0,2,.8,2,2.5Z"/><path class="cls-15" d="M249.6,198.3h-2.4v6.9h-1.9v-6.9h-2.4v-1.5h6.7v1.5Z"/><path class="cls-15" d="M251.5,198.2a1.14,1.14,0,0,1-.8-.3,1,1,0,0,1,0-1.4,1.22,1.22,0,0,1,1.6,0,1,1,0,0,1,0,1.4A1.14,1.14,0,0,1,251.5,198.2Zm.9,7h-1.9v-6h1.9Z"/><path class="cls-15" d="M263.5,205.2h-1.8v-3.4c0-.9-.3-1.3-1-1.3a.91.91,0,0,0-.8.4,1.69,1.69,0,0,0-.3,1v3.4h-1.9v-3.4c0-.9-.3-1.3-.9-1.3a.91.91,0,0,0-.8.4,1.69,1.69,0,0,0-.3,1v3.3H254v-6h1.9v.9h0a3,3,0,0,1,.8-.8,2,2,0,0,1,1.1-.3,1.56,1.56,0,0,1,1.7,1.1,2.31,2.31,0,0,1,2-1.1c1.3,0,2,.8,2,2.4Z"/><path class="cls-15" d="M270.4,202.7h-3.9c.1.9.6,1.3,1.6,1.3a3.37,3.37,0,0,0,1.7-.5v1.3a4.13,4.13,0,0,1-2.2.4,2.87,2.87,0,0,1-3.1-2.5v-.6a3.58,3.58,0,0,1,.9-2.4,2.88,2.88,0,0,1,2.1-.9,2.57,2.57,0,0,1,2,.8,2.7,2.7,0,0,1,.7,2.1Zm-1.7-1.1c0-.9-.4-1.3-1-1.3a.91.91,0,0,0-.8.4,1.8,1.8,0,0,0-.4.9Z"/><path class="cls-15" d="M99.4,37.7a5.07,5.07,0,0,1-2.4.4A4.14,4.14,0,0,1,94,37a3.77,3.77,0,0,1-1.1-3,4.51,4.51,0,0,1,1.2-3.3,4.82,4.82,0,0,1,3.2-1.3,7.61,7.61,0,0,1,2.1.3v1.8a4.14,4.14,0,0,0-1.9-.5,2.36,2.36,0,0,0-1.9.8,3,3,0,0,0,0,4,2.2,2.2,0,0,0,1.8.7,4.55,4.55,0,0,0,2-.5Z"/><path class="cls-15" d="M103.4,38.1a3.57,3.57,0,0,1-2.3-.8,3.39,3.39,0,0,1,0-4.6,3.07,3.07,0,0,1,2.4-.8,3.57,3.57,0,0,1,2.3.8,2.65,2.65,0,0,1,.8,2.2,3.58,3.58,0,0,1-.9,2.4A2.64,2.64,0,0,1,103.4,38.1Zm0-4.8a1.23,1.23,0,0,0-1,.5,1.52,1.52,0,0,0-.3,1.3c0,1.2.5,1.7,1.4,1.7s1.3-.6,1.3-1.8-.4-1.7-1.4-1.7Z"/><path class="cls-15" d="M112.9,38h-1.8v-.9h0a2.23,2.23,0,0,1-1.8,1,1.87,1.87,0,0,1-1.4-.5,2.11,2.11,0,0,1-.5-1.3c0-1.2.7-1.8,2.1-2l1.6-.2c0-.7-.3-1-1.1-1a3.61,3.61,0,0,0-2,.6V32.3a4.18,4.18,0,0,1,1-.4,4.87,4.87,0,0,1,1.2-.1,2.33,2.33,0,0,1,2.6,1.9v.6Zm-1.7-2.4v-.4l-1.1.1c-.6.1-.9.3-.9.8a.76.76,0,0,0,.2.5,1.42,1.42,0,0,0,.6.2,1.41,1.41,0,0,0,1.2-1.2Z"/><path class="cls-15" d="M116.2,38h-1.8V29.1h1.8Z"/><path class="cls-15" d="M102.3,67.7a6.43,6.43,0,0,1-3.1.7A4.2,4.2,0,0,1,96,67.3a4.3,4.3,0,0,1-1.2-3.1,4.3,4.3,0,0,1,4.7-4.4,6.72,6.72,0,0,1,2.4.4V62a5,5,0,0,0-2.4-.6,2.36,2.36,0,0,0-1.9.8,3.3,3.3,0,0,0-.1,4,2.41,2.41,0,0,0,1.8.7,4.25,4.25,0,0,0,1.1-.2V65H98.7V63.5h3.6v4.2Z"/><path class="cls-15" d="M108.8,68.3H107v-.9h0a2.23,2.23,0,0,1-1.8,1,1.87,1.87,0,0,1-1.4-.5,2.11,2.11,0,0,1-.5-1.3c0-1.2.7-1.8,2.1-2l1.6-.2c0-.7-.3-1-1.1-1a3.61,3.61,0,0,0-2,.6V62.6a4.18,4.18,0,0,1,1-.4c.4-.1.8-.1,1.2-.2a2.33,2.33,0,0,1,2.6,1.9v4.4Zm-1.7-2.5v-.4l-1.1.1c-.6.1-.9.3-.9.8a.76.76,0,0,0,.2.5,1.42,1.42,0,0,0,.6.2.91.91,0,0,0,.8-.4C107,66.5,107.1,66.2,107.1,65.8Z"/><path class="cls-15" d="M110,68.1V66.6a3.55,3.55,0,0,0,.9.4,2.77,2.77,0,0,0,.9.1,2.2,2.2,0,0,0,.8-.1c.2-.1.3-.2.3-.4a.37.37,0,0,0-.1-.3c-.1-.1-.2-.2-.3-.2L112,66c-.2,0-.3-.1-.5-.2l-.6-.3a.78.78,0,0,1-.4-.4,2.19,2.19,0,0,1-.3-.5,1.27,1.27,0,0,1-.1-.6,2.92,2.92,0,0,1,.2-.9,1.7,1.7,0,0,1,.6-.6,1.33,1.33,0,0,1,.8-.3,3.4,3.4,0,0,1,1-.1,2.2,2.2,0,0,1,.8.1,2.35,2.35,0,0,1,.8.2v1.4a6.89,6.89,0,0,0-.8-.3,2.2,2.2,0,0,0-.8-.1h-.3c-.1,0-.2.1-.3.1s-.1.1-.2.2-.1.1-.1.2a.37.37,0,0,0,.1.3c.1.1.2.1.3.2s.2.1.4.2l.4.1c.2.1.5.2.7.3a1,1,0,0,1,.5.4.85.85,0,0,1,.3.5,1.48,1.48,0,0,1,.1.7,2.92,2.92,0,0,1-.2.9c-.2.2-.4.5-.6.6a1.61,1.61,0,0,1-.9.3,3.4,3.4,0,0,1-1,.1A4.33,4.33,0,0,1,110,68.1Z"/><path class="cls-15" d="M101.5,98l-2.2,8.4H97.2L95.8,101a3.4,3.4,0,0,1-.1-1h0a3.55,3.55,0,0,1-.2,1l-1.4,5.4H91.9L89.7,98h2.1l1.2,5.6a3.4,3.4,0,0,1,.1,1h0a3.55,3.55,0,0,1,.2-1L94.9,98h2l1.4,5.6a2.77,2.77,0,0,1,.1.9h0c0-.3.1-.6.1-.9L99.7,98Z"/><path class="cls-15" d="M103.4,99.4a1.14,1.14,0,0,1-.8-.3,1,1,0,0,1,0-1.4,1.22,1.22,0,0,1,1.6,0,1,1,0,0,1,0,1.4A.67.67,0,0,1,103.4,99.4Zm.9,7h-1.8v-6h1.8Z"/><path class="cls-15" d="M111.6,106.4h-1.8v-3.3c0-.9-.3-1.4-1-1.4a.91.91,0,0,0-.8.4,1.61,1.61,0,0,0-.3.9v3.4h-1.8v-6h1.8v1h0a2.14,2.14,0,0,1,1.9-1.1c1.3,0,2,.8,2,2.5Z"/><path class="cls-15" d="M119,106.4h-1.8v-.8h0a2.23,2.23,0,0,1-1.8,1,2.34,2.34,0,0,1-1.8-.8,3.41,3.41,0,0,1-.7-2.2,3.49,3.49,0,0,1,.8-2.4,2.52,2.52,0,0,1,2-.9,1.62,1.62,0,0,1,1.6.8h0V97.5h1.8l-.1,8.9Zm-1.8-2.9V103a1.69,1.69,0,0,0-.3-1,1,1,0,0,0-.9-.4,1.23,1.23,0,0,0-1,.5,1.59,1.59,0,0,0-.3,1.3,2.38,2.38,0,0,0,.3,1.2,1.25,1.25,0,0,0,1.7.2l.2-.2a2,2,0,0,0,.3-1.1Z"/><path class="cls-15" d="M90.9,158.9V157a2.38,2.38,0,0,0,1.1.6,5,5,0,0,0,1.2.2,1.27,1.27,0,0,0,.6-.1.52.52,0,0,0,.4-.2l.3-.3a.37.37,0,0,0,.1-.3c0-.2,0-.3-.1-.4s-.2-.3-.4-.4l-.6-.3-.7-.3a3.07,3.07,0,0,1-1.5-1,2.39,2.39,0,0,1-.5-1.4,2,2,0,0,1,.3-1.1,2.7,2.7,0,0,1,.7-.8,1.78,1.78,0,0,1,1-.4,2.77,2.77,0,0,1,1.3-.1,4.87,4.87,0,0,1,1.2.1,3.18,3.18,0,0,1,.9.3v1.8a2.19,2.19,0,0,0-.5-.3c-.2-.1-.3-.1-.5-.2a1.09,1.09,0,0,0-.5-.1h-.5a1.27,1.27,0,0,0-.6.1.52.52,0,0,0-.4.2l-.3.3c-.1.1-.1.2-.1.4a.6.6,0,0,0,.1.4l.3.3c.2.1.3.2.5.3a4.88,4.88,0,0,0,.7.3c.3.1.6.3.9.4a1.79,1.79,0,0,1,.7.5,1.61,1.61,0,0,1,.4.7,2.92,2.92,0,0,1,.2.9,2.66,2.66,0,0,1-.3,1.2,2.7,2.7,0,0,1-.7.8,2.1,2.1,0,0,1-1.1.4,8.5,8.5,0,0,1-2.6,0A2.66,2.66,0,0,0,90.9,158.9Z"/><path class="cls-15" d="M100.7,159.3a4.07,4.07,0,0,1-2.4-.8,3.39,3.39,0,0,1,0-4.6,3.07,3.07,0,0,1,2.4-.8,3.57,3.57,0,0,1,2.3.8,2.65,2.65,0,0,1,.8,2.2,3.58,3.58,0,0,1-.9,2.4A2.44,2.44,0,0,1,100.7,159.3Zm0-4.8a1.53,1.53,0,0,0-1,.4,2,2,0,0,0-.4,1.3c0,1.1.5,1.7,1.4,1.7s1.3-.6,1.3-1.8-.4-1.6-1.3-1.6Z"/><path class="cls-15" d="M107,159.2h-1.8v-8.9H107Z"/><path class="cls-15" d="M113.6,159.2h-1.8v-.9h0a2.23,2.23,0,0,1-1.8,1,1.87,1.87,0,0,1-1.4-.5,2.11,2.11,0,0,1-.5-1.3c0-1.2.7-1.8,2.1-2l1.6-.2c0-.7-.4-1-1.1-1a3.61,3.61,0,0,0-2,.6v-1.4a3.58,3.58,0,0,1,1.1-.4,4.25,4.25,0,0,1,1.1-.2,2.33,2.33,0,0,1,2.6,1.9v.6Zm-1.7-2.4v-.4l-1.1.1c-.6.1-.9.4-.9.8a.76.76,0,0,0,.2.5,1.42,1.42,0,0,0,.6.2,1.41,1.41,0,0,0,1.2-1.2Z"/><path class="cls-15" d="M119,154.9a1.88,1.88,0,0,0-.8-.2,1.16,1.16,0,0,0-1,.4,1.8,1.8,0,0,0-.3,1.2v2.9H115v-6h1.8v1.1h0a1.62,1.62,0,0,1,1.6-1.2.9.9,0,0,1,.5.1Z"/><path class="cls-15" d="M209.4,46.5a5.07,5.07,0,0,1-2.4.4,4.14,4.14,0,0,1-3-1.1,3.77,3.77,0,0,1-1.1-3,4.51,4.51,0,0,1,1.2-3.3,4.82,4.82,0,0,1,3.2-1.3,7.61,7.61,0,0,1,2.1.3v1.8a4.14,4.14,0,0,0-1.9-.5,2.36,2.36,0,0,0-1.9.8,3,3,0,0,0,0,4,2.2,2.2,0,0,0,1.8.7,4.55,4.55,0,0,0,2-.5Z"/><path class="cls-15" d="M213.4,46.9a4.07,4.07,0,0,1-2.4-.8,3.39,3.39,0,0,1,0-4.6,3.07,3.07,0,0,1,2.4-.8,3.57,3.57,0,0,1,2.3.8,3.1,3.1,0,0,1,.9,2.2,3.58,3.58,0,0,1-.9,2.4A2.64,2.64,0,0,1,213.4,46.9Zm0-4.8a1.23,1.23,0,0,0-1,.5,2,2,0,0,0-.4,1.3c0,1.2.5,1.7,1.4,1.7s1.3-.6,1.3-1.8-.3-1.7-1.3-1.7Z"/><path class="cls-15" d="M222.9,46.8h-1.8v-.9h0a2.23,2.23,0,0,1-1.8,1,1.87,1.87,0,0,1-1.4-.5,1.9,1.9,0,0,1-.5-1.3c0-1.2.7-1.8,2.1-2l1.6-.2c0-.7-.4-1-1.1-1a3.61,3.61,0,0,0-2,.6V41.1a3.58,3.58,0,0,1,1.1-.4c.4-.1.8-.1,1.2-.2a2.33,2.33,0,0,1,2.6,1.9v4.4Zm-1.7-2.4V44l-1.1.1c-.6.1-.9.4-.9.8a.76.76,0,0,0,.2.5,1.42,1.42,0,0,0,.6.2,1.22,1.22,0,0,0,.9-.4,1.14,1.14,0,0,0,.3-.8Z"/><path class="cls-15" d="M226.2,46.8h-1.9V37.9h1.9Z"/><path class="cls-15" d="M212.3,90.2a6.43,6.43,0,0,1-3.1.7,4.2,4.2,0,0,1-3.2-1.1,4.3,4.3,0,0,1-1.2-3.1,4.3,4.3,0,0,1,4.7-4.4,6.72,6.72,0,0,1,2.4.4v1.8a5,5,0,0,0-2.4-.6,2.36,2.36,0,0,0-1.9.8,3.3,3.3,0,0,0-.1,4,2.41,2.41,0,0,0,1.8.7,4.25,4.25,0,0,0,1.1-.2V87.6h-1.7V86h3.6Z"/><path class="cls-15" d="M218.8,90.8H217v-.9h0a2.23,2.23,0,0,1-1.8,1,1.87,1.87,0,0,1-1.4-.5,1.9,1.9,0,0,1-.5-1.3c0-1.2.7-1.8,2.1-2l1.6-.2c0-.7-.4-1-1.1-1a3.61,3.61,0,0,0-2,.6V85.1a3.58,3.58,0,0,1,1.1-.4c.4-.1.8-.1,1.2-.2a2.33,2.33,0,0,1,2.6,1.9v4.4Zm-1.7-2.5V88l-1.1.1c-.6.1-.9.3-.9.8a.76.76,0,0,0,.2.5,1.42,1.42,0,0,0,.6.2,1.2,1.2,0,0,0,1.2-1.3Z"/><path class="cls-15" d="M220,90.6V89.1a3.55,3.55,0,0,0,.9.4,2.77,2.77,0,0,0,.9.1,2.2,2.2,0,0,0,.8-.1c.2-.1.3-.2.3-.4a.37.37,0,0,0-.1-.3c-.1-.1-.2-.2-.3-.2l-.4-.2c-.2,0-.3-.1-.5-.2l-.6-.3a.78.78,0,0,1-.4-.4,2.19,2.19,0,0,1-.3-.5,1.27,1.27,0,0,1-.1-.6,2.92,2.92,0,0,1,.2-.9,1.7,1.7,0,0,1,.6-.6,1.33,1.33,0,0,1,.8-.3,3.4,3.4,0,0,1,1-.1,2.2,2.2,0,0,1,.8.1,2.35,2.35,0,0,1,.8.2v1.4a6.89,6.89,0,0,0-.8-.3,2.2,2.2,0,0,0-.8-.1h-.3c-.1,0-.2.1-.3.1s-.1.1-.2.2-.1.1-.1.2a.37.37,0,0,0,.1.3c.1.1.2.1.3.2s.2.1.4.2l.4.1c.2.1.5.2.7.3a1,1,0,0,1,.5.4.85.85,0,0,1,.3.5,1.48,1.48,0,0,1,.1.7,2.92,2.92,0,0,1-.2.9c-.2.2-.4.5-.6.6a1.61,1.61,0,0,1-.9.3,3.4,3.4,0,0,1-1,.1A6,6,0,0,1,220,90.6Z"/><path class="cls-15" d="M211.5,121.4l-2.2,8.4h-2.1l-1.4-5.4a3.4,3.4,0,0,1-.1-1h0a3.55,3.55,0,0,1-.2,1l-1.4,5.4h-2.2l-2.2-8.4h2.1L203,127a3.4,3.4,0,0,1,.1,1h0a3.55,3.55,0,0,1,.2-1l1.5-5.6h2l1.4,5.6a2.77,2.77,0,0,1,.1.9h0c0-.3.1-.6.1-.9l1.2-5.6Z"/><path class="cls-15" d="M213.4,122.8a1.14,1.14,0,0,1-.8-.3,1,1,0,0,1,0-1.4,1.22,1.22,0,0,1,1.6,0,1,1,0,0,1,0,1.4A.67.67,0,0,1,213.4,122.8Zm.9,7h-1.9v-6h1.9Z"/><path class="cls-15" d="M221.6,129.8h-1.8v-3.3c0-.9-.3-1.4-1-1.4a.91.91,0,0,0-.8.4,1.61,1.61,0,0,0-.3.9v3.4h-1.9v-6h1.9v.9h0a2.14,2.14,0,0,1,1.9-1.1c1.3,0,2,.8,2,2.5Z"/><path class="cls-15" d="M229,129.8h-1.9V129h0a2.28,2.28,0,0,1-1.9,1,2.34,2.34,0,0,1-1.8-.8,3.41,3.41,0,0,1-.7-2.2,3.49,3.49,0,0,1,.8-2.4,2.52,2.52,0,0,1,2-.9,1.62,1.62,0,0,1,1.6.8h0V121h1.8l.1,8.8Zm-1.8-2.9v-.4a1.69,1.69,0,0,0-.3-1,1,1,0,0,0-.9-.4,1.23,1.23,0,0,0-1,.5,2.2,2.2,0,0,0-.4,1.3,2.38,2.38,0,0,0,.3,1.2,1.25,1.25,0,0,0,1.7.2l.2-.2a1.92,1.92,0,0,0,.4-1.2Z"/><path class="cls-15" d="M200.9,167.7v-1.9a2.38,2.38,0,0,0,1.1.6,5,5,0,0,0,1.2.2,1.27,1.27,0,0,0,.6-.1.52.52,0,0,0,.4-.2l.3-.3a.37.37,0,0,0,.1-.3c0-.2,0-.3-.1-.4s-.2-.3-.4-.4l-.6-.3-.7-.3a3.07,3.07,0,0,1-1.5-1,2.39,2.39,0,0,1-.5-1.4,2,2,0,0,1,.3-1.1,2.7,2.7,0,0,1,.7-.8,1.78,1.78,0,0,1,1-.4,5.28,5.28,0,0,1,1.3-.1,4.87,4.87,0,0,1,1.2.1,3.18,3.18,0,0,1,.9.3v1.8a2.19,2.19,0,0,0-.5-.3c-.2-.1-.3-.1-.5-.2a1.09,1.09,0,0,0-.5-.1h-.5a1.27,1.27,0,0,0-.6.1.52.52,0,0,0-.4.2l-.3.3c-.1.1-.1.2-.1.4a.6.6,0,0,0,.1.4l.3.3c.2.1.3.2.5.3a4.88,4.88,0,0,0,.7.3c.3.1.6.3.9.4a1.79,1.79,0,0,1,.7.5,1.61,1.61,0,0,1,.4.7,1.41,1.41,0,0,1,.1.9,2.66,2.66,0,0,1-.3,1.2,2.7,2.7,0,0,1-.7.8,2.1,2.1,0,0,1-1.1.4,5.7,5.7,0,0,1-1.3.1,5,5,0,0,1-1.2-.2A2.35,2.35,0,0,0,200.9,167.7Z"/><path class="cls-15" d="M210.7,168.1a4.07,4.07,0,0,1-2.4-.8,3.39,3.39,0,0,1,0-4.6,3.07,3.07,0,0,1,2.4-.8,4.07,4.07,0,0,1,2.4.8,3.1,3.1,0,0,1,.9,2.2,3.58,3.58,0,0,1-.9,2.4A3.07,3.07,0,0,1,210.7,168.1Zm0-4.8a1.53,1.53,0,0,0-1,.4,2,2,0,0,0-.4,1.3c0,1.1.5,1.7,1.4,1.7s1.3-.6,1.3-1.8-.4-1.6-1.3-1.6Z"/><path class="cls-15" d="M217,168h-1.9v-8.9H217Z"/><path class="cls-15" d="M223.6,168h-1.8v-.9h0a2.23,2.23,0,0,1-1.8,1,1.87,1.87,0,0,1-1.4-.5,2.11,2.11,0,0,1-.5-1.3c0-1.2.7-1.8,2.1-2l1.6-.2c0-.7-.4-1-1.1-1a3.61,3.61,0,0,0-2,.6v-1.4a3.58,3.58,0,0,1,1.1-.4,4.87,4.87,0,0,1,1.2-.1,2.33,2.33,0,0,1,2.6,1.9V168Zm-1.7-2.4v-.4l-1.1.1c-.6.1-.9.4-.9.8a.76.76,0,0,0,.2.5,1.42,1.42,0,0,0,.6.2,1.22,1.22,0,0,0,.9-.4,1.14,1.14,0,0,0,.3-.8Z"/><path class="cls-15" d="M229,163.7a1.88,1.88,0,0,0-.8-.2,1,1,0,0,0-.9.4,1.8,1.8,0,0,0-.3,1.2V168h-1.9v-6H227v1.1h0a1.62,1.62,0,0,1,1.6-1.2.9.9,0,0,1,.5.1Z"/><path class="cls-15" d="M287.9,134.3l-2.4,8.4h-1.2l-1.7-6.1a2.77,2.77,0,0,1-.1-.9h0c0,.3-.1.6-.1.8l-1.7,6.1h-1.2l-2.5-8.4h1.1l1.8,6.4a2.77,2.77,0,0,1,.1.9h0a2.92,2.92,0,0,1,.2-.9l1.9-6.4h1l1.8,6.5a2.2,2.2,0,0,1,.1.8h0a2.35,2.35,0,0,1,.2-.8l1.7-6.5Z"/><path class="cls-15" d="M289.5,135.1a.52.52,0,0,1-.4-.2.76.76,0,0,1-.2-.4.52.52,0,0,1,.2-.4.76.76,0,0,1,.4-.2c.2,0,.3.1.5.2a.76.76,0,0,1,.2.4.52.52,0,0,1-.2.4C289.8,135.1,289.7,135.2,289.5,135.1Zm.5,7.6h-1v-6h1Z"/><path class="cls-15" d="M296.8,142.7h-1v-3.4c0-1.3-.5-1.9-1.4-1.9a1.66,1.66,0,0,0-1.2.5,2.39,2.39,0,0,0-.5,1.4v3.4h-1v-6h1v1h0a2.11,2.11,0,0,1,2-1.1,2,2,0,0,1,1.5.6,2.38,2.38,0,0,1,.5,1.8Z"/><path class="cls-15" d="M303.7,142.7h-1v-1h0a2.25,2.25,0,0,1-2.1,1.2,2.34,2.34,0,0,1-1.8-.8,3.41,3.41,0,0,1-.7-2.2,3.49,3.49,0,0,1,.8-2.4,2.52,2.52,0,0,1,2-.9,2,2,0,0,1,1.8,1h0v-3.7h1v8.8Zm-1-2.7v-.9a1.66,1.66,0,0,0-.5-1.2,1.75,1.75,0,0,0-2.5,0l-.1.1a2.73,2.73,0,0,0-.5,1.8,2.2,2.2,0,0,0,.5,1.6,1.71,1.71,0,0,0,2.6,0,1.55,1.55,0,0,0,.5-1.4Z"/><path class="cls-15" d="M308.6,142.4v-1a2.72,2.72,0,0,0,1.7.6c.8,0,1.3-.3,1.3-.8a.6.6,0,0,0-.1-.4l-.3-.3a.76.76,0,0,0-.4-.2l-.5-.2c-.2-.1-.5-.2-.7-.3a1,1,0,0,1-.5-.4,2.19,2.19,0,0,1-.3-.5,1.27,1.27,0,0,1-.1-.6,1.45,1.45,0,0,1,.2-.7,2.65,2.65,0,0,1,.5-.6,2.12,2.12,0,0,1,.7-.3,2.77,2.77,0,0,1,.9-.1,3.19,3.19,0,0,1,1.4.3v1a2.82,2.82,0,0,0-1.5-.4.9.9,0,0,0-.5.1.76.76,0,0,0-.4.2c-.1.1-.2.2-.2.3a.37.37,0,0,0-.1.3.6.6,0,0,0,.1.4l.3.3a.76.76,0,0,0,.4.2l.5.2c.2.1.5.2.7.3a1,1,0,0,1,.5.4,2.18,2.18,0,0,1,.4.5,1.27,1.27,0,0,1,.1.6,2.35,2.35,0,0,1-.2.8,1.21,1.21,0,0,1-.5.5,1.14,1.14,0,0,1-.8.3,2.77,2.77,0,0,1-.9.1A4.28,4.28,0,0,1,308.6,142.4Z"/><path class="cls-15" d="M316.9,142.6a2.92,2.92,0,0,1-.9.2c-1,0-1.6-.6-1.6-1.8v-3.6h-1v-.8h1v-1.5l1-.3v1.8h1.5v.8h-1.5v3.4a1.49,1.49,0,0,0,.2.9.91.91,0,0,0,.7.3,1.42,1.42,0,0,0,.6-.2Z"/><path class="cls-15" d="M320.5,142.8a2.76,2.76,0,0,1-2.9-3,3.49,3.49,0,0,1,.8-2.4,3.1,3.1,0,0,1,2.2-.9,3,3,0,0,1,2.1.8,3.75,3.75,0,0,1-.1,4.6A2.72,2.72,0,0,1,320.5,142.8Zm.1-5.5a2,2,0,0,0-1.5.6,2.16,2.16,0,0,0-.5,1.7,3.37,3.37,0,0,0,.5,1.7,2,2,0,0,0,1.5.6,1.82,1.82,0,0,0,1.4-.6,2.62,2.62,0,0,0,.5-1.7,3.37,3.37,0,0,0-.5-1.7A2.25,2.25,0,0,0,320.6,137.3Z"/><path class="cls-15" d="M326,141.8h0v3.6h-1v-8.8h1v1.1h0a2.25,2.25,0,0,1,2.1-1.2,2.34,2.34,0,0,1,1.8.8,2.86,2.86,0,0,1,.6,2.2,4,4,0,0,1-.7,2.4,2.52,2.52,0,0,1-2,.9A2.23,2.23,0,0,1,326,141.8Zm0-2.4v.8a2.11,2.11,0,0,0,.5,1.3,1.85,1.85,0,0,0,1.2.5,1.62,1.62,0,0,0,1.4-.7,3.2,3.2,0,0,0,.5-1.9,2.35,2.35,0,0,0-.5-1.6,1.61,1.61,0,0,0-1.3-.6,2,2,0,0,0-1.4.6A4.19,4.19,0,0,0,326,139.4Z"/><path class="cls-15" d="M331.6,142.4v-1a2.72,2.72,0,0,0,1.7.6c.8,0,1.3-.3,1.3-.8a.6.6,0,0,0-.1-.4l-.3-.3a.76.76,0,0,0-.4-.2l-.5-.2c-.2-.1-.5-.2-.7-.3a1,1,0,0,1-.5-.4,2.19,2.19,0,0,1-.3-.5,1.27,1.27,0,0,1-.1-.6,1.45,1.45,0,0,1,.2-.7,2.65,2.65,0,0,1,.5-.6,2.12,2.12,0,0,1,.7-.3,2.77,2.77,0,0,1,.9-.1,3.19,3.19,0,0,1,1.4.3v1a2.82,2.82,0,0,0-1.5-.4.9.9,0,0,0-.5.1.76.76,0,0,0-.4.2c-.1.1-.2.2-.2.3a.37.37,0,0,0-.1.3.6.6,0,0,0,.1.4c.1.1.1.2.3.3a.76.76,0,0,0,.4.2l.5.2c.2.1.5.2.7.3a1,1,0,0,1,.5.4,2.18,2.18,0,0,1,.4.5,1.27,1.27,0,0,1,.1.6,2.35,2.35,0,0,1-.2.8,1.21,1.21,0,0,1-.5.5,1.14,1.14,0,0,1-.8.3,2.77,2.77,0,0,1-.9.1A4.92,4.92,0,0,1,331.6,142.4Z"/><path class="cls-15" d="M341.4,141.8h0v.9h-1v-8.9h1v3.9h0a2.25,2.25,0,0,1,2.1-1.2,2.34,2.34,0,0,1,1.8.8,2.86,2.86,0,0,1,.6,2.2,4,4,0,0,1-.7,2.4,2.52,2.52,0,0,1-2,.9A2,2,0,0,1,341.4,141.8Zm0-2.4v.8a2.11,2.11,0,0,0,.5,1.3,1.63,1.63,0,0,0,2.4,0l.2-.2a3.2,3.2,0,0,0,.5-1.9,2.35,2.35,0,0,0-.5-1.6,1.61,1.61,0,0,0-1.3-.6,2,2,0,0,0-1.4.6,2.28,2.28,0,0,0-.4,1.6Z"/><path class="cls-15" d="M348.3,142.7h-1v-8.9h1Z"/><path class="cls-15" d="M352.7,142.8a2.76,2.76,0,0,1-2.9-3,3.49,3.49,0,0,1,.8-2.4,3.1,3.1,0,0,1,2.2-.9,3.23,3.23,0,0,1,2.1.8,3.9,3.9,0,0,1,0,4.6A2.94,2.94,0,0,1,352.7,142.8Zm.1-5.5a2,2,0,0,0-1.5.6,2.16,2.16,0,0,0-.5,1.7,3.37,3.37,0,0,0,.5,1.7,2,2,0,0,0,1.5.6,1.82,1.82,0,0,0,1.4-.6,3.14,3.14,0,0,0,0-3.4A1.68,1.68,0,0,0,352.8,137.3Z"/><path class="cls-15" d="M364.7,136.7l-1.8,6h-1l-1.2-4.3c0-.2-.1-.4-.1-.6h0a4.33,4.33,0,0,1-.1.5l-1.3,4.3h-1l-1.8-6h1l1.2,4.5a4.33,4.33,0,0,0,.1.5h0c0-.2.1-.4.1-.6l1.4-4.5h.9l1.2,4.5a4.33,4.33,0,0,0,.1.5h0a.75.75,0,0,1,.1-.5l1.2-4.5Z"/><path class="cls-15" d="M366.3,135.1a.52.52,0,0,1-.4-.2.76.76,0,0,1-.2-.4.52.52,0,0,1,.2-.4.76.76,0,0,1,.4-.2c.2,0,.3.1.5.2a.76.76,0,0,1,.2.4.52.52,0,0,1-.2.4A.37.37,0,0,1,366.3,135.1Zm.5,7.6h-1v-6h1Z"/><path class="cls-15" d="M373.6,142.7h-1v-3.4c0-1.3-.5-1.9-1.4-1.9a1.66,1.66,0,0,0-1.2.5,2.39,2.39,0,0,0-.5,1.4v3.4h-1v-6h1v1h0a2.11,2.11,0,0,1,2-1.1,2,2,0,0,1,1.5.6,2.38,2.38,0,0,1,.5,1.8Z"/><path class="cls-15" d="M380.5,142.2c0,2.2-1.1,3.3-3.2,3.3a4.06,4.06,0,0,1-1.9-.4v-1a3.29,3.29,0,0,0,1.9.6c1.5,0,2.2-.8,2.2-2.4v-.7h0a2.43,2.43,0,0,1-3.3.8,2.18,2.18,0,0,1-.5-.4,3.32,3.32,0,0,1-.7-2.1,4,4,0,0,1,.7-2.4,2.52,2.52,0,0,1,2-.9,2.23,2.23,0,0,1,1.8,1h0v-.8h1Zm-1-2.2v-.9a1.71,1.71,0,0,0-1.7-1.7,1.82,1.82,0,0,0-1.4.6,2.9,2.9,0,0,0-.5,1.8,2.35,2.35,0,0,0,.5,1.6,1.71,1.71,0,0,0,2.6,0,1.55,1.55,0,0,0,.5-1.4Z"/><path class="cls-15" d="M277.5,156.7v-1.2a2.19,2.19,0,0,0,.5.3,1.42,1.42,0,0,0,.6.2,1.27,1.27,0,0,0,.6.1c.2,0,.4.1.6.1a3.19,3.19,0,0,0,1.4-.3,1.23,1.23,0,0,0,.3-1.6.78.78,0,0,0-.4-.4,2.09,2.09,0,0,0-.6-.4l-.8-.4-.8-.4a3,3,0,0,1-.7-.5,2.09,2.09,0,0,1-.4-.6,2.35,2.35,0,0,1-.2-.8,1.93,1.93,0,0,1,.3-1,2.34,2.34,0,0,1,.7-.7,3.55,3.55,0,0,1,.9-.4,3.75,3.75,0,0,1,1.1-.1,5.66,5.66,0,0,1,1.8.3V150a3.2,3.2,0,0,0-1.9-.5,1.27,1.27,0,0,0-.6.1,1.42,1.42,0,0,0-.6.2.78.78,0,0,0-.4.4,1.42,1.42,0,0,0-.2.6,1.27,1.27,0,0,0,.1.6.78.78,0,0,0,.4.4c.2.1.4.3.6.4l.8.4a4.05,4.05,0,0,1,.9.5,2,2,0,0,1,.7.6,1.79,1.79,0,0,1,.5.7,2.35,2.35,0,0,1,.2.8,2.28,2.28,0,0,1-.3,1.1,4.35,4.35,0,0,1-.6.7,3,3,0,0,1-1,.4,4.48,4.48,0,0,1-1.1.1h-.5l-.6-.1c-.2-.1-.4-.1-.6-.2C277.8,156.9,277.6,156.8,277.5,156.7Z"/><path class="cls-15" d="M288.8,157.1h-1v-.9h0a2.14,2.14,0,0,1-1.9,1.1c-1.4,0-2.1-.9-2.1-2.6v-3.6h1v3.4c0,1.3.5,1.9,1.5,1.9a1.85,1.85,0,0,0,1.2-.5,2.39,2.39,0,0,0,.5-1.4V151h1Z"/><path class="cls-15" d="M295.6,157.1h-1v-3.4c0-1.3-.5-1.9-1.4-1.9a1.66,1.66,0,0,0-1.2.5,2.39,2.39,0,0,0-.5,1.4v3.4h-1v-6h1v1h0a2.11,2.11,0,0,1,2-1.1,2,2,0,0,1,1.5.6,2.38,2.38,0,0,1,.5,1.8Z"/><path class="cls-15" d="M300.4,156.9v-1a2.72,2.72,0,0,0,1.7.6c.9,0,1.3-.3,1.3-.8a.6.6,0,0,0-.1-.4l-.3-.3a.76.76,0,0,0-.4-.2l-.5-.2c-.2-.1-.5-.2-.7-.3a1,1,0,0,1-.5-.4,2.19,2.19,0,0,1-.3-.5,1.27,1.27,0,0,1-.1-.6,1.45,1.45,0,0,1,.2-.7,2.65,2.65,0,0,1,.5-.6,2.12,2.12,0,0,1,.7-.3,3.71,3.71,0,0,1,2.3.2v1a2.82,2.82,0,0,0-1.5-.4.9.9,0,0,0-.5.1.76.76,0,0,0-.4.2c-.1.1-.2.2-.2.3a.37.37,0,0,0-.1.3.6.6,0,0,0,.1.4c.1.1.1.2.3.3a.76.76,0,0,0,.4.2l.5.2c.2.1.5.2.7.3a1,1,0,0,1,.5.4.85.85,0,0,1,.3.5,1.27,1.27,0,0,1,.1.6,2.35,2.35,0,0,1-.2.8,1.21,1.21,0,0,1-.5.5,1.14,1.14,0,0,1-.8.3,2.77,2.77,0,0,1-.9.1C301.4,157.3,300.9,157.1,300.4,156.9Z"/><path class="cls-15" d="M308.7,157a2.92,2.92,0,0,1-.9.2c-1,0-1.6-.6-1.6-1.8v-3.6h-1V151h1v-1.5l1-.3V151h1.5v.8h-1.5v3.4a1.49,1.49,0,0,0,.2.9.91.91,0,0,0,.7.3,1.42,1.42,0,0,0,.6-.2Z"/><path class="cls-15" d="M312.3,157.2a3,3,0,0,1-2.1-.8,3.7,3.7,0,0,1,0-4.6,3.1,3.1,0,0,1,2.2-.9,3.23,3.23,0,0,1,2.1.8,3.9,3.9,0,0,1,0,4.6A3.1,3.1,0,0,1,312.3,157.2Zm.1-5.5a2,2,0,0,0-1.5.6,2.16,2.16,0,0,0-.5,1.7,3.37,3.37,0,0,0,.5,1.7,2,2,0,0,0,1.5.6,1.82,1.82,0,0,0,1.4-.6,3,3,0,0,0,0-3.4A1.82,1.82,0,0,0,312.4,151.7Z"/><path class="cls-15" d="M317.8,156.2h0v3.6h-1V151h1v1.1h0a2.25,2.25,0,0,1,2.1-1.2,2.34,2.34,0,0,1,1.8.8,2.86,2.86,0,0,1,.6,2.2,4,4,0,0,1-.7,2.4,2.52,2.52,0,0,1-2,.9A2,2,0,0,1,317.8,156.2Zm0-2.4v.8a2.11,2.11,0,0,0,.5,1.3,1.85,1.85,0,0,0,1.2.5,1.62,1.62,0,0,0,1.4-.7,3.2,3.2,0,0,0,.5-1.9,2.35,2.35,0,0,0-.5-1.6,1.61,1.61,0,0,0-1.3-.6,2,2,0,0,0-1.4.6,2.28,2.28,0,0,0-.4,1.6Z"/><path class="cls-15" d="M323.4,156.9v-1a2.72,2.72,0,0,0,1.7.6c.9,0,1.3-.3,1.3-.8a.6.6,0,0,0-.1-.4l-.3-.3a.76.76,0,0,0-.4-.2l-.5-.2c-.2-.1-.5-.2-.7-.3a1,1,0,0,1-.5-.4,2.19,2.19,0,0,1-.3-.5,1.27,1.27,0,0,1-.1-.6,1.45,1.45,0,0,1,.2-.7,2.65,2.65,0,0,1,.5-.6,2.12,2.12,0,0,1,.7-.3,2.77,2.77,0,0,1,.9-.1,3.19,3.19,0,0,1,1.4.3v1a2.82,2.82,0,0,0-1.5-.4.9.9,0,0,0-.5.1.76.76,0,0,0-.4.2c-.1.1-.2.2-.2.3a.37.37,0,0,0-.1.3.6.6,0,0,0,.1.4l.3.3a.76.76,0,0,0,.4.2l.5.2c.2.1.5.2.7.3a1,1,0,0,1,.5.4.85.85,0,0,1,.3.5,1.27,1.27,0,0,1,.1.6,2.35,2.35,0,0,1-.2.8,1.21,1.21,0,0,1-.5.5,1.14,1.14,0,0,1-.8.3,2.77,2.77,0,0,1-.9.1C324.5,157.3,323.9,157.1,323.4,156.9Z"/><path class="cls-15" d="M331.8,156.9v-1a2.72,2.72,0,0,0,1.7.6c.8,0,1.3-.3,1.3-.8a.6.6,0,0,0-.1-.4l-.3-.3a.76.76,0,0,0-.4-.2l-.5-.2c-.2-.1-.5-.2-.7-.3a1,1,0,0,1-.5-.4,2.19,2.19,0,0,1-.3-.5,1.27,1.27,0,0,1-.1-.6,1.45,1.45,0,0,1,.2-.7,2.65,2.65,0,0,1,.5-.6,2.12,2.12,0,0,1,.7-.3,2.77,2.77,0,0,1,.9-.1,3.19,3.19,0,0,1,1.4.3v1a2.82,2.82,0,0,0-1.5-.4.9.9,0,0,0-.5.1.76.76,0,0,0-.4.2c-.1.1-.2.2-.2.3a.37.37,0,0,0-.1.3.6.6,0,0,0,.1.4l.3.3a.76.76,0,0,0,.4.2l.5.2c.2.1.5.2.7.3a1,1,0,0,1,.5.4.85.85,0,0,1,.3.5,1.27,1.27,0,0,1,.1.6,2.35,2.35,0,0,1-.2.8,1.21,1.21,0,0,1-.5.5,1.14,1.14,0,0,1-.8.3,2.77,2.77,0,0,1-.9.1C332.8,157.3,332.3,157.1,331.8,156.9Z"/><path class="cls-15" d="M342.1,157.1h-1v-3.5c0-1.3-.5-1.9-1.4-1.9a1.66,1.66,0,0,0-1.2.5,2.39,2.39,0,0,0-.5,1.4V157h-1v-8.9h1V152h0a2.11,2.11,0,0,1,2-1.1c1.4,0,2,.8,2,2.4Z"/><path class="cls-15" d="M344.3,149.6a.52.52,0,0,1-.4-.2.76.76,0,0,1-.2-.4.65.65,0,0,1,.6-.6c.2,0,.3.1.5.2a.76.76,0,0,1,.2.4.52.52,0,0,1-.2.4A.76.76,0,0,1,344.3,149.6Zm.5,7.5h-1v-6h1Z"/><path class="cls-15" d="M351.6,157.1h-1v-3.4c0-1.3-.5-1.9-1.4-1.9a1.66,1.66,0,0,0-1.2.5,2.39,2.39,0,0,0-.5,1.4v3.4h-1v-6h1v1h0a2.11,2.11,0,0,1,2-1.1,2,2,0,0,1,1.5.6,2.38,2.38,0,0,1,.5,1.8Z"/><path class="cls-15" d="M353.8,149.6a.52.52,0,0,1-.4-.2.76.76,0,0,1-.2-.4.65.65,0,0,1,.6-.6c.2,0,.3.1.5.2a.76.76,0,0,1,.2.4.52.52,0,0,1-.2.4A.76.76,0,0,1,353.8,149.6Zm.5,7.5h-1v-6h1Z"/><path class="cls-15" d="M361.1,157.1h-1v-3.4c0-1.3-.5-1.9-1.4-1.9a1.66,1.66,0,0,0-1.2.5,2.39,2.39,0,0,0-.5,1.4v3.4h-1v-6h1v1h0a2.11,2.11,0,0,1,2-1.1,2,2,0,0,1,1.5.6,2.38,2.38,0,0,1,.5,1.8Z"/><path class="cls-15" d="M368,156.6c0,2.2-1,3.3-3.2,3.3a4.77,4.77,0,0,1-2-.4v-1a7,7,0,0,0,1.9.6c1.5,0,2.2-.8,2.2-2.4V156h0a2.43,2.43,0,0,1-3.3.8,2.18,2.18,0,0,1-.5-.4,3.32,3.32,0,0,1-.7-2.1,4,4,0,0,1,.7-2.4,2.52,2.52,0,0,1,2-.9,2.23,2.23,0,0,1,1.8,1h0v-.8h1Zm-1-2.2v-.9a1.66,1.66,0,0,0-.5-1.2,1.85,1.85,0,0,0-1.2-.5,1.82,1.82,0,0,0-1.4.6,2.9,2.9,0,0,0-.5,1.8,2.35,2.35,0,0,0,.5,1.6,1.71,1.71,0,0,0,2.6,0,1.55,1.55,0,0,0,.5-1.4Z"/><path class="cls-15" d="M272.9,12.9V4.5h2.3c3,0,4.4,1.4,4.4,4.1a3.93,3.93,0,0,1-1.2,3.1,5,5,0,0,1-3.3,1.2Zm1-7.5V12h1.3a3.61,3.61,0,0,0,2.6-.9,3.38,3.38,0,0,0,.9-2.5c0-2.1-1.1-3.2-3.4-3.2Z"/><path class="cls-15" d="M286,10.1h-4.2a3,3,0,0,0,.5,1.6,1.55,1.55,0,0,0,1.4.5,2.81,2.81,0,0,0,1.9-.7v.9a3.94,3.94,0,0,1-2.1.6,2.79,2.79,0,0,1-2-.8,3.17,3.17,0,0,1-.7-2.3,3.41,3.41,0,0,1,.8-2.3,2.52,2.52,0,0,1,2-.9,2.06,2.06,0,0,1,1.8.8,2.74,2.74,0,0,1,.6,2.1v.5Zm-1-.8a2,2,0,0,0-.4-1.3,1.61,1.61,0,0,0-1.1-.5,1.85,1.85,0,0,0-1.2.5,2.62,2.62,0,0,0-.6,1.3Z"/><path class="cls-15" d="M296,12.9h-1V9.4a3.19,3.19,0,0,0-.3-1.4,1,1,0,0,0-1-.4,1.1,1.1,0,0,0-1,.6,2.3,2.3,0,0,0-.4,1.4V13h-1V9.3c0-1.2-.5-1.8-1.4-1.8a1.23,1.23,0,0,0-1,.5,2.3,2.3,0,0,0-.4,1.4v3.4h-1v-6h1v1h0a2.14,2.14,0,0,1,1.9-1.1A1.62,1.62,0,0,1,292,7.9a2,2,0,0,1,2-1.2c1.3,0,2,.8,2,2.4v3.8Z"/><path class="cls-15" d="M302,12.9h-1V12h0a2.26,2.26,0,0,1-3,.8.22.22,0,0,1-.2-.2,1.9,1.9,0,0,1-.5-1.3c0-1.1.7-1.8,2-2L301,9q0-1.5-1.2-1.5a2.88,2.88,0,0,0-2,.7v-1a3.61,3.61,0,0,1,2-.6,1.93,1.93,0,0,1,2.1,2.2Zm-1-3-1.4.2a2.93,2.93,0,0,0-1,.3.67.67,0,0,0-.3.8.91.91,0,0,0,.3.7,1.14,1.14,0,0,0,.8.3,1.85,1.85,0,0,0,1.2-.5,1.9,1.9,0,0,0,.5-1.3Z"/><path class="cls-15" d="M308.7,12.9h-1V9.4c0-1.3-.5-1.9-1.4-1.9a1.66,1.66,0,0,0-1.2.5,2.39,2.39,0,0,0-.5,1.4v3.4h-1v-6h1v1h0a2.11,2.11,0,0,1,2-1.1,2,2,0,0,1,1.5.6,2.38,2.38,0,0,1,.5,1.8Z"/><path class="cls-15" d="M315.6,12.9h-1v-1h0a2.11,2.11,0,0,1-2,1.1,2.34,2.34,0,0,1-1.8-.8,3.41,3.41,0,0,1-.7-2.2,3.49,3.49,0,0,1,.8-2.4,2.52,2.52,0,0,1,2-.9,2,2,0,0,1,1.8,1h0V4h1Zm-1-2.7V9.3a2,2,0,0,0-.4-1.3,1.85,1.85,0,0,0-1.2-.5,1.82,1.82,0,0,0-1.4.6,2.73,2.73,0,0,0-.5,1.8,2.2,2.2,0,0,0,.5,1.6,1.71,1.71,0,0,0,2.6,0,1.48,1.48,0,0,0,.4-1.3Z"/><path class="cls-15" d="M324,7.8a1.85,1.85,0,0,0-.7-.2,1.1,1.1,0,0,0-1,.6,2.93,2.93,0,0,0-.4,1.6v3.1h-1v-6h1V8.1h0a2.07,2.07,0,0,1,.6-1c.3-.2.6-.4.9-.3a1.27,1.27,0,0,1,.6.1Z"/><path class="cls-15" d="M329.9,10.1h-4.2a3,3,0,0,0,.5,1.6,1.55,1.55,0,0,0,1.4.5,2.81,2.81,0,0,0,1.9-.7v.9a3.94,3.94,0,0,1-2.1.6,2.79,2.79,0,0,1-2-.8,3.17,3.17,0,0,1-.7-2.3,4,4,0,0,1,.8-2.3,2.52,2.52,0,0,1,2-.9,2.06,2.06,0,0,1,1.8.8,2.74,2.74,0,0,1,.6,2.1Zm-1-.8a2,2,0,0,0-.4-1.3,1.61,1.61,0,0,0-1.1-.5,1.43,1.43,0,0,0-1.1.5,2.62,2.62,0,0,0-.6,1.3Z"/><path class="cls-15" d="M339.9,12.9h-1V9.4a2.23,2.23,0,0,0-.3-1.4,1,1,0,0,0-1-.4,1.1,1.1,0,0,0-1,.6,2.3,2.3,0,0,0-.4,1.4V13h-1V9.3c0-1.2-.5-1.8-1.4-1.8a1.23,1.23,0,0,0-1,.5,2.3,2.3,0,0,0-.4,1.4v3.4h-1v-6h1v1h0a2.14,2.14,0,0,1,1.9-1.1,1.62,1.62,0,0,1,1.6,1.2,2,2,0,0,1,2-1.2c1.3,0,2,.8,2,2.4Z"/><path class="cls-15" d="M345.9,12.9h-1V12h0a2.26,2.26,0,0,1-3,.8.22.22,0,0,1-.2-.2,1.9,1.9,0,0,1-.5-1.3c0-1.1.7-1.8,2-2L345,9q0-1.5-1.2-1.5a3.46,3.46,0,0,0-2,.7v-1a3.61,3.61,0,0,1,2-.6,1.93,1.93,0,0,1,2.1,2.2Zm-1-3-1.5.2a2.93,2.93,0,0,0-1,.3.67.67,0,0,0-.3.8.91.91,0,0,0,.3.7,1.14,1.14,0,0,0,.8.3,1.85,1.85,0,0,0,1.2-.5,1.9,1.9,0,0,0,.5-1.3Z"/><path class="cls-15" d="M348.1,5.3a.65.65,0,0,1-.6-.6h0a.52.52,0,0,1,.2-.4.76.76,0,0,1,.4-.2.52.52,0,0,1,.4.2.76.76,0,0,1,.2.4.52.52,0,0,1-.2.4C348.4,5.3,348.3,5.4,348.1,5.3Zm.5,7.6h-1v-6h1Z"/><path class="cls-15" d="M355.4,12.9h-1V9.4c0-1.3-.5-1.9-1.4-1.9a1.66,1.66,0,0,0-1.2.5,2.39,2.39,0,0,0-.5,1.4v3.4h-1v-6h1v1h0a2.11,2.11,0,0,1,2-1.1,2,2,0,0,1,1.5.6,2.38,2.38,0,0,1,.5,1.8Z"/><path class="cls-15" d="M356.8,12.6v-1a2.72,2.72,0,0,0,1.7.6c.9,0,1.3-.3,1.3-.8a.6.6,0,0,0-.1-.4l-.3-.3a.76.76,0,0,0-.4-.2l-.5-.2c-.2-.1-.5-.2-.7-.3a1,1,0,0,1-.5-.4,2.19,2.19,0,0,1-.3-.5,1.27,1.27,0,0,1-.1-.6,1.45,1.45,0,0,1,.2-.7,2.65,2.65,0,0,1,.5-.6,2.12,2.12,0,0,1,.7-.3,3.71,3.71,0,0,1,2.3.2v1a2.69,2.69,0,0,0-1.5-.5.9.9,0,0,0-.5.1.76.76,0,0,0-.4.2c-.2-.1-.2,0-.3.1a.37.37,0,0,0-.1.3.6.6,0,0,0,.1.4c.1.1.1.2.2.3a.76.76,0,0,0,.4.2l.5.2c.2.1.5.2.7.3a1,1,0,0,1,.5.4.85.85,0,0,1,.3.5,1.27,1.27,0,0,1,.1.6,2.35,2.35,0,0,1-.2.8,1.21,1.21,0,0,1-.5.5,1.14,1.14,0,0,1-.8.3,2.77,2.77,0,0,1-.9.1A2,2,0,0,1,356.8,12.6Z"/><path class="cls-15" d="M275.5,27.2a2.92,2.92,0,0,1-.9.2c-1.1,0-1.6-.6-1.6-1.8V22.1h-1v-.8h1V19.8l1-.3v1.8h1.5v.8H274v3.4a1.49,1.49,0,0,0,.2.9.91.91,0,0,0,.7.3,1.42,1.42,0,0,0,.6-.2Z"/><path class="cls-15" d="M281.7,27.3h-1V23.8c0-1.3-.5-1.9-1.4-1.9a1.66,1.66,0,0,0-1.2.5,2.39,2.39,0,0,0-.5,1.4v3.4h-1V18.3h1v3.9h0a2.11,2.11,0,0,1,2-1.1c1.4,0,2,.8,2,2.4Z"/><path class="cls-15" d="M288.3,24.5h-4.2a2.46,2.46,0,0,0,.5,1.5,1.55,1.55,0,0,0,1.4.5,2.81,2.81,0,0,0,1.9-.7v.9a3.94,3.94,0,0,1-2.1.6,2.79,2.79,0,0,1-2-.8,3.31,3.31,0,0,1-.7-2.3,3.41,3.41,0,0,1,.8-2.3,2.52,2.52,0,0,1,2-.9,2.06,2.06,0,0,1,1.8.8,2.74,2.74,0,0,1,.6,2.1Zm-1-.8a2,2,0,0,0-.4-1.3,1.61,1.61,0,0,0-1.1-.5,1.43,1.43,0,0,0-1.1.5,2.62,2.62,0,0,0-.6,1.3Z"/><path class="cls-15" d="M292.7,27V26a2.72,2.72,0,0,0,1.7.6c.9,0,1.3-.3,1.3-.8a.6.6,0,0,0-.1-.4l-.3-.3a.76.76,0,0,0-.4-.2l-.5-.2c-.2-.1-.5-.2-.7-.3a1,1,0,0,1-.5-.4,2.19,2.19,0,0,1-.3-.5,1.27,1.27,0,0,1-.1-.6,1.45,1.45,0,0,1,.2-.7,1.21,1.21,0,0,1,.5-.5,2.12,2.12,0,0,1,.7-.3,3.71,3.71,0,0,1,2.3.2v1a2.82,2.82,0,0,0-1.5-.4.9.9,0,0,0-.5.1.76.76,0,0,0-.4.2c-.1.1-.2.2-.2.3a.37.37,0,0,0-.1.3.6.6,0,0,0,.1.4c.1.1.1.2.3.3a.76.76,0,0,0,.4.2l.5.2c.2.1.5.2.7.3a1,1,0,0,1,.5.4.85.85,0,0,1,.3.5,1.27,1.27,0,0,1,.1.6,2.35,2.35,0,0,1-.2.8,2.65,2.65,0,0,1-.5.6,1.14,1.14,0,0,1-.8.3,2.77,2.77,0,0,1-.9.1A11.94,11.94,0,0,0,292.7,27Z"/><path class="cls-15" d="M302.5,27.3h-1v-.9h0a2.14,2.14,0,0,1-1.9,1.1,1.87,1.87,0,0,1-1.4-.5,1.9,1.9,0,0,1-.5-1.3c0-1.1.7-1.8,2-2l1.8-.3q0-1.5-1.2-1.5a3.72,3.72,0,0,0-2,.7v-1a3.61,3.61,0,0,1,2-.6,1.93,1.93,0,0,1,2.1,2.2Zm-1-3-1.5.2a2.93,2.93,0,0,0-1,.3.67.67,0,0,0-.3.8.91.91,0,0,0,.3.7,1.14,1.14,0,0,0,.8.3,1.85,1.85,0,0,0,1.2-.5,1.9,1.9,0,0,0,.5-1.3Z"/><path class="cls-15" d="M312.8,27.3h-1V23.9a4,4,0,0,0-.3-1.5,1,1,0,0,0-1-.4,1.1,1.1,0,0,0-1,.6,2.3,2.3,0,0,0-.4,1.4v3.4h-1V23.8c0-1.2-.5-1.8-1.4-1.8a1.23,1.23,0,0,0-1,.5,2.3,2.3,0,0,0-.4,1.4v3.4h-1v-6h1v1h0a2.14,2.14,0,0,1,1.9-1.1,1.74,1.74,0,0,1,1.7,1.2,2,2,0,0,1,2-1.2c1.3,0,2,.8,2,2.4Z"/><path class="cls-15" d="M319.4,24.5h-4.2a2.46,2.46,0,0,0,.5,1.5,1.55,1.55,0,0,0,1.4.5,2.81,2.81,0,0,0,1.9-.7v.9a3.94,3.94,0,0,1-2.1.6,2.79,2.79,0,0,1-2-.8,3.31,3.31,0,0,1-.7-2.3,3.41,3.41,0,0,1,.8-2.3,2.52,2.52,0,0,1,2-.9,2.06,2.06,0,0,1,1.8.8,2.74,2.74,0,0,1,.6,2.1Zm-1-.8a2,2,0,0,0-.4-1.3,1.61,1.61,0,0,0-1.1-.5,1.43,1.43,0,0,0-1.1.5,2.62,2.62,0,0,0-.6,1.3Z"/></g></g><g id="cleaned"><g id="Shapes-2" data-name="Shapes"><rect class="cls-1" width="389" height="213"/><line class="cls-2" x1="64.7" y1="190" x2="276.6" y2="190"/><polygon class="cls-3" points="275.5 193.7 282 190 275.5 186.3 275.5 193.7"/><rect class="cls-1" x="78.5" y="124.2" width="52.3" height="61.1"/><rect class="cls-4" x="78.5" y="124.2" width="52.3" height="61.1"/><path class="cls-1" d="M130.6,124.5v60.6H78.8V124.5h51.8m.5-.5H78.3v61.6h52.8V124Z"/><path d="M131.1,124v61.6H78.3V124h52.8m.5-.5H77.8v62.6h53.8Z"/><rect class="cls-1" x="78.5" y="80.2" width="52.3" height="43.5"/><rect class="cls-5" x="78.5" y="80.2" width="52.3" height="43.5"/><path class="cls-1" d="M130.6,80.5v43H78.8v-43h51.8m.5-.5H78.3v44h52.8V80Z"/><path d="M131.1,80v44H78.3V80h52.8m.5-.5H77.8v45h53.8Z"/><rect class="cls-1" x="78.5" y="49.4" width="52.3" height="30.3"/><rect class="cls-6" x="78.5" y="49.4" width="52.3" height="30.3"/><path class="cls-1" d="M130.6,49.7V79.5H78.8V49.7h51.8m.5-.5H78.3V80h52.8Z"/><path d="M131.1,49.2V80H78.3V49.2h52.8m.5-.5H77.8V80.5h53.8Z"/><rect class="cls-1" x="78.5" y="18.6" width="52.3" height="30.3"/><rect class="cls-7" x="78.5" y="18.6" width="52.3" height="30.3"/><path class="cls-1" d="M130.6,18.9V48.7H78.8V18.9h51.8m.5-.5H78.3V49.2h52.8Z"/><path d="M131.1,18.4V49.2H78.3V18.4h52.8m.5-.5H77.8V49.7h53.8Z"/><rect class="cls-1" x="188.5" y="146.2" width="52.3" height="39.1"/><rect class="cls-8" x="188.5" y="146.2" width="52.3" height="39.1"/><path class="cls-1" d="M240.6,146.5v38.6H188.8V146.5h51.8m.5-.5H188.3v39.6h52.8V146Z"/><path d="M241.1,146v39.6H188.3V146h52.8m.5-.5H187.8v40.6h53.8Z"/><rect class="cls-1" x="188.5" y="106.6" width="52.3" height="39.1"/><rect class="cls-9" x="188.5" y="106.6" width="52.3" height="39.1"/><path class="cls-1" d="M240.6,106.9v38.6H188.8V106.9h51.8m.5-.5H188.3V146h52.8V106.4Z"/><path d="M241.1,106.4V146H188.3V106.4h52.8m.5-.5H187.8v40.6h53.8Z"/><rect class="cls-1" x="188.5" y="67" width="52.3" height="39.1"/><rect class="cls-10" x="188.5" y="67" width="52.3" height="39.1"/><path class="cls-1" d="M240.6,67.3v38.6H188.8V67.3h51.8m.5-.5H188.3v39.6h52.8Z"/><path d="M241.1,66.8v39.6H188.3V66.8h52.8m.5-.5H187.8v40.6h53.8Z"/><rect class="cls-1" x="188.5" y="18.6" width="52.3" height="47.9"/><rect class="cls-11" x="188.5" y="18.6" width="52.3" height="47.9"/><path class="cls-1" d="M240.6,18.9V66.3H188.8V18.9h51.8m.5-.5H188.3V66.8h52.8Z"/><path d="M241.1,18.4V66.8H188.3V18.4h52.8m.5-.5H187.8V67.3h53.8Z"/><line class="cls-12" x1="64.7" y1="17.7" x2="264.7" y2="17.7"/><line class="cls-13" x1="64.7" y1="17.7" x2="264.7" y2="17.7"/><path class="cls-3" d="M264.7,18.2h-2v-1h2Zm-5,0h-3v-1h3Zm-6,0h-3v-1h3Zm-6,0h-3v-1h3Zm-6,0h-3v-1h3Zm-6,0h-3v-1h3Zm-6,0h-3v-1h3Zm-6,0h-3v-1h3Zm-6,0h-3v-1h3Zm-6,0h-3v-1h3Zm-6,0h-3v-1h3Zm-6,0h-3v-1h3Zm-6,0h-3v-1h3Zm-6,0h-3v-1h3Zm-6,0h-3v-1h3Zm-6,0h-3v-1h3Zm-6,0h-3v-1h3Zm-6,0h-3v-1h3Zm-6,0h-3v-1h3Zm-6,0h-3v-1h3Zm-6,0h-3v-1h3Zm-6,0h-3v-1h3Zm-6,0h-3v-1h3Zm-6,0h-3v-1h3Zm-6,0h-3v-1h3Zm-6,0h-3v-1h3Zm-6,0h-3v-1h3Zm-6,0h-3v-1h3Zm-6,0h-3v-1h3Zm-6,0h-3v-1h3Zm-6,0h-3v-1h3Zm-6,0h-3v-1h3Zm-6,0h-3v-1h3Zm-6,0h-3v-1h3Z"/><line class="cls-12" x1="131.8" y1="80.4" x2="188.3" y2="106.4"/><line class="cls-13" x1="131.8" y1="80.4" x2="188.3" y2="106.4"/><path class="cls-3" d="M188.1,106.8l-2-.9.4-.9,2,.9Zm-4.7-2.1-2.7-1.3.4-.9,2.7,1.3Zm-5.5-2.5-2.7-1.3.4-.9,2.7,1.3Zm-5.4-2.6-2.7-1.3.4-.9,2.7,1.3ZM167,97.1l-2.7-1.3.4-.9,2.7,1.3Zm-5.4-2.5-2.7-1.3.4-.9,2.8,1.3Zm-5.5-2.5-2.7-1.3.4-.9,2.7,1.3Zm-5.4-2.5L148,88.3l.4-.9,2.7,1.3Zm-5.5-2.5-2.7-1.3.4-.9,2.7,1.3Zm-5.4-2.5L137,83.4l.4-.9,2.7,1.3Zm-5.5-2.5-2.7-1.3.4-.9,2.7,1.3Z"/><line class="cls-12" x1="131.8" y1="124" x2="188.3" y2="146"/><line class="cls-13" x1="131.8" y1="124" x2="188.3" y2="146"/><path class="cls-3" d="M188.1,146.4l-.6-.2.4-.9.6.2Zm-3.4-1.3-2.8-1.1.4-.9,2.8,1.1Zm-5.6-2.1-2.8-1.1.4-.9,2.8,1.1Zm-5.5-2.2-2.8-1.1.4-.9,2.8,1.1Zm-5.7-2.1-2.8-1.1.4-.9,2.8,1.1Zm-5.5-2.2-2.8-1.1.4-.9,2.8,1.1Zm-5.6-2.2-2.8-1.1.4-.9,2.8,1.1Zm-5.6-2.2-2.8-1.1.4-.9,2.8,1.1Zm-5.6-2.2-2.8-1.1.4-.9L146,129Zm-5.6-2.2-2.8-1.1.4-.9,2.8,1.1Zm-5.6-2.2-2.8-1.1.4-.9,2.8,1.1Z"/><path class="cls-14" d="M247.3,106.4h6.4a5,5,0,0,1,5,5v69.2a5,5,0,0,1-5,5h-6.4"/><line class="cls-14" x1="258.7" y1="146" x2="271.9" y2="146"/></g></g><g id="text-2" data-name="text"><g class="cls-16"><path class="cls-15" d="M109.1,106.32a.19.19,0,0,0,.16-.07,1.91,1.91,0,0,0,.13-.57c0-.34.1-.86.15-1.57.37.18.72.34,1,.47a8.47,8.47,0,0,1-.54,2.92,1.12,1.12,0,0,1-1,.61,1.48,1.48,0,0,1-1.39-1c-.32-.66-.47-2.39-.45-5.2V98.7h-5.75v3a18.15,18.15,0,0,1-.31,3.71,8.58,8.58,0,0,1-1.26,2.89c-.36-.44-.76-.9-1.19-1.37a6.06,6.06,0,0,0,1-2.25,20.54,20.54,0,0,0,.21-3.66V97.11h8.93v5c0,1.7,0,2.83,0,3.37S108.93,106.31,109.1,106.32Zm-6.4-7q.9,1.15,1.68,2.22a19.34,19.34,0,0,0,1.33-2.43l1.4.77a25.11,25.11,0,0,1-1.74,3c.72,1,1.35,1.92,1.91,2.78l-1.33,1c-.51-.81-1-1.61-1.58-2.42a28.64,28.64,0,0,1-2.07,2.4c-.4-.45-.78-.86-1.16-1.23a24.27,24.27,0,0,0,2.28-2.55c-.63-.9-1.29-1.79-2-2.69Z"/></g><g class="cls-16"><path class="cls-15" d="M87.1,151.78h4.6a26,26,0,0,0,.11-2.62h1.8c0,.84,0,1.72-.1,2.62h4.81v1.62h-4.6a8.16,8.16,0,0,0,4.89,5.51c-.42.47-.88,1.05-1.4,1.72a10.55,10.55,0,0,1-4.44-5.84c-.57,2-2.09,4-4.56,5.91a18.29,18.29,0,0,0-1.36-1.57q4.08-2.37,4.63-5.73H87.1Zm4.08,6.52,1.1-.92c.51.57,1.1,1.18,1.76,1.86l-1.29,1C92.29,159.68,91.77,159,91.18,158.3Z"/><path class="cls-15" d="M102.54,154a4.62,4.62,0,0,1,1,3.16,1.85,1.85,0,0,1-.57,1.5,2.9,2.9,0,0,1-1.85.47,10.26,10.26,0,0,0-.28-1.73l.47,0c.45,0,.68-.19.68-.56a4.07,4.07,0,0,0-1-2.7c.3-1,.59-2.1.86-3.24h-1v9.73H99.32V149.58h4.13v1.12C103.17,151.76,102.87,152.86,102.54,154Zm7.46,6.61h-1.59v-.78h-2.93v.78H103.9V149.77H110Zm-4.52-6.56h2.93v-2.82h-2.93Zm0,4.31h2.93v-2.84h-2.93Z"/><path class="cls-15" d="M120.79,156.18l1.71.54c-.2,1.82-.47,2.9-.79,3.24a2,2,0,0,1-1.53.51H119a1.68,1.68,0,0,1-1.88-1.93v-3.3h-1.39c0,2.77-1.22,4.59-3.64,5.44a11.34,11.34,0,0,0-1.28-1.4q3.15-1.18,3.08-4h-2.88v-1.63h4.71V149.1h1.78v4.51h4.81v1.63h-3.46v2.94q0,.75.63.75h.28a.65.65,0,0,0,.66-.41A11.76,11.76,0,0,0,120.79,156.18Zm-7.92-6.44c.93.95,1.69,1.76,2.27,2.44l-1.42,1.08c-.78-1-1.5-1.83-2.15-2.52Zm7.51,0,1.49,1.08c-1,1.17-1.8,2-2.38,2.57l-1.29-1.1A21.53,21.53,0,0,0,120.38,149.74Z"/></g><g class="cls-16"><path class="cls-15" d="M96.2,29.09l.94.69c.13-.48.24-1,.34-1.51l1.24.17c0,.24-.08.47-.13.69h1.68a15.8,15.8,0,0,1-.14,1.88h.77c0-1.13,0-2.08,0-2.86h1.37c0,.66,0,1.61-.07,2.86h2V32.3h-1.74a6,6,0,0,0,2,3c-.2.27-.47.69-.82,1.26a7.38,7.38,0,0,1-1.89-3,6.38,6.38,0,0,1-1.84,3.15,10.41,10.41,0,0,0-1-1,5.46,5.46,0,0,0,1.94-3.41h-1a8.63,8.63,0,0,1-2.56,4.24,7.4,7.4,0,0,0-.84-1.1,7.48,7.48,0,0,0,1.19-1.34c-.29-.3-.54-.56-.77-.77-.12.19-.25.37-.39.55-.22-.44-.44-.82-.64-1.15a9.47,9.47,0,0,0,1.29-2.94l-1.71,2.27c0,1.16,0,2.1-.11,2.82.53.67,1,1.27,1.41,1.81,0-.07,0-.16.07-.24l1.26.41c-.25,1-.54,1.86-.84,2.68l-1.3-.48c.27-.66.52-1.36.74-2.1l-.93.8c-.22-.39-.45-.78-.68-1.16a6.57,6.57,0,0,1-1.28,2.89,13.22,13.22,0,0,0-1-1.14,7.45,7.45,0,0,0,1.36-4.61l-.78.18c-.26-1.69-.46-2.91-.61-3.65l.86-.2c.12.72.3,1.85.54,3.38,0-1.23,0-3,0-5.44h1.39l0,2.5C95.76,30,96,29.48,96.2,29.09Zm2,4.16c.1-.21.2-.43.29-.66l-.79-.68c-.1.21-.2.41-.31.61C97.64,32.75,97.91,33,98.17,33.25Zm.8-2.81h-.73a4.56,4.56,0,0,1-.18.52l.73.59A9.88,9.88,0,0,0,99,30.44Zm.66,6.42c.09.4.23,1.2.41,2.38l-1.37.2c-.08-.83-.2-1.62-.34-2.37Zm1.77-.24c.18.64.35,1.44.53,2.38l-1.24.26c-.15-.84-.32-1.63-.52-2.38Zm1.84-.25c.36.78.73,1.66,1.13,2.64l-1.28.55c-.33-.93-.68-1.82-1-2.69Zm.07-8.1c.29.54.58,1.12.86,1.72l-1,.5c-.31-.65-.59-1.23-.86-1.72Z"/><path class="cls-15" d="M108.32,30.25l1,1c-.66.62-1.24,1.17-1.72,1.66q0,1.34-.12,2.28l1.65,1.92-1.12.95-.8-1.18a8.88,8.88,0,0,1-1.38,2.82,12.55,12.55,0,0,0-1.22-1.12,9.41,9.41,0,0,0,1.55-5.73c0-.63,0-2.22,0-4.77h1.49c0,1.17,0,2.2,0,3.08Zm-2.7-.08c.17,1.45.31,2.68.41,3.68l-.88.16c-.14-1.45-.29-2.68-.44-3.69ZM108.45,35h3.28v-.84h-2V30.38h-1.06V29.13h1.06V28.06h1.48v1.07h2.58V28.06h1.47v1.07h1.08v1.25h-1.08v3.76h-2.06V35h3.17v1.24h-2.7a6.75,6.75,0,0,0,2.87,1.63c-.32.48-.6.91-.83,1.28a7.83,7.83,0,0,1-2.51-1.93v2.36h-1.45V37.22a11.44,11.44,0,0,1-2.58,2,11.72,11.72,0,0,0-1-1.16,9.74,9.74,0,0,0,3-1.82h-2.73Zm2.74-3.91h2.58v-.69h-2.58Zm2.58,1.86v-.69h-2.58v.69Z"/></g><g class="cls-16"><path class="cls-15" d="M86.87,62.87h4.61a18.29,18.29,0,0,0,.19-2.15H87.52v-1.6H97.64v1.6H93.38c0,.68-.07,1.4-.13,2.15h5v1.62H93.76a6.84,6.84,0,0,0,4.59,3.93c-.33.35-.78.91-1.36,1.66a8.25,8.25,0,0,1-4.5-4.56A9,9,0,0,1,88.07,70c-.31-.39-.75-.89-1.33-1.5,2.5-1.13,4-2.48,4.38-4H86.87Z"/><path class="cls-15" d="M100.5,62.74q.7.43,1.32.87a6,6,0,0,0,.42-.57q-.64-.4-1.35-.81l.76-1c.39.22.77.45,1.15.68a6,6,0,0,0,.31-1.07h-1.76a12.64,12.64,0,0,1-2,2.66c-.24-.49-.49-1-.77-1.43a8.4,8.4,0,0,0,2.09-3.49h1.63c-.11.32-.22.64-.35.95h2.68v1.25a8.64,8.64,0,0,1-4.46,6.08l1.4.63c-.37.77-.86,1.66-1.45,2.66L98.8,69.4a21.8,21.8,0,0,0,1.4-2.55l-.46.24c-.26-.44-.55-.89-.89-1.37a8.23,8.23,0,0,0,2-1.19q-.56-.41-1.2-.81Zm3,4.33c.32.77.63,1.56.9,2.38l-1.57.37c-.31-.93-.58-1.72-.82-2.37Zm1.09-5.92h1.43c0-.75,0-1.62,0-2.6h1.55c0,1,0,1.87,0,2.6h2.61v1.46H108a5.81,5.81,0,0,0,2.45,3.06c-.36.48-.7.94-1,1.39A6.84,6.84,0,0,1,107,63.48a6.58,6.58,0,0,1-2.9,3.66,13.89,13.89,0,0,0-1-1.33,5.25,5.25,0,0,0,2.73-3.2h-1.23ZM106.27,67c.32.65.66,1.42,1,2.3l-1.54.45c-.29-.8-.6-1.57-.93-2.32Zm2.67-.17c.45.79.91,1.66,1.36,2.62l-1.44.55c-.53-1.1-1-2-1.3-2.61Zm-.13-8.15c.47.5.89,1,1.27,1.46l-1.08.75c-.39-.52-.79-1-1.22-1.53Z"/><path class="cls-15" d="M113,58.47h1.79c-.13.32-.27.65-.43,1h7.46v1.38h-8.21a21.41,21.41,0,0,1-2,2.73c-.32-.68-.61-1.26-.87-1.73A12.32,12.32,0,0,0,113,58.47Zm-1,6.51V63.6h8.25v2q0,2.64.63,2.64c.31,0,.49-.63.56-1.91a4.65,4.65,0,0,0,1,.6,7.11,7.11,0,0,1-.49,2.37,1.12,1.12,0,0,1-1,.75,1.81,1.81,0,0,1-1.7-1,7.27,7.27,0,0,1-.55-3.27V65Zm1.26-3.44H121v1.33H113.2Z"/></g><g class="cls-16"><path d="M273.83,22.38h-.89V18.53h3.82l.19-.91h-5.11v-.73h11.53v.73h-5.51l-.23.91h4.7v2.63a1,1,0,0,1-1.16,1.16l-1.23,0a6.87,6.87,0,0,0-.17-.9,10.73,10.73,0,0,0,1.14.07c.35,0,.53-.15.53-.47V19.26h-2v2.79h-.83V19.26h-1.95v2.79h-.83V19.26h-2Zm-1.59-9.54h4.94v-.68h-4.36v-.73h9.47v.73H278v.68h5V15h-.9V13.56H278v2.79h-.83V13.56h-4V15h-.9Zm1.57,1.4h2.75v.64h-2.75Zm0,1.32h2.75v.63h-2.75Zm4.83-1.32h2.75v.64h-2.75Zm0,1.32h2.75v.63h-2.75Z"/><path d="M284,13h5.14V10.88h1V13h5.12v.85h-5.12v.72A12.55,12.55,0,0,0,291.51,17a19.59,19.59,0,0,0,2.3-2.34l.83.69q-1.44,1.43-2.55,2.37a10.75,10.75,0,0,0,3.36,2.62,8.66,8.66,0,0,0-.7.92,11.75,11.75,0,0,1-4.59-4.74v4.3c0,1-.53,1.51-1.59,1.51-.56,0-1.08,0-1.56,0,0-.32-.1-.67-.18-1a13.64,13.64,0,0,0,1.51.1.74.74,0,0,0,.83-.85V18.26q-2.76,1.43-4.82,2.58l-.5-1c1.63-.76,3.41-1.66,5.32-2.71V13.85H284Zm1.72,1.55c.62.62,1.26,1.31,1.91,2.07-.24.21-.51.42-.81.66q-.83-1.07-1.8-2.16Zm5.48-3.05.57-.62a14.21,14.21,0,0,1,1.77,1.28l-.64.7C292.47,12.45,291.91,12,291.23,11.5Z"/><path d="M295.73,16.62a18.38,18.38,0,0,0,2.44-5.68l.87.26c-.32,1-.67,2-1,2.89v8.27h-.85v-6.5a18.67,18.67,0,0,1-1,1.72C296,17.26,295.87,16.94,295.73,16.62Zm4.12-5.17h6.54v4.42h-.89v-.44h-2V17h3.86v.8h-3.18a7.28,7.28,0,0,0,3.28,2.82c-.24.34-.44.63-.59.87a8.94,8.94,0,0,1-3.37-3.61v4.53h-.86V17.84a10.42,10.42,0,0,1-3.55,3.89,8.19,8.19,0,0,0-.66-.71,9.31,9.31,0,0,0,3.39-3.21h-3.07V17h3.89V15.43h-1.93V16h-.89Zm5.65.79h-4.76v2.4h4.76Z"/><path d="M307.77,17.13l1.64-.38V14h-1.54v-.85h1.54V10.89h.91v2.26h1.5V14h-1.5v2.52c.49-.13.92-.25,1.29-.37,0,.29,0,.59.08.92l-1.37.37V21c0,.88-.4,1.31-1.19,1.31l-1.12,0a8.13,8.13,0,0,0-.15-1c.49.05.85.08,1.07.08s.48-.18.48-.55V17.69l-1.52.44Zm3.91-2.1h3.38V13.39h-2.71v-.85h2.71V10.89H316v1.65h2.74v.85H316V15h3.48v.84h-7.77Zm.05,2.44h5v-1.2h.91v1.2h1.75v.84H317.6V21c0,.86-.4,1.29-1.21,1.3-.48,0-1.06,0-1.73,0,0-.26-.08-.57-.13-.93a13.67,13.67,0,0,0,1.59.1c.38,0,.57-.21.57-.64V18.31h-5Zm.74,1.54.65-.48a20.6,20.6,0,0,1,1.48,1.73l-.78.55A17.59,17.59,0,0,0,312.47,19Z"/><path d="M320,11.89h11.16v.91h-4.31q-.56,1-1.5,2.31h.68v7.35h-1v-7a19.63,19.63,0,0,1-4.72,4.22,8.07,8.07,0,0,0-.66-.84,18.05,18.05,0,0,0,6-6.05H320Zm7.2,3.58q2.19,1.33,4.23,2.72l-.66.93q-2.42-1.8-4.14-2.85Z"/><path d="M333.17,17.77V17h8v.81a10.56,10.56,0,0,1-2.67,2.49,14.14,14.14,0,0,0,5,1.13c-.28.39-.51.72-.68,1a14.35,14.35,0,0,1-5.2-1.61,20.92,20.92,0,0,1-5.16,1.69,9.51,9.51,0,0,0-.6-.87,20.43,20.43,0,0,0,4.92-1.37,8.7,8.7,0,0,1-2.2-2.45Zm1-3.95.71.6c-.8.91-1.58,1.74-2.36,2.48a7.16,7.16,0,0,0-.68-.65A18,18,0,0,0,334.19,13.82ZM332,12.33h5.34c-.24-.43-.46-.81-.67-1.13l.85-.41c.38.59.65,1,.79,1.31l-.45.23h5.33v.84h-3.79v3.25h-.9V13.17h-1.88v3.28h-.91V13.17H332Zm8,5.44h-4.43a6.62,6.62,0,0,0,2,2A9.54,9.54,0,0,0,340,17.77Zm.15-3.37.64-.55c1,.89,1.82,1.69,2.46,2.37l-.72.65C341.77,16,341,15.19,340.15,14.4Z"/></g><g class="cls-16"><path class="cls-15" d="M219.1,129.55a.19.19,0,0,0,.16-.07,1.91,1.91,0,0,0,.13-.57c.05-.34.1-.86.15-1.58a10,10,0,0,0,1,.47,8.49,8.49,0,0,1-.54,2.93,1.12,1.12,0,0,1-1,.61,1.47,1.47,0,0,1-1.39-1q-.48-1-.45-5.19v-3.24h-5.75v3a18.15,18.15,0,0,1-.31,3.71,8.58,8.58,0,0,1-1.26,2.89c-.36-.45-.76-.9-1.19-1.37a6.13,6.13,0,0,0,1-2.25,20.54,20.54,0,0,0,.21-3.66v-3.91h8.93v5c0,1.7,0,2.83,0,3.37S218.93,129.54,219.1,129.55Zm-6.4-7c.6.77,1.16,1.51,1.68,2.21a18.56,18.56,0,0,0,1.33-2.42l1.4.77a25.11,25.11,0,0,1-1.74,3c.72,1,1.35,1.92,1.91,2.78L216,130c-.51-.81-1-1.62-1.58-2.42a28.64,28.64,0,0,1-2.07,2.4c-.4-.45-.78-.86-1.16-1.23a24.27,24.27,0,0,0,2.28-2.55c-.63-.9-1.29-1.8-2-2.69Z"/></g><g class="cls-16"><path class="cls-15" d="M197.1,160.73h4.6a26.23,26.23,0,0,0,.11-2.63h1.8c0,.85,0,1.72-.1,2.63h4.81v1.61h-4.6a8.14,8.14,0,0,0,4.89,5.51c-.42.48-.88,1.05-1.4,1.73a10.58,10.58,0,0,1-4.44-5.84q-.86,3-4.56,5.91a16.84,16.84,0,0,0-1.36-1.57q4.08-2.37,4.63-5.74H197.1Zm4.08,6.51,1.1-.91c.51.56,1.1,1.18,1.76,1.85l-1.29,1.06C202.29,168.63,201.77,168,201.18,167.24Z"/><path class="cls-15" d="M212.54,163a4.65,4.65,0,0,1,1.05,3.17,1.82,1.82,0,0,1-.57,1.49,2.83,2.83,0,0,1-1.85.48,10.56,10.56,0,0,0-.28-1.74,2.88,2.88,0,0,0,.47,0c.45,0,.68-.19.68-.56a4,4,0,0,0-1-2.7c.3-1,.59-2.11.86-3.25h-1v9.73h-1.52V158.52h4.13v1.13C213.17,160.7,212.87,161.81,212.54,163Zm7.46,6.61h-1.59v-.77h-2.93v.77H213.9V158.71H220ZM215.48,163h2.93v-2.81h-2.93Zm0,4.31h2.93v-2.83h-2.93Z"/><path class="cls-15" d="M230.79,165.12q1,.34,1.71.54c-.2,1.82-.46,2.9-.79,3.24a2,2,0,0,1-1.53.51H229a1.68,1.68,0,0,1-1.88-1.92v-3.31h-1.39q0,4.17-3.64,5.44a11.19,11.19,0,0,0-1.28-1.39q3.15-1.2,3.08-4h-2.88v-1.62h4.71V158h1.78v4.52h4.81v1.62h-3.46v2.95q0,.75.63.75h.28a.65.65,0,0,0,.66-.41A12.06,12.06,0,0,0,230.79,165.12Zm-7.92-6.43c.93.94,1.69,1.76,2.27,2.44l-1.42,1.07c-.78-1-1.5-1.82-2.15-2.52Zm7.51,0,1.49,1.08a34.8,34.8,0,0,1-2.38,2.56l-1.29-1.1A21.33,21.33,0,0,0,230.38,158.69Z"/></g><g class="cls-16"><path class="cls-15" d="M206.2,37.88l.94.69c.13-.48.24-1,.34-1.51l1.24.17c0,.24-.08.47-.13.69h1.68a15.8,15.8,0,0,1-.14,1.88h.77c0-1.13,0-2.08,0-2.86h1.37c0,.66,0,1.61-.07,2.86h2v1.29h-1.74a6,6,0,0,0,2,3c-.2.27-.47.69-.82,1.26a7.51,7.51,0,0,1-1.9-3,6.29,6.29,0,0,1-1.83,3.15,11.56,11.56,0,0,0-1-1,5.46,5.46,0,0,0,1.94-3.41h-.95a8.63,8.63,0,0,1-2.56,4.24,7.4,7.4,0,0,0-.84-1.1,7.48,7.48,0,0,0,1.19-1.34c-.29-.3-.54-.56-.77-.77-.13.19-.25.37-.39.55-.22-.44-.44-.82-.64-1.15a9.47,9.47,0,0,0,1.29-2.94c-.56.74-1.14,1.5-1.71,2.27,0,1.16,0,2.1-.11,2.82l1.41,1.81c0-.07,0-.16.07-.24l1.26.41c-.25,1-.54,1.86-.84,2.68l-1.3-.48c.27-.66.52-1.36.74-2.1l-.93.8c-.23-.39-.45-.78-.68-1.16a6.57,6.57,0,0,1-1.28,2.89,13.22,13.22,0,0,0-1-1.14,7.45,7.45,0,0,0,1.36-4.61l-.78.18c-.26-1.69-.47-2.91-.61-3.65l.86-.2c.12.72.3,1.85.54,3.38,0-1.23,0-3,0-5.44h1.39l0,2.5C205.76,38.74,206,38.27,206.2,37.88Zm2,4.16c.1-.21.2-.43.29-.66l-.79-.68c-.1.21-.2.41-.31.61C207.64,41.54,207.91,41.78,208.17,42Zm.8-2.81h-.73c-.06.18-.11.35-.18.52l.73.59A9.88,9.88,0,0,0,209,39.23Zm.66,6.42c.09.4.23,1.2.41,2.38l-1.37.2c-.08-.83-.2-1.62-.34-2.37Zm1.77-.24c.18.64.35,1.44.53,2.38l-1.24.26c-.15-.84-.32-1.63-.52-2.38Zm1.84-.25c.35.78.73,1.66,1.13,2.64l-1.28.55c-.33-.93-.68-1.82-1.05-2.69Zm.07-8.1c.29.54.58,1.12.86,1.72l-1,.5c-.3-.65-.59-1.23-.85-1.72Z"/><path class="cls-15" d="M218.32,39l1,1c-.67.62-1.24,1.17-1.72,1.66q0,1.34-.12,2.28l1.65,1.92-1.12,1-.8-1.18a8.88,8.88,0,0,1-1.38,2.82,12.55,12.55,0,0,0-1.22-1.12,9.35,9.35,0,0,0,1.54-5.73q0-.95,0-4.77h1.49c0,1.17,0,2.2,0,3.08Zm-2.7-.08c.17,1.45.31,2.68.41,3.68l-.88.16c-.14-1.45-.29-2.68-.44-3.69Zm2.83,4.81h3.28v-.84h-2V39.17h-1.06V37.92h1.06V36.85h1.48v1.07h2.58V36.85h1.47v1.07h1.08v1.25h-1.08v3.76h-2.06v.84h3.16V45h-2.69a6.75,6.75,0,0,0,2.87,1.63c-.32.48-.6.91-.83,1.28A7.83,7.83,0,0,1,223.18,46v2.36h-1.45V46a11.67,11.67,0,0,1-2.58,2,11.72,11.72,0,0,0-1-1.16,9.74,9.74,0,0,0,3-1.82h-2.73Zm2.74-3.91h2.58v-.69h-2.58Zm2.58,1.86V41h-2.58v.69Z"/></g><g class="cls-16"><path class="cls-15" d="M196.87,85.34h4.61a18.29,18.29,0,0,0,.19-2.15h-4.15v-1.6h10.12v1.6h-4.26c0,.68-.07,1.4-.13,2.15h5V87h-4.48a6.85,6.85,0,0,0,4.58,3.93c-.32.36-.77.91-1.35,1.66a8.25,8.25,0,0,1-4.5-4.56,9,9,0,0,1-4.42,4.5c-.31-.39-.75-.89-1.33-1.5q3.75-1.69,4.38-4h-4.25Z"/><path class="cls-15" d="M210.5,85.21q.7.44,1.32.87a6,6,0,0,0,.42-.57q-.65-.41-1.35-.81l.76-1c.39.22.77.45,1.15.68a6,6,0,0,0,.31-1.07h-1.76a12.64,12.64,0,0,1-2,2.66c-.24-.49-.49-1-.77-1.43A8.4,8.4,0,0,0,210.7,81h1.63c-.11.32-.22.64-.35,1h2.68v1.25a8.67,8.67,0,0,1-4.46,6.09l1.4.62c-.37.77-.86,1.66-1.45,2.66l-1.35-.73a21.8,21.8,0,0,0,1.4-2.55l-.46.24c-.26-.44-.56-.89-.89-1.37a8.23,8.23,0,0,0,2-1.19c-.37-.26-.77-.54-1.2-.81Zm3,4.33c.32.77.63,1.56.9,2.38l-1.57.37c-.31-.93-.58-1.72-.82-2.36Zm1.09-5.92h1.43c0-.75,0-1.62,0-2.6h1.55c0,1,0,1.87,0,2.6h2.61v1.47H218a5.83,5.83,0,0,0,2.45,3c-.36.48-.7.94-1,1.39A6.84,6.84,0,0,1,217,86a6.58,6.58,0,0,1-2.9,3.66,15.26,15.26,0,0,0-1-1.33,5.24,5.24,0,0,0,2.73-3.19h-1.23Zm1.64,5.82c.32.65.66,1.42,1,2.3l-1.54.45c-.29-.8-.6-1.57-.93-2.32Zm2.67-.17c.45.79.9,1.66,1.36,2.62l-1.44.55c-.53-1.1-1-2-1.3-2.61Zm-.13-8.15c.47.5.89,1,1.27,1.46l-1.08.75c-.39-.52-.79-1-1.22-1.53Z"/><path class="cls-15" d="M223,80.94h1.79c-.13.33-.27.65-.43,1h7.46V83.3h-8.21a21.41,21.41,0,0,1-2,2.73c-.32-.68-.61-1.26-.87-1.73A12.79,12.79,0,0,0,223,80.94Zm-1,6.51V86.07h8.25v2c0,1.76.21,2.65.63,2.65s.49-.64.56-1.91a5,5,0,0,0,1,.59,7.24,7.24,0,0,1-.49,2.38,1.13,1.13,0,0,1-1,.74,1.81,1.81,0,0,1-1.7-1,7.21,7.21,0,0,1-.55-3.27v-.73ZM223.2,84H231v1.33H223.2Z"/></g><g class="cls-16"><path d="M278.94,134.3v3.29a21.11,21.11,0,0,1-.28,4,7.45,7.45,0,0,1-1.13,2.67c-.32-.37-.55-.64-.71-.81a7.15,7.15,0,0,0,.93-2.32,19,19,0,0,0,.24-3.5v-4.21h8.68v6.4a10.91,10.91,0,0,0,.27,2.94c.07.18.17.27.29.27s.21-.14.24-.41.12-1.08.17-2c.36.14.65.24.89.31-.08.83-.16,1.49-.25,2-.14.77-.5,1.16-1.09,1.16-.43,0-.8-.3-1.09-.88a9.61,9.61,0,0,1-.38-3.38V134.3Zm.73,1.37.73-.54q1,1.34,2,2.79.89-1.46,1.68-3l.8.39c-.58,1.19-1.22,2.34-1.91,3.46.77,1.11,1.55,2.28,2.36,3.49l-.82.56c-.73-1.12-1.42-2.18-2.09-3.18-.77,1.16-1.59,2.28-2.47,3.37a8.79,8.79,0,0,0-.76-.57,37.86,37.86,0,0,0,2.67-3.64C281.08,137.65,280.35,136.62,279.67,135.67Z"/><path d="M288.82,138.39a18.47,18.47,0,0,0,2.39-5.68l.87.22c-.29,1-.6,1.89-.94,2.73v8.53h-.79v-6.76a17.57,17.57,0,0,1-1.15,1.93C289.08,139,289,138.69,288.82,138.39Zm3,.1h8.54v1.84h-.82v-1.09h-6.9v1.09h-.82Zm.3-4.5h3.57c-.17-.35-.36-.7-.55-1l.79-.35a15.15,15.15,0,0,1,.71,1.39h3.59v.75H292.1Zm.87,6.24h6.18V141h-2.3v1.7c0,.9-.42,1.36-1.27,1.37h-1.47c-.05-.29-.11-.59-.19-.92a12,12,0,0,0,1.41.08c.45,0,.68-.25.68-.77V141h-3Zm.11-4.8H299v2.62h-.82v-.32H293.9v.32h-.82Zm5.07.71H293.9V137h4.25Z"/><path d="M301,142.35h2.08v-7.47h1v7.47h2.87V132.7h1v3.45h3.93v.94h-3.93v5.26h4.55v1H301Z"/><path d="M313.33,134.05h3.41v7.43h-2.56v1h-.85Zm2.55.83h-1.7v5.77h1.7Zm4.09,1.54h.91c0,.72,0,1.16,0,1.32q.63,4.29,3.69,5.63l-.1.1a5.63,5.63,0,0,0-.69.76,6.49,6.49,0,0,1-3.26-4.77,7,7,0,0,1-4,4.9,5.93,5.93,0,0,0-.64-.89,6.3,6.3,0,0,0,4.07-6.06Zm-3.14,1.19A17.81,17.81,0,0,0,319,132.7l1,.26c-.2.64-.41,1.24-.63,1.81h5v.83c-.37.82-.77,1.68-1.2,2.59a5.55,5.55,0,0,0-.88-.37c.4-.83.75-1.57,1-2.22H319a17.71,17.71,0,0,1-1.31,2.51A4.84,4.84,0,0,0,316.83,137.61Z"/></g><g class="cls-16"><path d="M277,157.72q4.58-2.46,5.16-6.81h-4.94V150h5c0-.78,0-1.73,0-2.85h1c0,1,0,1.94,0,2.85h5.19v.91h-5.14a9.14,9.14,0,0,0,5.35,6.53,8.85,8.85,0,0,0-.85.94,10.18,10.18,0,0,1-5-6.26,10.26,10.26,0,0,1-5.11,6.48C277.57,158.4,277.33,158.1,277,157.72Zm4.5-1.55.75-.58c.56.6,1.11,1.2,1.65,1.81l-.83.67C282.58,157.45,282.06,156.82,281.5,156.17Z"/><path d="M293.23,154q.31,2.22-1.11,2.52a5.27,5.27,0,0,1-1.26,0,7.49,7.49,0,0,0-.26-1,3.37,3.37,0,0,0,1.15.09q.81-.15.54-1.68a5,5,0,0,0-1.05-2.1c.35-1.06.7-2.2,1.05-3.41h-1.8v10.16h-.89v-11h3.63v.82c-.29.95-.65,2-1.07,3.25A5.15,5.15,0,0,1,293.23,154Zm.77,4.55V147.81h6.08v10.77h-.92v-.77h-4.23v.78Zm5.16-9.92h-4.23v3.64h4.23ZM294.93,157h4.23v-3.8h-4.23Z"/><path d="M301,152.79a18.47,18.47,0,0,0,2.39-5.68l.87.22c-.29,1-.61,1.89-.94,2.73v8.53h-.8v-6.76a16.13,16.13,0,0,1-1.15,1.93C301.25,153.42,301.12,153.09,301,152.79Zm3,.1h8.55v1.84h-.82v-1.09h-6.91v1.09H304Zm.31-4.5h3.56c-.17-.35-.35-.7-.55-1l.8-.35a15.15,15.15,0,0,1,.71,1.39h3.59v.75h-8.11Zm.87,6.24h6.17v.75H309v1.7c0,.9-.42,1.36-1.26,1.37-.38,0-.87,0-1.48,0,0-.28-.11-.58-.19-.91a12,12,0,0,0,1.41.08c.45,0,.68-.26.68-.77v-1.45h-3Zm.1-4.8h5.9v2.62h-.82v-.32h-4.26v.32h-.82Zm5.08.71h-4.26v.89h4.26Z"/><path d="M313.14,156.75h2.07v-7.47h1v7.47h2.87V147.1h1v3.45H324v.94h-3.92v5.26h4.54v1H313.14Z"/><path d="M326.43,155.7l.83.32a26.83,26.83,0,0,1-1.26,2.57l-.84-.38A16.43,16.43,0,0,0,326.43,155.7Zm-.67-8h3.77v7.65h-.86v-.44h-2v.52h-.87Zm2.91.8h-2v2.36h2Zm-2,5.61h2v-2.45h-2Zm1.79,2.11.77-.35a23.27,23.27,0,0,1,1.09,2.18l-.84.37C329.16,157.73,328.82,157,328.42,156.22Zm1.95-7.79v-.78H336c0,.82-.07,1.53-.12,2.12a1.39,1.39,0,0,1-1.52,1.47c-.32,0-.78,0-1.39,0,0-.28-.1-.59-.17-.92a11.82,11.82,0,0,0,1.41.12.69.69,0,0,0,.8-.68c.05-.56.07-1,.07-1.29h-2.46a3.91,3.91,0,0,1-2.18,3.55,5.58,5.58,0,0,0-.61-.69,3.14,3.14,0,0,0,1.93-2.86Zm.39,3.41H336v3.61h-.87v-.37h-3.48v.37h-.87Zm.67,4.3.78-.34c.42.71.79,1.41,1.12,2.11l-.83.4A23.11,23.11,0,0,0,331.43,156.14Zm3.68-3.55h-3.48v1.74h3.48Zm-.84,3.45.75-.44a25,25,0,0,1,1.48,2.26l-.83.48C335.25,157.57,334.78,156.8,334.27,156Z"/><path d="M336.94,157.34a11,11,0,0,0,3.43-2.67h-3.29v-.76h.69v-5.44h1.39c.21-.53.37-1,.5-1.45l.95.25c-.17.41-.35.82-.52,1.2h2.11v8.71c0,.89-.38,1.34-1.16,1.34l-1.23,0c-.05-.32-.1-.62-.17-.9.45,0,.84.06,1.16.06s.53-.19.53-.57v-2.41a12.81,12.81,0,0,1-3.82,3.42A6.61,6.61,0,0,0,336.94,157.34Zm4.39-8.1h-2.69v1.06h2.69Zm-2.69,2.87h2.69V151h-2.69Zm0,1.8h2.69v-1.07h-2.69Zm4-4.22h3.79v-2.52h.89v2.52h1.43v.88h-1.43v6.1a1.52,1.52,0,0,1-1.69,1.75c-.35,0-.93,0-1.72,0,0-.29-.11-.62-.19-1,.78.07,1.37.11,1.78.11q.93,0,.93-1v-6H342.6Zm.34,2.35.73-.39a28.82,28.82,0,0,1,1.53,2.66l-.83.46C344,153.91,343.5,153,342.94,152Z"/></g><g class="cls-16"><path class="cls-15" d="M247.54,206.09V196h4.62v10h-1.55v-.81h-1.52v.88Zm3.07-8.57h-1.52v2.32h1.52Zm-1.52,6.15h1.52v-2.33h-1.52Zm4.44-4.27c.53.66,1.24,1.61,2.11,2.84l-1.42.92c-.71-1.18-1.34-2.16-1.91-2.95Zm-1-2.19H256v-2h1.68v2h1v1.56h-1v5.8a2.25,2.25,0,0,1-.44,1.49,1.65,1.65,0,0,1-1.22.53q-.78,0-2.31,0a12.39,12.39,0,0,0-.39-1.71l1.82,0c.57,0,.86-.29.86-.89v-5.29H252.5Z"/><path class="cls-15" d="M259.45,196.68h1.63v10h-1.63Zm1.39-1,1.54-.54c.37.58.74,1.21,1.12,1.9l-1.62.62C261.52,196.91,261.18,196.25,260.84,195.67Zm1.32,2.42h5.24v6.16h-3.77v.65h-1.47Zm3.76,1.31h-2.29v1.11h2.29Zm0,3.54v-1.11h-2.29v1.11Zm4.24,1.57a2.78,2.78,0,0,1-.28,1.36,1.38,1.38,0,0,1-.91.67,14,14,0,0,1-2.76.16,13.14,13.14,0,0,0-.37-1.64c.5,0,1.13.05,1.91.05q.78,0,.78-.69v-7.28H263.9V195.7h6.26Z"/></g><g class="cls-16"><path class="cls-15" d="M268.21,68.5V66.89a3.22,3.22,0,0,0,2,.61,1.81,1.81,0,0,0,1.11-.3,1,1,0,0,0,.39-.85,1,1,0,0,0-.49-.87,2.53,2.53,0,0,0-1.34-.3h-.78V63.76h.72c1.1,0,1.64-.36,1.64-1.09s-.42-1-1.26-1a2.9,2.9,0,0,0-1.64.55V60.68a4.5,4.5,0,0,1,2.06-.45,3.16,3.16,0,0,1,2,.58,1.85,1.85,0,0,1,.72,1.51,2,2,0,0,1-1.67,2.06v0a2.22,2.22,0,0,1,1.4.65,1.78,1.78,0,0,1,.52,1.31,2.28,2.28,0,0,1-.86,1.87,3.76,3.76,0,0,1-2.38.68A4.58,4.58,0,0,1,268.21,68.5Z"/><path class="cls-15" d="M275.25,68.56V67a3.49,3.49,0,0,0,1.84.52,1.66,1.66,0,0,0,1.14-.35,1.15,1.15,0,0,0,.42-.94c0-.83-.59-1.25-1.77-1.25a12.39,12.39,0,0,0-1.5.1l.32-4.69h4.45v1.51h-3L277,63.57c.3,0,.56,0,.78,0a2.88,2.88,0,0,1,2,.68,2.36,2.36,0,0,1,.73,1.83,2.71,2.71,0,0,1-.87,2.08,3.38,3.38,0,0,1-2.37.8A5.1,5.1,0,0,1,275.25,68.56Z"/><path class="cls-15" d="M284.73,68.92q-3,0-3-4.21a5.72,5.72,0,0,1,.81-3.33,2.7,2.7,0,0,1,2.35-1.15c2,0,2.93,1.43,2.93,4.29a5.55,5.55,0,0,1-.8,3.26A2.63,2.63,0,0,1,284.73,68.92Zm.08-7.28c-.8,0-1.2,1-1.2,3s.39,2.84,1.18,2.84,1.15-1,1.15-2.93S285.56,61.64,284.81,61.64Z"/><path class="cls-15" d="M298.2,68.09a3.4,3.4,0,0,1-1,2.59,3.92,3.92,0,0,1-2.8.91,4.43,4.43,0,0,1-1.92-.34V69.69a3.68,3.68,0,0,0,1.87.54,2,2,0,0,0,1.45-.5,1.76,1.76,0,0,0,.52-1.34v-.48h0a2,2,0,0,1-1.86,1,2.26,2.26,0,0,1-1.83-.81,3.27,3.27,0,0,1-.67-2.17,3.67,3.67,0,0,1,.75-2.42,2.47,2.47,0,0,1,2-.89,1.82,1.82,0,0,1,1.64.84h0v-.7h1.85Zm-1.83-2.2v-.47a1.44,1.44,0,0,0-.34-1,1.06,1.06,0,0,0-.87-.4,1.15,1.15,0,0,0-1,.48,2.28,2.28,0,0,0-.35,1.35,1.93,1.93,0,0,0,.33,1.19,1.1,1.1,0,0,0,.92.43,1.13,1.13,0,0,0,.93-.44A1.83,1.83,0,0,0,296.37,65.89Z"/><path class="cls-15" d="M264.34,82a5.65,5.65,0,0,1-2.4.44,4,4,0,0,1-3-1.14,4.12,4.12,0,0,1-1.11-3A4.42,4.42,0,0,1,259,75a4.35,4.35,0,0,1,3.23-1.26,6.25,6.25,0,0,1,2.08.31v1.82a3.71,3.71,0,0,0-1.92-.5,2.56,2.56,0,0,0-1.91.74,2.75,2.75,0,0,0-.73,2,2.69,2.69,0,0,0,.69,1.94,2.38,2.38,0,0,0,1.84.73,3.93,3.93,0,0,0,2-.54Z"/><path class="cls-15" d="M269.21,82.42a3.89,3.89,0,0,1-2.94-1.17,4.23,4.23,0,0,1-1.14-3.06A4.53,4.53,0,0,1,266.28,75a4,4,0,0,1,3.06-1.23,3.8,3.8,0,0,1,2.91,1.18A4.34,4.34,0,0,1,273.36,78a4.43,4.43,0,0,1-1.15,3.19A4,4,0,0,1,269.21,82.42Zm.08-7.06a1.9,1.9,0,0,0-1.58.75,3.13,3.13,0,0,0-.59,2,3,3,0,0,0,.59,2,1.89,1.89,0,0,0,1.53.73,1.92,1.92,0,0,0,1.56-.71,3,3,0,0,0,.57-2,3.27,3.27,0,0,0-.56-2A1.8,1.8,0,0,0,269.29,75.36Z"/><path class="cls-15" d="M275.26,85.38h2.08v.89h-3.26V85.9a1.6,1.6,0,0,1,.13-.67,2.38,2.38,0,0,1,.31-.54,2.78,2.78,0,0,1,.42-.42l.43-.33a4.65,4.65,0,0,0,.38-.29,2.3,2.3,0,0,0,.27-.28,1.05,1.05,0,0,0,.17-.28.8.8,0,0,0,.06-.3.62.62,0,0,0-.18-.48.79.79,0,0,0-.55-.16,1.86,1.86,0,0,0-1.21.5v-1a2.67,2.67,0,0,1,1.45-.41,2,2,0,0,1,.66.1,1.28,1.28,0,0,1,.5.28,1.13,1.13,0,0,1,.32.43,1.79,1.79,0,0,1,0,1.18,1.64,1.64,0,0,1-.28.48,2.06,2.06,0,0,1-.39.39l-.47.35-.32.23a3.23,3.23,0,0,0-.27.23,1.68,1.68,0,0,0-.18.21A.35.35,0,0,0,275.26,85.38Z"/><path class="cls-15" d="M283.28,73.87l-4.1,9.8h-1.65l4.08-9.8Z"/><path class="cls-15" d="M289.93,82.27h-2.22l-1.92-3h0v3h-1.85V73.39h1.85v5.66h0l1.79-2.78h2.2l-2.15,2.82Z"/><path class="cls-15" d="M301.8,73.87l-2.22,8.4h-2.1l-1.39-5.39a4.33,4.33,0,0,1-.14-.94h0a5.79,5.79,0,0,1-.15.94l-1.43,5.39h-2.19L290,73.87H292l1.19,5.6a8.06,8.06,0,0,1,.11,1h0a4.89,4.89,0,0,1,.17-1l1.53-5.57h2l1.38,5.65a5.56,5.56,0,0,1,.13.9h0a6.2,6.2,0,0,1,.12-.94l1.16-5.61Z"/><path class="cls-15" d="M308.45,82.27H306.6V78.86c0-.87-.32-1.31-1-1.31a1,1,0,0,0-.8.37,1.4,1.4,0,0,0-.3.93v3.42h-1.85V73.39h1.85v3.78h0a2.09,2.09,0,0,1,1.85-1q2,0,2,2.46Z"/></g><g class="cls-16"><path class="cls-15" d="M25.39,60.19v8.58H23.55v-6.5a2.09,2.09,0,0,1-.36.26,3.55,3.55,0,0,1-.44.21,4,4,0,0,1-.49.17,4.37,4.37,0,0,1-.5.09V61.44a7.69,7.69,0,0,0,2.52-1.25Z"/><path class="cls-15" d="M29.94,67.24H33.5v1.53H27.91v-.63A2.89,2.89,0,0,1,28.13,67a3.84,3.84,0,0,1,.54-.92,4.9,4.9,0,0,1,.72-.72c.26-.2.5-.39.74-.56a7.79,7.79,0,0,0,.65-.51,4.17,4.17,0,0,0,.47-.47,2,2,0,0,0,.28-.48,1.54,1.54,0,0,0,.09-.52,1.07,1.07,0,0,0-.3-.82,1.38,1.38,0,0,0-.93-.27,3.15,3.15,0,0,0-2.08.86V60.94a4.49,4.49,0,0,1,2.48-.71,3.69,3.69,0,0,1,1.14.17,2.4,2.4,0,0,1,.86.48,2.07,2.07,0,0,1,.54.75,2.57,2.57,0,0,1,.18,1,2.78,2.78,0,0,1-.18,1,3.49,3.49,0,0,1-.47.82,4.94,4.94,0,0,1-.69.68c-.25.2-.52.4-.8.59s-.37.26-.54.4-.33.26-.46.38a2.55,2.55,0,0,0-.32.37A.65.65,0,0,0,29.94,67.24Z"/><path class="cls-15" d="M37.73,68.92q-3,0-3-4.21a5.72,5.72,0,0,1,.81-3.33,2.7,2.7,0,0,1,2.35-1.15c2,0,2.93,1.43,2.93,4.29a5.55,5.55,0,0,1-.8,3.26A2.63,2.63,0,0,1,37.73,68.92Zm.08-7.28c-.8,0-1.2,1-1.2,3S37,67.5,37.79,67.5s1.15-1,1.15-2.93S38.56,61.64,37.81,61.64Z"/><path class="cls-15" d="M51.2,68.09a3.4,3.4,0,0,1-1,2.59,3.92,3.92,0,0,1-2.8.91,4.43,4.43,0,0,1-1.92-.34V69.69a3.68,3.68,0,0,0,1.87.54,2,2,0,0,0,1.45-.5,1.76,1.76,0,0,0,.52-1.34v-.48h0a2,2,0,0,1-1.86,1,2.26,2.26,0,0,1-1.83-.81A3.27,3.27,0,0,1,45,65.94a3.67,3.67,0,0,1,.75-2.42,2.47,2.47,0,0,1,2-.89,1.82,1.82,0,0,1,1.64.84h0v-.7H51.2Zm-1.83-2.2v-.47a1.44,1.44,0,0,0-.34-1,1.06,1.06,0,0,0-.87-.4,1.15,1.15,0,0,0-1,.48,2.28,2.28,0,0,0-.35,1.35,1.93,1.93,0,0,0,.33,1.19,1.1,1.1,0,0,0,.92.43,1.13,1.13,0,0,0,.93-.44A1.83,1.83,0,0,0,49.37,65.89Z"/><path class="cls-15" d="M17.34,82a5.65,5.65,0,0,1-2.4.44,4,4,0,0,1-3-1.14,4.12,4.12,0,0,1-1.11-3A4.42,4.42,0,0,1,12,75a4.35,4.35,0,0,1,3.23-1.26,6.25,6.25,0,0,1,2.08.31v1.82a3.71,3.71,0,0,0-1.92-.5,2.56,2.56,0,0,0-1.91.74,2.75,2.75,0,0,0-.73,2,2.69,2.69,0,0,0,.69,1.94,2.38,2.38,0,0,0,1.84.73,3.93,3.93,0,0,0,2-.54Z"/><path class="cls-15" d="M22.21,82.42a3.89,3.89,0,0,1-2.94-1.17,4.23,4.23,0,0,1-1.14-3.06A4.53,4.53,0,0,1,19.28,75a4,4,0,0,1,3.06-1.23,3.8,3.8,0,0,1,2.91,1.18A4.34,4.34,0,0,1,26.36,78a4.43,4.43,0,0,1-1.15,3.19A4,4,0,0,1,22.21,82.42Zm.08-7.06a1.9,1.9,0,0,0-1.58.75,3.13,3.13,0,0,0-.59,2,3,3,0,0,0,.59,2,1.89,1.89,0,0,0,1.53.73,1.92,1.92,0,0,0,1.56-.71,3,3,0,0,0,.57-2,3.27,3.27,0,0,0-.56-2A1.8,1.8,0,0,0,22.29,75.36Z"/><path class="cls-15" d="M28.26,85.38h2.08v.89H27.08V85.9a1.6,1.6,0,0,1,.13-.67,2.38,2.38,0,0,1,.31-.54,2.78,2.78,0,0,1,.42-.42l.43-.33a4.65,4.65,0,0,0,.38-.29,2.3,2.3,0,0,0,.27-.28,1.05,1.05,0,0,0,.17-.28.79.79,0,0,0,0-.3.61.61,0,0,0-.17-.48.79.79,0,0,0-.55-.16,1.86,1.86,0,0,0-1.21.5v-1a2.67,2.67,0,0,1,1.45-.41,2,2,0,0,1,.66.1,1.28,1.28,0,0,1,.5.28,1.13,1.13,0,0,1,.32.43,1.79,1.79,0,0,1,0,1.18,1.64,1.64,0,0,1-.28.48,2.06,2.06,0,0,1-.39.39l-.47.35-.32.23a3.23,3.23,0,0,0-.27.23,1.12,1.12,0,0,0-.18.21A.35.35,0,0,0,28.26,85.38Z"/><path class="cls-15" d="M36.28,73.87l-4.1,9.8H30.53l4.08-9.8Z"/><path class="cls-15" d="M42.93,82.27H40.71l-1.92-3h0v3H36.92V73.39h1.85v5.66h0l1.79-2.78h2.2l-2.15,2.82Z"/><path class="cls-15" d="M54.8,73.87l-2.22,8.4h-2.1l-1.39-5.39a4.33,4.33,0,0,1-.14-.94h0a5.79,5.79,0,0,1-.15.94l-1.43,5.39H45.16L43,73.87H45l1.19,5.6a8.06,8.06,0,0,1,.11,1h0a4.89,4.89,0,0,1,.17-1l1.53-5.57h2l1.38,5.65a5.56,5.56,0,0,1,.13.9h0a6.2,6.2,0,0,1,.12-.94l1.16-5.61Z"/><path class="cls-15" d="M61.45,82.27H59.6V78.86c0-.87-.32-1.31-1-1.31a1,1,0,0,0-.8.37,1.4,1.4,0,0,0-.3.93v3.42H55.69V73.39h1.85v3.78h0a2.09,2.09,0,0,1,1.85-1q2,0,2,2.46Z"/></g></g></svg>