<svg xmlns="http://www.w3.org/2000/svg" xmlns:xlink="http://www.w3.org/1999/xlink" viewBox="0 0 202 140"><defs><style>.a{fill:#fff;}.b,.h{fill:none;stroke-miterlimit:10;}.b{stroke:#3c3c41;}.c{fill:#3c3c41;}.d,.e,.f,.g{opacity:0.7;isolation:isolate;}.d{fill:url(#a);}.e{fill:url(#b);}.f{fill:url(#c);}.g{fill:url(#d);}.h{stroke:#737373;}.i{fill:#1e1e1e;}</style><linearGradient id="a" x1="70.93" y1="88.85" x2="70.93" y2="71.35" gradientTransform="matrix(1, 0, 0, -1, 0, 141.28)" gradientUnits="userSpaceOnUse"><stop offset="0" stop-color="#b3b2b3"/><stop offset="0.38" stop-color="#afaeaf"/><stop offset="0.76" stop-color="#a2a2a2"/><stop offset="1" stop-color="#979797"/></linearGradient><linearGradient id="b" x1="10.8" y1="88.85" x2="10.8" y2="71.35" xlink:href="#a"/><linearGradient id="c" x1="191.2" y1="88.85" x2="191.2" y2="71.35" xlink:href="#a"/><linearGradient id="d" x1="131.07" y1="88.85" x2="131.07" y2="71.35" gradientTransform="matrix(1, 0, 0, -1, 0, 141.28)" gradientUnits="userSpaceOnUse"><stop offset="0" stop-color="#76bc2d"/><stop offset="0.98" stop-color="#5f9724"/><stop offset="1" stop-color="#5e9624"/></linearGradient></defs><rect class="a" width="202" height="140"/><line class="b" x1="12.96" y1="61.38" x2="55.98" y2="61.38"/><polygon class="c" points="54.88 65.11 61.36 61.38 54.88 57.63 54.88 65.11"/><line class="b" x1="73.17" y1="61.38" x2="116.18" y2="61.38"/><polygon class="c" points="115.09 65.11 121.57 61.38 115.09 57.63 115.09 65.11"/><line class="b" x1="132.8" y1="61.38" x2="175.82" y2="61.38"/><polygon class="c" points="174.72 65.11 181.2 61.38 174.72 57.63 174.72 65.11"/><circle class="a" cx="70.93" cy="61.18" r="8.75"/><circle class="d" cx="70.93" cy="61.18" r="8.75"/><path class="a" d="M70.93,52.68a8.5,8.5,0,1,1-8.5,8.5,8.51,8.51,0,0,1,8.5-8.5m0-.5a9,9,0,1,0,9,9h0A9,9,0,0,0,70.93,52.18Z"/><path d="M70.93,52.18a9,9,0,1,1-9,9h0a9,9,0,0,1,9-9m0-.5a9.5,9.5,0,1,0,9.5,9.5h0A9.52,9.52,0,0,0,70.93,51.68Z"/><circle class="a" cx="10.8" cy="61.18" r="8.75"/><circle class="e" cx="10.8" cy="61.18" r="8.75"/><path class="a" d="M10.8,52.68a8.5,8.5,0,1,1-8.5,8.5,8.51,8.51,0,0,1,8.5-8.5m0-.5a9,9,0,1,0,9,9h0A9,9,0,0,0,10.8,52.18Z"/><path d="M10.8,52.18a9,9,0,1,1-9,9h0a9,9,0,0,1,9-9m0-.5a9.5,9.5,0,1,0,9.5,9.5h0A9.52,9.52,0,0,0,10.8,51.68Z"/><circle class="a" cx="191.2" cy="61.18" r="8.75"/><circle class="f" cx="191.2" cy="61.18" r="8.75"/><path class="a" d="M191.2,52.68a8.5,8.5,0,1,1-8.5,8.5,8.51,8.51,0,0,1,8.5-8.5m0-.5a9,9,0,1,0,9,9h0A9,9,0,0,0,191.2,52.18Z"/><path d="M191.2,52.18a9,9,0,1,1-9,9h0a9,9,0,0,1,9-9m0-.5a9.5,9.5,0,1,0,9.5,9.5h0A9.52,9.52,0,0,0,191.2,51.68Z"/><circle class="a" cx="131.07" cy="61.18" r="8.75"/><circle class="g" cx="131.07" cy="61.18" r="8.75"/><path class="a" d="M131.07,52.68a8.5,8.5,0,1,1-8.5,8.5,8.51,8.51,0,0,1,8.5-8.5m0-.5a9,9,0,1,0,9,9h0A9,9,0,0,0,131.07,52.18Z"/><path d="M131.07,52.18a9,9,0,1,1-9,9h0a9,9,0,0,1,9-9m0-.5a9.5,9.5,0,1,0,9.5,9.5h0A9.52,9.52,0,0,0,131.07,51.68Z"/><line class="h" x1="130.4" y1="46.68" x2="130.4" y2="33.48"/><path class="h" d="M191.2,76.35V84.7a5,5,0,0,1-5,5H16a5,5,0,0,1-5-5V76.35"/><line class="h" x1="37.4" y1="89.7" x2="37.4" y2="102.9"/><line class="h" x1="70.4" y1="76.35" x2="70.4" y2="89.4"/><path class="i" d="M83.21,5.56H80.79v7.51h-1V5.56H77.38V4.67h5.83Z"/><path class="i" d="M89.33,13.07h-1V9.62c0-1.25-.46-1.88-1.39-1.88a1.5,1.5,0,0,0-1.18.54,2,2,0,0,0-.48,1.39v3.4h-1V4.19h1V8.07h0a2.19,2.19,0,0,1,2-1.14c1.35,0,2,.82,2,2.45Z"/><path class="i" d="M91.56,5.55a.6.6,0,0,1-.44-.18.55.55,0,0,1-.18-.44.63.63,0,0,1,.18-.45.6.6,0,0,1,.44-.18.62.62,0,0,1,.63.63.6.6,0,0,1-.18.44A.63.63,0,0,1,91.56,5.55ZM92,13.07H91v-6h1Z"/><path class="i" d="M93.51,12.86v-1a2.84,2.84,0,0,0,1.73.58q1.26,0,1.26-.84a.83.83,0,0,0-.1-.41.92.92,0,0,0-.3-.29,1.78,1.78,0,0,0-.43-.23l-.54-.22a6.29,6.29,0,0,1-.7-.32,1.92,1.92,0,0,1-.5-.36,1.29,1.29,0,0,1-.31-.46,1.76,1.76,0,0,1-.1-.6A1.52,1.52,0,0,1,93.71,8a1.71,1.71,0,0,1,.52-.55A2.71,2.71,0,0,1,95,7a3.59,3.59,0,0,1,2.24.16v1a2.71,2.71,0,0,0-1.52-.43,2,2,0,0,0-.49.06,1.27,1.27,0,0,0-.37.18.85.85,0,0,0-.24.26.66.66,0,0,0-.08.34.78.78,0,0,0,.08.4,1,1,0,0,0,.25.28,1.94,1.94,0,0,0,.4.22l.53.22a5.78,5.78,0,0,1,.72.31,3.17,3.17,0,0,1,.54.36,1.45,1.45,0,0,1,.34.47,1.68,1.68,0,0,1,.12.63,1.58,1.58,0,0,1-.2.77,1.71,1.71,0,0,1-.52.55,2.32,2.32,0,0,1-.76.32,3.8,3.8,0,0,1-.89.1A3.56,3.56,0,0,1,93.51,12.86Z"/><path class="i" d="M107.23,13.07h-1V9.65c0-1.27-.46-1.91-1.39-1.91a1.54,1.54,0,0,0-1.2.54,2,2,0,0,0-.47,1.37v3.42h-1v-6h1v1h0a2.16,2.16,0,0,1,2-1.14,1.8,1.8,0,0,1,1.5.64,2.79,2.79,0,0,1,.52,1.83Z"/><path class="i" d="M111.53,13.21a2.77,2.77,0,0,1-2.12-.84,3.1,3.1,0,0,1-.8-2.23,3.24,3.24,0,0,1,.83-2.36,3,3,0,0,1,2.23-.85,2.72,2.72,0,0,1,2.1.83,3.29,3.29,0,0,1,.75,2.29,3.24,3.24,0,0,1-.81,2.3A2.83,2.83,0,0,1,111.53,13.21Zm.07-5.47a1.8,1.8,0,0,0-1.46.63,2.6,2.6,0,0,0-.54,1.74,2.48,2.48,0,0,0,.54,1.68,1.84,1.84,0,0,0,1.46.61,1.78,1.78,0,0,0,1.43-.6,2.6,2.6,0,0,0,.5-1.72,2.61,2.61,0,0,0-.5-1.73A1.73,1.73,0,0,0,111.6,7.74Z"/><path class="i" d="M121.17,13.07h-1v-1h0a2.2,2.2,0,0,1-2.06,1.16,2.26,2.26,0,0,1-1.81-.8,3.35,3.35,0,0,1-.68-2.2,3.58,3.58,0,0,1,.75-2.38,2.48,2.48,0,0,1,2-.9,1.94,1.94,0,0,1,1.8,1h0V4.19h1Zm-1-2.71V9.48a1.73,1.73,0,0,0-.48-1.24,1.77,1.77,0,0,0-2.6.15,2.82,2.82,0,0,0-.5,1.78,2.57,2.57,0,0,0,.48,1.63,1.6,1.6,0,0,0,1.3.6,1.62,1.62,0,0,0,1.3-.58,2.12,2.12,0,0,0,.54-1.46Z"/><path class="i" d="M127.89,10.31h-4.24a2.25,2.25,0,0,0,.54,1.55,1.88,1.88,0,0,0,1.42.54,2.94,2.94,0,0,0,1.86-.66v.9a3.45,3.45,0,0,1-2.09.57,2.56,2.56,0,0,1-2-.81,3.4,3.4,0,0,1-.72-2.3,3.3,3.3,0,0,1,.79-2.29,2.56,2.56,0,0,1,2-.88,2.26,2.26,0,0,1,1.82.76,3.24,3.24,0,0,1,.65,2.12Zm-1-.81a1.9,1.9,0,0,0-.4-1.3,1.39,1.39,0,0,0-1.1-.46,1.52,1.52,0,0,0-1.15.49,2.18,2.18,0,0,0-.59,1.27Z"/><path class="i" d="M133.12,5.55a.6.6,0,0,1-.44-.18.55.55,0,0,1-.18-.44.63.63,0,0,1,.18-.45.6.6,0,0,1,.44-.18.62.62,0,0,1,.63.61v0a.6.6,0,0,1-.18.44A.63.63,0,0,1,133.12,5.55Zm.47,7.52h-1v-6h1Z"/><path class="i" d="M135.07,12.86v-1a2.86,2.86,0,0,0,1.73.58q1.26,0,1.26-.84a.83.83,0,0,0-.1-.41.92.92,0,0,0-.3-.29,1.49,1.49,0,0,0-.43-.23l-.54-.22a6.29,6.29,0,0,1-.7-.32,1.92,1.92,0,0,1-.5-.36,1.29,1.29,0,0,1-.31-.46,1.76,1.76,0,0,1-.1-.6,1.53,1.53,0,0,1,.2-.75,1.68,1.68,0,0,1,.51-.55,2.58,2.58,0,0,1,.74-.33,3.59,3.59,0,0,1,2.24.16v1a2.71,2.71,0,0,0-1.52-.43,2,2,0,0,0-.49.06,1.27,1.27,0,0,0-.37.18.85.85,0,0,0-.24.26.66.66,0,0,0-.08.34.78.78,0,0,0,.08.4,1,1,0,0,0,.25.28,1.94,1.94,0,0,0,.4.22l.53.22a5.78,5.78,0,0,1,.72.31,3.17,3.17,0,0,1,.54.36,1.45,1.45,0,0,1,.34.47,1.68,1.68,0,0,1,.12.63,1.58,1.58,0,0,1-.2.77,1.71,1.71,0,0,1-.52.55,2.32,2.32,0,0,1-.76.32,3.8,3.8,0,0,1-.89.1A3.51,3.51,0,0,1,135.07,12.86Z"/><path class="i" d="M146.94,8.05a1.17,1.17,0,0,0-.73-.2,1.2,1.2,0,0,0-1,.58,2.67,2.67,0,0,0-.42,1.58v3.06h-1v-6h1V8.31h0a2.1,2.1,0,0,1,.62-1,1.48,1.48,0,0,1,1-.35A1.58,1.58,0,0,1,147,7Z"/><path class="i" d="M152.93,13.07h-1v-1h0a2,2,0,0,1-1.85,1.09c-1.43,0-2.15-.85-2.15-2.55V7.07h1v3.44c0,1.26.48,1.89,1.45,1.89a1.48,1.48,0,0,0,1.16-.51,2,2,0,0,0,.45-1.36V7.07h1Z"/><path class="i" d="M159.73,13.07h-1V9.65c0-1.27-.47-1.91-1.4-1.91a1.52,1.52,0,0,0-1.19.54,2,2,0,0,0-.47,1.37v3.42h-1v-6h1v1h0a2.18,2.18,0,0,1,2-1.14,1.81,1.81,0,0,1,1.51.64,2.79,2.79,0,0,1,.52,1.83Z"/><path class="i" d="M166.45,13.07h-1V9.65c0-1.27-.46-1.91-1.39-1.91a1.5,1.5,0,0,0-1.19.54,2,2,0,0,0-.48,1.37v3.42h-1v-6h1v1h0a2.16,2.16,0,0,1,2-1.14,1.8,1.8,0,0,1,1.5.64,2.79,2.79,0,0,1,.52,1.83Z"/><path class="i" d="M168.68,5.55a.6.6,0,0,1-.44-.18.55.55,0,0,1-.18-.44.63.63,0,0,1,.18-.45.6.6,0,0,1,.44-.18.62.62,0,0,1,.63.63.6.6,0,0,1-.18.44A.63.63,0,0,1,168.68,5.55Zm.47,7.52h-1v-6h1Z"/><path class="i" d="M176,13.07h-1V9.65c0-1.27-.46-1.91-1.39-1.91a1.5,1.5,0,0,0-1.19.54,2,2,0,0,0-.48,1.37v3.42h-1v-6h1v1h0a2.16,2.16,0,0,1,2-1.14,1.8,1.8,0,0,1,1.5.64A2.78,2.78,0,0,1,176,9.4Z"/><path class="i" d="M182.89,12.59c0,2.21-1.06,3.32-3.17,3.31a4.19,4.19,0,0,1-1.94-.42v-1a4,4,0,0,0,1.93.57c1.48,0,2.21-.79,2.21-2.36V12h0a2.42,2.42,0,0,1-3.33.79,2.26,2.26,0,0,1-.53-.44,3.18,3.18,0,0,1-.69-2.14,3.81,3.81,0,0,1,.74-2.44,2.45,2.45,0,0,1,2-.9,2,2,0,0,1,1.8,1h0V7.07h1Zm-1-2.23V9.48a1.7,1.7,0,0,0-.48-1.23,1.61,1.61,0,0,0-1.2-.51,1.69,1.69,0,0,0-1.4.65,2.91,2.91,0,0,0-.5,1.81,2.48,2.48,0,0,0,.48,1.6,1.56,1.56,0,0,0,1.28.6,1.67,1.67,0,0,0,1.32-.57,2.09,2.09,0,0,0,.53-1.47Z"/><path class="i" d="M92,27.61a2.8,2.8,0,0,1-2.12-.84,3.1,3.1,0,0,1-.8-2.23,3.24,3.24,0,0,1,.83-2.36,3,3,0,0,1,2.23-.85,2.72,2.72,0,0,1,2.1.83A3.29,3.29,0,0,1,95,24.45a3.24,3.24,0,0,1-.81,2.3A2.83,2.83,0,0,1,92,27.61Zm0-5.47a1.85,1.85,0,0,0-1.46.63A2.6,2.6,0,0,0,90,24.51a2.48,2.48,0,0,0,.54,1.68A1.88,1.88,0,0,0,92,26.8a1.78,1.78,0,0,0,1.44-.6,2.66,2.66,0,0,0,.5-1.72,2.67,2.67,0,0,0-.5-1.73A1.76,1.76,0,0,0,92,22.14Z"/><path class="i" d="M101.4,27.47h-1V24.05c0-1.27-.46-1.91-1.39-1.91a1.54,1.54,0,0,0-1.2.54,2,2,0,0,0-.47,1.37v3.42h-1v-6h1v1h0a2.16,2.16,0,0,1,2-1.14,1.81,1.81,0,0,1,1.51.64,2.79,2.79,0,0,1,.52,1.83Z"/><path class="i" d="M110.59,27.2a3.25,3.25,0,0,1-1.64.41,2.72,2.72,0,0,1-2.07-.83,3,3,0,0,1-.79-2.17,3.32,3.32,0,0,1,.85-2.38,3,3,0,0,1,2.27-.9,3.18,3.18,0,0,1,1.39.29v1a2.47,2.47,0,0,0-1.43-.47,2,2,0,0,0-1.51.66,2.48,2.48,0,0,0-.59,1.73,2.42,2.42,0,0,0,.56,1.67,1.88,1.88,0,0,0,1.48.6,2.4,2.4,0,0,0,1.48-.52Z"/><path class="i" d="M112.84,27.47h-1V18.59h1Z"/><path class="i" d="M119.56,24.71h-4.23a2.2,2.2,0,0,0,.54,1.55,1.83,1.83,0,0,0,1.42.54,3,3,0,0,0,1.86-.66V27a3.59,3.59,0,0,1-2.09.57,2.56,2.56,0,0,1-2-.81,3.36,3.36,0,0,1-.73-2.3,3.3,3.3,0,0,1,.8-2.29,2.56,2.56,0,0,1,2-.88,2.26,2.26,0,0,1,1.82.76,3.17,3.17,0,0,1,.64,2.12Zm-1-.81a2,2,0,0,0-.4-1.3,1.39,1.39,0,0,0-1.1-.46,1.52,1.52,0,0,0-1.15.49,2.15,2.15,0,0,0-.59,1.27Z"/><path class="i" d="M125.26,27.47h-1v-.93h0a2,2,0,0,1-1.85,1.07,2,2,0,0,1-1.4-.47,1.67,1.67,0,0,1-.51-1.26c0-1.12.66-1.77,2-2l1.8-.25q0-1.53-1.23-1.53a3,3,0,0,0-2,.74v-1a3.8,3.8,0,0,1,2-.56c1.41,0,2.11.75,2.11,2.24Zm-1-3-1.44.2a2.24,2.24,0,0,0-1,.33,1,1,0,0,0-.34.84.91.91,0,0,0,.31.72,1.23,1.23,0,0,0,.84.27,1.54,1.54,0,0,0,1.18-.5A1.78,1.78,0,0,0,124.3,25Z"/><path class="i" d="M132,27.47h-1V24.05c0-1.27-.47-1.91-1.4-1.91a1.5,1.5,0,0,0-1.19.54,2,2,0,0,0-.47,1.37v3.42h-1v-6h1v1h0a2.18,2.18,0,0,1,2-1.14,1.81,1.81,0,0,1,1.51.64A2.85,2.85,0,0,1,132,23.8Z"/><path class="i" d="M141.91,24.71h-4.24a2.25,2.25,0,0,0,.54,1.55,1.88,1.88,0,0,0,1.42.54,3,3,0,0,0,1.86-.66V27a3.45,3.45,0,0,1-2.09.57,2.56,2.56,0,0,1-2-.81,3.4,3.4,0,0,1-.72-2.3,3.26,3.26,0,0,1,.79-2.29,2.56,2.56,0,0,1,2-.88,2.26,2.26,0,0,1,1.82.76,3.24,3.24,0,0,1,.65,2.12Zm-1-.81a1.9,1.9,0,0,0-.4-1.3,1.39,1.39,0,0,0-1.1-.46,1.52,1.52,0,0,0-1.15.49,2.18,2.18,0,0,0-.59,1.27Z"/><path class="i" d="M148.34,27.47h-1V24.05c0-1.27-.46-1.91-1.39-1.91a1.54,1.54,0,0,0-1.2.54,2,2,0,0,0-.47,1.37v3.42h-1v-6h1v1h0a2.16,2.16,0,0,1,2-1.14,1.81,1.81,0,0,1,1.51.64,2.79,2.79,0,0,1,.52,1.83Z"/><path class="i" d="M155,24.71h-4.23a2.2,2.2,0,0,0,.54,1.55,1.84,1.84,0,0,0,1.41.54,3,3,0,0,0,1.87-.66V27a3.59,3.59,0,0,1-2.09.57,2.56,2.56,0,0,1-2-.81,3.36,3.36,0,0,1-.73-2.3,3.3,3.3,0,0,1,.8-2.29,2.56,2.56,0,0,1,2-.88,2.26,2.26,0,0,1,1.82.76,3.17,3.17,0,0,1,.64,2.12Zm-1-.81a2,2,0,0,0-.4-1.3,1.39,1.39,0,0,0-1.1-.46,1.52,1.52,0,0,0-1.15.49,2.15,2.15,0,0,0-.59,1.27Z"/><path class="i" d="M159.54,22.45a1.11,1.11,0,0,0-.73-.2,1.24,1.24,0,0,0-1,.58,2.73,2.73,0,0,0-.41,1.58v3.06h-1v-6h1v1.24h0a2.11,2.11,0,0,1,.63-1,1.4,1.4,0,0,1,.94-.35,1.63,1.63,0,0,1,.58.08Z"/><path class="i" d="M165.72,27c0,2.21-1.05,3.32-3.16,3.31a4.12,4.12,0,0,1-1.95-.43v-1a4,4,0,0,0,1.93.57c1.48,0,2.22-.79,2.22-2.36v-.66h0a2.42,2.42,0,0,1-3.87.35,3.19,3.19,0,0,1-.68-2.14,3.75,3.75,0,0,1,.73-2.44,2.45,2.45,0,0,1,2-.9,2,2,0,0,1,1.8,1h0v-.83h1Zm-1-2.23v-.89a1.74,1.74,0,0,0-.48-1.22,1.62,1.62,0,0,0-1.21-.51,1.67,1.67,0,0,0-1.39.65,2.86,2.86,0,0,0-.51,1.81,2.43,2.43,0,0,0,.49,1.6,1.56,1.56,0,0,0,1.28.6,1.65,1.65,0,0,0,1.31-.57,2.11,2.11,0,0,0,.55-1.48Z"/><path class="i" d="M172.47,21.47l-2.76,7c-.49,1.25-1.18,1.87-2.07,1.87a2.27,2.27,0,0,1-.63-.08V29.4a1.85,1.85,0,0,0,.57.1,1.19,1.19,0,0,0,1.09-.86l.48-1.14-2.35-6h1.07l1.62,4.62a4.37,4.37,0,0,0,.13.46h0a1.36,1.36,0,0,1,.12-.45l1.7-4.63Z"/><path class="i" d="M37,112.05H34.62v7.51h-1v-7.51H31.21v-.89H37Z"/><path class="i" d="M43.17,119.56h-1V116.1c0-1.25-.46-1.87-1.39-1.87a1.5,1.5,0,0,0-1.18.54,2,2,0,0,0-.48,1.39v3.4h-1v-8.88h1v3.88h0a2.19,2.19,0,0,1,2-1.14c1.35,0,2,.81,2,2.44Z"/><path class="i" d="M49.78,116.8H45.54a2.29,2.29,0,0,0,.54,1.55,1.88,1.88,0,0,0,1.42.54,2.93,2.93,0,0,0,1.86-.67v.91a3.45,3.45,0,0,1-2.09.57,2.52,2.52,0,0,1-2-.82,3.36,3.36,0,0,1-.73-2.3,3.29,3.29,0,0,1,.8-2.28,2.54,2.54,0,0,1,2-.88,2.26,2.26,0,0,1,1.82.76,3.24,3.24,0,0,1,.65,2.12Zm-1-.82a1.89,1.89,0,0,0-.4-1.29,1.39,1.39,0,0,0-1.1-.46,1.56,1.56,0,0,0-1.15.48,2.24,2.24,0,0,0-.59,1.27Z"/><path class="i" d="M50.85,119.34v-1a2.84,2.84,0,0,0,1.73.58q1.26,0,1.26-.84a.84.84,0,0,0-.11-.41,1.18,1.18,0,0,0-.29-.3,2.55,2.55,0,0,0-.43-.23l-.54-.21a6.29,6.29,0,0,1-.7-.32,2.54,2.54,0,0,1-.5-.36,1.44,1.44,0,0,1-.31-.46,1.6,1.6,0,0,1-.1-.61,1.36,1.36,0,0,1,.19-.74,1.71,1.71,0,0,1,.52-.55,2.19,2.19,0,0,1,.73-.33,3.56,3.56,0,0,1,.86-.11,3.32,3.32,0,0,1,1.39.27v1a2.71,2.71,0,0,0-1.52-.43,2,2,0,0,0-.49.06,1.24,1.24,0,0,0-.37.17.69.69,0,0,0-.24.27.67.67,0,0,0-.09.34.78.78,0,0,0,.34.67,2,2,0,0,0,.4.23l.53.21c.26.11.5.21.71.32a2.54,2.54,0,0,1,.54.36,1.65,1.65,0,0,1,.35.47,1.49,1.49,0,0,1,.12.62,1.44,1.44,0,0,1-.2.78,1.61,1.61,0,0,1-.53.54,2.27,2.27,0,0,1-.75.32,3.89,3.89,0,0,1-.9.11A3.32,3.32,0,0,1,50.85,119.34Z"/><path class="i" d="M61.1,116.8H56.87a2.2,2.2,0,0,0,.54,1.55,1.84,1.84,0,0,0,1.41.54,3,3,0,0,0,1.87-.67v.91a3.52,3.52,0,0,1-2.09.57,2.52,2.52,0,0,1-2-.82,3.81,3.81,0,0,1,.07-4.58,2.51,2.51,0,0,1,2-.88,2.26,2.26,0,0,1,1.82.76,3.17,3.17,0,0,1,.64,2.12Zm-1-.82a2,2,0,0,0-.4-1.29,1.39,1.39,0,0,0-1.1-.46,1.57,1.57,0,0,0-1.16.48,2.25,2.25,0,0,0-.58,1.27Z"/><path class="i" d="M70.82,119.56h-1v-3.42c0-1.28-.46-1.91-1.39-1.91a1.5,1.5,0,0,0-1.19.54,2,2,0,0,0-.48,1.37v3.42h-1v-6h1v1h0a2.16,2.16,0,0,1,2-1.14,1.82,1.82,0,0,1,1.5.63,2.87,2.87,0,0,1,.52,1.84Z"/><path class="i" d="M75.12,119.7a2.8,2.8,0,0,1-2.12-.84,3.1,3.1,0,0,1-.8-2.23,3.24,3.24,0,0,1,.83-2.36,3,3,0,0,1,2.23-.85,2.67,2.67,0,0,1,2.1.82,3.33,3.33,0,0,1,.75,2.3,3.24,3.24,0,0,1-.81,2.3A2.86,2.86,0,0,1,75.12,119.7Zm.07-5.47a1.85,1.85,0,0,0-1.46.63,2.57,2.57,0,0,0-.54,1.73,2.47,2.47,0,0,0,.54,1.69,1.88,1.88,0,0,0,1.46.61,1.78,1.78,0,0,0,1.43-.6,3.17,3.17,0,0,0,0-3.45A1.73,1.73,0,0,0,75.19,114.23Z"/><path class="i" d="M84.77,119.56h-1v-1h0a2.42,2.42,0,0,1-3.87.35,3.26,3.26,0,0,1-.67-2.19,3.61,3.61,0,0,1,.75-2.39,2.48,2.48,0,0,1,2-.89,1.9,1.9,0,0,1,1.8,1h0v-3.71h1Zm-1-2.71V116a1.7,1.7,0,0,0-.48-1.23,1.61,1.61,0,0,0-1.22-.5,1.66,1.66,0,0,0-1.39.64,2.82,2.82,0,0,0-.5,1.78,2.59,2.59,0,0,0,.48,1.64,1.73,1.73,0,0,0,2.44.16,1.21,1.21,0,0,0,.16-.16,2.11,2.11,0,0,0,.55-1.48Z"/><path class="i" d="M91.48,116.8H87.24a2.29,2.29,0,0,0,.54,1.55,1.88,1.88,0,0,0,1.42.54,2.87,2.87,0,0,0,1.86-.67v.91a3.45,3.45,0,0,1-2.09.57,2.52,2.52,0,0,1-2-.82,3.35,3.35,0,0,1-.72-2.3A3.26,3.26,0,0,1,87,114.3a2.54,2.54,0,0,1,2-.88,2.28,2.28,0,0,1,1.83.76,3.17,3.17,0,0,1,.64,2.12Zm-1-.82a2,2,0,0,0-.41-1.29,1.37,1.37,0,0,0-1.09-.46,1.57,1.57,0,0,0-1.16.48,2.25,2.25,0,0,0-.58,1.27Z"/><path class="i" d="M92.55,119.34v-1a2.86,2.86,0,0,0,1.73.58c.85,0,1.27-.28,1.27-.84a.84.84,0,0,0-.11-.41,1.18,1.18,0,0,0-.29-.3,2.64,2.64,0,0,0-.44-.23l-.53-.21a6.29,6.29,0,0,1-.7-.32,2.61,2.61,0,0,1-.51-.36,1.41,1.41,0,0,1-.3-.46,1.6,1.6,0,0,1-.1-.61,1.36,1.36,0,0,1,.19-.74,1.71,1.71,0,0,1,.52-.55,2.19,2.19,0,0,1,.73-.33,3.61,3.61,0,0,1,2.25.16v1a2.77,2.77,0,0,0-1.53-.43,2,2,0,0,0-.48.06,1,1,0,0,0-.37.17.69.69,0,0,0-.24.27.67.67,0,0,0-.09.34.75.75,0,0,0,.09.39.81.81,0,0,0,.24.28,2,2,0,0,0,.4.23l.54.21c.26.11.5.21.71.32a2.54,2.54,0,0,1,.54.36,1.45,1.45,0,0,1,.34.47,1.49,1.49,0,0,1,.12.62,1.53,1.53,0,0,1-.19.78,1.61,1.61,0,0,1-.53.54,2.27,2.27,0,0,1-.75.32,3.89,3.89,0,0,1-.9.11A3.36,3.36,0,0,1,92.55,119.34Z"/><path class="i" d="M105.59,119.56h-1v-.94h0a2.2,2.2,0,0,1-3.25.61,1.67,1.67,0,0,1-.51-1.26c0-1.13.66-1.78,2-2l1.8-.25c0-1-.41-1.53-1.24-1.53a2.89,2.89,0,0,0-2,.74v-1a3.8,3.8,0,0,1,2-.56c1.41,0,2.11.74,2.11,2.24Zm-1-3-1.45.2a2.57,2.57,0,0,0-1,.33,1,1,0,0,0-.34.84.91.91,0,0,0,.31.72,1.15,1.15,0,0,0,.83.28,1.58,1.58,0,0,0,1.19-.5,1.8,1.8,0,0,0,.46-1.27Z"/><path class="i" d="M110.46,114.53a1.15,1.15,0,0,0-.72-.19,1.2,1.2,0,0,0-1,.58,2.66,2.66,0,0,0-.41,1.58v3.06h-1v-6h1v1.24h0a2.11,2.11,0,0,1,.63-1,1.56,1.56,0,0,1,1.51-.27Z"/><path class="i" d="M116.34,116.8h-4.23a2.2,2.2,0,0,0,.54,1.55,1.84,1.84,0,0,0,1.41.54,3,3,0,0,0,1.87-.67v.91a3.48,3.48,0,0,1-2.1.57,2.52,2.52,0,0,1-2-.82,3.83,3.83,0,0,1,.06-4.58,2.56,2.56,0,0,1,2-.88,2.26,2.26,0,0,1,1.82.76,3.17,3.17,0,0,1,.64,2.12Zm-1-.82a2,2,0,0,0-.4-1.29,1.39,1.39,0,0,0-1.1-.46,1.57,1.57,0,0,0-1.16.48,2.25,2.25,0,0,0-.58,1.27Z"/><path class="i" d="M124.21,114.53a1.15,1.15,0,0,0-.72-.19,1.2,1.2,0,0,0-1,.58,2.67,2.67,0,0,0-.42,1.58v3.06h-1v-6h1v1.24h0a2,2,0,0,1,.62-1,1.47,1.47,0,0,1,1-.36,1.39,1.39,0,0,1,.57.09Z"/><path class="i" d="M130.2,119.56h-1v-1h0a2,2,0,0,1-1.85,1.09c-1.43,0-2.15-.85-2.15-2.56v-3.58h1V117c0,1.27.48,1.9,1.45,1.9a1.47,1.47,0,0,0,1.16-.52,2,2,0,0,0,.45-1.35v-3.46h1Z"/><path class="i" d="M137,119.56h-1v-3.42c0-1.28-.47-1.91-1.4-1.91a1.52,1.52,0,0,0-1.19.54,2,2,0,0,0-.47,1.37v3.42h-1v-6h1v1h0a2.18,2.18,0,0,1,2-1.14,1.86,1.86,0,0,1,1.51.63,2.87,2.87,0,0,1,.52,1.84Z"/><path class="i" d="M143.72,119.56h-1v-3.42c0-1.28-.46-1.91-1.39-1.91a1.5,1.5,0,0,0-1.19.54,2,2,0,0,0-.48,1.37v3.42h-1v-6h1v1h0a2.16,2.16,0,0,1,2-1.14,1.85,1.85,0,0,1,1.5.63,2.87,2.87,0,0,1,.52,1.84Z"/><path class="i" d="M146,112a.6.6,0,0,1-.44-.18.63.63,0,0,1-.18-.45.59.59,0,0,1,.18-.44.6.6,0,0,1,.44-.18.62.62,0,0,1,.45,1.06A.64.64,0,0,1,146,112Zm.47,7.52h-1v-6h1Z"/><path class="i" d="M153.22,119.56h-1v-3.42c0-1.28-.46-1.91-1.39-1.91a1.5,1.5,0,0,0-1.19.54,2,2,0,0,0-.48,1.37v3.42h-1v-6h1v1h0a2.16,2.16,0,0,1,2-1.14,1.85,1.85,0,0,1,1.5.63,2.87,2.87,0,0,1,.52,1.84Z"/><path class="i" d="M160.16,119.08q0,3.3-3.17,3.3a4.19,4.19,0,0,1-1.94-.42v-1a4,4,0,0,0,1.93.56c1.48,0,2.21-.78,2.21-2.35v-.66h0a2.42,2.42,0,0,1-3.33.79,2.26,2.26,0,0,1-.53-.44,3.16,3.16,0,0,1-.69-2.15,3.73,3.73,0,0,1,.74-2.43,2.45,2.45,0,0,1,2-.9,2,2,0,0,1,1.8,1h0v-.83h1Zm-1-2.23V116a1.7,1.7,0,0,0-.48-1.22,1.61,1.61,0,0,0-1.2-.51,1.66,1.66,0,0,0-1.4.64,3,3,0,0,0-.5,1.82,2.48,2.48,0,0,0,.48,1.6,1.56,1.56,0,0,0,1.28.6,1.67,1.67,0,0,0,1.32-.57,2.2,2.2,0,0,0,.53-1.51Z"/><path class="i" d="M34.45,134.1a2.8,2.8,0,0,1-2.12-.84,3.1,3.1,0,0,1-.79-2.23,3.24,3.24,0,0,1,.82-2.36,3,3,0,0,1,2.23-.85,2.67,2.67,0,0,1,2.1.82,3.33,3.33,0,0,1,.75,2.3,3.24,3.24,0,0,1-.81,2.3A2.86,2.86,0,0,1,34.45,134.1Zm.07-5.47a1.85,1.85,0,0,0-1.46.63,2.57,2.57,0,0,0-.54,1.73,2.47,2.47,0,0,0,.54,1.69,1.88,1.88,0,0,0,1.46.61,1.78,1.78,0,0,0,1.44-.6,3.21,3.21,0,0,0,0-3.45A1.76,1.76,0,0,0,34.52,128.63Z"/><path class="i" d="M43.9,134h-1v-3.42c0-1.28-.46-1.91-1.39-1.91a1.5,1.5,0,0,0-1.19.54,2,2,0,0,0-.48,1.37V134h-1v-6h1v1h0a2.16,2.16,0,0,1,2-1.14,1.85,1.85,0,0,1,1.5.63,2.87,2.87,0,0,1,.52,1.84Z"/><path class="i" d="M48.64,133.74v-1a2.84,2.84,0,0,0,1.73.58q1.26,0,1.26-.84a.67.67,0,0,0-.11-.41,1.18,1.18,0,0,0-.29-.3,2.55,2.55,0,0,0-.43-.23l-.54-.21c-.26-.11-.5-.21-.7-.32a2.54,2.54,0,0,1-.5-.36,1.44,1.44,0,0,1-.31-.46,1.6,1.6,0,0,1-.1-.61,1.36,1.36,0,0,1,.19-.74,1.71,1.71,0,0,1,.52-.55,2.19,2.19,0,0,1,.73-.33,3.56,3.56,0,0,1,.86-.11,3.32,3.32,0,0,1,1.39.27v1a2.71,2.71,0,0,0-1.52-.43,2,2,0,0,0-.49.06,1.24,1.24,0,0,0-.37.17.78.78,0,0,0-.24.27.67.67,0,0,0-.09.34.75.75,0,0,0,.09.39.84.84,0,0,0,.25.28,2,2,0,0,0,.4.23l.53.21c.27.11.5.21.71.32a2,2,0,0,1,.54.36,1.36,1.36,0,0,1,.47,1.09,1.44,1.44,0,0,1-.2.78,1.68,1.68,0,0,1-.52.54,2.32,2.32,0,0,1-.76.32,3.89,3.89,0,0,1-.9.11A3.32,3.32,0,0,1,48.64,133.74Z"/><path class="i" d="M56.92,133.9a1.76,1.76,0,0,1-.9.19c-1.05,0-1.57-.59-1.57-1.76v-3.55h-1V128h1v-1.47l1-.31V128H57v.82H55.41v3.38a1.52,1.52,0,0,0,.2.86.84.84,0,0,0,.68.26,1,1,0,0,0,.63-.2Z"/><path class="i" d="M62.6,134h-1v-1h0a2,2,0,0,1-1.85,1.08,2,2,0,0,1-1.4-.48,1.63,1.63,0,0,1-.51-1.25c0-1.13.66-1.78,2-2l1.8-.25c0-1-.41-1.53-1.24-1.53a2.92,2.92,0,0,0-1.95.74v-1a3.8,3.8,0,0,1,2-.56c1.41,0,2.11.74,2.11,2.24Zm-1-3-1.45.2a2.57,2.57,0,0,0-1,.33,1,1,0,0,0-.34.84.91.91,0,0,0,.31.72,1.15,1.15,0,0,0,.83.28,1.54,1.54,0,0,0,1.18-.5,1.75,1.75,0,0,0,.47-1.27Z"/><path class="i" d="M69.33,134h-1v-3.42c0-1.28-.46-1.91-1.39-1.91a1.5,1.5,0,0,0-1.19.54,2,2,0,0,0-.47,1.37V134h-1v-6h1v1h0a2.16,2.16,0,0,1,2-1.14,1.82,1.82,0,0,1,1.5.63,2.86,2.86,0,0,1,.53,1.84Z"/><path class="i" d="M76.26,134h-1v-1h0a2.42,2.42,0,0,1-3.87.35,3.26,3.26,0,0,1-.67-2.19,3.61,3.61,0,0,1,.75-2.39,2.48,2.48,0,0,1,2-.89,1.9,1.9,0,0,1,1.8,1h0v-3.71h1Zm-1-2.71v-.89a1.7,1.7,0,0,0-.48-1.23,1.61,1.61,0,0,0-1.22-.5,1.66,1.66,0,0,0-1.39.64,2.82,2.82,0,0,0-.5,1.78,2.59,2.59,0,0,0,.48,1.64,1.73,1.73,0,0,0,2.44.16,1.21,1.21,0,0,0,.16-.16,2.11,2.11,0,0,0,.55-1.48Z"/><path class="i" d="M82.4,134h-1v-1h0a2,2,0,0,1-1.85,1.08,2,2,0,0,1-1.4-.48,1.63,1.63,0,0,1-.51-1.25c0-1.13.66-1.78,2-2l1.8-.25c0-1-.41-1.53-1.24-1.53a2.89,2.89,0,0,0-2,.74v-1a3.8,3.8,0,0,1,2-.56c1.41,0,2.11.74,2.11,2.24Zm-1-3-1.45.2a2.57,2.57,0,0,0-1,.33,1,1,0,0,0-.34.84A.89.89,0,0,0,79,133a1.15,1.15,0,0,0,.83.28,1.54,1.54,0,0,0,1.18-.5,1.75,1.75,0,0,0,.47-1.27Z"/><path class="i" d="M87.27,128.93a1.15,1.15,0,0,0-.72-.19,1.2,1.2,0,0,0-1,.58,2.66,2.66,0,0,0-.41,1.58V134h-1v-6h1v1.24h0a1.93,1.93,0,0,1,.63-1,1.56,1.56,0,0,1,1.51-.27Z"/><path class="i" d="M93.46,134h-1v-1h0a2.42,2.42,0,0,1-3.87.35,3.26,3.26,0,0,1-.67-2.19,3.61,3.61,0,0,1,.75-2.39,2.48,2.48,0,0,1,2-.89,1.9,1.9,0,0,1,1.8,1h0v-3.71h1Zm-1-2.71v-.89a1.7,1.7,0,0,0-.48-1.23,1.61,1.61,0,0,0-1.22-.5,1.66,1.66,0,0,0-1.39.64,2.82,2.82,0,0,0-.5,1.78,2.59,2.59,0,0,0,.48,1.64,1.6,1.6,0,0,0,1.3.6,1.66,1.66,0,0,0,1.31-.58,2.17,2.17,0,0,0,.54-1.5Z"/><path class="i" d="M103.51,131.2H99.28a2.25,2.25,0,0,0,.53,1.55,1.88,1.88,0,0,0,1.42.54,3,3,0,0,0,1.87-.67v.91a3.48,3.48,0,0,1-2.1.57,2.52,2.52,0,0,1-2-.82,3.83,3.83,0,0,1,.06-4.58,2.54,2.54,0,0,1,2-.88,2.28,2.28,0,0,1,1.83.76,3.17,3.17,0,0,1,.64,2.12Zm-1-.82a2,2,0,0,0-.4-1.29,1.39,1.39,0,0,0-1.1-.46,1.57,1.57,0,0,0-1.16.48,2.25,2.25,0,0,0-.58,1.27Z"/><path class="i" d="M110,134h-1v-3.42c0-1.28-.46-1.91-1.39-1.91a1.5,1.5,0,0,0-1.19.54,2,2,0,0,0-.47,1.37V134h-1v-6h1v1h0a2.16,2.16,0,0,1,2-1.14,1.82,1.82,0,0,1,1.5.63,2.86,2.86,0,0,1,.53,1.84Z"/><path class="i" d="M116.56,131.2h-4.24a2.29,2.29,0,0,0,.54,1.55,1.88,1.88,0,0,0,1.42.54,2.93,2.93,0,0,0,1.86-.67v.91a3.45,3.45,0,0,1-2.09.57,2.52,2.52,0,0,1-2-.82,3.35,3.35,0,0,1-.72-2.3,3.28,3.28,0,0,1,.79-2.28,2.54,2.54,0,0,1,2-.88,2.26,2.26,0,0,1,1.82.76,3.24,3.24,0,0,1,.65,2.12Zm-1-.82a1.89,1.89,0,0,0-.4-1.29,1.39,1.39,0,0,0-1.1-.46,1.56,1.56,0,0,0-1.15.48,2.24,2.24,0,0,0-.59,1.27Z"/><path class="i" d="M121.14,128.93a1.18,1.18,0,0,0-.73-.19,1.22,1.22,0,0,0-1,.58,2.66,2.66,0,0,0-.41,1.58V134h-1v-6h1v1.24h0a2,2,0,0,1,.62-1,1.44,1.44,0,0,1,.95-.36,1.39,1.39,0,0,1,.57.09Z"/><path class="i" d="M127.32,133.48q0,3.3-3.16,3.3a4.31,4.31,0,0,1-2-.42v-1a4,4,0,0,0,1.94.56c1.47,0,2.21-.78,2.21-2.35V133h0a2.24,2.24,0,0,1-2.06,1.15,2.29,2.29,0,0,1-1.81-.8,3.2,3.2,0,0,1-.68-2.15,3.73,3.73,0,0,1,.74-2.43,2.45,2.45,0,0,1,2-.9,2,2,0,0,1,1.8,1h0V128h1Zm-1-2.23v-.89a1.7,1.7,0,0,0-.48-1.22,1.58,1.58,0,0,0-1.21-.51,1.66,1.66,0,0,0-1.39.64,2.92,2.92,0,0,0-.5,1.82,2.48,2.48,0,0,0,.48,1.6,1.56,1.56,0,0,0,1.28.6,1.65,1.65,0,0,0,1.31-.57,2.15,2.15,0,0,0,.55-1.47Z"/><path class="i" d="M134.07,128l-2.76,7q-.74,1.86-2.07,1.86a2.26,2.26,0,0,1-.63-.07v-.86a1.85,1.85,0,0,0,.57.1,1.16,1.16,0,0,0,1.09-.87l.48-1.13-2.34-6h1.06l1.63,4.62s.06.21.12.45h0a2.31,2.31,0,0,1,.12-.44l1.71-4.63Z"/><path class="i" d="M146.91,134h-1v-3.45a2.58,2.58,0,0,0-.31-1.44,1.17,1.17,0,0,0-1-.44,1.27,1.27,0,0,0-1,.56,2.18,2.18,0,0,0-.43,1.35V134h-1v-3.6c0-1.18-.45-1.77-1.36-1.77a1.25,1.25,0,0,0-1,.53,2.2,2.2,0,0,0-.41,1.38V134h-1v-6h1v1h0a2,2,0,0,1,1.86-1.09,1.73,1.73,0,0,1,1.7,1.24,2.12,2.12,0,0,1,2-1.24c1.32,0,2,.81,2,2.44Z"/><path class="i" d="M149.14,126.44a.6.6,0,0,1-.44-.18.63.63,0,0,1-.18-.45.59.59,0,0,1,.18-.44.6.6,0,0,1,.44-.18.62.62,0,0,1,.45,1.06A.64.64,0,0,1,149.14,126.44Zm.47,7.52h-1v-6h1Z"/><path class="i" d="M155.94,128l-2,3,2,3h-1.12l-1.18-2-.26-.45h0L153,132l-1.2,2h-1.11l2.05-2.94-2-3.06h1.12l1.16,2c.09.15.17.31.25.47h0l1.5-2.52Z"/><rect class="a" width="202" height="140"/><line class="b" x1="12.96" y1="61.38" x2="55.98" y2="61.38"/><polygon class="c" points="54.88 65.11 61.36 61.38 54.88 57.63 54.88 65.11"/><line class="b" x1="73.17" y1="61.38" x2="116.18" y2="61.38"/><polygon class="c" points="115.09 65.11 121.57 61.38 115.09 57.63 115.09 65.11"/><line class="b" x1="132.8" y1="61.38" x2="175.82" y2="61.38"/><polygon class="c" points="174.72 65.11 181.2 61.38 174.72 57.63 174.72 65.11"/><circle class="a" cx="70.93" cy="61.18" r="8.75"/><circle class="d" cx="70.93" cy="61.18" r="8.75"/><path class="a" d="M70.93,52.68a8.5,8.5,0,1,1-8.5,8.5,8.51,8.51,0,0,1,8.5-8.5m0-.5a9,9,0,1,0,9,9h0A9,9,0,0,0,70.93,52.18Z"/><path d="M70.93,52.18a9,9,0,1,1-9,9h0a9,9,0,0,1,9-9m0-.5a9.5,9.5,0,1,0,9.5,9.5h0A9.52,9.52,0,0,0,70.93,51.68Z"/><circle class="a" cx="10.8" cy="61.18" r="8.75"/><circle class="e" cx="10.8" cy="61.18" r="8.75"/><path class="a" d="M10.8,52.68a8.5,8.5,0,1,1-8.5,8.5,8.51,8.51,0,0,1,8.5-8.5m0-.5a9,9,0,1,0,9,9h0A9,9,0,0,0,10.8,52.18Z"/><path d="M10.8,52.18a9,9,0,1,1-9,9h0a9,9,0,0,1,9-9m0-.5a9.5,9.5,0,1,0,9.5,9.5h0A9.52,9.52,0,0,0,10.8,51.68Z"/><circle class="a" cx="191.2" cy="61.18" r="8.75"/><circle class="f" cx="191.2" cy="61.18" r="8.75"/><path class="a" d="M191.2,52.68a8.5,8.5,0,1,1-8.5,8.5,8.51,8.51,0,0,1,8.5-8.5m0-.5a9,9,0,1,0,9,9h0A9,9,0,0,0,191.2,52.18Z"/><path d="M191.2,52.18a9,9,0,1,1-9,9h0a9,9,0,0,1,9-9m0-.5a9.5,9.5,0,1,0,9.5,9.5h0A9.52,9.52,0,0,0,191.2,51.68Z"/><circle class="a" cx="131.07" cy="61.18" r="8.75"/><circle class="g" cx="131.07" cy="61.18" r="8.75"/><path class="a" d="M131.07,52.68a8.5,8.5,0,1,1-8.5,8.5,8.51,8.51,0,0,1,8.5-8.5m0-.5a9,9,0,1,0,9,9h0A9,9,0,0,0,131.07,52.18Z"/><path d="M131.07,52.18a9,9,0,1,1-9,9h0a9,9,0,0,1,9-9m0-.5a9.5,9.5,0,1,0,9.5,9.5h0A9.52,9.52,0,0,0,131.07,51.68Z"/><line class="h" x1="130.4" y1="46.68" x2="130.4" y2="33.48"/><path class="h" d="M191.2,76.35V84.7a5,5,0,0,1-5,5H16a5,5,0,0,1-5-5V76.35"/><line class="h" x1="37.4" y1="89.7" x2="37.4" y2="102.9"/><line class="h" x1="70.4" y1="76.35" x2="70.4" y2="89.4"/><path d="M81.49,12.93l1-.19V5.24h.92v7.32l1.52-.3V3.12h.94V6.58H88v.88H85.9v4.6l2-.42c0,.4.05.72.08.95q-3.18.63-6.2,1.31ZM88.38,3h.94V7.11A25.94,25.94,0,0,0,92.2,4.93l.69.73a32,32,0,0,1-3.57,2.51v4.15c0,.52.24.77.72.77h1.11a.71.71,0,0,0,.77-.68,16.84,16.84,0,0,0,.21-2,10.33,10.33,0,0,0,1,.35c-.07.76-.16,1.42-.25,2A1.36,1.36,0,0,1,91.32,14H89.8c-.94,0-1.42-.51-1.42-1.54Z"/><path d="M93.54,4.56h3.25V3h.93V4.56h3.14V3h.94V4.56h3.25v.86H101.8V6.73h-.94V5.42H97.72v1.3h-.93V5.42H93.54Zm.59,2.91h9.67c-.07,1.63-.15,2.89-.23,3.76-.09,1.15-.76,1.72-2,1.72a18.11,18.11,0,0,1-1.82-.07,8.86,8.86,0,0,0-.19-1,12,12,0,0,0,1.9.17,1.05,1.05,0,0,0,1.2-1.1q.1-.88.18-2.61h-4.7v6.2h-1V8.32h-3Z"/><path d="M107.87,11.92a23.32,23.32,0,0,1-1.57,2.52l-.81-.57a21.28,21.28,0,0,0,1.56-2.42ZM107,6.62h3.68V3h1v1.4h5.23V5.2h-5.23V6.62h4.14V11.1h-1v-.49H108v.49h-1Zm7.85.85H108v2.3h6.89Zm-5,3.94a21,21,0,0,1,.94,2.49l-1,.33c-.25-.85-.52-1.69-.84-2.52Zm2.8-.09q.56,1.17,1,2.43l-.93.36a23,23,0,0,0-1-2.46Zm2.85,0a26.32,26.32,0,0,1,1.5,2.56l-.89.48c-.39-.8-.87-1.67-1.42-2.62Z"/><path d="M117.48,8.68A19,19,0,0,0,119.92,3l.87.26c-.33,1-.68,2-1.06,2.92v8.38h-.83V7.9a15.61,15.61,0,0,1-1.07,1.71C117.71,9.28,117.6,9,117.48,8.68Zm4.08,1.94.78-.43a5.8,5.8,0,0,0,1.36,1.56,4.46,4.46,0,0,0,.58-1.95h-3.06V6.58h3.16V5.42h-3.75v-.8h3.75V3h.91V4.62h3.78v.8h-3.78V6.58h3.15V10.3h-.89V9.8h-2.36a6,6,0,0,1-.71,2.46l0,0a10.59,10.59,0,0,0,4.7,1.24c-.23.33-.45.66-.64,1A11,11,0,0,1,123.84,13a9,9,0,0,1-3,1.62c-.18-.25-.38-.51-.61-.78a8.45,8.45,0,0,0,2.86-1.39A6.86,6.86,0,0,1,121.56,10.62ZM124.35,9c0-.38,0-.93,0-1.66h-2.27V9Zm.9,0h2.3V7.36h-2.26C125.29,7.67,125.27,8.22,125.25,9Z"/><path d="M135.09,14.34V10.61h-3.41a7.55,7.55,0,0,1-1.41,4c-.21-.26-.44-.53-.7-.81a6.25,6.25,0,0,0,1-2.39,19.3,19.3,0,0,0,.25-3.58V3.68h9.55V13c0,.93-.44,1.39-1.32,1.39l-1.82,0c0-.26-.09-.58-.17-1,.68,0,1.23.07,1.65.07s.73-.23.73-.69V10.61H136v3.73Zm-3.34-4.57h3.34V7.57H131.8A19.91,19.91,0,0,1,131.75,9.77Zm.05-5.22V6.73h3.29V4.55Zm7.68,0H136V6.73h3.45ZM136,9.77h3.45V7.57H136Z"/><path d="M141.46,6.87l.59-.67c.73.5,1.41,1,2,1.51l-.69.75C142.68,7.83,142,7.3,141.46,6.87Zm.38,7.23a46.83,46.83,0,0,0,1.21-4.53c.34.14.66.27.95.36-.37,1.45-.75,3-1.12,4.49Zm.07-10.29.61-.62c.52.39,1.19.94,2,1.65l-.7.69C143,4.78,142.39,4.2,141.91,3.81Zm2.62,3.24h3.85v-.8h-3.07V5.51h3.07v-.8h-3.47V4h3.47V2.92h.91V4h3.65v.73h-3.65v.8h3.34v.74h-3.34v.8h3.86v.73h-8.62Zm1.72,7.39h-.89V8.5h6.93v4.61A1.11,1.11,0,0,1,151,14.35h-1.94q-.06-.37-.18-.9c.73,0,1.32.07,1.77.07s.71-.21.71-.61v-.59h-5.14Zm5.14-5.19h-5.14v.81h5.14Zm-5.14,2.34h5.14v-.81h-5.14Z"/><path d="M154.05,6.37q1.08.78,2,1.59c-.24.26-.46.5-.65.74-.85-.76-1.5-1.31-2-1.67Zm1.27,3.22c.38.16.69.28,1,.36-.43,1.56-.86,3.06-1.28,4.51l-1-.36A34.92,34.92,0,0,0,155.32,9.59Zm-.73-6.46a25.79,25.79,0,0,1,2,1.71l-.69.73c-.53-.55-1.17-1.14-1.92-1.79Zm2.79,4.32h3V5.62H157V4.77h3.39V3.05h.95V4.77h3.73v.85h-3.73V7.45h3.14v.84h-7.08Zm.19,2.21h6.61v4.86h-.89v-.81h-4.83v.81h-.89Zm5.72.84h-4.83v2.37h4.83Z"/><path d="M169.92,4a30.14,30.14,0,0,1,1.85,2.66l-.81.54c-.15-.27-.31-.54-.48-.83-1.91.15-3.44.27-4.59.39l-.37-1a4.21,4.21,0,0,0,1.13-1c.43-.57.85-1.2,1.27-1.89l.92.34a30.24,30.24,0,0,1-2.05,2.66c1.17-.07,2.24-.15,3.2-.23-.25-.37-.51-.75-.79-1.14Zm-2.83,10.37h-.92V7.47h4.76V13c0,.85-.39,1.27-1.17,1.27h-1.33c0-.24-.09-.54-.17-.89.49,0,.88.06,1.18.06a.52.52,0,0,0,.58-.6v-1h-2.93ZM170,8.22h-2.93V9.34H170Zm-2.93,3H170V10.05h-2.93Zm5-2.45H173v1.94A26.75,26.75,0,0,0,176.46,9l.53.81a34.57,34.57,0,0,1-4,1.78v1c0,.49.19.74.57.74h1.73a.62.62,0,0,0,.69-.58c.05-.34.1-.85.14-1.53l.91.33a15.24,15.24,0,0,1-.2,1.55c-.1.69-.59,1-1.46,1h-2c-.89,0-1.33-.46-1.33-1.38Zm0-5.71H173V5a24.71,24.71,0,0,0,3.2-1.55l.53.81c-1.22.62-2.46,1.18-3.73,1.7v.67c0,.52.21.79.63.79h1.48c.5,0,.77-.21.84-.61s.1-.83.14-1.47c.29.12.6.23.91.34-.06.63-.13,1.13-.2,1.52-.12.68-.64,1-1.58,1h-1.71a1.25,1.25,0,0,1-1.42-1.4Z"/><path d="M111.52,27.88h5.37v-.67H112.2V26.6h4.69v-.67h-2.78v.31h-.8v-3.6h8v3.6h-.8v-.31h-2.83v.67h4.72v.61h-4.72v.67h5.38v.63H111.52Zm.09-6.43h11.44v.63H111.61Zm1.79-3.6h7.85V21.2h-.79v-.32H114.2v.32h-.8Zm.71,6.15h2.78v-.75h-2.78Zm0,1.33h2.78v-.77h-2.78Zm6.35-6.87H114.2v.62h6.26Zm-6.26,1.81h6.26v-.63H114.2Zm6.34,3h-2.83V24h2.83Zm-2.83,2.08h2.83v-.77h-2.83Z"/><path d="M128.47,27.62l3.44.07,3.23-.13c-.13.32-.26.64-.37.94l-3.5,0-3,0a3.32,3.32,0,0,1-2.8-1.36A12.21,12.21,0,0,0,124,28.67l-.51-1,1.56-1.34v-4h-1.5v-.87H126v5A3.09,3.09,0,0,0,128.47,27.62Zm-3.68-10.16c.6.73,1.2,1.48,1.78,2.25l-.83.56c-.52-.78-1.08-1.54-1.66-2.29Zm6.61,5.78.74-.47c.88,1.16,1.66,2.27,2.34,3.34l-.84.57c-.18-.29-.35-.59-.54-.89-2.22.14-3.81.28-4.77.4a5.84,5.84,0,0,0-.83.2l-.43-.84a3,3,0,0,0,.76-.75A26.18,26.18,0,0,0,129.4,22h-2.5v-.89h8V22h-4.42c-.67,1.24-1.33,2.33-2,3.27l4-.26Q132,24.11,131.4,23.24Zm-3.71-5.16h6.56V19h-6.56Z"/><path d="M135.49,24.4a14.39,14.39,0,0,0,3.31-4.18l.82.5a20.54,20.54,0,0,1-1.28,2v6.21h-1v-5a17,17,0,0,1-1.47,1.47A9.06,9.06,0,0,0,135.49,24.4Zm.06-3.72a11.91,11.91,0,0,0,3-3.35l.84.52A16.31,16.31,0,0,1,136,21.59C135.88,21.29,135.72,21,135.55,20.68Zm4.18,1.09h7.42v.88h-2.27v4.59a1.29,1.29,0,0,1-1.47,1.45h-2c0-.32-.11-.67-.18-1.06.61.06,1.23.1,1.84.1a.71.71,0,0,0,.81-.8V22.65h-4.15Zm.68-3.53h6.09v.87h-6.09Z"/><path d="M32.22,120.41l3.06.07,3.82-.12-.33.93H35l-2.87-.05a3.1,3.1,0,0,1-2.8-1.36,18.48,18.48,0,0,0-1.41,1.57l-.48-1,1.5-1.43v-4H27.53v-.86h2.3v5A2.65,2.65,0,0,0,32.22,120.41ZM28.89,110.3c.4.48.94,1.22,1.64,2.21l-.83.59c-.64-1-1.15-1.76-1.56-2.3Zm2.66,3.92.56-.61c.78.63,1.72,1.4,2.83,2.33a10.72,10.72,0,0,0,1.8-3l.89.42a12.58,12.58,0,0,1-2,3.21l2.79,2.37-.73.78L35,117.24a11.92,11.92,0,0,1-3.78,2.52c-.15-.23-.34-.49-.57-.79a11.38,11.38,0,0,0,3.65-2.36C33.16,115.59,32.24,114.8,31.55,114.22Zm-.66-2.3h7.92v.82H30.89Zm2.84-1.52.81-.39c.24.36.52.84.85,1.44l-.84.43C34.25,111.3,34,110.81,33.73,110.4Z"/><path d="M39.52,116.12l1.12-.16v-4.61h.86v4.48l1.42-.22v-5.44h.85v2.23h2v.79h-2v2.29l2.08-.35c0,.3,0,.59,0,.85q-3.27.52-6.17,1.06Zm.31,4.07H50.77V121H39.83ZM41,117.87h8.39v.81H41Zm5.31-7.72h.85v2.91A16.58,16.58,0,0,0,50,111.22l.63.66a19.91,19.91,0,0,1-3.42,2.06v1.24a1,1,0,0,0,.13.57.9.9,0,0,0,.7.21h1a.83.83,0,0,0,.94-.66,11.72,11.72,0,0,0,.19-1.47c.29.11.58.22.87.31-.06.45-.13.92-.22,1.41a1.47,1.47,0,0,1-1.67,1.17H47.92a1.78,1.78,0,0,1-1.25-.33,1.44,1.44,0,0,1-.34-1.13Z"/><path d="M51.52,111.66h3.24v-1.55h.94v1.55h3.14v-1.55h.94v1.55H63v.85H59.78v1.32h-.94v-1.32H55.7v1.3h-.94v-1.3H51.52Zm.58,2.9h9.68c-.07,1.64-.15,2.89-.23,3.77-.09,1.14-.76,1.72-2,1.72-.74,0-1.35,0-1.82-.07a8.11,8.11,0,0,0-.19-1,11.88,11.88,0,0,0,1.9.16,1.05,1.05,0,0,0,1.2-1.1c.07-.59.13-1.45.18-2.6H56.1v6.2h-1v-6.2h-3Z"/><path d="M65.85,119a23.32,23.32,0,0,1-1.57,2.52l-.81-.58A21.09,21.09,0,0,0,65,118.55Zm-.88-5.3h3.68V110h1v1.41h5.23v.84H69.64v1.43h4.14v4.48h-1v-.5H65.93v.5H65Zm7.85.84H65.93v2.3h6.89Zm-5,3.94a19,19,0,0,1,.93,2.5l-.94.33c-.25-.86-.52-1.7-.84-2.52Zm2.8-.08c.37.77.71,1.58,1,2.42l-.93.37a22.22,22.22,0,0,0-1-2.46Zm2.85,0A25.14,25.14,0,0,1,75,121l-.9.48q-.59-1.2-1.41-2.61Z"/><path d="M75.46,115.77a19,19,0,0,0,2.44-5.68l.86.25a29.23,29.23,0,0,1-1.05,2.93v8.37h-.83V115a17.77,17.77,0,0,1-1.07,1.71C75.69,116.38,75.58,116.07,75.46,115.77Zm4.08,2,.78-.44a5.84,5.84,0,0,0,1.36,1.57,4.55,4.55,0,0,0,.58-1.95H79.2v-3.23h3.16v-1.16H78.61v-.79h3.75v-1.59h.9v1.59h3.79v.79H83.26v1.16h3.16v3.73h-.89v-.5H83.16a5.87,5.87,0,0,1-.7,2.46h0a10.55,10.55,0,0,0,4.7,1.24c-.23.34-.45.66-.64,1a11.19,11.19,0,0,1-4.68-1.52,9.18,9.18,0,0,1-3,1.62c-.18-.25-.38-.51-.61-.79a8.75,8.75,0,0,0,2.86-1.38A6.86,6.86,0,0,1,79.54,117.72Zm2.79-1.61q0-.56,0-1.65H80.09v1.65Zm.9,0h2.3v-1.65H83.26Q83.26,114.91,83.23,116.11Z"/><path d="M93.07,121.43V117.7H89.66a7.48,7.48,0,0,1-1.42,4q-.3-.39-.69-.81a6.3,6.3,0,0,0,1-2.39,18.43,18.43,0,0,0,.26-3.59v-4.18h9.55v9.31c0,.93-.44,1.4-1.32,1.4-.54,0-1.15,0-1.82,0,0-.25-.1-.58-.17-1,.68,0,1.23.07,1.65.07s.73-.23.73-.69V117.7H94v3.73Zm-3.34-4.57h3.34v-2.19H89.78A19.67,19.67,0,0,1,89.73,116.86Zm0-5.21v2.18h3.29v-2.18Zm7.68,0H94v2.18h3.45ZM94,116.86h3.45v-2.19H94Z"/><path d="M99.42,117.41a12.53,12.53,0,0,0,1.79-4.19h-1.7v-.8h1.78v-2.3h.82v2.3h1.59v.8h-1.59v2.07l.5-.53c.5.43.94.85,1.33,1.25l-.63.64q-.56-.65-1.2-1.29v6.19h-.82V115.2a11.7,11.7,0,0,1-1.48,3.24C99.7,118.11,99.57,117.76,99.42,117.41Zm5.36-1.23.88.35c-.64,1.43-1.28,2.7-1.91,3.81a6.32,6.32,0,0,0-.86-.41A27.09,27.09,0,0,0,104.78,116.18Zm-1.09-1.93H111v.82h-3.23V120c0,1-.45,1.46-1.35,1.46-.42,0-.94,0-1.56,0,0-.28-.09-.61-.16-1a13.42,13.42,0,0,0,1.47.09c.47,0,.71-.29.71-.87v-4.6h-3.19Zm.54-3.44h6.23v.82h-6.23Zm4.31,5.77.83-.4c.75,1.42,1.36,2.67,1.85,3.74l-.93.41C109.78,119.12,109.2,117.87,108.54,116.58Z"/><path d="M112.28,110.7c.65.75,1.3,1.56,2,2.4q-.09.06-.81.69c-.59-.82-1.22-1.65-1.9-2.5Zm1,4.81a5.71,5.71,0,0,0,.89.4q-.83,2.43-1.64,4.84l-1-.43A49.92,49.92,0,0,0,113.31,115.51Zm.62-.64a16.88,16.88,0,0,0,2.73-4.82l.87.31c-.25.59-.52,1.17-.8,1.72h6.17v.81h-2.85v1.74h2.53v.81h-2.53v1.75h2.55V118h-2.55v1.91h3v.78h-6.58v.94h-.91v-7.45c-.31.5-.63,1-1,1.4A3.66,3.66,0,0,0,113.93,114.87Zm2.54-.24h2.66v-1.74h-2.66Zm0,2.56h2.66v-1.75h-2.66Zm0,2.72h2.66V118h-2.66Zm2.16-9.45.76-.48c.31.38.65.85,1,1.41l-.81.54C119.26,111.36,118.93,110.88,118.63,110.46Z"/><path d="M127.9,111.11a30.14,30.14,0,0,1,1.85,2.66l-.81.54c-.15-.27-.31-.55-.48-.83-1.91.14-3.44.27-4.59.38l-.38-1a4,4,0,0,0,1.14-1.06,20,20,0,0,0,1.27-1.89l.92.34a30.69,30.69,0,0,1-2,2.66c1.17-.07,2.24-.15,3.19-.22-.24-.37-.5-.76-.79-1.15Zm-2.84,10.37h-.91v-6.92h4.76v5.55q0,1.26-1.17,1.26h-1.33c0-.24-.1-.54-.17-.89.49,0,.88.06,1.18.06s.57-.2.57-.6v-1h-2.93Zm2.93-6.17h-2.93v1.13H128Zm-2.93,3H128v-1.14h-2.93Zm5-2.45H131v1.93a24.36,24.36,0,0,0,3.48-1.63l.53.81a35.39,35.39,0,0,1-4,1.79v1c0,.5.19.74.57.74h1.73a.63.63,0,0,0,.69-.57c.05-.35.1-.86.14-1.54.29.12.6.23.91.33a15.12,15.12,0,0,1-.2,1.56c-.1.69-.59,1-1.46,1h-2a1.2,1.2,0,0,1-1.34-1.37Zm0-5.72H131v2a26,26,0,0,0,3.2-1.54l.53.81c-1.22.62-2.46,1.18-3.73,1.69v.68c0,.52.21.78.62.78h1.49c.49,0,.77-.2.83-.61a12,12,0,0,0,.14-1.46l.92.34c-.06.62-.13,1.13-.2,1.52-.12.68-.65,1-1.58,1h-1.71a1.25,1.25,0,0,1-1.42-1.41Z"/><path d="M28,127.66c.61.44,1.3,1,2.07,1.57-.28.33-.5.59-.67.77-.75-.67-1.41-1.22-2-1.67Zm.81,3.27a3.31,3.31,0,0,0,.83.4c-.32,1.33-.68,2.85-1.07,4.56l-.91-.3C28.15,134,28.53,132.43,28.84,130.93Zm-.3-6.28c.61.46,1.25,1,1.91,1.58-.28.27-.51.51-.71.72q-1-1-1.8-1.65Zm4.24,2.79H34.3c.17-.44.34-.9.5-1.38h-3v3.37q0,4.6-1.8,6.6a7.47,7.47,0,0,0-.68-.73Q31,133.5,31,129.44v-4.18H39.1v.8H35.81q-.33.7-.66,1.38h3.09v4.81H37.4v-.31H35.89v2.75A1.1,1.1,0,0,1,34.67,136h-1c0-.24-.1-.51-.17-.81.39,0,.73.05,1,.05s.54-.19.54-.57v-2.67H33.62v.31h-.84ZM31.71,135a12.62,12.62,0,0,0,1.77-2.4l.75.46a18.77,18.77,0,0,1-1.83,2.48Zm5.69-6.8H33.62v1.09H37.4Zm-3.78,3H37.4v-1.12H33.62Zm5.45,3.74-.74.56a27.84,27.84,0,0,0-1.8-2.44l.68-.48C37.92,133.38,38.54,134.16,39.07,134.91Z"/><path d="M41.1,131.26l2.5-.32c0,.34-.06.61-.09.8l-3.48.48-.18-.85a9.48,9.48,0,0,0,1.84-2.43l-1.93.14-.23-.77a15.1,15.1,0,0,0,2-3.78l.95.33c-.68,1.28-1.32,2.41-1.92,3.38.65,0,1.16,0,1.55,0,.31-.55.64-1.18,1-1.88l.91.4A47.2,47.2,0,0,1,41.1,131.26Zm-1.48,2.65q1.71-.32,4.08-.84c0,.36-.05.65-.05.89-1.62.33-2.88.61-3.77.84Zm3.4,1.51v-.84h1.4v-9.39h5.67v9.39h1v.84ZM49.2,126H45.31v2.31H49.2Zm-3.89,5.43H49.2v-2.31H45.31Zm0,3.12H49.2v-2.31H45.31Z"/><path d="M58.22,124.64l-.28.34a12,12,0,0,0,5.19,3.83c-.24.35-.45.66-.62.94a15.85,15.85,0,0,1-1.8-1v.67H53.85v-.59c-.57.38-1.18.74-1.83,1.1-.15-.26-.35-.56-.58-.88a14.75,14.75,0,0,0,5.47-4.38Zm-5,6.23h8.16v5.21h-.93v-.79h-6.3v.81h-.93Zm7.23.86h-6.3v2.73h6.3Zm-3.12-6.07a14.43,14.43,0,0,1-3.13,2.89h6.27A14.61,14.61,0,0,1,57.32,125.66Z"/><path d="M68.45,134.72l3.44.07,3.23-.13c-.13.32-.26.63-.38.94l-3.49,0-3,0a3.37,3.37,0,0,1-2.8-1.36A12.07,12.07,0,0,0,64,135.76l-.51-1L65,133.43v-4h-1.5v-.86H66v5A3.1,3.1,0,0,0,68.45,134.72Zm-3.68-10.16c.6.72,1.2,1.47,1.78,2.25l-.83.56c-.52-.78-1.08-1.55-1.66-2.3Zm6.61,5.78.74-.47c.88,1.15,1.66,2.27,2.34,3.34l-.84.57-.54-.89c-2.22.14-3.81.27-4.77.4a4.74,4.74,0,0,0-.83.2l-.43-.85a3.19,3.19,0,0,0,.76-.75,24.36,24.36,0,0,0,1.57-2.8h-2.5v-.89h8v.89H70.49c-.68,1.25-1.33,2.34-2,3.27,1.19-.07,2.54-.15,4-.26C72.2,131.51,71.8,130.92,71.38,130.34Zm-3.71-5.16h6.56v.89H67.67Z"/><path d="M75.47,131.5a14.44,14.44,0,0,0,3.31-4.19l.82.51c-.41.69-.83,1.34-1.28,2V136h-1v-5a14.57,14.57,0,0,1-1.47,1.47A9.88,9.88,0,0,0,75.47,131.5Zm.06-3.72a12,12,0,0,0,3-3.35l.84.51A16.11,16.11,0,0,1,76,128.68C75.86,128.39,75.7,128.09,75.53,127.78Zm4.18,1.09h7.42v.88H84.86v4.58a1.29,1.29,0,0,1-1.47,1.45h-2q-.08-.47-.18-1.05c.61.06,1.23.09,1.84.09a.71.71,0,0,0,.81-.8v-4.26H79.71Zm.68-3.54h6.09v.88H80.39Z"/></svg>