<svg xmlns="http://www.w3.org/2000/svg" viewBox="0 0 380 263"><defs><style>.cls-1{fill:#fff;}.cls-2{opacity:0.65;}.cls-3{fill:#505050;}.cls-4,.cls-6,.cls-8{fill:none;}.cls-4{stroke:#3c3c41;}.cls-4,.cls-6{stroke-miterlimit:10;}.cls-5{fill:#3c3c41;}.cls-6{stroke:#e62323;}.cls-6,.cls-8{stroke-linecap:round;stroke-width:2px;}.cls-7{fill:#0078d4;}.cls-8{stroke:#0078d4;stroke-linejoin:round;stroke-dasharray:12 6;}.cls-9{fill:#ccc;opacity:0.5;isolation:isolate;}.cls-10{fill:#1e1e1e;}</style></defs><g id="source"><g id="Shapes"><rect class="cls-1" width="380" height="263"/><g class="cls-2"><path class="cls-3" d="M379.85.15v262.7H.15V.15h379.7M380,0H0V263H380Z"/></g><polyline class="cls-4" points="355.42 208 72.6 208 72.6 32.98"/><polygon class="cls-5" points="354.32 204.26 360.8 208 354.32 211.74 354.32 204.26"/><polygon class="cls-5" points="76.34 34.08 72.6 27.6 68.86 34.08 76.34 34.08"/><path class="cls-6" d="M73.8,80.74C89.07,67.55,124.72,68.28,146.45,76s41.7,22,63.41,29.73c46.76,16.75,97,8.52,139.94-16.53"/><path class="cls-7" d="M283.68,163.32h-.18a13.76,13.76,0,0,1-4.07-1.5c-1.74-.94-3.67-3-5.76-6.07a1,1,0,0,1,1.65-1.12c1.89,2.78,3.64,4.66,5.06,5.44a12.13,12.13,0,0,0,3.49,1.29,1,1,0,0,1,.8,1.17h0A1,1,0,0,1,283.68,163.32Zm5.89-.48a1,1,0,0,1-.32-1.94c2.74-.94,5.69-2.92,9.55-6.43a1,1,0,0,1,1.43,1.4l-.09.08c-4.07,3.7-7.23,5.81-10.24,6.84a1.26,1.26,0,0,1-.33.05Zm-204-5.15h0a51.39,51.39,0,0,1-12-2,1,1,0,1,1,.57-1.91h0a49.24,49.24,0,0,0,11.56,1.95,1,1,0,1,1-.09,2h-.05Zm6,0a1,1,0,1,1-.06-2,61.14,61.14,0,0,0,11.64-1.87,1,1,0,1,1,.65,1.89l-.15,0a63.35,63.35,0,0,1-12,1.94ZM109.16,154a1,1,0,0,1-.33-1.94h0a71.85,71.85,0,0,0,10.77-4.86,1,1,0,1,1,1,1.75,75.92,75.92,0,0,1-11.07,5A.92.92,0,0,1,109.16,154Zm194.65-1.91a1,1,0,0,1-.72-1.71h0c.71-.69,1.42-1.4,2.15-2.13,2.05-2,4.17-4.15,6.45-6.29a1,1,0,1,1,1.46,1.37l-.1.09c-2.25,2.12-4.36,4.22-6.39,6.25l-2.16,2.14a1,1,0,0,1-.7.27Zm-32.42-1a1,1,0,0,1-.87-.52,106.84,106.84,0,0,1-5.16-11,1,1,0,0,1,1.86-.74,103.93,103.93,0,0,0,5,10.76,1,1,0,0,1-.4,1.36h0a1,1,0,0,1-.43.05ZM125.22,146a1,1,0,0,1-.54-1.84,95.36,95.36,0,0,0,9.49-7.11,1,1,0,0,1,1.3,1.52,98.06,98.06,0,0,1-9.7,7.27A1,1,0,0,1,125.22,146Zm191.62-6.31a1,1,0,0,1-.76-.35,1,1,0,0,1,.11-1.41h0a87,87,0,0,1,9.7-7.28,1,1,0,0,1,1.08,1.69,85.21,85.21,0,0,0-9.48,7.11,1,1,0,0,1-.65.19Zm-177.55-4.88a1,1,0,0,1-.69-1.72h0c2.73-2.57,5.52-5.45,8.3-8.54a1,1,0,0,1,1.49,1.33c-2.81,3.14-5.65,6.06-8.42,8.67a1,1,0,0,1-.69.22Zm125-.24a1,1,0,0,1-.94-.67c-1.28-3.65-2.5-7.27-3.83-11.39a1,1,0,0,1,1.86-.74.65.65,0,0,1,0,.13c1.33,4.1,2.54,7.7,3.82,11.34a1,1,0,0,1-.61,1.27,1,1,0,0,1-.39,0Zm67.37-5.09a1,1,0,0,1-.46-1.89A62.21,62.21,0,0,1,342.42,123a1,1,0,0,1,1.24.67,1,1,0,0,1-.66,1.25h0a59.69,59.69,0,0,0-10.91,4.43,1.09,1.09,0,0,1-.47.08Zm16.92-5.91a1,1,0,1,1-.19-2l1.3-.23a1,1,0,1,1,.32,2l-1.25.23Zm-196.95-1.9a1,1,0,0,1-.77-1.64c2.16-2.57,4.34-5.31,6.68-8.37l.75-1a1,1,0,1,1,1.6,1.2l-.76,1c-2.36,3.09-4.56,5.85-6.74,8.44a1,1,0,0,1-.81.32Zm107-4.18a1,1,0,0,1-1-.69l-.49-1.57c-1-3.21-2-6.41-3.17-9.84a1,1,0,0,1,1.9-.63c1.13,3.44,2.15,6.65,3.17,9.86l.5,1.57a1,1,0,0,1-.65,1.26h0a.94.94,0,0,1-.29,0Zm-96-10.07a1,1,0,0,1-.81-1.58c2.36-3.34,4.61-6.73,6.72-9.91a1,1,0,0,1,1.67,1.1h0c-2.12,3.19-4.38,6.59-6.76,10a1,1,0,0,1-.89.33Zm90.46-7a1,1,0,0,1-.94-.68c-.74-2.15-1.54-4.4-2.41-6.81-.54-1.49-1.08-3-1.63-4.46a1,1,0,0,1,.66-1.25,1,1,0,0,1,1.21.55c.56,1.49,1.1,3,1.64,4.47.88,2.43,1.68,4.69,2.42,6.85a.9.9,0,0,1-1,1.26Zm-80.4-7.91a1,1,0,0,1-.56-.17,1,1,0,0,1-.27-1.39h0c2-2.94,4.31-6.42,6.84-9.9a1,1,0,0,1,1.62,1.18c-2.51,3.45-4.85,6.91-6.8,9.83a1,1,0,0,1-.9.38Zm74.16-9a1,1,0,0,1-.92-.62,69,69,0,0,0-5.34-10.54A1,1,0,0,1,240.9,71h0a1,1,0,0,1,1.38.31h0a72.11,72.11,0,0,1,5.5,10.84,1,1,0,0,1-.54,1.31h0a1,1,0,0,1-.46,0Zm-63.72-5.69a1,1,0,0,1-1-1,1,1,0,0,1,.22-.63c1.32-1.68,2.66-3.3,4-4.82s2.65-2.92,4.06-4.27a1,1,0,0,1,1.38,1.44c-1.36,1.31-2.68,2.7-3.92,4.14s-2.61,3.09-3.92,4.75a1,1,0,0,1-.88.34ZM237.92,68a1,1,0,0,1-.77-.36,34.63,34.63,0,0,0-8.8-7.56,1,1,0,1,1,1-1.72h0a36.3,36.3,0,0,1,9.33,8,1,1,0,0,1-.77,1.64Zm-42.34-3.07a1,1,0,0,1-.79-.39,1,1,0,0,1,.17-1.4,45.28,45.28,0,0,1,10.5-6.29,1,1,0,0,1,1.31.54h0a1,1,0,0,1-.55,1.3,43.39,43.39,0,0,0-10,6,1,1,0,0,1-.71.2Zm27.83-7.19a.81.81,0,0,1-.31,0,22,22,0,0,0-6.93-1.14h-.41a23.42,23.42,0,0,0-4,.43,1,1,0,0,1-.38-2,25.28,25.28,0,0,1,4.34-.47h.45a24.23,24.23,0,0,1,7.55,1.24,1,1,0,0,1-.31,2Z"/><line class="cls-4" x1="94.6" y1="142" x2="94.6" y2="94.58"/><polygon class="cls-5" points="98.34 95.68 94.6 89.2 90.86 95.68 98.34 95.68"/><line class="cls-4" x1="107.8" y1="137.6" x2="107.8" y2="90.18"/><polygon class="cls-5" points="111.54 91.28 107.8 84.8 104.06 91.28 111.54 91.28"/><line class="cls-4" x1="121" y1="128.8" x2="121" y2="90.18"/><polygon class="cls-5" points="124.74 91.28 121 84.8 117.26 91.28 124.74 91.28"/><line class="cls-4" x1="275" y1="146.4" x2="275" y2="129.78"/><polygon class="cls-5" points="278.74 130.88 275 124.4 271.26 130.88 278.74 130.88"/><line class="cls-4" x1="288.2" y1="150.8" x2="288.2" y2="125.38"/><polygon class="cls-5" points="291.94 126.48 288.2 120 284.46 126.48 291.94 126.48"/><line class="cls-4" x1="301.4" y1="146.4" x2="301.4" y2="120.98"/><polygon class="cls-5" points="305.14 122.08 301.4 115.6 297.66 122.08 305.14 122.08"/><line class="cls-4" x1="204.6" y1="67.2" x2="204.6" y2="88.22"/><polygon class="cls-5" points="200.86 87.12 204.6 93.6 208.34 87.12 200.86 87.12"/><line class="cls-4" x1="217.8" y1="71.6" x2="217.8" y2="92.62"/><polygon class="cls-5" points="214.06 91.52 217.8 98 221.54 91.52 214.06 91.52"/><line class="cls-4" x1="231" y1="76" x2="231" y2="101.42"/><polygon class="cls-5" points="227.26 100.32 231 106.8 234.74 100.32 227.26 100.32"/><line class="cls-8" x1="72.6" y1="227.9" x2="103.4" y2="227.9"/><line class="cls-6" x1="72.6" y1="245.5" x2="103.4" y2="245.5"/><path class="cls-5" d="M100,84H99V83h1Zm0-3H99V80h1Zm0-3H99V77h1Zm0-3H99V74h1Zm0-3H99V71h1Zm0-3H99V68h1Zm0-3H99V65h1Zm0-3H99V62h1Zm0-3H99V59h1Zm0-3H99V56h1Zm0-3H99V53h1Zm0-3H99V50h1Zm0-3H99V47h1Zm0-3H99V44h1Zm0-3H99V41h1Zm0-3H99V38h1Zm0-3H99V35h1Zm0-3H99V32h1Z"/><path class="cls-5" d="M224,66h-1V65h1Zm0-3h-1V62h1Zm0-3h-1V59h1Zm0-3h-1V56h1Zm0-3h-1V53h1Zm0-3h-1V50h1Zm0-3h-1V47h1Zm0-3h-1V44h1Zm0-3h-1V41h1Zm0-3h-1V38h1Zm0-3h-1V35h1Zm0-3h-1V32h1Z"/><rect class="cls-1" x="88.97" y="15.09" width="59.65" height="16.91"/><rect class="cls-9" x="88.97" y="15.09" width="59.65" height="16.91"/><rect class="cls-1" x="215.35" y="15.09" width="51.96" height="16.91"/><rect class="cls-9" x="215.35" y="15.09" width="51.96" height="16.91"/></g><g id="Text"><path class="cls-10" d="M20.49,43.61H18.32L17,41.45c-.1-.16-.19-.31-.28-.44a2.16,2.16,0,0,0-.27-.33.86.86,0,0,0-.29-.21.71.71,0,0,0-.32-.07h-.51v3.21h-1.9v-8.4h3c2,0,3.06.76,3.06,2.29a2.45,2.45,0,0,1-.13.81A2.27,2.27,0,0,1,19,39a2.71,2.71,0,0,1-.6.52,3.51,3.51,0,0,1-.77.33h0A1.24,1.24,0,0,1,18,40a2.5,2.5,0,0,1,.34.31c.11.12.21.24.31.37s.19.27.27.4Zm-5.15-7V39h.82a1.4,1.4,0,0,0,1-.35,1.19,1.19,0,0,0,.37-.89c0-.73-.44-1.1-1.32-1.1Z"/><path class="cls-10" d="M26.35,41.14H22.43c.06.87.61,1.31,1.65,1.31A3.23,3.23,0,0,0,25.82,42v1.34a4.6,4.6,0,0,1-2.16.44A3.12,3.12,0,0,1,21.4,43a3,3,0,0,1-.8-2.25,3.24,3.24,0,0,1,.86-2.37,2.91,2.91,0,0,1,2.14-.87,2.63,2.63,0,0,1,2,.78,3,3,0,0,1,.72,2.11ZM24.63,40c0-.85-.35-1.28-1-1.28a1,1,0,0,0-.78.36,1.73,1.73,0,0,0-.39.92Z"/><path class="cls-10" d="M27.2,43.46V42a4.38,4.38,0,0,0,.91.41,3.14,3.14,0,0,0,.86.13,1.89,1.89,0,0,0,.78-.13A.43.43,0,0,0,30,42a.39.39,0,0,0-.13-.3.94.94,0,0,0-.33-.2,3.29,3.29,0,0,0-.44-.16,1.26,1.26,0,0,1-.46-.16,3.6,3.6,0,0,1-.63-.29,1.6,1.6,0,0,1-.46-.36A1.52,1.52,0,0,1,27.3,40a1.75,1.75,0,0,1-.1-.64,1.66,1.66,0,0,1,.22-.87A1.85,1.85,0,0,1,28,37.9a2.43,2.43,0,0,1,.83-.34,4.2,4.2,0,0,1,1-.11,5.29,5.29,0,0,1,.8.06,5.58,5.58,0,0,1,.81.18v1.43a2.9,2.9,0,0,0-.75-.31,3,3,0,0,0-.79-.1h-.34a1.4,1.4,0,0,0-.29.09.58.58,0,0,0-.19.16.34.34,0,0,0-.07.22.43.43,0,0,0,.11.28.76.76,0,0,0,.27.2l.38.16.41.13a5.65,5.65,0,0,1,.67.29,2,2,0,0,1,.51.35,1.22,1.22,0,0,1,.33.48,1.84,1.84,0,0,1,.12.66,1.62,1.62,0,0,1-.24.91,1.81,1.81,0,0,1-.61.62,3.21,3.21,0,0,1-.89.34,4.79,4.79,0,0,1-1,.11A5.44,5.44,0,0,1,27.2,43.46Z"/><path class="cls-10" d="M35.77,43.76a3.2,3.2,0,0,1-2.36-.84,3.49,3.49,0,0,1,0-4.61,3.31,3.31,0,0,1,2.4-.84,3.19,3.19,0,0,1,2.35.84A3,3,0,0,1,39,40.53a3.13,3.13,0,0,1-.88,2.36A3.23,3.23,0,0,1,35.77,43.76Zm0-4.87a1.2,1.2,0,0,0-1,.45,2,2,0,0,0-.36,1.27c0,1.16.46,1.73,1.39,1.73s1.33-.59,1.33-1.77-.42-1.68-1.31-1.68Z"/><path class="cls-10" d="M45.94,43.61H44.1V42.7h0a2.08,2.08,0,0,1-1.84,1.06c-1.39,0-2.08-.84-2.08-2.52V37.61H42v3.46c0,.85.34,1.27,1,1.27a1,1,0,0,0,.8-.35,1.4,1.4,0,0,0,.3-.94V37.61h1.84Z"/><path class="cls-10" d="M51.38,39.28a1.63,1.63,0,0,0-.78-.18,1.13,1.13,0,0,0-.94.44,1.92,1.92,0,0,0-.34,1.21v2.86H47.47v-6h1.85v1.12h0a1.61,1.61,0,0,1,1.59-1.22,1.15,1.15,0,0,1,.45.07Z"/><path class="cls-10" d="M56.86,43.4a3.69,3.69,0,0,1-1.82.36,3,3,0,0,1-2.23-.84A2.9,2.9,0,0,1,52,40.76a3.18,3.18,0,0,1,.92-2.41,3.36,3.36,0,0,1,2.45-.88,3.13,3.13,0,0,1,1.54.28v1.57a2.16,2.16,0,0,0-1.3-.43,1.68,1.68,0,0,0-1.26.46,2,2,0,0,0,0,2.54,1.63,1.63,0,0,0,1.22.45,2.52,2.52,0,0,0,1.36-.43Z"/><path class="cls-10" d="M63.48,41.14H59.56c.07.87.62,1.31,1.65,1.31A3.21,3.21,0,0,0,63,42v1.34a4.6,4.6,0,0,1-2.16.44,2.77,2.77,0,0,1-3.05-2.47,3.15,3.15,0,0,1,0-.53,3.2,3.2,0,0,1,.87-2.37,2.89,2.89,0,0,1,2.13-.87,2.63,2.63,0,0,1,2,.78,3,3,0,0,1,.72,2.11ZM61.76,40c0-.85-.35-1.28-1-1.28a1,1,0,0,0-.77.36,1.74,1.74,0,0,0-.4.92Z"/><path class="cls-10" d="M331.69,220.22h-2.4v6.86h-1.9v-6.86H325v-1.54h6.68Z"/><path class="cls-10" d="M333.59,220.13a1.13,1.13,0,0,1-.77-.27,1,1,0,0,1-.3-.69.85.85,0,0,1,.3-.68,1.27,1.27,0,0,1,1.54,0,.93.93,0,0,1,.06,1.31l-.06.06A1.09,1.09,0,0,1,333.59,220.13Zm.91,7h-1.85v-6h1.85Z"/><path class="cls-10" d="M345.57,227.08h-1.85v-3.42c0-.87-.32-1.31-1-1.31a.88.88,0,0,0-.74.4,1.61,1.61,0,0,0-.29,1v3.35h-1.85v-3.45c0-.85-.32-1.28-.95-1.28a.89.89,0,0,0-.75.38,1.68,1.68,0,0,0-.29,1v3.33H336v-6h1.85V222h0a2.26,2.26,0,0,1,1.93-1.08,1.72,1.72,0,0,1,1.74,1.12,2.21,2.21,0,0,1,2-1.12c1.31,0,2,.8,2,2.41Z"/><path class="cls-10" d="M352.45,224.61h-3.91c.06.87.61,1.31,1.64,1.31a3.23,3.23,0,0,0,1.74-.47v1.33a4.47,4.47,0,0,1-2.16.45,2.82,2.82,0,0,1-3.06-2.54,3.53,3.53,0,0,1,0-.46,3.2,3.2,0,0,1,.87-2.37,2.89,2.89,0,0,1,2.13-.87,2.61,2.61,0,0,1,2,.78,3,3,0,0,1,.72,2.11Zm-1.72-1.14c0-.86-.34-1.29-1-1.29a1,1,0,0,0-.77.37,1.65,1.65,0,0,0-.39.92Z"/><path class="cls-10" d="M113.7,231.8v-8.4H116q4.44,0,4.44,4.09a4.16,4.16,0,0,1-1.23,3.13,4.56,4.56,0,0,1-3.3,1.18Zm1-7.51v6.62H116a3.51,3.51,0,0,0,2.57-.89,3.27,3.27,0,0,0,.92-2.5c0-2.16-1.14-3.23-3.43-3.23Z"/><path class="cls-10" d="M126.8,229h-4.24a2.25,2.25,0,0,0,.54,1.55,1.88,1.88,0,0,0,1.42.54,2.93,2.93,0,0,0,1.86-.67v.91a3.45,3.45,0,0,1-2.09.57,2.52,2.52,0,0,1-2-.82,3.36,3.36,0,0,1-.73-2.3,3.29,3.29,0,0,1,.8-2.28,2.54,2.54,0,0,1,2-.88,2.26,2.26,0,0,1,1.82.76,3.24,3.24,0,0,1,.65,2.12Zm-1-.81a2,2,0,0,0-.4-1.3,1.39,1.39,0,0,0-1.1-.46,1.56,1.56,0,0,0-1.15.48,2.2,2.2,0,0,0-.59,1.28Z"/><path class="cls-10" d="M136.77,231.8h-1v-3.45a2.58,2.58,0,0,0-.31-1.44,1.17,1.17,0,0,0-1-.44,1.3,1.3,0,0,0-1.05.56,2.18,2.18,0,0,0-.43,1.35v3.42h-1v-3.56c0-1.18-.46-1.77-1.37-1.77a1.25,1.25,0,0,0-1,.53,2.2,2.2,0,0,0-.41,1.38v3.42h-1v-6h1v.95h0a2,2,0,0,1,1.87-1.09,1.73,1.73,0,0,1,1.07.34,1.79,1.79,0,0,1,.63.9,2.12,2.12,0,0,1,2-1.24c1.32,0,2,.81,2,2.44Z"/><path class="cls-10" d="M142.81,231.8h-1v-.94h0a2.19,2.19,0,0,1-3,.77,2,2,0,0,1-.24-.16,1.66,1.66,0,0,1-.5-1.26c0-1.13.66-1.78,2-2l1.8-.25c0-1-.42-1.53-1.24-1.53a2.93,2.93,0,0,0-2,.74v-1a3.8,3.8,0,0,1,2-.56c1.41,0,2.12.75,2.12,2.24Zm-1-3-1.45.2a2.57,2.57,0,0,0-1,.33,1,1,0,0,0-.34.85.9.9,0,0,0,.32.71,1.15,1.15,0,0,0,.83.28,1.54,1.54,0,0,0,1.18-.5,1.81,1.81,0,0,0,.47-1.27Z"/><path class="cls-10" d="M149.53,231.8h-1v-3.42c0-1.28-.47-1.91-1.4-1.91A1.48,1.48,0,0,0,146,227a2,2,0,0,0-.47,1.37v3.42h-1v-6h1v1h0a2.16,2.16,0,0,1,2-1.14,1.86,1.86,0,0,1,1.51.63,2.89,2.89,0,0,1,.52,1.84Z"/><path class="cls-10" d="M156.46,231.8h-1v-1h0A2.22,2.22,0,0,1,153.4,232a2.28,2.28,0,0,1-1.81-.81,3.26,3.26,0,0,1-.67-2.19,3.58,3.58,0,0,1,.75-2.38,2.45,2.45,0,0,1,2-.9,1.92,1.92,0,0,1,1.79,1h0V223h1Zm-1-2.71v-.89A1.74,1.74,0,0,0,155,227a1.78,1.78,0,0,0-2.52.05l-.08.09a2.77,2.77,0,0,0-.51,1.78,2.53,2.53,0,0,0,.49,1.64,1.58,1.58,0,0,0,1.29.6,1.66,1.66,0,0,0,1.31-.58,2.14,2.14,0,0,0,.52-1.49Z"/><path class="cls-10" d="M113.31,248.46V247.3a2.51,2.51,0,0,0,.48.32,4.12,4.12,0,0,0,.58.23,3.3,3.3,0,0,0,.62.15,2.76,2.76,0,0,0,.57.06,2.32,2.32,0,0,0,1.36-.34,1.15,1.15,0,0,0,.45-1,1.2,1.2,0,0,0-.15-.59,1.81,1.81,0,0,0-.41-.46,5.16,5.16,0,0,0-.63-.4l-.77-.4c-.3-.15-.57-.3-.82-.45a3.3,3.3,0,0,1-.67-.51,2.26,2.26,0,0,1-.44-.62,2.15,2.15,0,0,1,.09-1.82,2.21,2.21,0,0,1,.66-.7,3.28,3.28,0,0,1,.94-.41,4.29,4.29,0,0,1,1.07-.13,4,4,0,0,1,1.81.3v1.1a3.31,3.31,0,0,0-1.91-.51,3.49,3.49,0,0,0-.65.06,2,2,0,0,0-.57.22,1.42,1.42,0,0,0-.41.4,1,1,0,0,0-.16.58,1.2,1.2,0,0,0,.12.56,1.36,1.36,0,0,0,.36.43,3.47,3.47,0,0,0,.57.37c.22.12.48.26.77.4s.59.31.86.47a3.7,3.7,0,0,1,.71.54,2.28,2.28,0,0,1,.48.67,1.83,1.83,0,0,1,.18.83,2.17,2.17,0,0,1-.24,1,1.85,1.85,0,0,1-.66.7,2.78,2.78,0,0,1-1,.39,5.45,5.45,0,0,1-1.14.12h-.49a4.17,4.17,0,0,1-.6-.1l-.57-.15A1.66,1.66,0,0,1,113.31,248.46Z"/><path class="cls-10" d="M124.66,248.8h-1v-1h0a2,2,0,0,1-1.85,1.09c-1.43,0-2.14-.85-2.14-2.55V242.8h1v3.43c0,1.27.49,1.9,1.46,1.9a1.45,1.45,0,0,0,1.15-.52,1.9,1.9,0,0,0,.46-1.35V242.8h1Z"/><path class="cls-10" d="M127.46,247.93h0v3.63h-1V242.8h1v1h0a2.26,2.26,0,0,1,2.07-1.19,2.17,2.17,0,0,1,1.81.8,3.35,3.35,0,0,1,.65,2.16,3.69,3.69,0,0,1-.73,2.42,2.45,2.45,0,0,1-2,.9A2,2,0,0,1,127.46,247.93Zm0-2.42v.84a1.78,1.78,0,0,0,.48,1.26,1.72,1.72,0,0,0,2.43,0l.16-.18a3,3,0,0,0,.5-1.85,2.44,2.44,0,0,0-.46-1.57,1.54,1.54,0,0,0-1.26-.57,1.67,1.67,0,0,0-1.34.58,2.15,2.15,0,0,0-.53,1.46Z"/><path class="cls-10" d="M134.46,247.93h0v3.63h-1V242.8h1v1h0a2.26,2.26,0,0,1,2.07-1.19,2.17,2.17,0,0,1,1.81.8,3.3,3.3,0,0,1,.66,2.16,3.76,3.76,0,0,1-.74,2.42,2.45,2.45,0,0,1-2,.9A2,2,0,0,1,134.46,247.93Zm0-2.42v.84a1.78,1.78,0,0,0,.48,1.26,1.55,1.55,0,0,0,1.23.52,1.6,1.6,0,0,0,1.37-.67,3,3,0,0,0,.49-1.85,2.44,2.44,0,0,0-.46-1.57,1.54,1.54,0,0,0-1.26-.57,1.68,1.68,0,0,0-1.34.58,2.15,2.15,0,0,0-.53,1.46Z"/><path class="cls-10" d="M141.45,248.8h-1v-8.88h1Z"/><path class="cls-10" d="M148.2,242.8l-2.76,7q-.74,1.86-2.07,1.86a2.26,2.26,0,0,1-.63-.07v-.86a1.85,1.85,0,0,0,.57.1,1.17,1.17,0,0,0,1.09-.87l.48-1.13-2.34-6h1.06l1.63,4.62a2.12,2.12,0,0,0,.12.45h0a2.31,2.31,0,0,1,.12-.44l1.71-4.63Z"/><path class="cls-10" d="M95.7,27.6V19.2H98q4.44,0,4.44,4.09a4.16,4.16,0,0,1-1.23,3.13,4.56,4.56,0,0,1-3.3,1.18Zm1-7.51v6.62H98a3.51,3.51,0,0,0,2.57-.89,3.27,3.27,0,0,0,.92-2.5c0-2.16-1.14-3.23-3.43-3.23Z"/><path class="cls-10" d="M106.48,27.74a2.77,2.77,0,0,1-2.12-.84,3.1,3.1,0,0,1-.8-2.23,3.24,3.24,0,0,1,.83-2.36,3,3,0,0,1,2.23-.85,2.67,2.67,0,0,1,2.1.83,3.29,3.29,0,0,1,.75,2.29,3.24,3.24,0,0,1-.81,2.3A2.86,2.86,0,0,1,106.48,27.74Zm.07-5.47a1.8,1.8,0,0,0-1.46.63,2.6,2.6,0,0,0-.54,1.74,2.48,2.48,0,0,0,.54,1.68,1.88,1.88,0,0,0,1.46.61,1.78,1.78,0,0,0,1.43-.6,2.6,2.6,0,0,0,.5-1.72,2.61,2.61,0,0,0-.5-1.73A1.73,1.73,0,0,0,106.55,22.27Z"/><path class="cls-10" d="M122.81,27.6h-1V24.15a2.58,2.58,0,0,0-.31-1.44,1.17,1.17,0,0,0-1-.44,1.3,1.3,0,0,0-1,.56,2.18,2.18,0,0,0-.43,1.35V27.6h-1V24c0-1.18-.45-1.77-1.36-1.77a1.27,1.27,0,0,0-1,.53,2.2,2.2,0,0,0-.41,1.38V27.6h-1v-6h1v.95h0a2,2,0,0,1,1.86-1.09,1.73,1.73,0,0,1,1.7,1.24,2.12,2.12,0,0,1,2-1.24c1.32,0,2,.81,2,2.44Z"/><path class="cls-10" d="M127.11,27.74A2.78,2.78,0,0,1,125,26.9a3.1,3.1,0,0,1-.8-2.23,3.24,3.24,0,0,1,.83-2.36,3,3,0,0,1,2.23-.85,2.67,2.67,0,0,1,2.1.83,3.29,3.29,0,0,1,.75,2.29,3.24,3.24,0,0,1-.81,2.3A2.85,2.85,0,0,1,127.11,27.74Zm.07-5.47a1.85,1.85,0,0,0-1.46.63,2.6,2.6,0,0,0-.54,1.74,2.48,2.48,0,0,0,.54,1.68,1.88,1.88,0,0,0,1.46.61,1.78,1.78,0,0,0,1.44-.6,2.66,2.66,0,0,0,.5-1.72,2.67,2.67,0,0,0-.5-1.73A1.76,1.76,0,0,0,127.18,22.27Z"/><path class="cls-10" d="M134.71,22.57a1.18,1.18,0,0,0-.73-.19,1.2,1.2,0,0,0-1,.58,2.67,2.67,0,0,0-.42,1.58V27.6h-1v-6h1v1.24h0a2,2,0,0,1,.62-1,1.44,1.44,0,0,1,.95-.36,1.39,1.39,0,0,1,.57.09Z"/><path class="cls-10" d="M140.59,24.84h-4.24a2.29,2.29,0,0,0,.54,1.55,1.88,1.88,0,0,0,1.42.54,2.87,2.87,0,0,0,1.86-.67v.91a3.45,3.45,0,0,1-2.09.57,2.52,2.52,0,0,1-2-.82,3.35,3.35,0,0,1-.72-2.3,3.28,3.28,0,0,1,.79-2.28,2.54,2.54,0,0,1,2-.88,2.24,2.24,0,0,1,1.82.76,3.24,3.24,0,0,1,.65,2.12Zm-1-.81a1.9,1.9,0,0,0-.4-1.3,1.39,1.39,0,0,0-1.1-.46,1.56,1.56,0,0,0-1.15.48,2.2,2.2,0,0,0-.59,1.28Z"/><path class="cls-10" d="M221.48,27.6V19.2h2.32q4.44,0,4.44,4.09A4.13,4.13,0,0,1,227,26.42a4.56,4.56,0,0,1-3.3,1.18Zm1-7.51v6.62h1.25a3.55,3.55,0,0,0,2.58-.89,3.31,3.31,0,0,0,.92-2.5c0-2.16-1.15-3.23-3.44-3.23Z"/><path class="cls-10" d="M232.26,27.74a2.79,2.79,0,0,1-2.13-.84,3.1,3.1,0,0,1-.79-2.23,3.26,3.26,0,0,1,.82-2.36,3,3,0,0,1,2.24-.85,2.65,2.65,0,0,1,2.09.83,3.29,3.29,0,0,1,.75,2.29,3.24,3.24,0,0,1-.81,2.3A2.86,2.86,0,0,1,232.26,27.74Zm.07-5.47a1.84,1.84,0,0,0-1.47.63,2.6,2.6,0,0,0-.54,1.74,2.39,2.39,0,0,0,.55,1.68,1.84,1.84,0,0,0,1.46.61,1.78,1.78,0,0,0,1.43-.6,2.66,2.66,0,0,0,.5-1.72,2.67,2.67,0,0,0-.5-1.73A1.73,1.73,0,0,0,232.33,22.27Z"/><path class="cls-10" d="M241,27.6h-1V18.72h1Z"/><path class="cls-10" d="M247.76,24.84h-4.24a2.29,2.29,0,0,0,.54,1.55,1.88,1.88,0,0,0,1.42.54,2.93,2.93,0,0,0,1.86-.67v.91a3.45,3.45,0,0,1-2.09.57,2.52,2.52,0,0,1-2-.82,3.36,3.36,0,0,1-.73-2.3,3.29,3.29,0,0,1,.8-2.28,2.54,2.54,0,0,1,2-.88,2.26,2.26,0,0,1,1.82.76,3.24,3.24,0,0,1,.65,2.12Zm-1-.81a2,2,0,0,0-.4-1.3,1.39,1.39,0,0,0-1.1-.46,1.56,1.56,0,0,0-1.15.48,2.2,2.2,0,0,0-.59,1.28Z"/><path class="cls-10" d="M248.83,27.38v-1a2.84,2.84,0,0,0,1.73.58c.84,0,1.27-.28,1.27-.84a.84.84,0,0,0-.11-.41.92.92,0,0,0-.3-.29,1.82,1.82,0,0,0-.43-.24l-.54-.21c-.26-.11-.49-.21-.7-.32a2.54,2.54,0,0,1-.5-.36,1.41,1.41,0,0,1-.3-.46,1.57,1.57,0,0,1-.11-.61,1.47,1.47,0,0,1,.2-.74,1.78,1.78,0,0,1,.51-.55,2.58,2.58,0,0,1,.74-.33,3.59,3.59,0,0,1,2.24.16v1a2.71,2.71,0,0,0-1.52-.43,2,2,0,0,0-.49.06,1.56,1.56,0,0,0-.37.17.88.88,0,0,0-.24.27.81.81,0,0,0-.08.34.88.88,0,0,0,.08.39,1,1,0,0,0,.25.29,1.94,1.94,0,0,0,.4.22l.53.22a5.78,5.78,0,0,1,.72.31,3.17,3.17,0,0,1,.54.36,1.45,1.45,0,0,1,.34.47,1.49,1.49,0,0,1,.12.62,1.44,1.44,0,0,1-.2.78,1.68,1.68,0,0,1-.52.54,2.58,2.58,0,0,1-.76.33,3.8,3.8,0,0,1-.89.1A3.36,3.36,0,0,1,248.83,27.38Z"/><path class="cls-10" d="M253.92,27.38v-1a2.86,2.86,0,0,0,1.73.58c.85,0,1.27-.28,1.27-.84a.84.84,0,0,0-.11-.41,1,1,0,0,0-.29-.29,1.88,1.88,0,0,0-.44-.24l-.53-.21a6.29,6.29,0,0,1-.7-.32,2.34,2.34,0,0,1-.51-.36,1.41,1.41,0,0,1-.3-.46,1.57,1.57,0,0,1-.11-.61,1.47,1.47,0,0,1,.2-.74,1.78,1.78,0,0,1,.51-.55,2.58,2.58,0,0,1,.74-.33,3.48,3.48,0,0,1,.85-.11,3.36,3.36,0,0,1,1.4.27v1a2.77,2.77,0,0,0-1.53-.43,2,2,0,0,0-.48.06,1.43,1.43,0,0,0-.38.17.88.88,0,0,0-.24.27.81.81,0,0,0-.08.34.88.88,0,0,0,.08.39,1,1,0,0,0,.25.29,2.24,2.24,0,0,0,.4.22l.53.22a5.78,5.78,0,0,1,.72.31,3.17,3.17,0,0,1,.54.36,1.45,1.45,0,0,1,.34.47,1.49,1.49,0,0,1,.12.62,1.53,1.53,0,0,1-.19.78,1.71,1.71,0,0,1-.53.54,2.58,2.58,0,0,1-.76.33,3.8,3.8,0,0,1-.89.1A3.36,3.36,0,0,1,253.92,27.38Z"/></g></g><g id="cleaned"><g id="Shapes-2" data-name="Shapes"><rect class="cls-1" width="380" height="263"/><g class="cls-2"><path class="cls-3" d="M379.85.15v262.7H.15V.15h379.7M380,0H0V263H380Z"/></g><polyline class="cls-4" points="355.42 208 72.6 208 72.6 32.98"/><polygon class="cls-5" points="354.32 204.26 360.8 208 354.32 211.74 354.32 204.26"/><polygon class="cls-5" points="76.34 34.08 72.6 27.6 68.86 34.08 76.34 34.08"/><path class="cls-6" d="M73.8,80.74C89.07,67.55,124.72,68.28,146.45,76s41.7,22,63.41,29.73c46.76,16.75,97,8.52,139.94-16.53"/><path class="cls-7" d="M283.68,163.32h-.18a13.76,13.76,0,0,1-4.07-1.5c-1.74-.94-3.67-3-5.76-6.07a1,1,0,0,1,1.65-1.12c1.89,2.78,3.64,4.66,5.06,5.44a12.13,12.13,0,0,0,3.49,1.29,1,1,0,0,1,.8,1.17h0A1,1,0,0,1,283.68,163.32Zm5.89-.48a1,1,0,0,1-.32-1.94c2.74-.94,5.69-2.92,9.55-6.43a1,1,0,0,1,1.43,1.4l-.09.08c-4.07,3.7-7.23,5.81-10.24,6.84a1.26,1.26,0,0,1-.33.05Zm-204-5.15h0a51.39,51.39,0,0,1-12-2,1,1,0,1,1,.57-1.91h0a49.24,49.24,0,0,0,11.56,1.95,1,1,0,1,1-.09,2h-.05Zm6,0a1,1,0,1,1-.06-2,61.14,61.14,0,0,0,11.64-1.87,1,1,0,1,1,.65,1.89l-.15,0a63.35,63.35,0,0,1-12,1.94ZM109.16,154a1,1,0,0,1-.33-1.94h0a71.85,71.85,0,0,0,10.77-4.86,1,1,0,1,1,1,1.75,75.92,75.92,0,0,1-11.07,5A.92.92,0,0,1,109.16,154Zm194.65-1.91a1,1,0,0,1-.72-1.71h0c.71-.69,1.42-1.4,2.15-2.13,2.05-2,4.17-4.15,6.45-6.29a1,1,0,1,1,1.46,1.37l-.1.09c-2.25,2.12-4.36,4.22-6.39,6.25l-2.16,2.14a1,1,0,0,1-.7.27Zm-32.42-1a1,1,0,0,1-.87-.52,106.84,106.84,0,0,1-5.16-11,1,1,0,0,1,1.86-.74,103.93,103.93,0,0,0,5,10.76,1,1,0,0,1-.4,1.36h0a1,1,0,0,1-.43.05ZM125.22,146a1,1,0,0,1-.54-1.84,95.36,95.36,0,0,0,9.49-7.11,1,1,0,0,1,1.3,1.52,98.06,98.06,0,0,1-9.7,7.27A1,1,0,0,1,125.22,146Zm191.62-6.31a1,1,0,0,1-.76-.35,1,1,0,0,1,.11-1.41h0a87,87,0,0,1,9.7-7.28,1,1,0,0,1,1.08,1.69,85.21,85.21,0,0,0-9.48,7.11,1,1,0,0,1-.65.19Zm-177.55-4.88a1,1,0,0,1-.69-1.72h0c2.73-2.57,5.52-5.45,8.3-8.54a1,1,0,0,1,1.49,1.33c-2.81,3.14-5.65,6.06-8.42,8.67a1,1,0,0,1-.69.22Zm125-.24a1,1,0,0,1-.94-.67c-1.28-3.65-2.5-7.27-3.83-11.39a1,1,0,0,1,1.86-.74.65.65,0,0,1,0,.13c1.33,4.1,2.54,7.7,3.82,11.34a1,1,0,0,1-.61,1.27,1,1,0,0,1-.39,0Zm67.37-5.09a1,1,0,0,1-.46-1.89A62.21,62.21,0,0,1,342.42,123a1,1,0,0,1,1.24.67,1,1,0,0,1-.66,1.25h0a59.69,59.69,0,0,0-10.91,4.43,1.09,1.09,0,0,1-.47.08Zm16.92-5.91a1,1,0,1,1-.19-2l1.3-.23a1,1,0,1,1,.32,2l-1.25.23Zm-196.95-1.9a1,1,0,0,1-.77-1.64c2.16-2.57,4.34-5.31,6.68-8.37l.75-1a1,1,0,1,1,1.6,1.2l-.76,1c-2.36,3.09-4.56,5.85-6.74,8.44a1,1,0,0,1-.81.32Zm107-4.18a1,1,0,0,1-1-.69l-.49-1.57c-1-3.21-2-6.41-3.17-9.84a1,1,0,0,1,1.9-.63c1.13,3.44,2.15,6.65,3.17,9.86l.5,1.57a1,1,0,0,1-.65,1.26h0a.94.94,0,0,1-.29,0Zm-96-10.07a1,1,0,0,1-.81-1.58c2.36-3.34,4.61-6.73,6.72-9.91a1,1,0,0,1,1.67,1.1h0c-2.12,3.19-4.38,6.59-6.76,10a1,1,0,0,1-.89.33Zm90.46-7a1,1,0,0,1-.94-.68c-.74-2.15-1.54-4.4-2.41-6.81-.54-1.49-1.08-3-1.63-4.46a1,1,0,0,1,.66-1.25,1,1,0,0,1,1.21.55c.56,1.49,1.1,3,1.64,4.47.88,2.43,1.68,4.69,2.42,6.85a.9.9,0,0,1-1,1.26Zm-80.4-7.91a1,1,0,0,1-.56-.17,1,1,0,0,1-.27-1.39h0c2-2.94,4.31-6.42,6.84-9.9a1,1,0,0,1,1.62,1.18c-2.51,3.45-4.85,6.91-6.8,9.83a1,1,0,0,1-.9.38Zm74.16-9a1,1,0,0,1-.92-.62,69,69,0,0,0-5.34-10.54A1,1,0,0,1,240.9,71h0a1,1,0,0,1,1.38.31h0a72.11,72.11,0,0,1,5.5,10.84,1,1,0,0,1-.54,1.31h0a1,1,0,0,1-.46,0Zm-63.72-5.69a1,1,0,0,1-1-1,1,1,0,0,1,.22-.63c1.32-1.68,2.66-3.3,4-4.82s2.65-2.92,4.06-4.27a1,1,0,0,1,1.38,1.44c-1.36,1.31-2.68,2.7-3.92,4.14s-2.61,3.09-3.92,4.75a1,1,0,0,1-.88.34ZM237.92,68a1,1,0,0,1-.77-.36,34.63,34.63,0,0,0-8.8-7.56,1,1,0,1,1,1-1.72h0a36.3,36.3,0,0,1,9.33,8,1,1,0,0,1-.77,1.64Zm-42.34-3.07a1,1,0,0,1-.79-.39,1,1,0,0,1,.17-1.4,45.28,45.28,0,0,1,10.5-6.29,1,1,0,0,1,1.31.54h0a1,1,0,0,1-.55,1.3,43.39,43.39,0,0,0-10,6,1,1,0,0,1-.71.2Zm27.83-7.19a.81.81,0,0,1-.31,0,22,22,0,0,0-6.93-1.14h-.41a23.42,23.42,0,0,0-4,.43,1,1,0,0,1-.38-2,25.28,25.28,0,0,1,4.34-.47h.45a24.23,24.23,0,0,1,7.55,1.24,1,1,0,0,1-.31,2Z"/><line class="cls-4" x1="94.6" y1="142" x2="94.6" y2="94.58"/><polygon class="cls-5" points="98.34 95.68 94.6 89.2 90.86 95.68 98.34 95.68"/><line class="cls-4" x1="107.8" y1="137.6" x2="107.8" y2="90.18"/><polygon class="cls-5" points="111.54 91.28 107.8 84.8 104.06 91.28 111.54 91.28"/><line class="cls-4" x1="121" y1="128.8" x2="121" y2="90.18"/><polygon class="cls-5" points="124.74 91.28 121 84.8 117.26 91.28 124.74 91.28"/><line class="cls-4" x1="275" y1="146.4" x2="275" y2="129.78"/><polygon class="cls-5" points="278.74 130.88 275 124.4 271.26 130.88 278.74 130.88"/><line class="cls-4" x1="288.2" y1="150.8" x2="288.2" y2="125.38"/><polygon class="cls-5" points="291.94 126.48 288.2 120 284.46 126.48 291.94 126.48"/><line class="cls-4" x1="301.4" y1="146.4" x2="301.4" y2="120.98"/><polygon class="cls-5" points="305.14 122.08 301.4 115.6 297.66 122.08 305.14 122.08"/><line class="cls-4" x1="204.6" y1="67.2" x2="204.6" y2="88.22"/><polygon class="cls-5" points="200.86 87.12 204.6 93.6 208.34 87.12 200.86 87.12"/><line class="cls-4" x1="217.8" y1="71.6" x2="217.8" y2="92.62"/><polygon class="cls-5" points="214.06 91.52 217.8 98 221.54 91.52 214.06 91.52"/><line class="cls-4" x1="231" y1="76" x2="231" y2="101.42"/><polygon class="cls-5" points="227.26 100.32 231 106.8 234.74 100.32 227.26 100.32"/><line class="cls-8" x1="72.6" y1="227.9" x2="103.4" y2="227.9"/><line class="cls-6" x1="72.6" y1="245.5" x2="103.4" y2="245.5"/><path class="cls-5" d="M100,84H99V83h1Zm0-3H99V80h1Zm0-3H99V77h1Zm0-3H99V74h1Zm0-3H99V71h1Zm0-3H99V68h1Zm0-3H99V65h1Zm0-3H99V62h1Zm0-3H99V59h1Zm0-3H99V56h1Zm0-3H99V53h1Zm0-3H99V50h1Zm0-3H99V47h1Zm0-3H99V44h1Zm0-3H99V41h1Zm0-3H99V38h1Zm0-3H99V35h1Zm0-3H99V32h1Z"/><path class="cls-5" d="M224,66h-1V65h1Zm0-3h-1V62h1Zm0-3h-1V59h1Zm0-3h-1V56h1Zm0-3h-1V53h1Zm0-3h-1V50h1Zm0-3h-1V47h1Zm0-3h-1V44h1Zm0-3h-1V41h1Zm0-3h-1V38h1Zm0-3h-1V35h1Zm0-3h-1V32h1Z"/><rect class="cls-1" x="88.97" y="15.09" width="82.72" height="16.91"/><rect class="cls-9" x="88.97" y="15.09" width="82.72" height="16.91"/><rect class="cls-1" x="215.35" y="15.09" width="80.7" height="16.91"/><rect class="cls-9" x="215.35" y="15.09" width="80.7" height="16.91"/></g></g><g id="Layer_3" data-name="Layer 3"><path d="M37.3,39.28l-.69-1.58c1-.53,1.86-1.05,2.67-1.57L40,37.59C38.88,38.24,38,38.8,37.3,39.28ZM41.74,41h1.71a5.93,5.93,0,0,1-.33,1.29q1.93.51,4.85,1.41l-.79,1.51c-1-.39-2.66-.95-4.83-1.66q-1.16,1.34-4.89,1.67c-.19-.44-.46-1-.8-1.6A12.2,12.2,0,0,0,40.25,43,2.18,2.18,0,0,0,41.74,41Zm-4.9-6.19,1-1.2q1.23.8,1.86,1.29l-1,1.31A16,16,0,0,0,36.84,34.82Zm11.1-.43v1.12l-.79,1.43-1.23-.46.38-.76H44.57c0,.13-.06.26-.1.38a4.75,4.75,0,0,0,3.78,1.77c-.28.57-.5,1.05-.68,1.45a4.93,4.93,0,0,1-3.69-1.9,4.56,4.56,0,0,1-3.2,1.85h6.24v3.3H45.28v-1.9h-5.6v2H38V39.27h2.13L39.44,38c2.15-.28,3.35-1,3.61-2.32H41.74A9.66,9.66,0,0,1,40.85,37c-.34-.23-.77-.5-1.3-.79a8,8,0,0,0,1.63-2.61l1.61.11-.32.7Z"/><path d="M49.54,36.74c.6.43,1.21.92,1.86,1.47l-1.06,1.27c-.57-.56-1.16-1.1-1.76-1.63Zm.36,3.35a11.67,11.67,0,0,0,1.44.56l-1.06,4.42a11.07,11.07,0,0,0-1.55-.48A42,42,0,0,0,49.9,40.09Zm-.12-6.38q1.32,1,1.92,1.44l-1.09,1.19c-.55-.54-1.16-1.08-1.8-1.61Zm4.8,7.93,1.15.7c-.26.42-.55.85-.88,1.31a6.93,6.93,0,0,0,.79.06c.34-.05.52-.21.52-.48V41.38H54.09v-5h1.26a10,10,0,0,0,.37-1H53.43v3.53q0,4.41-1.3,6.33a8.91,8.91,0,0,0-1.32-1.13c.76-1.12,1.13-2.93,1.12-5.41V34.1h8.22v1.31H57.26c-.09.23-.25.57-.47,1h2.86v5h-2v2.21a1.77,1.77,0,0,1-.27,1,1.21,1.21,0,0,1-.85.45,8.29,8.29,0,0,1-1.5.06c-.07-.42-.16-.88-.29-1.37-.22.3-.46.62-.72.94l-1.09-.88A12.85,12.85,0,0,0,54.58,41.64Zm3.61-4H55.52v.73h2.67Zm0,2.56v-.75H55.52v.75Zm.68,1.41a23.09,23.09,0,0,1,1.47,2.19l-1.21.71c-.38-.71-.83-1.47-1.36-2.26Z"/><path d="M329.74,228.06V218h4.62v10h-1.55v-.81h-1.52v.88Zm3.07-8.56h-1.52v2.32h1.52Zm-1.52,6.14h1.52v-2.32h-1.52Zm4.44-4.27c.53.66,1.23,1.61,2.11,2.84l-1.42.92c-.71-1.18-1.35-2.16-1.91-2.95Zm-1-2.19h3.46v-2h1.68v2h1v1.56h-1v5.8a2.25,2.25,0,0,1-.44,1.49,1.64,1.64,0,0,1-1.22.53c-.51,0-1.28,0-2.3,0a13.81,13.81,0,0,0-.4-1.71l1.83.05c.57,0,.85-.3.85-.9v-5.29H334.7Z"/><path d="M341.64,218.65h1.63v10h-1.63Zm1.4-1,1.53-.54c.37.58.75,1.22,1.13,1.9l-1.63.62C343.72,218.88,343.38,218.22,343,217.64Zm1.31,2.42h5.24v6.16h-3.76v.65h-1.48Zm3.76,1.31h-2.28v1.11h2.28Zm0,3.54V223.8h-2.28v1.11Zm4.25,1.57a2.77,2.77,0,0,1-.29,1.36,1.39,1.39,0,0,1-.9.67,14.13,14.13,0,0,1-2.76.16A13.13,13.13,0,0,0,348,227c.5,0,1.14.05,1.91.05.52,0,.79-.23.79-.69v-7.28H346.1v-1.44h6.26Z"/><path d="M220.64,24.11c.55-.12,1.1-.26,1.66-.4V21h-1.55v-.84h1.55V17.86h.86v2.26h1.37V21h-1.37v2.52l1.28-.35c0,.34,0,.64.08.89l-1.36.38V28c0,.85-.34,1.27-1,1.27-.34,0-.75,0-1.23,0,0-.29-.08-.6-.15-.94a9.39,9.39,0,0,0,1,.08c.34,0,.52-.18.52-.55V24.65l-1.54.45Zm4-.57.55-.7,1,.66c.08-.7.14-1.53.16-2.49H225v-.89h1.41c0-.72,0-1.47,0-2.26h.92c0,.81,0,1.56,0,2.26h3.22c0,1.08,0,2.18,0,3.29a18,18,0,0,0,.27,4.33c0,.17.14.25.24.25s.19-.1.24-.3a18.61,18.61,0,0,0,.32-1.88,3.93,3.93,0,0,0,.86.34,16.71,16.71,0,0,1-.37,2c-.19.66-.54,1-1.06,1s-.9-.36-1.12-1.1a15.4,15.4,0,0,1-.26-3.65c0-1,0-2.14,0-3.33h-2.32a26.76,26.76,0,0,1-.22,3.06l1.81,1.25-.6.81-1.4-1a8.23,8.23,0,0,1-2.49,4.3,6.26,6.26,0,0,0-.7-.8,7.39,7.39,0,0,0,2.37-4.08Z"/><path d="M232.67,24.84a14.2,14.2,0,0,0,3.3-4.18l.82.5a18.77,18.77,0,0,1-1.28,1.95v6.21h-1v-5a18.44,18.44,0,0,1-1.46,1.47C233,25.46,232.82,25.15,232.67,24.84Zm.06-3.71a12,12,0,0,0,3-3.36l.84.52A16.36,16.36,0,0,1,233.19,22C233.05,21.73,232.9,21.43,232.73,21.13Zm4.18,1.09h7.42v.87h-2.28v4.59a1.28,1.28,0,0,1-1.46,1.45h-2c0-.31-.1-.67-.17-1.06a16.08,16.08,0,0,0,1.84.1.71.71,0,0,0,.81-.8V23.09h-4.15Zm.68-3.54h6.08v.88h-6.08Z"/><path d="M244.68,28.59a10.59,10.59,0,0,0,3.46-1.1,7.48,7.48,0,0,1-1.82-1.82l.61-.47H246V20.29h4.11c0-.33,0-.69,0-1.07H245.1V18.4h10.76v.82h-4.81v1.07h3.88v5.49H254V25.2h-3.28a4.58,4.58,0,0,1-1,2.14,19.38,19.38,0,0,0,6.55.85,9.38,9.38,0,0,0-.48.94A18.69,18.69,0,0,1,249,28a11.58,11.58,0,0,1-3.8,1.43C245.06,29.15,244.88,28.87,244.68,28.59Zm2.24-6.23h3.2c0-.38,0-.8,0-1.27h-3.21Zm3.18.78h-3.18v1.27H250A9.77,9.77,0,0,0,250.1,23.14ZM248.92,27a3.27,3.27,0,0,0,.93-1.75H247A5.86,5.86,0,0,0,248.92,27Zm2-2.54H254V23.14h-3C251,23.59,251,24,250.9,24.41ZM254,21.09h-3c0,.47,0,.9,0,1.27h3Z"/><path d="M265.83,23.27l.86.56a15.23,15.23,0,0,1-9.44,5.58,10.9,10.9,0,0,0-.58-.94Q262.76,27.29,265.83,23.27Zm-6.29-3.77,1,.37A38.9,38.9,0,0,1,257.73,25c-.24-.16-.53-.34-.88-.53A27.53,27.53,0,0,0,259.54,19.5ZM262,17.89h1v7.36h-1Zm2.28,1.91.74-.56c1.25,1.34,2.37,2.62,3.37,3.82l-.84.68Q265.86,21.66,264.24,19.8Z"/><path d="M268.64,24c.43-.13.91-.29,1.44-.49V20.87h-1.33v-.8h1.33V17.89H271v2.18h1.3v.8H271v2.34l1.1-.43c0,.38,0,.69,0,.92l-1.13.44V28a1,1,0,0,1-1.1,1.21q-.45,0-1.11,0c0-.32-.09-.63-.16-.94.44,0,.8.07,1.08.07s.42-.15.42-.45V24.48l-1.31.53Zm11.76,4.17c-.22.28-.41.55-.58.8a8.66,8.66,0,0,1-3.48-2.33v2.73h-.77V26.66A11.92,11.92,0,0,1,272,29a4.1,4.1,0,0,0-.54-.75,10.62,10.62,0,0,0,3.72-2.14h-3.22v-.72h3.66v-.72h.77v.72h3.82v.72h-3.44A8,8,0,0,0,280.4,28.19Zm-8-6.47h3.09v2.83h-.73v-.32h-1.64v.35h-.72Zm2.36.68h-1.64v1.15h1.64Zm-1.53-4h5.55v2.87H278V20.9h-3.87v.32h-.84Zm4.71.7h-3.87V20.2H278Zm-1.48,2.65h3.17v2.88h-.73v-.36H277.2v.33h-.73Zm2.44.68H277.2v1.16h1.71Z"/><path d="M280.61,23.66a20.47,20.47,0,0,0,2.61-5.8l1,.28c-.3.92-.62,1.79-1,2.59v8.61h-.91v-6.7a17.15,17.15,0,0,1-1.26,2C280.94,24.37,280.79,24,280.61,23.66Zm3.26-1.08a14.68,14.68,0,0,0,2.29-4.76l1,.18c-.18.6-.39,1.18-.62,1.74h5.78v.82H288v2.05h3.8v.82H288v2.14H292v.82H288v2.95h-.91V20.56h-1a17.76,17.76,0,0,1-1.55,2.69C284.39,23,284.14,22.81,283.87,22.58Z"/><path d="M94.76,24.26l1.66-.41V21.1H94.87v-.84h1.55V18h.86v2.26h1.37v.84H97.28v2.52l1.28-.35c0,.34,0,.64.08.89l-1.36.38v3.55c0,.85-.34,1.27-1,1.27-.34,0-.75,0-1.23,0,0-.29-.08-.6-.15-.94a10.44,10.44,0,0,0,1,.09c.34,0,.52-.19.52-.56V24.79l-1.54.45Zm4-.58.55-.7,1,.66c.08-.7.14-1.53.16-2.49H99.11v-.89h1.41c0-.72,0-1.47,0-2.26h.92c0,.81,0,1.56,0,2.26h3.22c0,1.08,0,2.18,0,3.29a18,18,0,0,0,.27,4.33c0,.17.14.25.25.25s.18-.1.23-.3a18.61,18.61,0,0,0,.32-1.88,3.93,3.93,0,0,0,.86.34,16.31,16.31,0,0,1-.37,1.95c-.19.66-.54,1-1.06,1s-.89-.37-1.12-1.11a15.4,15.4,0,0,1-.26-3.65c0-1,0-2.14,0-3.33h-2.32a26.76,26.76,0,0,1-.22,3.06L103,25.46l-.6.81-1.4-1a8.1,8.1,0,0,1-2.49,4.3,6.26,6.26,0,0,0-.7-.8,7.39,7.39,0,0,0,2.37-4.08Z"/><path d="M106.79,25a14.2,14.2,0,0,0,3.3-4.18l.82.5a20.5,20.5,0,0,1-1.27,1.95v6.21h-1v-5a16.9,16.9,0,0,1-1.46,1.47C107.07,25.6,106.94,25.29,106.79,25Zm.06-3.71a12,12,0,0,0,3-3.35l.84.51a16.36,16.36,0,0,1-3.38,3.74C107.17,21.87,107,21.57,106.85,21.27ZM111,22.36h7.42v.88h-2.28v4.58a1.28,1.28,0,0,1-1.46,1.45h-2c0-.31-.11-.67-.18-1.06a16.08,16.08,0,0,0,1.84.1.71.71,0,0,0,.81-.8V23.24H111Zm.68-3.54h6.08v.88h-6.08Z"/><path d="M118.8,28.73a10.59,10.59,0,0,0,3.46-1.1,7.48,7.48,0,0,1-1.82-1.82l.62-.47h-.91V20.43h4.11c0-.33,0-.69,0-1.07h-5v-.82H130v.82h-4.81v1.07h3.88v5.49h-.89v-.58h-3.28a4.58,4.58,0,0,1-1,2.14,19.38,19.38,0,0,0,6.55.85,9.38,9.38,0,0,0-.48.94,18.69,18.69,0,0,1-6.84-1.14,11.49,11.49,0,0,1-3.8,1.43C119.18,29.29,119,29,118.8,28.73ZM121,22.5h3.2c0-.38,0-.8,0-1.27H121Zm3.19.78H121v1.27h3.09C124.18,24.17,124.21,23.74,124.23,23.28ZM123,27.09a3.27,3.27,0,0,0,.93-1.75H121.1A5.86,5.86,0,0,0,123,27.09Zm2-2.54h3.14V23.28h-3C125.11,23.74,125.07,24.16,125,24.55Zm3.14-3.32h-3c0,.47,0,.9,0,1.27h3Z"/><path d="M135.8,18H137c-.4.43-.81.84-1.22,1.21h5.52V20a26.82,26.82,0,0,1-9.79,4.84A4.16,4.16,0,0,0,131,24a33.43,33.43,0,0,0,4.34-1.44c-.28-.32-.65-.7-1.11-1.15l.65-.52c.46.45.89.88,1.28,1.3A20.1,20.1,0,0,0,139.88,20h-5a18,18,0,0,1-2.89,2,6.85,6.85,0,0,0-.65-.73A18.56,18.56,0,0,0,135.8,18Zm1.77,4.71h1.16a14.73,14.73,0,0,1-1.11,1h4.27v.86a16.82,16.82,0,0,1-10.07,5.07,7.9,7.9,0,0,0-.53-.88,20,20,0,0,0,5.12-1.39,11.12,11.12,0,0,0-1-1.09l.7-.52c.4.42.76.83,1.09,1.23a12.79,12.79,0,0,0,3.39-2.46h-4A20.72,20.72,0,0,1,132.25,27c-.14-.22-.33-.49-.56-.79A21.2,21.2,0,0,0,137.57,22.68Z"/><path d="M142.76,24.16c.43-.13.91-.29,1.45-.48V21h-1.34v-.8h1.34V18h.86v2.18h1.3V21h-1.3v2.34c.35-.13.72-.27,1.1-.43,0,.38,0,.69,0,.92l-1.13.44v3.89c0,.78-.36,1.18-1.1,1.21q-.45,0-1.11,0c0-.32-.09-.63-.15-.94a9.46,9.46,0,0,0,1.07.07.39.39,0,0,0,.43-.45V24.62l-1.32.53Zm11.76,4.17c-.22.28-.41.55-.58.8a8.8,8.8,0,0,1-3.48-2.33v2.73h-.77V26.8a11.92,11.92,0,0,1-3.62,2.38,4.1,4.1,0,0,0-.54-.75,10.62,10.62,0,0,0,3.72-2.14H146v-.72h3.66v-.72h.77v.72h3.82v.72h-3.44A8.06,8.06,0,0,0,154.52,28.33Zm-8-6.47h3.09v2.83h-.73v-.32h-1.64v.35h-.72Zm2.36.68h-1.64v1.15h1.64Zm-1.53-4.05h5.55v2.87h-.84V21H148.2v.32h-.84Zm4.71.7H148.2v1.15h3.87Zm-1.48,2.65h3.17v2.88H153v-.36h-1.71v.33h-.73Zm2.44.68h-1.71v1.16H153Z"/><path d="M154.73,23.8a20.34,20.34,0,0,0,2.61-5.8l1,.28c-.3.92-.62,1.79-1,2.59v8.61h-.91v-6.7a17.15,17.15,0,0,1-1.26,2C155.06,24.51,154.91,24.17,154.73,23.8ZM158,22.72A14.68,14.68,0,0,0,160.28,18l1,.18c-.18.6-.39,1.18-.62,1.74h5.78v.82h-4.26v2.06h3.79v.82h-3.79v2.13h3.94v.82h-3.94v2.95h-.92V20.7h-.95a18.6,18.6,0,0,1-1.54,2.69C158.51,23.18,158.26,23,158,22.72Z"/><path d="M114.54,233.34h-.89V229.5h3.82l.19-.92h-5.12v-.72h11.54v.72h-5.51l-.24.92H123v2.62a1,1,0,0,1-1.16,1.16l-1.23,0a6.16,6.16,0,0,0-.16-.9c.46,0,.84.07,1.13.07s.53-.16.53-.47v-1.74h-2V233h-.84v-2.79h-1.94V233h-.83v-2.79h-2Zm-1.6-9.54h5v-.68h-4.36v-.72H123v.72h-4.28v.68h5V226h-.91v-1.45h-4v2.79h-.83v-2.79h-4V226h-.9Zm1.57,1.41h2.76v.63h-2.76Zm0,1.31h2.76v.63h-2.76Zm4.83-1.31h2.75v.63h-2.75Zm0,1.31h2.75v.63h-2.75Z"/><path d="M124.73,224h5.15v-2.13h1V224H136v.84h-5.12v.73a12.9,12.9,0,0,0,1.36,2.39,21.33,21.33,0,0,0,2.3-2.35l.83.69c-1,1-1.81,1.75-2.56,2.37a10.71,10.71,0,0,0,3.37,2.63,8.87,8.87,0,0,0-.71.91,11.92,11.92,0,0,1-4.59-4.73v4.3c0,1-.53,1.51-1.58,1.51l-1.56,0c0-.32-.11-.67-.19-1.05a14.2,14.2,0,0,0,1.51.11.75.75,0,0,0,.84-.86v-2.21c-1.85.94-3.45,1.8-4.82,2.58l-.5-1c1.63-.75,3.4-1.66,5.32-2.7v-3.33h-5.15Zm1.72,1.54c.63.62,1.27,1.31,1.91,2.08l-.8.65c-.55-.71-1.15-1.43-1.81-2.15Zm5.49-3,.56-.63a15.32,15.32,0,0,1,1.77,1.28l-.63.71C133.18,223.42,132.61,223,131.94,222.47Z"/><path d="M112.84,244.56a20.12,20.12,0,0,0,2.9-5.63l.93.33c-.4,1.05-.82,2-1.25,2.88v8.33h-.94v-6.63a15.86,15.86,0,0,1-1.24,1.78C113.13,245.3,113,244.94,112.84,244.56Zm6.75,2.92a25.89,25.89,0,0,1-2.88,3,5.74,5.74,0,0,0-.71-.68,13.73,13.73,0,0,0,2.78-2.89Zm2-8.45h1v2.58h1.68v.84h-1.68v3.24h2.09v.84h-8.52v-.84h2v-3.24h-1.51v-.84h1.51V239h1v2.57h2.53ZM119,245.69h2.53v-3.24H119Zm2,1.77.69-.59c1.23,1.14,2.2,2.09,2.89,2.86l-.77.71C123,249.5,122.07,248.5,121,247.46Z"/><path d="M130.36,239.26l.86-.45c.33.43.65.89,1,1.39l-.57.33h4.75v.89h-9.13v2.87c0,2.77-.57,4.83-1.71,6.2a7.69,7.69,0,0,0-.68-.81q1.41-1.56,1.41-5.36v-3.79h5C131,240.1,130.67,239.68,130.36,239.26Zm-3.2,9.65h5.42a55.08,55.08,0,0,0,1.94-6.4l1,.28q-1.09,3.87-1.94,6.12h2.89v.89h-9.33Zm.64-5.75.89-.31c.48,1.42.95,3,1.4,4.78l-1,.31C128.74,246.39,128.3,244.8,127.8,243.16Zm2.82-.59.9-.26A45.61,45.61,0,0,1,132.6,247l-1,.27A47.71,47.71,0,0,0,130.62,242.57Z"/></g></svg>