<svg xmlns="http://www.w3.org/2000/svg" viewBox="0 0 297.611 20"><path d="M167.883 18.422a5.069 5.069 0 0 1-1.667-3.9 5.476 5.476 0 0 1 2.65-4.613l1.22-.834c.03 0 .03-.03.089-.059a.461.461 0 0 1 .179-.118 5.779 5.779 0 0 1-1.845-3.84 4.035 4.035 0 0 1 1.22-3.035 4.533 4.533 0 0 1 3.214-1.16 4.552 4.552 0 0 1 3.155 1.13 3.766 3.766 0 0 1 1.25 2.888 3.761 3.761 0 0 1-.684 2.172 10.676 10.676 0 0 1-2.411 2.322l3.333 4.018.12-.12c.356-.387.714-.774 1.012-1.16.327-.387.625-.744.922-1.131l1.815 1.875a11.091 11.091 0 0 1-.892 1.1c-.357.417-.8.922-1.31 1.458l3.422 4.226h-3.482l-1.845-2.262a7.367 7.367 0 0 1-5.3 2.619 5.949 5.949 0 0 1-4.165-1.576zm3.988-7.352a15.046 15.046 0 0 0-2.352 1.905 2.273 2.273 0 0 0-.625 1.517 2.967 2.967 0 0 0 .922 2.114 2.969 2.969 0 0 0 2.114.922c1.071 0 2.322-.714 3.719-2.112l-3.631-4.464zm-.239-7.44a1.4 1.4 0 0 0-.505 1.131 2.5 2.5 0 0 0 .654 1.607l.685.833c.03.059.089.12.148.208l.239-.179c.387-.3.714-.566.981-.774a2.232 2.232 0 0 0 .536-.564 1.693 1.693 0 0 0 .357-1.1 1.572 1.572 0 0 0-.507-1.191 1.888 1.888 0 0 0-1.309-.446 1.8 1.8 0 0 0-1.279.476zM2.8 17.232A9.054 9.054 0 0 1 0 10.507a9.442 9.442 0 0 1 2.352-6.31A9.3 9.3 0 0 1 9.792.804a9.515 9.515 0 0 1 4.821 1.34v3.3a7.765 7.765 0 0 0-5-2.024 6.417 6.417 0 0 0-4.821 2.053 6.97 6.97 0 0 0-1.965 5 6.762 6.762 0 0 0 1.965 4.911 6.473 6.473 0 0 0 4.821 1.994 5.765 5.765 0 0 0 2.5-.477 6.847 6.847 0 0 0 1.191-.654 14.819 14.819 0 0 0 1.309-.982v3.363A9.913 9.913 0 0 1 9.584 20 9.326 9.326 0 0 1 2.8 17.232zm128.032 1.31a6.59 6.59 0 0 1-1.934-4.018l2.827-.626a4.6 4.6 0 0 0 .684 2.263 2.9 2.9 0 0 0 2.53 1.191 2.986 2.986 0 0 0 2.173-.864 3.058 3.058 0 0 0 .863-2.2 3.382 3.382 0 0 0-.149-.982 2.621 2.621 0 0 0-.476-.833 4.16 4.16 0 0 0-.833-.714 10.935 10.935 0 0 0-1.19-.625l-1.786-.744c-2.53-1.071-3.809-2.648-3.809-4.7a4.405 4.405 0 0 1 1.607-3.483 5.724 5.724 0 0 1 3.959-1.428 5.629 5.629 0 0 1 5 3.125l-2.263 1.338a3.58 3.58 0 0 0-1.22-1.428 2.72 2.72 0 0 0-1.548-.387 2.818 2.818 0 0 0-1.934.656 2.1 2.1 0 0 0-.774 1.637c0 .892.684 1.637 2.024 2.172l1.845.744a7.681 7.681 0 0 1 3.3 2.232 5.083 5.083 0 0 1 1.041 3.214 5.67 5.67 0 0 1-1.7 4.226 5.76 5.76 0 0 1-4.256 1.668 5.7 5.7 0 0 1-3.984-1.434zm153.21 1.16V1.161h2.8v7.262h7.976V1.161h2.8v18.511h-2.8v-8.631h-7.976v8.66zm-62.826 0l-6.666-8.244-.566.566V19.7h-2.8V1.161h2.8v7.381l7.2-7.381h3.721l-8.363 8.393 8.422 10.148zm-196.661 0V1.161h2.8v7.262h7.976V1.161h2.8v18.511h-2.8v-8.631h-7.976v8.66zm244.041-.03V3.78h-4.256V1.161h11.309V3.78h-4.256v15.892zm-15.446 0V1.161h2.8v18.511zm-19.79 0V1.161h10.208V3.78h-7.44v4.464h7.2v2.619h-7.2v6.191h7.44v2.619zm-123.3 0V1.161h10.208V3.78h-7.44v4.464h7.2v2.619h-7.2v6.191h7.44v2.619zm-16.815 0V1.161h2.8v15.892h5.446v2.619zm-12.083 0l-5.3-7.589h-.507v7.589h-2.8V1.161h3.275c2.44 0 4.226.446 5.3 1.369a5.072 5.072 0 0 1 1.786 4.047 5.359 5.359 0 0 1-1.131 3.393 4.857 4.857 0 0 1-2.945 1.815l5.743 7.886zm-5.8-10h.894c2.648 0 3.959-1.012 3.959-3.035 0-1.9-1.281-2.857-3.87-2.857h-.982zm-14.077 10l-1.934-4.493h-7.917l-2.053 4.493h-3.006L55.505 0l8.838 19.672zm-8.69-7.112h5.625l-2.738-6.31z"/></svg>
